<?xml version="1.0" encoding="UTF-8" standalone="no"?>
<!-- Generator: Adobe Illustrator 25.2.1, SVG Export Plug-In . SVG Version: 6.00 Build 0) -->

<svg
   version="1.1"
   id="Layer_1"
   x="0px"
   y="0px"
   viewBox="0 0 1250 299.99999"
   xml:space="preserve"
   sodipodi:docname="cpac_logo.svg"
   inkscape:version="1.2.2 (1:1.2.2+202212051552+b0a8486541)"
   width="1250"
   height="300"
   xmlns:inkscape="http://www.inkscape.org/namespaces/inkscape"
   xmlns:sodipodi="http://sodipodi.sourceforge.net/DTD/sodipodi-0.dtd"
   xmlns="http://www.w3.org/2000/svg"
   xmlns:svg="http://www.w3.org/2000/svg"><defs
   id="defs57">                             <style
   id="style3276">.cls-1{fill:#0067a0;}.cls-2{fill:#00c1d4;}</style></defs><sodipodi:namedview
   id="namedview55"
   pagecolor="#ffffff"
   bordercolor="#000000"
   borderopacity="0.25"
   inkscape:showpageshadow="2"
   inkscape:pageopacity="0.0"
   inkscape:pagecheckerboard="0"
   inkscape:deskcolor="#d1d1d1"
   showgrid="false"
   inkscape:zoom="0.45479795"
   inkscape:cx="494.72518"
   inkscape:cy="472.7374"
   inkscape:window-width="1920"
   inkscape:window-height="1043"
   inkscape:window-x="0"
   inkscape:window-y="0"
   inkscape:window-maximized="1"
   inkscape:current-layer="Layer_1" /> <style
   type="text/css"
   id="style2"> .st0{fill:#0067A0;} .st1{fill:#00C1D4;} </style>  <g
   aria-label="C-PAC"
   id="text2042"
   style="font-size:109.333px;font-family:Poppins;-inkscape-font-specification:Poppins;fill:#0067a0"><path
     d="m 918.8797,190.67188 q -18.14928,0 -27.98925,-10.9333 -9.83997,-10.9333 -9.83997,-29.62924 0,-18.47728 10.16797,-29.62925 10.2773,-11.15196 27.87991,-11.15196 14.65062,0 23.72526,7.54397 9.07464,7.43465 10.6053,20.33594 l -18.69594,3.27999 q -0.87466,-7.76264 -5.02932,-12.02663 -4.15465,-4.26399 -11.04263,-4.26399 -8.74664,0 -13.77596,6.99732 -4.91998,6.88798 -4.91998,18.80527 0,11.69863 5.02932,18.69595 5.13865,6.99731 14.21329,6.99731 6.45064,0 10.6053,-4.15466 4.15465,-4.26398 5.35731,-11.80796 l 18.69595,4.04532 q -2.84266,12.5733 -11.9173,19.78927 -8.96531,7.10665 -23.06926,7.10665 z"
     style="font-weight:bold;font-family:'GT America';-inkscape-font-specification:'GT America Bold'"
     id="path348" /><path
     d="m 962.94079,150.984 h 35.75189 l -2.51466,14.86929 H 960.3168 Z"
     style="font-weight:bold;font-family:'GT America';-inkscape-font-specification:'GT America Bold'"
     id="path350" /><path
     d="m 1044.1751,111.18679 q 12.6826,0 20.2266,6.66931 7.6533,6.66931 7.6533,17.71195 0,11.58929 -7.6533,18.36794 -7.544,6.66931 -20.6639,6.66931 h -15.5253 v 28.20792 h -18.4773 v -77.62643 z m -4.4827,36.51722 q 6.1227,0 9.512,-3.06132 3.4987,-3.06133 3.4987,-8.52798 0,-5.46665 -3.3894,-8.52797 -3.3893,-3.06133 -9.6213,-3.06133 h -11.4799 v 23.1786 z"
     style="font-weight:bold;font-family:'GT America';-inkscape-font-specification:'GT America Bold'"
     id="path352" /><path
     d="m 1124.8628,188.81322 -5.904,-18.14928 h -28.6452 l -5.904,18.14928 h -18.4773 l 28.2079,-77.62643 h 21.1013 l 28.2079,77.62643 z m -30.2853,-31.15991 h 20.1173 l -7.1066,-21.64793 q -2.0774,-6.55998 -2.8427,-10.9333 h -0.2186 q -0.7654,4.37332 -2.8427,10.9333 z"
     style="font-weight:bold;font-family:'GT America';-inkscape-font-specification:'GT America Bold'"
     id="path354" /><path
     d="m 1182.2623,190.67188 q -18.1493,0 -27.9893,-10.9333 -9.8399,-10.9333 -9.8399,-29.62924 0,-18.47728 10.1679,-29.62925 10.2773,-11.15196 27.88,-11.15196 14.6506,0 23.7252,7.54397 9.0747,7.43465 10.6053,20.33594 l -18.6959,3.27999 q -0.8747,-7.76264 -5.0293,-12.02663 -4.1547,-4.26399 -11.0427,-4.26399 -8.7466,0 -13.7759,6.99732 -4.92,6.88798 -4.92,18.80527 0,11.69863 5.0293,18.69595 5.1387,6.99731 14.2133,6.99731 6.4506,0 10.6053,-4.15466 4.1546,-4.26398 5.3573,-11.80796 l 18.696,4.04532 q -2.8427,12.5733 -11.9173,19.78927 -8.9653,7.10665 -23.0693,7.10665 z"
     style="font-weight:bold;font-family:'GT America';-inkscape-font-specification:'GT America Bold'"
     id="path356" /></g><g
   id="g3392"
   transform="matrix(2.1212536,0,0,2.1212536,-51.338507,-63.790656)"><path
     class="cls-1"
     d="m 224.18,104.58 v -2.92 a 0.75,0.75 0 0 0 -0.75,-0.74 h -4.32 v -5.67 a 0.74,0.74 0 0 0 -0.74,-0.75 h -3.92 a 0.75,0.75 0 0 0 -0.75,0.75 v 5.67 h -2.26 a 0.74,0.74 0 0 0 -0.75,0.74 v 2.92 a 0.75,0.75 0 0 0 0.75,0.75 h 2.13 v 9.34 0 1.52 c 0,6.37 5.81,6.86 8.86,6.86 0.39,0 0.76,0 1.07,-0.06 a 0.74,0.74 0 0 0 0.68,-0.74 v -4.18 c 0,0 -0.4,0 -0.83,0 -1.85,0 -4.23,-0.49 -4.24,-2.93 v -9.85 h 4.32 a 0.76,0.76 0 0 0 0.75,-0.71 z"
     id="path3280" /><path
     class="cls-1"
     d="m 252.38,104.58 v -2.92 a 0.74,0.74 0 0 0 -0.75,-0.74 h -4.31 v -5.67 a 0.75,0.75 0 0 0 -0.75,-0.75 h -3.92 a 0.75,0.75 0 0 0 -0.75,0.75 v 5.67 h -2.26 a 0.75,0.75 0 0 0 -0.75,0.74 v 2.92 a 0.76,0.76 0 0 0 0.75,0.75 h 2.13 v 9.34 0 1.52 c 0,6.37 5.81,6.86 8.86,6.86 0.39,0 0.77,0 1.07,-0.06 a 0.74,0.74 0 0 0 0.68,-0.74 v -4.18 c 0,0 -0.39,0 -0.83,0 -1.84,0 -4.23,-0.49 -4.23,-2.93 v -9.85 h 4.31 a 0.75,0.75 0 0 0 0.75,-0.71 z"
     id="path3282" /><path
     class="cls-1"
     d="m 155.79,91.84 h 4.14 a 0.75,0.75 0 0 1 0.75,0.74 v 29.5 a 0.76,0.76 0 0 1 -0.75,0.75 h -4.14 a 0.75,0.75 0 0 1 -0.74,-0.75 v -29.5 a 0.74,0.74 0 0 1 0.74,-0.74 z"
     id="path3284" /><path
     class="cls-1"
     d="m 167.31,100.57 h 3.84 a 0.74,0.74 0 0 1 0.74,0.74 v 1.83 a 15.09,15.09 0 0 1 -0.08,1.53 h 0.08 a 8.64,8.64 0 0 1 7.9,-4.63 c 4.93,0 7.73,2.58 7.73,8.47 v 13.57 a 0.76,0.76 0 0 1 -0.75,0.75 h -4 a 0.75,0.75 0 0 1 -0.74,-0.75 v -12.43 c 0,-2.71 -0.7,-4.54 -3.54,-4.54 a 6.14,6.14 0 0 0 -6,4.54 9.5,9.5 0 0 0 -0.39,3 v 9.47 a 0.75,0.75 0 0 1 -0.75,0.75 h -4.05 a 0.75,0.75 0 0 1 -0.74,-0.75 v -20.81 a 0.74,0.74 0 0 1 0.75,-0.74 z"
     id="path3286" /><path
     class="cls-1"
     d="m 193.08,116.9 a 0.74,0.74 0 0 1 1.07,-0.19 9.19,9.19 0 0 0 5.46,1.93 c 1.57,0 2.92,-0.7 2.92,-2 0,-3.32 -10.82,-2.88 -10.82,-10 0,-4.15 3.71,-6.55 8.51,-6.55 a 11.41,11.41 0 0 1 7,2.13 0.75,0.75 0 0 1 0.2,0.93 l -1.42,2.73 a 0.74,0.74 0 0 1 -1.07,0.29 8.69,8.69 0 0 0 -4.78,-1.41 c -1.44,0 -2.84,0.61 -2.84,2 0,3.14 10.82,2.75 10.82,9.9 0,3.71 -3.23,6.68 -8.51,6.68 a 12.75,12.75 0 0 1 -8.15,-2.83 0.73,0.73 0 0 1 -0.14,-1 z"
     id="path3288" /><path
     class="cls-1"
     d="m 229.69,91.84 h 4 a 0.74,0.74 0 0 1 0.74,0.74 V 96 a 0.74,0.74 0 0 1 -0.74,0.75 h -4 A 0.75,0.75 0 0 1 228.94,96 v -3.42 a 0.75,0.75 0 0 1 0.75,-0.74 z m 0,8.73 h 4.05 a 0.74,0.74 0 0 1 0.74,0.74 v 20.77 a 0.75,0.75 0 0 1 -0.74,0.75 h -4.05 a 0.76,0.76 0 0 1 -0.75,-0.75 v -20.77 a 0.75,0.75 0 0 1 0.75,-0.74 z"
     id="path3290" /><path
     class="cls-1"
     d="m 257.4,100.57 h 4.06 a 0.74,0.74 0 0 1 0.74,0.74 v 12.44 c 0,2.71 0.7,4.54 3.45,4.54 4,0 6.24,-3.54 6.24,-7.51 v -9.47 a 0.75,0.75 0 0 1 0.75,-0.74 h 4.05 a 0.74,0.74 0 0 1 0.74,0.74 v 20.77 a 0.75,0.75 0 0 1 -0.74,0.75 h -3.83 a 0.75,0.75 0 0 1 -0.75,-0.75 v -1.78 a 13.8,13.8 0 0 1 0.09,-1.58 h -0.09 a 8.57,8.57 0 0 1 -7.73,4.63 c -4.75,0 -7.72,-2.4 -7.72,-8.47 v -13.57 a 0.74,0.74 0 0 1 0.74,-0.74 z"
     id="path3292" /><path
     class="cls-1"
     d="m 308,100 c 6.41,0 9.86,4.67 9.86,10.57 0,0.36 0,1 -0.07,1.45 a 0.74,0.74 0 0 1 -0.75,0.68 h -14.35 a 0.31,0.31 0 0 0 -0.31,0.36 6.33,6.33 0 0 0 6.63,5.54 10.65,10.65 0 0 0 5.76,-2 0.75,0.75 0 0 1 1.07,0.26 l 1.44,2.67 a 0.75,0.75 0 0 1 -0.2,0.95 14.2,14.2 0 0 1 -8.46,2.78 c -7.37,0 -12,-5.32 -12,-11.65 C 296.66,104.84 301.33,100 308,100 Z m 3.94,8.91 a 0.33,0.33 0 0 0 0.32,-0.34 4.25,4.25 0 0 0 -4.39,-4.29 5.13,5.13 0 0 0 -5.25,4.24 0.32,0.32 0 0 0 0.31,0.39 z"
     id="path3294" /><path
     class="cls-1"
     d="m 294.43,104.58 v -2.92 a 0.74,0.74 0 0 0 -0.74,-0.74 h -4.32 v -5.67 a 0.74,0.74 0 0 0 -0.75,-0.75 h -3.92 a 0.74,0.74 0 0 0 -0.74,0.75 v 5.67 h -2.27 a 0.74,0.74 0 0 0 -0.74,0.74 v 2.92 a 0.75,0.75 0 0 0 0.74,0.75 h 2.14 v 9.34 0 1.52 c 0,6.37 5.8,6.86 8.86,6.86 0.39,0 0.76,0 1.06,-0.06 a 0.73,0.73 0 0 0 0.68,-0.74 v -4.18 c 0,0 -0.39,0 -0.83,0 -1.84,0 -4.23,-0.49 -4.23,-2.93 v -9.85 h 4.32 a 0.75,0.75 0 0 0 0.74,-0.71 z"
     id="path3296" /><path
     class="cls-1"
     d="m 165.24,49.43 a 16.6,16.6 0 0 1 11,3.81 0.72,0.72 0 0 1 0.13,0.93 l -2,3 a 0.71,0.71 0 0 1 -1,0.18 13.54,13.54 0 0 0 -7.86,-2.78 c -6.55,0 -10.39,4.89 -10.39,10.65 0,5.76 4,11.09 10.43,11.09 a 13.15,13.15 0 0 0 8.45,-3.37 0.71,0.71 0 0 1 1.05,0.11 l 2.1,2.95 a 0.73,0.73 0 0 1 -0.07,0.94 17,17 0 0 1 -11.75,4.57 c -9.47,0 -16,-7 -16,-16.15 a 15.58,15.58 0 0 1 15.91,-15.93 z"
     id="path3298" /><path
     class="cls-1"
     d="m 182.55,50 h 4.1 a 0.72,0.72 0 0 1 0.72,0.72 v 10 c 0,1.1 -0.08,1.88 -0.08,1.88 h 0.08 a 8.58,8.58 0 0 1 7.69,-4.41 c 4.93,0 7.72,2.58 7.72,8.47 v 13.6 a 0.72,0.72 0 0 1 -0.72,0.72 H 198 a 0.72,0.72 0 0 1 -0.72,-0.72 V 67.77 c 0,-2.71 -0.7,-4.54 -3.53,-4.54 a 6.26,6.26 0 0 0 -6,4.62 10.16,10.16 0 0 0 -0.35,2.88 v 9.5 a 0.72,0.72 0 0 1 -0.72,0.72 h -4.1 a 0.72,0.72 0 0 1 -0.72,-0.72 V 50.68 A 0.72,0.72 0 0 1 182.55,50 Z"
     id="path3300" /><path
     class="cls-1"
     d="m 209.31,50 h 4.06 a 0.72,0.72 0 0 1 0.72,0.72 v 3.49 a 0.72,0.72 0 0 1 -0.72,0.72 h -4.06 a 0.72,0.72 0 0 1 -0.72,-0.72 V 50.68 A 0.72,0.72 0 0 1 209.31,50 Z m 0,8.73 h 4.1 a 0.72,0.72 0 0 1 0.72,0.72 v 20.78 a 0.72,0.72 0 0 1 -0.72,0.72 h -4.1 a 0.72,0.72 0 0 1 -0.72,-0.72 V 59.41 a 0.72,0.72 0 0 1 0.72,-0.72 z"
     id="path3302" /><path
     class="cls-1"
     d="m 220.66,50 h 4.06 a 0.72,0.72 0 0 1 0.72,0.72 v 22.5 c 0,2.44 0.82,3 2.27,3 0.43,0 0.82,0 0.82,0 v 4.2 a 0.71,0.71 0 0 1 -0.65,0.72 c -0.31,0 -0.69,0.06 -1.09,0.06 -3.06,0 -6.85,-0.79 -6.85,-7.16 V 50.68 A 0.72,0.72 0 0 1 220.66,50 Z"
     id="path3304" /><path
     class="cls-1"
     d="m 240.76,58.16 c 4.88,0 6.41,2.84 6.41,2.84 h 0.09 c 0,0 0,-0.57 0,-1.27 v -9 a 0.72,0.72 0 0 1 0.72,-0.72 H 252 a 0.72,0.72 0 0 1 0.72,0.72 v 29.5 A 0.72,0.72 0 0 1 252,81 h -3.8 a 0.72,0.72 0 0 1 -0.72,-0.72 v -1.17 a 10.93,10.93 0 0 1 0.09,-1.44 h -0.09 a 7.73,7.73 0 0 1 -7,3.8 c -6,0 -9.87,-4.76 -9.87,-11.65 0.06,-7.07 4.25,-11.66 10.15,-11.66 z m 1,18.64 c 2.88,0 5.59,-2.09 5.59,-7 0,-3.44 -1.83,-6.85 -5.54,-6.85 -3.06,0 -5.59,2.49 -5.59,6.9 0.04,4.2 2.31,6.95 5.58,6.95 z"
     id="path3306" /><path
     class="cls-1"
     d="m 303.6,50 h 4.06 a 0.72,0.72 0 0 1 0.72,0.72 v 3.49 a 0.72,0.72 0 0 1 -0.72,0.72 h -4.06 a 0.72,0.72 0 0 1 -0.72,-0.72 V 50.68 A 0.72,0.72 0 0 1 303.6,50 Z m 0,8.73 h 4.11 a 0.72,0.72 0 0 1 0.72,0.72 v 20.78 a 0.73,0.73 0 0 1 -0.72,0.72 h -4.11 a 0.73,0.73 0 0 1 -0.72,-0.72 V 59.41 a 0.72,0.72 0 0 1 0.72,-0.72 z"
     id="path3308" /><path
     class="cls-1"
     d="m 314.6,58.69 h 3.89 a 0.72,0.72 0 0 1 0.72,0.72 v 1.85 a 13.44,13.44 0 0 1 -0.09,1.53 h 0.09 a 8.62,8.62 0 0 1 7.9,-4.63 c 4.93,0 7.72,2.58 7.72,8.47 v 13.6 a 0.72,0.72 0 0 1 -0.72,0.72 h -4.06 a 0.73,0.73 0 0 1 -0.72,-0.72 V 67.77 c 0,-2.71 -0.69,-4.54 -3.53,-4.54 a 6.13,6.13 0 0 0 -6,4.54 9.22,9.22 0 0 0 -0.39,3 v 9.5 a 0.73,0.73 0 0 1 -0.72,0.72 h -4.09 a 0.73,0.73 0 0 1 -0.72,-0.72 V 59.41 a 0.72,0.72 0 0 1 0.72,-0.72 z"
     id="path3310" /><path
     class="cls-1"
     d="m 348.32,58.16 c 4.89,0 6.42,2.84 6.42,2.84 h 0.08 c 0,0 0,-0.57 0,-1.27 v -9 a 0.72,0.72 0 0 1 0.72,-0.72 h 4.1 a 0.72,0.72 0 0 1 0.72,0.72 v 29.5 a 0.72,0.72 0 0 1 -0.72,0.72 h -3.79 a 0.72,0.72 0 0 1 -0.72,-0.72 v -1.12 a 12.27,12.27 0 0 1 0.08,-1.44 h -0.08 a 7.74,7.74 0 0 1 -7,3.8 c -6,0 -9.86,-4.76 -9.86,-11.65 -0.03,-7.07 4.16,-11.66 10.05,-11.66 z m 1.05,18.64 c 2.88,0 5.59,-2.09 5.59,-7 0,-3.44 -1.84,-6.85 -5.55,-6.85 -3.05,0 -5.58,2.49 -5.58,6.9 0,4.2 2.26,6.95 5.54,6.95 z"
     id="path3312" /><path
     class="cls-1"
     d="m 291,50 a 0.73,0.73 0 0 0 -0.67,0.45 l -7.51,19.08 h -0.09 L 275.17,50.45 A 0.72,0.72 0 0 0 274.5,50 h -5.68 a 0.72,0.72 0 0 0 -0.72,0.72 v 29.51 a 0.72,0.72 0 0 0 0.72,0.72 h 3.86 a 0.73,0.73 0 0 0 0.72,-0.72 v -20.8 h 0.08 L 280,75.18 a 0.71,0.71 0 0 0 0.66,0.44 h 4 a 0.71,0.71 0 0 0 0.66,-0.44 L 292,59.47 h 0.08 v 20.76 a 0.72,0.72 0 0 0 0.72,0.72 h 3.85 a 0.72,0.72 0 0 0 0.72,-0.72 V 50.68 a 0.72,0.72 0 0 0 -0.72,-0.72 z"
     id="path3314" /><path
     class="cls-1"
     d="m 114.05,81.48 c 3.91,-1.53 6,-4.13 1.6,-7.29 -2.65,-1.9 -6.12,-5 -7.24,-8 -1.12,-3 2.61,-7.55 -6.16,-19.81 C 93.17,33.71 70.26,32 55,40.62 a 49,49 0 0 0 -13.56,13 c 0.84,-0.72 1.88,-1.54 3.31,-2.59 10.14,-7.46 32.37,-7.58 40.72,5.69 6.53,10.28 3.72,13.88 4.45,15.81 0.89,2.32 3.61,4.86 5.69,6.39 3.47,2.54 1.79,4.6 -1.33,5.78 a 4.1,4.1 0 0 1 -0.43,0.36 c -0.53,1.23 0.53,2.57 0.73,3 a 2,2 0 0 1 -0.77,2.72 c -0.53,0.36 -0.82,1 0,1.51 a 1.55,1.55 0 0 1 0.55,0.57 2.28,2.28 0 0 1 -0.5,2.73 c -0.93,1.08 -0.71,3.39 -0.57,4.54 0.21,1.88 -0.16,3.41 -2.32,4.13 -4.18,1.82 -9.08,-0.11 -10.43,1.16 -3.26,2.49 -5.57,12.8 2.51,25 -0.58,0 7.85,-0.68 12.29,-2 -1.43,-9 -2.53,-17.39 1.66,-20.66 1.68,-1.62 8,1 13.19,-1.31 a 4.71,4.71 0 0 0 3,-5.55 c -0.25,-1.44 -0.62,-4.74 0.42,-5.67 a 2.63,2.63 0 0 0 0.58,-3.44 5.57,5.57 0 0 0 -0.86,-0.9 c -0.36,-0.33 -0.12,-0.87 0.31,-1.1 1.58,-0.85 1.58,-2.51 0.8,-4 -0.25,-0.5 -1.61,-2.17 -0.95,-3.72 a 4.77,4.77 0 0 0 0.56,-0.59 z"
     id="path3316" /><path
     class="cls-2"
     d="m 78,84.62 a 6.12,6.12 0 0 0 -0.66,-0.48 5.7,5.7 0 0 1 -2.58,-6.37 14.37,14.37 0 0 0 -0.17,-7 A 15.14,15.14 0 0 0 71,64.28 L 70.82,64.1 A 22.93,22.93 0 0 0 51.07,58.63 c -12.14,2.21 -20,13.18 -17.93,24.31 1,5.26 4.22,9.61 7.48,14.15 1.85,2.58 2.79,7.75 -0.13,11.23 a 48.82,48.82 0 0 0 32.9,21.43 29.07,29.07 0 0 0 -8.64,-16.33 5.6,5.6 0 0 1 1,-8.83 5.71,5.71 0 0 1 2.51,-0.74 c 1.41,-0.1 1.83,-0.11 2.37,-0.19 a 8.67,8.67 0 0 0 2.11,-0.43 4.49,4.49 0 0 0 1.44,-0.76 4.31,4.31 0 0 0 1,-1.09 2.84,2.84 0 0 0 0.41,-1.34 5.77,5.77 0 0 0 0,-0.82 c 0,-0.29 0,-0.59 0,-0.88 a 2.52,2.52 0 0 1 0.32,-1.34 3.19,3.19 0 0 1 1,-0.77 1.17,1.17 0 0 0 0.46,-0.76 1.31,1.31 0 0 0 -1,-1.35 3.7,3.7 0 0 1 -0.52,-0.2 c -0.07,0 -0.37,-0.45 0.3,-0.52 0.67,-0.07 1.9,-0.5 2.13,-1.31 a 1.28,1.28 0 0 0 0,-0.86 2.25,2.25 0 0 0 -0.3,-0.37 c -0.05,-0.06 -0.34,-0.4 -0.59,-0.75 a 6.6,6.6 0 0 1 -0.49,-0.8 c -0.19,-0.36 -0.24,-0.52 -0.18,-0.68 a 0.63,0.63 0 0 1 0.23,-0.27 c 0.71,-0.58 1.71,-1.26 1.83,-2.23 a 1.59,1.59 0 0 0 -0.17,-1 A 2.28,2.28 0 0 0 78,84.62 Z"
     id="path3318" /><path
     class="cls-2"
     d="m 154.77,139.41 h 7.52 c 3.79,0 6.49,1.93 6.49,5.36 a 4.9,4.9 0 0 1 -2.55,4.44 v 0.06 a 4.87,4.87 0 0 1 3.41,4.89 c 0,4.16 -3.38,6 -7.26,6 h -7.61 z m 7.52,8.49 a 2.5,2.5 0 0 0 2.61,-2.67 2.41,2.41 0 0 0 -2.67,-2.57 h -3.64 v 5.24 z m 0.39,9 a 3,3 0 1 0 0,-6 h -4.09 v 6 z"
     id="path3320" /><path
     class="cls-2"
     d="m 173,139.41 h 3.73 v 3.31 H 173 Z m 0,5.85 h 3.76 v 14.93 H 173 Z"
     id="path3322" /><path
     class="cls-2"
     d="m 186.53,163.17 c 2.31,0 4.27,-1 4.27,-3.62 v -0.88 a 7,7 0 0 1 0.06,-0.79 h -0.06 a 4.65,4.65 0 0 1 -4.21,2 c -4.32,0 -6.78,-3.45 -6.78,-7.55 0,-4.1 2.34,-7.43 6.69,-7.43 3.29,0 4.48,1.9 4.48,1.9 h 0.08 a 2.61,2.61 0 0 1 0,-0.41 v -1.14 h 3.53 v 14 c 0,5.12 -4,7.05 -8,7.05 a 12.14,12.14 0 0 1 -5.36,-1.28 l 1.12,-2.84 a 10.33,10.33 0 0 0 4.18,0.99 z m 4.36,-10.8 c 0,-3.39 -1.69,-4.3 -3.74,-4.3 -2.28,0 -3.55,1.64 -3.55,4.16 0,2.52 1.36,4.54 3.79,4.54 1.81,0 3.5,-1.03 3.5,-4.4 z"
     id="path3324" /><path
     class="cls-2"
     d="m 206.39,139.41 h 7.17 c 6.48,0 10.72,3.8 10.72,10.36 0,6.56 -4.24,10.42 -10.72,10.42 h -7.17 z m 7,17.53 c 4.26,0 7,-2.49 7,-7.17 0,-4.68 -2.79,-7.11 -7,-7.11 h -3.14 v 14.28 z"
     id="path3326" /><path
     class="cls-2"
     d="m 235.3,150.82 h 0.51 v -0.2 c 0,-2 -1.25,-2.63 -2.91,-2.63 a 8.13,8.13 0 0 0 -4.14,1.43 l -1.43,-2.66 a 10.29,10.29 0 0 1 5.93,-1.85 c 4,0 6.28,2.17 6.28,5.94 v 9.34 h -3.47 V 159 a 9.33,9.33 0 0 1 0.06,-1.06 h -0.06 a 4.88,4.88 0 0 1 -4.59,2.64 c -2.69,0 -5.12,-1.67 -5.12,-4.65 0,-4.79 6.49,-5.11 8.94,-5.11 z m -2.87,6.82 c 2,0 3.41,-2.1 3.41,-3.92 v -0.35 h -0.65 c -1.93,0 -5,0.26 -5,2.34 -0.04,1 0.7,1.93 2.24,1.93 z"
     id="path3328" /><path
     class="cls-2"
     d="m 244,148.45 h -2 v -2.95 h 2.05 v -4.31 h 3.67 v 4.31 h 3.44 v 2.95 h -3.44 v 5.8 a 2.67,2.67 0 0 0 3,2.81 3.5,3.5 0 0 0 0.69,-0.06 v 3.25 a 7.31,7.31 0 0 1 -1.16,0.08 c -2.1,0 -6.28,-0.61 -6.28,-5.61 z"
     id="path3330" /><path
     class="cls-2"
     d="m 262.09,150.82 h 0.51 v -0.2 c 0,-2 -1.25,-2.63 -2.91,-2.63 a 8.13,8.13 0 0 0 -4.14,1.43 l -1.43,-2.66 a 10.25,10.25 0 0 1 5.93,-1.85 c 4,0 6.28,2.17 6.28,5.94 v 9.34 h -3.47 V 159 a 9.33,9.33 0 0 1 0.06,-1.06 h -0.06 a 4.88,4.88 0 0 1 -4.59,2.64 c -2.69,0 -5.12,-1.67 -5.12,-4.65 0,-4.79 6.48,-5.11 8.94,-5.11 z m -2.87,6.82 c 2,0 3.41,-2.1 3.41,-3.92 v -0.35 H 262 c -1.93,0 -5,0.26 -5,2.34 -0.06,1 0.68,1.93 2.22,1.93 z"
     id="path3332" /><path
     class="cls-2"
     d="M 288.38,154.86 H 281 l -1.78,5.33 h -3.94 l 7.41,-20.78 h 4 l 7.4,20.78 h -3.94 z M 284.67,143 c 0,0 -0.47,2.05 -0.89,3.22 l -1.86,5.56 h 5.51 l -1.87,-5.56 c -0.38,-1.17 -0.83,-3.22 -0.83,-3.22 z"
     id="path3334" /><path
     class="cls-2"
     d="m 296.14,145.26 h 3.62 V 147 a 9.1,9.1 0 0 1 -0.06,1 h 0.06 a 5.86,5.86 0 0 1 5.36,-3.11 c 3.35,0 5.24,1.73 5.24,5.68 v 9.6 h -3.73 v -8.84 c 0,-1.81 -0.48,-3 -2.4,-3 a 4.17,4.17 0 0 0 -4.06,3 6.14,6.14 0 0 0 -0.26,2 v 6.85 h -3.77 z"
     id="path3336" /><path
     class="cls-2"
     d="m 321.92,150.82 h 0.51 v -0.2 c 0,-2 -1.25,-2.63 -2.91,-2.63 a 8.18,8.18 0 0 0 -4.15,1.43 L 314,146.76 a 10.25,10.25 0 0 1 5.93,-1.85 c 4,0 6.28,2.17 6.28,5.94 v 9.34 h -3.47 V 159 a 9.33,9.33 0 0 1 0.06,-1.06 h -0.06 a 4.88,4.88 0 0 1 -4.59,2.64 c -2.7,0 -5.13,-1.67 -5.13,-4.65 -0.02,-4.79 6.44,-5.11 8.9,-5.11 z m -2.87,6.82 c 2,0 3.4,-2.1 3.4,-3.92 v -0.35 h -0.65 c -1.92,0 -5,0.26 -5,2.34 -0.03,1 0.71,1.93 2.25,1.93 z"
     id="path3338" /><path
     class="cls-2"
     d="m 329.8,139.41 h 3.74 V 155 c 0,1.64 0.56,2.05 1.54,2.05 0.29,0 0.56,0 0.56,0 v 3.25 a 9.42,9.42 0 0 1 -1.18,0.08 c -2.08,0 -4.66,-0.52 -4.66,-4.79 z"
     id="path3340" /><path
     class="cls-2"
     d="m 337.57,162.59 a 3.33,3.33 0 0 0 1.69,0.61 2.85,2.85 0 0 0 2.61,-1.93 l 0.56,-1.32 -6.37,-14.69 h 4.24 l 3.17,8.61 a 19.5,19.5 0 0 1 0.56,2 h 0.06 a 18.61,18.61 0 0 1 0.5,-2 l 3,-8.67 h 4.12 l -6.75,17.18 a 5.65,5.65 0 0 1 -5.45,3.89 5.86,5.86 0 0 1 -3.14,-1 z"
     id="path3342" /><path
     class="cls-2"
     d="m 354.4,148.45 h -2 v -2.95 h 2.05 v -4.31 h 3.67 v 4.31 h 3.44 v 2.95 h -3.44 v 5.8 a 2.67,2.67 0 0 0 3,2.81 3.5,3.5 0 0 0 0.69,-0.06 v 3.25 a 7.31,7.31 0 0 1 -1.16,0.08 c -2.1,0 -6.28,-0.61 -6.28,-5.61 z"
     id="path3344" /><path
     class="cls-2"
     d="m 364.86,139.41 h 3.73 v 3.31 h -3.73 z m 0,5.85 h 3.76 v 14.93 h -3.76 z"
     id="path3346" /><path
     class="cls-2"
     d="m 379.82,144.91 a 7.75,7.75 0 0 1 5.81,2.22 l -1.63,2.55 a 6,6 0 0 0 -3.94,-1.61 4.46,4.46 0 0 0 -4.59,4.63 4.57,4.57 0 0 0 4.71,4.68 7,7 0 0 0 4.44,-1.9 l 1.45,2.63 a 8.64,8.64 0 0 1 -6.22,2.43 c -5,0 -8.2,-3.48 -8.2,-7.81 0,-4.33 3.16,-7.82 8.17,-7.82 z"
     id="path3348" /><path
     class="cls-2"
     d="m 389.25,155.74 a 6.36,6.36 0 0 0 4.12,1.64 c 1.06,0 2,-0.47 2,-1.35 0,-2.22 -7.35,-1.93 -7.35,-6.73 0,-2.78 2.52,-4.39 5.78,-4.39 a 7.29,7.29 0 0 1 5.07,1.7 l -1.4,2.75 a 5.76,5.76 0 0 0 -3.7,-1.29 c -1,0 -1.92,0.41 -1.92,1.35 0,2.11 7.34,1.84 7.34,6.64 0,2.49 -2.19,4.48 -5.77,4.48 a 8.49,8.49 0 0 1 -5.87,-2.2 z"
     id="path3350" /></g></svg>
