<svg xmlns="http://www.w3.org/2000/svg" xmlns:xlink="http://www.w3.org/1999/xlink" xmlns:lucid="lucid" width="1350" height="919"><g transform="translate(-20 -10)" lucid:page-tab-id="0_0"><path d="M240 749h600v160H240z" stroke="#000" stroke-width="2" fill="#e5e5e5"/><path d="M340 488h220v90H340z" stroke="#000" stroke-width="2" fill="#c1e4f7"/><use xlink:href="#a" transform="matrix(1,0,0,1,345,493) translate(17.174999999999997 21.9)"/><use xlink:href="#b" transform="matrix(1,0,0,1,345,493) translate(103.025 21.9)"/><use xlink:href="#c" transform="matrix(1,0,0,1,345,493) translate(156.925 21.9)"/><use xlink:href="#d" transform="matrix(1,0,0,1,345,493) translate(9.649999999999991 43.5)"/><use xlink:href="#e" transform="matrix(1,0,0,1,345,493) translate(57.599999999999994 43.5)"/><use xlink:href="#f" transform="matrix(1,0,0,1,345,493) translate(77.6 43.5)"/><use xlink:href="#g" transform="matrix(1,0,0,1,345,493) translate(122.5 43.5)"/><use xlink:href="#h" transform="matrix(1,0,0,1,345,493) translate(68.475 65.10000000000001)"/><use xlink:href="#i" transform="matrix(1,0,0,1,345,493) translate(111.725 65.10000000000001)"/><path d="M388 358c17.67 0 32 13.43 32 30s-14.33 30-32 30h-96c-17.67 0-32-13.43-32-30s14.33-30 32-30z" stroke="#000" stroke-width="2" fill="#ffc374"/><use xlink:href="#j" transform="matrix(1,0,0,1,265,363) translate(5.125 30.025)"/><use xlink:href="#k" transform="matrix(1,0,0,1,265,363) translate(61.025000000000006 30.025)"/><use xlink:href="#l" transform="matrix(1,0,0,1,265,363) translate(101.92500000000001 30.025)"/><path d="M388 195c17.67 0 32 13.43 32 30s-14.33 30-32 30h-96c-17.67 0-32-13.43-32-30s14.33-30 32-30z" stroke="#000" stroke-width="2" fill="#ffc374"/><use xlink:href="#m" transform="matrix(1,0,0,1,265,200) translate(8.125 30.025)"/><use xlink:href="#n" transform="matrix(1,0,0,1,265,200) translate(101.97500000000001 30.025)"/><path d="M408 789c17.67 0 32 17.9 32 40s-14.33 40-32 40h-96c-17.67 0-32-17.9-32-40s14.33-40 32-40z" stroke="#000" stroke-width="2" fill="#ffc374"/><use xlink:href="#o" transform="matrix(1,0,0,1,285,794) translate(47.555 16.5875)"/><use xlink:href="#p" transform="matrix(1,0,0,1,285,794) translate(13.099999999999994 38.1875)"/><use xlink:href="#q" transform="matrix(1,0,0,1,285,794) translate(93.95 38.1875)"/><use xlink:href="#r" transform="matrix(1,0,0,1,285,794) translate(8.104999999999999 59.7875)"/><use xlink:href="#s" transform="matrix(1,0,0,1,285,794) translate(87.955 59.7875)"/><path d="M620 769h160v120H620z" stroke="#000" stroke-width="2" fill="#c1e4f7"/><use xlink:href="#t" transform="matrix(1,0,0,1,624.9999999999999,774) translate(18.549999999999997 24.7125)"/><use xlink:href="#u" transform="matrix(1,0,0,1,624.9999999999999,774) translate(116.45 24.7125)"/><use xlink:href="#k" transform="matrix(1,0,0,1,624.9999999999999,774) translate(15.574999999999996 46.3125)"/><use xlink:href="#d" transform="matrix(1,0,0,1,624.9999999999999,774) translate(56.475 46.3125)"/><use xlink:href="#v" transform="matrix(1,0,0,1,624.9999999999999,774) translate(104.42500000000001 46.3125)"/><use xlink:href="#w" transform="matrix(1,0,0,1,624.9999999999999,774) translate(10.149999999999991 67.91250000000001)"/><use xlink:href="#x" transform="matrix(1,0,0,1,624.9999999999999,774) translate(63.99999999999999 67.91250000000001)"/><use xlink:href="#y" transform="matrix(1,0,0,1,624.9999999999999,774) translate(20.125 89.51250000000002)"/><use xlink:href="#z" transform="matrix(1,0,0,1,624.9999999999999,774) translate(71.975 89.51250000000002)"/><path d="M340 420v33h83.94v15.5" stroke="#000" stroke-width="2" fill="none"/><path d="M341 420.03h-2V419h2z"/><path d="M423.94 483.76l-4.63-14.26h9.28z" stroke="#000" stroke-width="2"/><path d="M983 185c17.67 0 32 17.9 32 40s-14.33 40-32 40h-96c-17.67 0-32-17.9-32-40s14.33-40 32-40z" stroke="#000" stroke-width="2" fill="#ffc374"/><use xlink:href="#A" transform="matrix(1,0,0,1,860,190) translate(19.554999999999993 16.5875)"/><use xlink:href="#B" transform="matrix(1,0,0,1,860,190) translate(17.099999999999994 38.1875)"/><use xlink:href="#C" transform="matrix(1,0,0,1,860,190) translate(99 38.1875)"/><use xlink:href="#D" transform="matrix(1,0,0,1,860,190) translate(18.129999999999995 59.7875)"/><use xlink:href="#E" transform="matrix(1,0,0,1,860,190) translate(71.03 59.7875)"/><path d="M460 180h210v90H460z" stroke="#000" stroke-width="2" fill="#c1e4f7"/><use xlink:href="#a" transform="matrix(1,0,0,1,465,185) translate(13.649999999999991 21.9)"/><use xlink:href="#F" transform="matrix(1,0,0,1,465,185) translate(99.5 21.9)"/><use xlink:href="#G" transform="matrix(1,0,0,1,465,185) translate(6.174999999999983 43.5)"/><use xlink:href="#e" transform="matrix(1,0,0,1,465,185) translate(51.07499999999998 43.5)"/><use xlink:href="#f" transform="matrix(1,0,0,1,465,185) translate(71.07499999999999 43.5)"/><use xlink:href="#g" transform="matrix(1,0,0,1,465,185) translate(115.975 43.5)"/><use xlink:href="#h" transform="matrix(1,0,0,1,465,185) translate(10.575000000000003 65.10000000000001)"/><use xlink:href="#H" transform="matrix(1,0,0,1,465,185) translate(53.825 65.10000000000001)"/><use xlink:href="#I" transform="matrix(1,0,0,1,465,185) translate(82.675 65.10000000000001)"/><path d="M422 225h18.5" stroke="#000" stroke-width="2" fill="none"/><path d="M422.03 226h-1.1l.07-.96v-.32l-.06-.72h1.1z"/><path d="M455.76 225l-14.26 4.64v-9.28z" stroke="#000" stroke-width="2"/><path d="M565 272v66h-83.6v130.5" stroke="#000" stroke-width="2" fill="none"/><path d="M566 272.03h-2V271h2z"/><path d="M481.4 483.76l-4.63-14.26h9.27z" stroke="#000" stroke-width="2"/><path d="M875 358h220v80H875z" stroke="#000" stroke-width="2" fill="#c1e4f7"/><use xlink:href="#J" transform="matrix(1,0,0,1,880,363) translate(32.925 16.5875)"/><use xlink:href="#B" transform="matrix(1,0,0,1,880,363) translate(80.175 16.5875)"/><use xlink:href="#K" transform="matrix(1,0,0,1,880,363) translate(162.075 16.5875)"/><use xlink:href="#L" transform="matrix(1,0,0,1,880,363) translate(3.1499999999999915 38.1875)"/><use xlink:href="#M" transform="matrix(1,0,0,1,880,363) translate(95 38.1875)"/><use xlink:href="#N" transform="matrix(1,0,0,1,880,363) translate(148 38.1875)"/><use xlink:href="#O" transform="matrix(1,0,0,1,880,363) translate(166.95 38.1875)"/><use xlink:href="#P" transform="matrix(1,0,0,1,880,363) translate(27.049999999999997 59.7875)"/><use xlink:href="#h" transform="matrix(1,0,0,1,880,363) translate(109.9 59.7875)"/><use xlink:href="#i" transform="matrix(1,0,0,1,880,363) translate(153.15 59.7875)"/><path d="M1179 185c19.88 0 36 17.9 36 40s-16.12 40-36 40h-108c-19.88 0-36-17.9-36-40s16.12-40 36-40z" stroke="#000" stroke-width="2" fill="#ffc374"/><use xlink:href="#Q" transform="matrix(1,0,0,1,1040,190) translate(33.57999999999999 27.525)"/><use xlink:href="#K" transform="matrix(1,0,0,1,1040,190) translate(121.43 27.525)"/><use xlink:href="#L" transform="matrix(1,0,0,1,1040,190) translate(1.1549999999999818 49.125)"/><use xlink:href="#R" transform="matrix(1,0,0,1,1040,190) translate(93.005 49.125)"/><path d="M875 619h220v100H875z" stroke="#000" stroke-width="2" fill="#c1e4f7"/><use xlink:href="#S" transform="matrix(1,0,0,1,880,624) translate(23.14999999999999 25.65)"/><use xlink:href="#T" transform="matrix(1,0,0,1,880,624) translate(84.1 25.65)"/><use xlink:href="#k" transform="matrix(1,0,0,1,880,624) translate(112.05 25.65)"/><use xlink:href="#C" transform="matrix(1,0,0,1,880,624) translate(152.95 25.65)"/><use xlink:href="#D" transform="matrix(1,0,0,1,880,624) translate(6.150000000000006 47.25)"/><use xlink:href="#U" transform="matrix(1,0,0,1,880,624) translate(59.050000000000004 47.25)"/><use xlink:href="#V" transform="matrix(1,0,0,1,880,624) translate(99.95 47.25)"/><use xlink:href="#W" transform="matrix(1,0,0,1,880,624) translate(167.9 47.25)"/><use xlink:href="#y" transform="matrix(1,0,0,1,880,624) translate(31.125 68.85000000000001)"/><use xlink:href="#X" transform="matrix(1,0,0,1,880,624) translate(82.975 68.85000000000001)"/><path d="M782 829h28V669h45.5" stroke="#000" stroke-width="2" fill="none"/><path d="M782.03 830H781v-2h1.03z"/><path d="M870.76 669l-14.26 4.64v-9.28z" stroke="#000" stroke-width="2"/><path d="M985 440v159.5" stroke="#000" stroke-width="2" fill="none"/><path d="M986 440.03h-2V439h2z"/><path d="M985 614.76l-4.64-14.26h9.28z" stroke="#000" stroke-width="2"/><path d="M1320 637.25c16.57 0 30 14.2 30 31.75 0 17.54-13.43 31.75-30 31.75h-90c-16.57 0-30-14.2-30-31.75 0-17.54 13.43-31.75 30-31.75z" stroke="#000" stroke-width="2" fill="#ffc374"/><use xlink:href="#Y" transform="matrix(1,0,0,1,1205,642.25) translate(11.62999999999999 21.15)"/><use xlink:href="#Z" transform="matrix(1,0,0,1,1205,642.25) translate(52.529999999999994 21.15)"/><use xlink:href="#T" transform="matrix(1,0,0,1,1205,642.25) translate(44.58 42.75)"/><use xlink:href="#aa" transform="matrix(1,0,0,1,1205,642.25) translate(72.53 42.75)"/><path d="M565 272v126h290.5" stroke="#000" stroke-width="2" fill="none"/><path d="M566 272.03h-2V271h2z"/><path d="M870.76 398l-14.26 4.64v-9.28z" stroke="#000" stroke-width="2"/><path d="M935 267v71.5" stroke="#000" stroke-width="2" fill="none"/><path d="M936 267.03h-2V266h2z"/><path d="M935 353.76l-4.64-14.26h9.28z" stroke="#000" stroke-width="2"/><path d="M1125 267v44.5h-91.9v27" stroke="#000" stroke-width="2" fill="none"/><path d="M1126 267.03h-2V266h2z"/><path d="M1033.1 353.76l-4.64-14.26h9.28z" stroke="#000" stroke-width="2"/><path d="M780 308h240v60H780z" stroke="#000" stroke-opacity="0" stroke-width="2" fill="#fff" fill-opacity="0"/><g><use xlink:href="#ab" transform="matrix(1,0,0,1,785,313) translate(95 30.025)"/></g><path d="M700 388h240v60H700z" stroke="#000" stroke-opacity="0" stroke-width="2" fill="#fff" fill-opacity="0"/><g><use xlink:href="#ac" transform="matrix(1,0,0,1,705,393) translate(73.55 30.025)"/></g><path d="M975 308h240v60H975z" stroke="#000" stroke-opacity="0" stroke-width="2" fill="#fff" fill-opacity="0"/><g><use xlink:href="#ad" transform="matrix(1,0,0,1,980,313) translate(74.425 30.025)"/></g><path d="M260 453h240v60H260z" stroke="#000" stroke-opacity="0" stroke-width="2" fill="#fff" fill-opacity="0"/><g><use xlink:href="#ae" transform="matrix(1,0,0,1,265,458) translate(95 17.525)"/><use xlink:href="#af" transform="matrix(1,0,0,1,265,458) translate(115 39.125)"/></g><path d="M420 453h240v60H420z" stroke="#000" stroke-opacity="0" stroke-width="2" fill="#fff" fill-opacity="0"/><g><use xlink:href="#ag" transform="matrix(1,0,0,1,425,458) translate(73.55 17.525)"/><use xlink:href="#af" transform="matrix(1,0,0,1,425,458) translate(115 39.125)"/></g><path d="M384 624h132l44 45-44 45H384l-44-45z" stroke="#000" stroke-width="2" fill="#ffeca9"/><g><use xlink:href="#ah" transform="matrix(1,0,0,1,345,629) translate(34.629999999999995 21.9)"/><use xlink:href="#k" transform="matrix(1,0,0,1,345,629) translate(91.53 21.9)"/><use xlink:href="#q" transform="matrix(1,0,0,1,345,629) translate(132.43 21.9)"/><use xlink:href="#ai" transform="matrix(1,0,0,1,345,629) translate(20.679999999999986 43.5)"/><use xlink:href="#w" transform="matrix(1,0,0,1,345,629) translate(68.63 43.5)"/><use xlink:href="#aj" transform="matrix(1,0,0,1,345,629) translate(122.47999999999999 43.5)"/><use xlink:href="#ak" transform="matrix(1,0,0,1,345,629) translate(78.53 65.10000000000001)"/></g><path d="M450 580v24.5" stroke="#000" stroke-width="2" fill="none"/><path d="M451 580.03h-2V579h2z"/><path d="M450 619.76l-4.64-14.26h9.28z" stroke="#000" stroke-width="2"/><path d="M450 716v86.33h150.5" stroke="#000" stroke-width="2" fill="none"/><path d="M451 716.03h-2V715h2z"/><path d="M615.76 802.33l-14.26 4.64v-9.27z" stroke="#000" stroke-width="2"/><path d="M562.4 669h293.1" stroke="#000" stroke-width="2" fill="none"/><path d="M562.42 670h-2l.98-1-.98-1h2z"/><path d="M870.76 669l-14.26 4.64v-9.28z" stroke="#000" stroke-width="2"/><path d="M442 829h158.5" stroke="#000" stroke-width="2" fill="none"/><path d="M442.03 830h-1.1l.07-1-.03-1h1.06z"/><path d="M615.76 829l-14.26 4.64v-9.28z" stroke="#000" stroke-width="2"/><path d="M1097 669h83.5" stroke="#000" stroke-width="2" fill="none"/><path d="M1097.03 670H1096v-2h1.03z"/><path d="M1195.76 669l-14.26 4.64v-9.28z" stroke="#000" stroke-width="2"/><path d="M360 702.4h240v60H360z" stroke="#000" stroke-opacity="0" stroke-width="2" fill="#fff" fill-opacity="0"/><g><use xlink:href="#al" transform="matrix(1,0,0,1,365,707.4) translate(100.325 30.025)"/></g><path d="M460 624h240v60H460z" stroke="#000" stroke-opacity="0" stroke-width="2" fill="#fff" fill-opacity="0"/><g><use xlink:href="#am" transform="matrix(1,0,0,1,465,629) translate(103.525 30.025)"/></g><a xlink:href="http://fcp-indi.github.io/docs/user/anat" target="_top"><path d="M260 32h160v60H260z" stroke="#000" stroke-width="2" fill="#ffdba9"/><path d="M276 32v60m128-60v60" stroke="#000" stroke-width="2" fill="none"/><use xlink:href="#an" transform="matrix(1,0,0,1,285,37) translate(10.574999999999996 17.799999999999997)"/><use xlink:href="#ao" transform="matrix(1,0,0,1,285,37) translate(-2.4250000000000043 39.4)"/><path class="lucid-link lucid-hotspot lucid-overlay-hotspot" d="M260 32h160v60H260zM276 32v60m128-60v60" fill="none"/></a><a xlink:href="http://fcp-indi.github.io/docs/user/func" target="_top"><path d="M855 32h160v60H855z" stroke="#000" stroke-width="2" fill="#ffdba9"/><path d="M871 32v60m128-60v60" stroke="#000" stroke-width="2" fill="none"/><use xlink:href="#ap" transform="matrix(1,0,0,1,880,37) translate(13.574999999999996 17.799999999999997)"/><use xlink:href="#ao" transform="matrix(1,0,0,1,880,37) translate(-2.4250000000000043 39.4)"/><path class="lucid-link lucid-hotspot lucid-overlay-hotspot" d="M855 32h160v60H855zM871 32v60m128-60v60" fill="none"/></a><path d="M40 32h160v60H40z" stroke="#000" stroke-width="2" fill="#ffdba9"/><path d="M56 32v60m128-60v60" stroke="#000" stroke-width="2" fill="none"/><g><use xlink:href="#aq" transform="matrix(1,0,0,1,65,37) translate(28.875 17.799999999999997)"/><use xlink:href="#ar" transform="matrix(1,0,0,1,65,37) translate(-0.45000000000000284 39.4)"/></g><path d="M1035 30h180v90h-180z" stroke="#000" stroke-width="2" fill="#ffdba9"/><path d="M1053 30v90m144-90v90" stroke="#000" stroke-width="2" fill="none"/><g><use xlink:href="#Q" transform="matrix(1,0,0,1,1062.5,35) translate(11.074999999999996 22)"/><use xlink:href="#K" transform="matrix(1,0,0,1,1062.5,35) translate(98.92500000000001 22)"/><use xlink:href="#as" transform="matrix(1,0,0,1,1062.5,35) translate(18.074999999999996 43.6)"/><use xlink:href="#at" transform="matrix(1,0,0,1,1062.5,35) translate(0.14999999999999858 65.2)"/></g><a xlink:href="http://fcp-indi.github.io/docs/user/pipeline_config" target="_top"><path d="M40 799h160v60H40z" stroke="#000" stroke-width="2" fill="#ffdba9"/><path d="M56 799v60m128-60v60" stroke="#000" stroke-width="2" fill="none"/><use xlink:href="#au" transform="matrix(1,0,0,1,65,804) translate(23.074999999999996 17.799999999999997)"/><use xlink:href="#av" transform="matrix(1,0,0,1,65,804) translate(1.5999999999999943 39.4)"/><path class="lucid-link lucid-hotspot lucid-overlay-hotspot" d="M40 799h160v60H40zM56 799v60m128-60v60" fill="none"/></a><path d="M340 94v81.5" stroke="#000" stroke-width="2" fill="none"/><path d="M341 94.03h-2V93h2z"/><path d="M340 190.76l-4.64-14.26h9.28z" stroke="#000" stroke-width="2"/><path d="M202 829h58.5" stroke="#000" stroke-width="2" fill="none"/><path d="M202.03 830H201v-2h1.03z"/><path d="M275.76 829l-14.26 4.64v-9.28z" stroke="#000" stroke-width="2"/><path d="M935 94v71.5" stroke="#000" stroke-width="2" fill="none"/><path d="M936 94.03h-2V93h2z"/><path d="M935 180.76l-4.64-14.26h9.28z" stroke="#000" stroke-width="2"/><path d="M1125 122v43.5" stroke="#000" stroke-width="2" fill="none"/><path d="M1126 122.03h-2V121h2z"/><path d="M1125 180.76l-4.64-14.26h9.28z" stroke="#000" stroke-width="2"/><path d="M120 797V669h200.1" stroke="#000" stroke-width="2" fill="none"/><path d="M121 798h-2v-1.03h2z"/><path d="M335.37 669l-14.27 4.64v-9.28z" stroke="#000" stroke-width="2"/><path d="M120 94v294h120.5" stroke="#000" stroke-width="2" fill="none"/><path d="M121 94.03h-2V93h2z"/><path d="M255.76 388l-14.26 4.64v-9.28z" stroke="#000" stroke-width="2"/><defs><path d="M233-177c-1 41-23 64-60 70L243 0h-38l-65-103H63V0H30v-248c88 3 205-21 203 71zM63-129c60-2 137 13 137-47 0-61-80-42-137-45v92" id="aw"/><path d="M100-194c63 0 86 42 84 106H49c0 40 14 67 53 68 26 1 43-12 49-29l28 8c-11 28-37 45-77 45C44 4 14-33 15-96c1-61 26-98 85-98zm52 81c6-60-76-77-97-28-3 7-6 17-6 28h103" id="ax"/><path d="M135-143c-3-34-86-38-87 0 15 53 115 12 119 90S17 21 10-45l28-5c4 36 97 45 98 0-10-56-113-15-118-90-4-57 82-63 122-42 12 7 21 19 24 35" id="ay"/><path d="M141-36C126-15 110 5 73 4 37 3 15-17 15-53c-1-64 63-63 125-63 3-35-9-54-41-54-24 1-41 7-42 31l-33-3c5-37 33-52 76-52 45 0 72 20 72 64v82c-1 20 7 32 28 27v20c-31 9-61-2-59-35zM48-53c0 20 12 33 32 33 41-3 63-29 60-74-43 2-92-5-92 41" id="az"/><path d="M210-169c-67 3-38 105-44 169h-31v-121c0-29-5-50-35-48C34-165 62-65 56 0H25l-1-190h30c1 10-1 24 2 32 10-44 99-50 107 0 11-21 27-35 58-36 85-2 47 119 55 194h-31v-121c0-29-5-49-35-48" id="aA"/><path d="M115-194c55 1 70 41 70 98S169 2 115 4C84 4 66-9 55-30l1 105H24l-1-265h31l2 30c10-21 28-34 59-34zm-8 174c40 0 45-34 45-75s-6-73-45-74c-42 0-51 32-51 76 0 43 10 73 51 73" id="aB"/><path d="M24 0v-261h32V0H24" id="aC"/><g id="a"><use transform="matrix(0.05,0,0,0.05,0,0)" xlink:href="#aw"/><use transform="matrix(0.05,0,0,0.05,12.950000000000001,0)" xlink:href="#ax"/><use transform="matrix(0.05,0,0,0.05,22.950000000000003,0)" xlink:href="#ay"/><use transform="matrix(0.05,0,0,0.05,31.950000000000003,0)" xlink:href="#az"/><use transform="matrix(0.05,0,0,0.05,41.95,0)" xlink:href="#aA"/><use transform="matrix(0.05,0,0,0.05,56.900000000000006,0)" xlink:href="#aB"/><use transform="matrix(0.05,0,0,0.05,66.9,0)" xlink:href="#aC"/><use transform="matrix(0.05,0,0,0.05,70.85000000000001,0)" xlink:href="#ax"/></g><path d="M115-194c53 0 69 39 70 98 0 66-23 100-70 100C84 3 66-7 56-30L54 0H23l1-261h32v101c10-23 28-34 59-34zm-8 174c40 0 45-34 45-75 0-40-5-75-45-74-42 0-51 32-51 76 0 43 10 73 51 73" id="aD"/><path d="M24-231v-30h32v30H24zM24 0v-190h32V0H24" id="aE"/><path d="M117-194c89-4 53 116 60 194h-32v-121c0-31-8-49-39-48C34-167 62-67 57 0H25l-1-190h30c1 10-1 24 2 32 11-22 29-35 61-36" id="aF"/><path d="M114-163C36-179 61-72 57 0H25l-1-190h30c1 12-1 29 2 39 6-27 23-49 58-41v29" id="aG"/><path d="M179-190L93 31C79 59 56 82 12 73V49c39 6 53-20 64-50L1-190h34L92-34l54-156h33" id="aH"/><g id="b"><use transform="matrix(0.05,0,0,0.05,0,0)" xlink:href="#aD"/><use transform="matrix(0.05,0,0,0.05,10,0)" xlink:href="#aE"/><use transform="matrix(0.05,0,0,0.05,13.949999999999998,0)" xlink:href="#aF"/><use transform="matrix(0.05,0,0,0.05,23.95,0)" xlink:href="#az"/><use transform="matrix(0.05,0,0,0.05,33.95,0)" xlink:href="#aG"/><use transform="matrix(0.05,0,0,0.05,39.900000000000006,0)" xlink:href="#aH"/></g><path d="M212-179c-10-28-35-45-73-45-59 0-87 40-87 99 0 60 29 101 89 101 43 0 62-24 78-52l27 14C228-24 195 4 139 4 59 4 22-46 18-125c-6-104 99-153 187-111 19 9 31 26 39 46" id="aI"/><path d="M185-189c-5-48-123-54-124 2 14 75 158 14 163 119 3 78-121 87-175 55-17-10-28-26-33-46l33-7c5 56 141 63 141-1 0-78-155-14-162-118-5-82 145-84 179-34 5 7 8 16 11 25" id="aJ"/><path d="M63-220v92h138v28H63V0H30v-248h175v28H63" id="aK"/><g id="c"><use transform="matrix(0.05,0,0,0.05,0,0)" xlink:href="#aI"/><use transform="matrix(0.05,0,0,0.05,12.950000000000001,0)" xlink:href="#aJ"/><use transform="matrix(0.05,0,0,0.05,24.950000000000003,0)" xlink:href="#aK"/></g><path d="M143 0L79-87 56-68V0H24v-261h32v163l83-92h37l-77 82L181 0h-38" id="aL"/><g id="d"><use transform="matrix(0.05,0,0,0.05,0,0)" xlink:href="#aA"/><use transform="matrix(0.05,0,0,0.05,14.950000000000001,0)" xlink:href="#az"/><use transform="matrix(0.05,0,0,0.05,24.950000000000003,0)" xlink:href="#ay"/><use transform="matrix(0.05,0,0,0.05,33.95,0)" xlink:href="#aL"/></g><path d="M59-47c-2 24 18 29 38 22v24C64 9 27 4 27-40v-127H5v-23h24l9-43h21v43h35v23H59v120" id="aM"/><path d="M100-194c62-1 85 37 85 99 1 63-27 99-86 99S16-35 15-95c0-66 28-99 85-99zM99-20c44 1 53-31 53-75 0-43-8-75-51-75s-53 32-53 75 10 74 51 75" id="aN"/><g id="e"><use transform="matrix(0.05,0,0,0.05,0,0)" xlink:href="#aM"/><use transform="matrix(0.05,0,0,0.05,5,0)" xlink:href="#aN"/></g><path d="M101-251c82-7 93 87 43 132L82-64C71-53 59-42 53-27h129V0H18c2-99 128-94 128-182 0-28-16-43-45-43s-46 15-49 41l-32-3c6-41 34-60 81-64" id="aO"/><g id="f"><use transform="matrix(0.05,0,0,0.05,0,0)" xlink:href="#aO"/><use transform="matrix(0.05,0,0,0.05,10,0)" xlink:href="#aA"/><use transform="matrix(0.05,0,0,0.05,24.950000000000003,0)" xlink:href="#aA"/></g><path d="M84 4C-5 8 30-112 23-190h32v120c0 31 7 50 39 49 72-2 45-101 50-169h31l1 190h-30c-1-10 1-25-2-33-11 22-28 36-60 37" id="aP"/><g id="g"><use transform="matrix(0.05,0,0,0.05,0,0)" xlink:href="#aG"/><use transform="matrix(0.05,0,0,0.05,5.95,0)" xlink:href="#ax"/><use transform="matrix(0.05,0,0,0.05,15.949999999999998,0)" xlink:href="#ay"/><use transform="matrix(0.05,0,0,0.05,24.95,0)" xlink:href="#aN"/><use transform="matrix(0.05,0,0,0.05,34.95,0)" xlink:href="#aC"/><use transform="matrix(0.05,0,0,0.05,38.900000000000006,0)" xlink:href="#aP"/><use transform="matrix(0.05,0,0,0.05,48.900000000000006,0)" xlink:href="#aM"/><use transform="matrix(0.05,0,0,0.05,53.900000000000006,0)" xlink:href="#aE"/><use transform="matrix(0.05,0,0,0.05,57.85,0)" xlink:href="#aN"/><use transform="matrix(0.05,0,0,0.05,67.85000000000001,0)" xlink:href="#aF"/></g><path d="M87 75C49 33 22-17 22-94c0-76 28-126 65-167h31c-38 41-64 92-64 168S80 34 118 75H87" id="aQ"/><path d="M30 0v-248h33v221h125V0H30" id="aR"/><g id="h"><use transform="matrix(0.05,0,0,0.05,0,0)" xlink:href="#aQ"/><use transform="matrix(0.05,0,0,0.05,5.95,0)" xlink:href="#aK"/><use transform="matrix(0.05,0,0,0.05,16.900000000000002,0)" xlink:href="#aJ"/><use transform="matrix(0.05,0,0,0.05,28.900000000000002,0)" xlink:href="#aR"/></g><path d="M101-234c-31-9-42 10-38 44h38v23H63V0H32v-167H5v-23h27c-7-52 17-82 69-68v24" id="aS"/><path d="M33-261c38 41 65 92 65 168S71 34 33 75H2C39 34 66-17 66-93S39-220 2-261h31" id="aT"/><g id="i"><use transform="matrix(0.05,0,0,0.05,0,0)" xlink:href="#aS"/><use transform="matrix(0.05,0,0,0.05,5,0)" xlink:href="#aC"/><use transform="matrix(0.05,0,0,0.05,8.95,0)" xlink:href="#aE"/><use transform="matrix(0.05,0,0,0.05,12.899999999999999,0)" xlink:href="#aG"/><use transform="matrix(0.05,0,0,0.05,18.849999999999998,0)" xlink:href="#aM"/><use transform="matrix(0.05,0,0,0.05,23.849999999999998,0)" xlink:href="#aT"/></g><path d="M160-131c35 5 61 23 61 61C221 17 115-2 30 0v-248c76 3 177-17 177 60 0 33-19 50-47 57zm-97-11c50-1 110 9 110-42 0-47-63-36-110-37v79zm0 115c55-2 124 14 124-45 0-56-70-42-124-44v89" id="aU"/><g id="j"><use transform="matrix(0.05,0,0,0.05,0,0)" xlink:href="#aU"/><use transform="matrix(0.05,0,0,0.05,12,0)" xlink:href="#aE"/><use transform="matrix(0.05,0,0,0.05,15.949999999999998,0)" xlink:href="#aF"/><use transform="matrix(0.05,0,0,0.05,25.950000000000003,0)" xlink:href="#az"/><use transform="matrix(0.05,0,0,0.05,35.95,0)" xlink:href="#aG"/><use transform="matrix(0.05,0,0,0.05,41.900000000000006,0)" xlink:href="#aH"/></g><g id="k"><use transform="matrix(0.05,0,0,0.05,0,0)" xlink:href="#aI"/><use transform="matrix(0.05,0,0,0.05,12.950000000000001,0)" xlink:href="#aJ"/><use transform="matrix(0.05,0,0,0.05,24.950000000000003,0)" xlink:href="#aK"/></g><g id="l"><use transform="matrix(0.05,0,0,0.05,0,0)" xlink:href="#aA"/><use transform="matrix(0.05,0,0,0.05,14.950000000000001,0)" xlink:href="#az"/><use transform="matrix(0.05,0,0,0.05,24.950000000000003,0)" xlink:href="#ay"/><use transform="matrix(0.05,0,0,0.05,33.95,0)" xlink:href="#aL"/></g><path d="M205 0l-28-72H64L36 0H1l101-248h38L239 0h-34zm-38-99l-47-123c-12 45-31 82-46 123h93" id="aV"/><path d="M96-169c-40 0-48 33-48 73s9 75 48 75c24 0 41-14 43-38l32 2c-6 37-31 61-74 61-59 0-76-41-82-99-10-93 101-131 147-64 4 7 5 14 7 22l-32 3c-4-21-16-35-41-35" id="aW"/><g id="m"><use transform="matrix(0.05,0,0,0.05,0,0)" xlink:href="#aV"/><use transform="matrix(0.05,0,0,0.05,12,0)" xlink:href="#aF"/><use transform="matrix(0.05,0,0,0.05,22,0)" xlink:href="#az"/><use transform="matrix(0.05,0,0,0.05,32,0)" xlink:href="#aM"/><use transform="matrix(0.05,0,0,0.05,37,0)" xlink:href="#aN"/><use transform="matrix(0.05,0,0,0.05,47,0)" xlink:href="#aA"/><use transform="matrix(0.05,0,0,0.05,61.95,0)" xlink:href="#aE"/><use transform="matrix(0.05,0,0,0.05,65.9,0)" xlink:href="#aW"/><use transform="matrix(0.05,0,0,0.05,74.9,0)" xlink:href="#az"/><use transform="matrix(0.05,0,0,0.05,84.9,0)" xlink:href="#aC"/></g><g id="n"><use transform="matrix(0.05,0,0,0.05,0,0)" xlink:href="#aD"/><use transform="matrix(0.05,0,0,0.05,10,0)" xlink:href="#aG"/><use transform="matrix(0.05,0,0,0.05,15.949999999999998,0)" xlink:href="#az"/><use transform="matrix(0.05,0,0,0.05,25.950000000000003,0)" xlink:href="#aE"/><use transform="matrix(0.05,0,0,0.05,29.899999999999995,0)" xlink:href="#aF"/></g><g id="o"><use transform="matrix(0.05,0,0,0.05,0,0)" xlink:href="#aR"/><use transform="matrix(0.05,0,0,0.05,10,0)" xlink:href="#az"/><use transform="matrix(0.05,0,0,0.05,20,0)" xlink:href="#aM"/><use transform="matrix(0.05,0,0,0.05,25,0)" xlink:href="#ax"/><use transform="matrix(0.05,0,0,0.05,35,0)" xlink:href="#aG"/><use transform="matrix(0.05,0,0,0.05,40.95,0)" xlink:href="#az"/><use transform="matrix(0.05,0,0,0.05,50.95,0)" xlink:href="#aC"/></g><path d="M108 0H70L1-190h34L89-25l56-165h34" id="aX"/><g id="p"><use transform="matrix(0.05,0,0,0.05,0,0)" xlink:href="#aX"/><use transform="matrix(0.05,0,0,0.05,9,0)" xlink:href="#ax"/><use transform="matrix(0.05,0,0,0.05,19,0)" xlink:href="#aF"/><use transform="matrix(0.05,0,0,0.05,29,0)" xlink:href="#aM"/><use transform="matrix(0.05,0,0,0.05,34,0)" xlink:href="#aG"/><use transform="matrix(0.05,0,0,0.05,39.95,0)" xlink:href="#aE"/><use transform="matrix(0.05,0,0,0.05,43.900000000000006,0)" xlink:href="#aW"/><use transform="matrix(0.05,0,0,0.05,52.900000000000006,0)" xlink:href="#aC"/><use transform="matrix(0.05,0,0,0.05,56.85,0)" xlink:href="#ax"/><use transform="matrix(0.05,0,0,0.05,66.85000000000001,0)" xlink:href="#ay"/></g><g id="q"><use transform="matrix(0.05,0,0,0.05,0,0)" xlink:href="#aA"/><use transform="matrix(0.05,0,0,0.05,14.950000000000001,0)" xlink:href="#az"/><use transform="matrix(0.05,0,0,0.05,24.950000000000003,0)" xlink:href="#ay"/><use transform="matrix(0.05,0,0,0.05,33.95,0)" xlink:href="#aL"/></g><g id="r"><use transform="matrix(0.05,0,0,0.05,0,0)" xlink:href="#aQ"/><use transform="matrix(0.05,0,0,0.05,5.95,0)" xlink:href="#aM"/><use transform="matrix(0.05,0,0,0.05,10.95,0)" xlink:href="#ax"/><use transform="matrix(0.05,0,0,0.05,20.95,0)" xlink:href="#aA"/><use transform="matrix(0.05,0,0,0.05,35.9,0)" xlink:href="#aB"/><use transform="matrix(0.05,0,0,0.05,45.9,0)" xlink:href="#aC"/><use transform="matrix(0.05,0,0,0.05,49.85,0)" xlink:href="#az"/><use transform="matrix(0.05,0,0,0.05,59.85,0)" xlink:href="#aM"/><use transform="matrix(0.05,0,0,0.05,64.85,0)" xlink:href="#ax"/></g><g id="s"><use transform="matrix(0.05,0,0,0.05,0,0)" xlink:href="#ay"/><use transform="matrix(0.05,0,0,0.05,9,0)" xlink:href="#aB"/><use transform="matrix(0.05,0,0,0.05,19,0)" xlink:href="#az"/><use transform="matrix(0.05,0,0,0.05,29,0)" xlink:href="#aW"/><use transform="matrix(0.05,0,0,0.05,38,0)" xlink:href="#ax"/><use transform="matrix(0.05,0,0,0.05,48,0)" xlink:href="#aT"/></g><path d="M33 0v-248h34V0H33" id="aY"/><g id="t"><use transform="matrix(0.05,0,0,0.05,0,0)" xlink:href="#aY"/><use transform="matrix(0.05,0,0,0.05,5,0)" xlink:href="#aF"/><use transform="matrix(0.05,0,0,0.05,15,0)" xlink:href="#aM"/><use transform="matrix(0.05,0,0,0.05,20,0)" xlink:href="#ax"/><use transform="matrix(0.05,0,0,0.05,30,0)" xlink:href="#aG"/><use transform="matrix(0.05,0,0,0.05,35.95,0)" xlink:href="#ay"/><use transform="matrix(0.05,0,0,0.05,44.95,0)" xlink:href="#ax"/><use transform="matrix(0.05,0,0,0.05,54.95,0)" xlink:href="#aW"/><use transform="matrix(0.05,0,0,0.05,63.95,0)" xlink:href="#aM"/><use transform="matrix(0.05,0,0,0.05,68.95,0)" xlink:href="#aE"/><use transform="matrix(0.05,0,0,0.05,72.9,0)" xlink:href="#aN"/><use transform="matrix(0.05,0,0,0.05,82.9,0)" xlink:href="#aF"/></g><g id="u"><use transform="matrix(0.05,0,0,0.05,0,0)" xlink:href="#aN"/><use transform="matrix(0.05,0,0,0.05,10,0)" xlink:href="#aS"/></g><path d="M85-194c31 0 48 13 60 33l-1-100h32l1 261h-30c-2-10 0-23-3-31C134-8 116 4 85 4 32 4 16-35 15-94c0-66 23-100 70-100zm9 24c-40 0-46 34-46 75 0 40 6 74 45 74 42 0 51-32 51-76 0-42-9-74-50-73" id="aZ"/><g id="v"><use transform="matrix(0.05,0,0,0.05,0,0)" xlink:href="#az"/><use transform="matrix(0.05,0,0,0.05,10,0)" xlink:href="#aF"/><use transform="matrix(0.05,0,0,0.05,20,0)" xlink:href="#aZ"/></g><g id="w"><use transform="matrix(0.05,0,0,0.05,0,0)" xlink:href="#aC"/><use transform="matrix(0.05,0,0,0.05,3.95,0)" xlink:href="#az"/><use transform="matrix(0.05,0,0,0.05,13.949999999999998,0)" xlink:href="#aM"/><use transform="matrix(0.05,0,0,0.05,18.95,0)" xlink:href="#ax"/><use transform="matrix(0.05,0,0,0.05,28.950000000000003,0)" xlink:href="#aG"/><use transform="matrix(0.05,0,0,0.05,34.9,0)" xlink:href="#az"/><use transform="matrix(0.05,0,0,0.05,44.9,0)" xlink:href="#aC"/></g><g id="x"><use transform="matrix(0.05,0,0,0.05,0,0)" xlink:href="#aX"/><use transform="matrix(0.05,0,0,0.05,9,0)" xlink:href="#ax"/><use transform="matrix(0.05,0,0,0.05,19,0)" xlink:href="#aF"/><use transform="matrix(0.05,0,0,0.05,29,0)" xlink:href="#aM"/><use transform="matrix(0.05,0,0,0.05,34,0)" xlink:href="#aG"/><use transform="matrix(0.05,0,0,0.05,39.95,0)" xlink:href="#aE"/><use transform="matrix(0.05,0,0,0.05,43.900000000000006,0)" xlink:href="#aW"/><use transform="matrix(0.05,0,0,0.05,52.900000000000006,0)" xlink:href="#aC"/><use transform="matrix(0.05,0,0,0.05,56.85,0)" xlink:href="#ax"/><use transform="matrix(0.05,0,0,0.05,66.85000000000001,0)" xlink:href="#ay"/></g><path d="M190 0L58-211 59 0H30v-248h39L202-35l-2-213h31V0h-41" id="ba"/><g id="y"><use transform="matrix(0.05,0,0,0.05,0,0)" xlink:href="#aQ"/><use transform="matrix(0.05,0,0,0.05,5.95,0)" xlink:href="#aV"/><use transform="matrix(0.05,0,0,0.05,17.95,0)" xlink:href="#aK"/><use transform="matrix(0.05,0,0,0.05,28.899999999999995,0)" xlink:href="#ba"/><use transform="matrix(0.05,0,0,0.05,41.85,0)" xlink:href="#aY"/></g><path d="M126-127c33 6 58 20 58 59 0 88-139 92-164 29-3-8-5-16-6-25l32-3c6 27 21 44 54 44 32 0 52-15 52-46 0-38-36-46-79-43v-28c39 1 72-4 72-42 0-27-17-43-46-43-28 0-47 15-49 41l-32-3c6-42 35-63 81-64 48-1 79 21 79 65 0 36-21 52-52 59" id="bb"/><g id="z"><use transform="matrix(0.05,0,0,0.05,0,0)" xlink:href="#bb"/><use transform="matrix(0.05,0,0,0.05,10,0)" xlink:href="#aZ"/><use transform="matrix(0.05,0,0,0.05,20,0)" xlink:href="#aW"/><use transform="matrix(0.05,0,0,0.05,29,0)" xlink:href="#az"/><use transform="matrix(0.05,0,0,0.05,39,0)" xlink:href="#aC"/><use transform="matrix(0.05,0,0,0.05,42.95,0)" xlink:href="#aW"/><use transform="matrix(0.05,0,0,0.05,51.95,0)" xlink:href="#aT"/></g><path d="M30-248c87 1 191-15 191 75 0 78-77 80-158 76V0H30v-248zm33 125c57 0 124 11 124-50 0-59-68-47-124-48v98" id="bc"/><g id="A"><use transform="matrix(0.05,0,0,0.05,0,0)" xlink:href="#bc"/><use transform="matrix(0.05,0,0,0.05,12,0)" xlink:href="#aG"/><use transform="matrix(0.05,0,0,0.05,17.95,0)" xlink:href="#ax"/><use transform="matrix(0.05,0,0,0.05,27.950000000000003,0)" xlink:href="#aB"/><use transform="matrix(0.05,0,0,0.05,37.95,0)" xlink:href="#aG"/><use transform="matrix(0.05,0,0,0.05,43.900000000000006,0)" xlink:href="#aN"/><use transform="matrix(0.05,0,0,0.05,53.900000000000006,0)" xlink:href="#aW"/><use transform="matrix(0.05,0,0,0.05,62.900000000000006,0)" xlink:href="#ax"/><use transform="matrix(0.05,0,0,0.05,72.9,0)" xlink:href="#ay"/><use transform="matrix(0.05,0,0,0.05,81.9,0)" xlink:href="#ay"/><use transform="matrix(0.05,0,0,0.05,90.9,0)" xlink:href="#ax"/><use transform="matrix(0.05,0,0,0.05,100.9,0)" xlink:href="#aZ"/></g><g id="B"><use transform="matrix(0.05,0,0,0.05,0,0)" xlink:href="#aS"/><use transform="matrix(0.05,0,0,0.05,5,0)" xlink:href="#aP"/><use transform="matrix(0.05,0,0,0.05,15,0)" xlink:href="#aF"/><use transform="matrix(0.05,0,0,0.05,25,0)" xlink:href="#aW"/><use transform="matrix(0.05,0,0,0.05,34,0)" xlink:href="#aM"/><use transform="matrix(0.05,0,0,0.05,39,0)" xlink:href="#aE"/><use transform="matrix(0.05,0,0,0.05,42.95,0)" xlink:href="#aN"/><use transform="matrix(0.05,0,0,0.05,52.95,0)" xlink:href="#aF"/><use transform="matrix(0.05,0,0,0.05,62.95,0)" xlink:href="#az"/><use transform="matrix(0.05,0,0,0.05,72.95,0)" xlink:href="#aC"/></g><g id="C"><use transform="matrix(0.05,0,0,0.05,0,0)" xlink:href="#aM"/><use transform="matrix(0.05,0,0,0.05,5,0)" xlink:href="#aE"/><use transform="matrix(0.05,0,0,0.05,8.95,0)" xlink:href="#aA"/><use transform="matrix(0.05,0,0,0.05,23.9,0)" xlink:href="#ax"/></g><g id="D"><use transform="matrix(0.05,0,0,0.05,0,0)" xlink:href="#ay"/><use transform="matrix(0.05,0,0,0.05,9,0)" xlink:href="#ax"/><use transform="matrix(0.05,0,0,0.05,19,0)" xlink:href="#aG"/><use transform="matrix(0.05,0,0,0.05,24.95,0)" xlink:href="#aE"/><use transform="matrix(0.05,0,0,0.05,28.899999999999995,0)" xlink:href="#ax"/><use transform="matrix(0.05,0,0,0.05,38.9,0)" xlink:href="#ay"/></g><path d="M140-251c81 0 123 46 123 126C263-46 219 4 140 4 59 4 17-45 17-125s42-126 123-126zm0 227c63 0 89-41 89-101s-29-99-89-99c-61 0-89 39-89 99S79-25 140-24" id="bd"/><path d="M30-248c118-7 216 8 213 122C240-48 200 0 122 0H30v-248zM63-27c89 8 146-16 146-99s-60-101-146-95v194" id="be"/><g id="E"><use transform="matrix(0.05,0,0,0.05,0,0)" xlink:href="#aQ"/><use transform="matrix(0.05,0,0,0.05,5.95,0)" xlink:href="#aU"/><use transform="matrix(0.05,0,0,0.05,17.95,0)" xlink:href="#bd"/><use transform="matrix(0.05,0,0,0.05,31.950000000000003,0)" xlink:href="#aR"/><use transform="matrix(0.05,0,0,0.05,41.95,0)" xlink:href="#be"/><use transform="matrix(0.05,0,0,0.05,54.900000000000006,0)" xlink:href="#aT"/></g><g id="F"><use transform="matrix(0.05,0,0,0.05,0,0)" xlink:href="#az"/><use transform="matrix(0.05,0,0,0.05,10,0)" xlink:href="#aF"/><use transform="matrix(0.05,0,0,0.05,20,0)" xlink:href="#az"/><use transform="matrix(0.05,0,0,0.05,30,0)" xlink:href="#aM"/><use transform="matrix(0.05,0,0,0.05,35,0)" xlink:href="#aN"/><use transform="matrix(0.05,0,0,0.05,45,0)" xlink:href="#aA"/><use transform="matrix(0.05,0,0,0.05,59.95,0)" xlink:href="#aE"/><use transform="matrix(0.05,0,0,0.05,63.900000000000006,0)" xlink:href="#aW"/><use transform="matrix(0.05,0,0,0.05,72.9,0)" xlink:href="#az"/><use transform="matrix(0.05,0,0,0.05,82.9,0)" xlink:href="#aC"/></g><g id="G"><use transform="matrix(0.05,0,0,0.05,0,0)" xlink:href="#aD"/><use transform="matrix(0.05,0,0,0.05,10,0)" xlink:href="#aG"/><use transform="matrix(0.05,0,0,0.05,15.949999999999998,0)" xlink:href="#az"/><use transform="matrix(0.05,0,0,0.05,25.950000000000003,0)" xlink:href="#aE"/><use transform="matrix(0.05,0,0,0.05,29.899999999999995,0)" xlink:href="#aF"/></g><g id="H"><use transform="matrix(0.05,0,0,0.05,0,0)" xlink:href="#aS"/><use transform="matrix(0.05,0,0,0.05,5,0)" xlink:href="#aC"/><use transform="matrix(0.05,0,0,0.05,8.95,0)" xlink:href="#aE"/><use transform="matrix(0.05,0,0,0.05,12.899999999999999,0)" xlink:href="#aG"/><use transform="matrix(0.05,0,0,0.05,18.849999999999998,0)" xlink:href="#aM"/></g><path d="M16-82v-28h88v28H16" id="bf"/><path d="M141 0L90-78 38 0H4l68-98-65-92h35l48 74 47-74h35l-64 92 68 98h-35" id="bg"/><g id="I"><use transform="matrix(0.05,0,0,0.05,0,0)" xlink:href="#bf"/><use transform="matrix(0.05,0,0,0.05,5.95,0)" xlink:href="#aE"/><use transform="matrix(0.05,0,0,0.05,9.9,0)" xlink:href="#ay"/><use transform="matrix(0.05,0,0,0.05,18.9,0)" xlink:href="#aN"/><use transform="matrix(0.05,0,0,0.05,28.899999999999995,0)" xlink:href="#az"/><use transform="matrix(0.05,0,0,0.05,38.9,0)" xlink:href="#aB"/><use transform="matrix(0.05,0,0,0.05,48.9,0)" xlink:href="#aB"/><use transform="matrix(0.05,0,0,0.05,58.900000000000006,0)" xlink:href="#aC"/><use transform="matrix(0.05,0,0,0.05,62.85,0)" xlink:href="#aH"/><use transform="matrix(0.05,0,0,0.05,71.85,0)" xlink:href="#bg"/><use transform="matrix(0.05,0,0,0.05,80.85,0)" xlink:href="#aS"/><use transform="matrix(0.05,0,0,0.05,85.85,0)" xlink:href="#aA"/><use transform="matrix(0.05,0,0,0.05,100.8,0)" xlink:href="#aT"/></g><path d="M266 0h-40l-56-210L115 0H75L2-248h35L96-30l15-64 43-154h32l59 218 59-218h35" id="bh"/><g id="J"><use transform="matrix(0.05,0,0,0.05,0,0)" xlink:href="#bh"/><use transform="matrix(0.05,0,0,0.05,16.3,0)" xlink:href="#az"/><use transform="matrix(0.05,0,0,0.05,26.3,0)" xlink:href="#aG"/><use transform="matrix(0.05,0,0,0.05,32.25,0)" xlink:href="#aB"/></g><g id="K"><use transform="matrix(0.05,0,0,0.05,0,0)" xlink:href="#aM"/><use transform="matrix(0.05,0,0,0.05,5,0)" xlink:href="#aN"/></g><g id="L"><use transform="matrix(0.05,0,0,0.05,0,0)" xlink:href="#az"/><use transform="matrix(0.05,0,0,0.05,10,0)" xlink:href="#aF"/><use transform="matrix(0.05,0,0,0.05,20,0)" xlink:href="#az"/><use transform="matrix(0.05,0,0,0.05,30,0)" xlink:href="#aM"/><use transform="matrix(0.05,0,0,0.05,35,0)" xlink:href="#aN"/><use transform="matrix(0.05,0,0,0.05,45,0)" xlink:href="#aA"/><use transform="matrix(0.05,0,0,0.05,59.95,0)" xlink:href="#aE"/><use transform="matrix(0.05,0,0,0.05,63.900000000000006,0)" xlink:href="#aW"/><use transform="matrix(0.05,0,0,0.05,72.9,0)" xlink:href="#az"/><use transform="matrix(0.05,0,0,0.05,82.9,0)" xlink:href="#aC"/></g><g id="M"><use transform="matrix(0.05,0,0,0.05,0,0)" xlink:href="#ay"/><use transform="matrix(0.05,0,0,0.05,9,0)" xlink:href="#aB"/><use transform="matrix(0.05,0,0,0.05,19,0)" xlink:href="#az"/><use transform="matrix(0.05,0,0,0.05,29,0)" xlink:href="#aW"/><use transform="matrix(0.05,0,0,0.05,38,0)" xlink:href="#ax"/></g><g id="N"><use transform="matrix(0.05,0,0,0.05,0,0)" xlink:href="#aE"/><use transform="matrix(0.05,0,0,0.05,3.95,0)" xlink:href="#aF"/></g><g id="O"><use transform="matrix(0.05,0,0,0.05,0,0)" xlink:href="#aO"/><use transform="matrix(0.05,0,0,0.05,10,0)" xlink:href="#aA"/><use transform="matrix(0.05,0,0,0.05,24.950000000000003,0)" xlink:href="#aA"/></g><g id="P"><use transform="matrix(0.05,0,0,0.05,0,0)" xlink:href="#aG"/><use transform="matrix(0.05,0,0,0.05,5.95,0)" xlink:href="#ax"/><use transform="matrix(0.05,0,0,0.05,15.949999999999998,0)" xlink:href="#ay"/><use transform="matrix(0.05,0,0,0.05,24.95,0)" xlink:href="#aN"/><use transform="matrix(0.05,0,0,0.05,34.95,0)" xlink:href="#aC"/><use transform="matrix(0.05,0,0,0.05,38.900000000000006,0)" xlink:href="#aP"/><use transform="matrix(0.05,0,0,0.05,48.900000000000006,0)" xlink:href="#aM"/><use transform="matrix(0.05,0,0,0.05,53.900000000000006,0)" xlink:href="#aE"/><use transform="matrix(0.05,0,0,0.05,57.85,0)" xlink:href="#aN"/><use transform="matrix(0.05,0,0,0.05,67.85000000000001,0)" xlink:href="#aF"/></g><g id="Q"><use transform="matrix(0.05,0,0,0.05,0,0)" xlink:href="#aK"/><use transform="matrix(0.05,0,0,0.05,10.950000000000001,0)" xlink:href="#aP"/><use transform="matrix(0.05,0,0,0.05,20.950000000000003,0)" xlink:href="#aF"/><use transform="matrix(0.05,0,0,0.05,30.950000000000003,0)" xlink:href="#aW"/><use transform="matrix(0.05,0,0,0.05,39.95,0)" xlink:href="#aM"/><use transform="matrix(0.05,0,0,0.05,44.95,0)" xlink:href="#aE"/><use transform="matrix(0.05,0,0,0.05,48.900000000000006,0)" xlink:href="#aN"/><use transform="matrix(0.05,0,0,0.05,58.900000000000006,0)" xlink:href="#aF"/><use transform="matrix(0.05,0,0,0.05,68.9,0)" xlink:href="#az"/><use transform="matrix(0.05,0,0,0.05,78.9,0)" xlink:href="#aC"/></g><g id="R"><use transform="matrix(0.05,0,0,0.05,0,0)" xlink:href="#aM"/><use transform="matrix(0.05,0,0,0.05,5,0)" xlink:href="#aG"/><use transform="matrix(0.05,0,0,0.05,10.95,0)" xlink:href="#az"/><use transform="matrix(0.05,0,0,0.05,20.95,0)" xlink:href="#aF"/><use transform="matrix(0.05,0,0,0.05,30.950000000000003,0)" xlink:href="#ay"/><use transform="matrix(0.05,0,0,0.05,39.95,0)" xlink:href="#aS"/><use transform="matrix(0.05,0,0,0.05,44.95,0)" xlink:href="#aN"/><use transform="matrix(0.05,0,0,0.05,54.95,0)" xlink:href="#aG"/><use transform="matrix(0.05,0,0,0.05,60.900000000000006,0)" xlink:href="#aA"/></g><path d="M30 0v-248h187v28H63v79h144v27H63v87h162V0H30" id="bi"/><g id="S"><use transform="matrix(0.05,0,0,0.05,0,0)" xlink:href="#bi"/><use transform="matrix(0.05,0,0,0.05,12,0)" xlink:href="#bg"/><use transform="matrix(0.05,0,0,0.05,21,0)" xlink:href="#aM"/><use transform="matrix(0.05,0,0,0.05,26,0)" xlink:href="#aG"/><use transform="matrix(0.05,0,0,0.05,31.950000000000003,0)" xlink:href="#az"/><use transform="matrix(0.05,0,0,0.05,41.95,0)" xlink:href="#aW"/><use transform="matrix(0.05,0,0,0.05,50.95,0)" xlink:href="#aM"/></g><path d="M27 0v-27h64v-190l-56 39v-29l58-41h29v221h61V0H27" id="bj"/><g id="T"><use transform="matrix(0.05,0,0,0.05,0,0)" xlink:href="#bj"/><use transform="matrix(0.05,0,0,0.05,10,0)" xlink:href="#be"/></g><g id="U"><use transform="matrix(0.05,0,0,0.05,0,0)" xlink:href="#aS"/><use transform="matrix(0.05,0,0,0.05,5,0)" xlink:href="#aG"/><use transform="matrix(0.05,0,0,0.05,10.95,0)" xlink:href="#aN"/><use transform="matrix(0.05,0,0,0.05,20.95,0)" xlink:href="#aA"/></g><g id="V"><use transform="matrix(0.05,0,0,0.05,0,0)" xlink:href="#aA"/><use transform="matrix(0.05,0,0,0.05,14.950000000000001,0)" xlink:href="#az"/><use transform="matrix(0.05,0,0,0.05,24.950000000000003,0)" xlink:href="#ay"/><use transform="matrix(0.05,0,0,0.05,33.95,0)" xlink:href="#aL"/><use transform="matrix(0.05,0,0,0.05,42.95,0)" xlink:href="#ax"/><use transform="matrix(0.05,0,0,0.05,52.95,0)" xlink:href="#aZ"/></g><g id="W"><use transform="matrix(0.05,0,0,0.05,0,0)" xlink:href="#az"/><use transform="matrix(0.05,0,0,0.05,10,0)" xlink:href="#aG"/><use transform="matrix(0.05,0,0,0.05,15.949999999999998,0)" xlink:href="#ax"/><use transform="matrix(0.05,0,0,0.05,25.950000000000003,0)" xlink:href="#az"/></g><g id="X"><use transform="matrix(0.05,0,0,0.05,0,0)" xlink:href="#bb"/><use transform="matrix(0.05,0,0,0.05,10,0)" xlink:href="#aZ"/><use transform="matrix(0.05,0,0,0.05,20,0)" xlink:href="#aw"/><use transform="matrix(0.05,0,0,0.05,32.95,0)" xlink:href="#bd"/><use transform="matrix(0.05,0,0,0.05,46.95,0)" xlink:href="#aY"/><use transform="matrix(0.05,0,0,0.05,51.95,0)" xlink:href="#ay"/><use transform="matrix(0.05,0,0,0.05,60.95,0)" xlink:href="#aM"/><use transform="matrix(0.05,0,0,0.05,65.95,0)" xlink:href="#az"/><use transform="matrix(0.05,0,0,0.05,75.95,0)" xlink:href="#aM"/><use transform="matrix(0.05,0,0,0.05,80.95,0)" xlink:href="#ay"/><use transform="matrix(0.05,0,0,0.05,89.95,0)" xlink:href="#aT"/></g><g id="Y"><use transform="matrix(0.05,0,0,0.05,0,0)" xlink:href="#aI"/><use transform="matrix(0.05,0,0,0.05,12.950000000000001,0)" xlink:href="#aJ"/><use transform="matrix(0.05,0,0,0.05,24.950000000000003,0)" xlink:href="#aK"/></g><path d="M177-190C167-65 218 103 67 71c-23-6-38-20-44-43l32-5c15 47 100 32 89-28v-30C133-14 115 1 83 1 29 1 15-40 15-95c0-56 16-97 71-98 29-1 48 16 59 35 1-10 0-23 2-32h30zM94-22c36 0 50-32 50-73 0-42-14-75-50-75-39 0-46 34-46 75s6 73 46 73" id="bk"/><g id="Z"><use transform="matrix(0.05,0,0,0.05,0,0)" xlink:href="#aG"/><use transform="matrix(0.05,0,0,0.05,5.95,0)" xlink:href="#ax"/><use transform="matrix(0.05,0,0,0.05,15.949999999999998,0)" xlink:href="#bk"/><use transform="matrix(0.05,0,0,0.05,25.950000000000003,0)" xlink:href="#aG"/><use transform="matrix(0.05,0,0,0.05,31.899999999999995,0)" xlink:href="#ax"/><use transform="matrix(0.05,0,0,0.05,41.9,0)" xlink:href="#ay"/><use transform="matrix(0.05,0,0,0.05,50.9,0)" xlink:href="#ay"/><use transform="matrix(0.05,0,0,0.05,59.900000000000006,0)" xlink:href="#aN"/><use transform="matrix(0.05,0,0,0.05,69.9,0)" xlink:href="#aG"/></g><g id="aa"><use transform="matrix(0.05,0,0,0.05,0,0)" xlink:href="#aS"/><use transform="matrix(0.05,0,0,0.05,5,0)" xlink:href="#aE"/><use transform="matrix(0.05,0,0,0.05,8.95,0)" xlink:href="#aC"/><use transform="matrix(0.05,0,0,0.05,12.899999999999999,0)" xlink:href="#ax"/></g><g id="ab"><use transform="matrix(0.05,0,0,0.05,0,0)" xlink:href="#aY"/><use transform="matrix(0.05,0,0,0.05,5,0)" xlink:href="#aF"/><use transform="matrix(0.05,0,0,0.05,15,0)" xlink:href="#aB"/><use transform="matrix(0.05,0,0,0.05,25,0)" xlink:href="#aP"/><use transform="matrix(0.05,0,0,0.05,35,0)" xlink:href="#aM"/></g><g id="ac"><use transform="matrix(0.05,0,0,0.05,0,0)" xlink:href="#aw"/><use transform="matrix(0.05,0,0,0.05,12.950000000000001,0)" xlink:href="#ax"/><use transform="matrix(0.05,0,0,0.05,22.950000000000003,0)" xlink:href="#aS"/><use transform="matrix(0.05,0,0,0.05,27.950000000000003,0)" xlink:href="#ax"/><use transform="matrix(0.05,0,0,0.05,37.95,0)" xlink:href="#aG"/><use transform="matrix(0.05,0,0,0.05,43.900000000000006,0)" xlink:href="#ax"/><use transform="matrix(0.05,0,0,0.05,53.900000000000006,0)" xlink:href="#aF"/><use transform="matrix(0.05,0,0,0.05,63.900000000000006,0)" xlink:href="#aW"/><use transform="matrix(0.05,0,0,0.05,72.9,0)" xlink:href="#ax"/></g><path d="M127-220V0H93v-220H8v-28h204v28h-85" id="bl"/><g id="ad"><use transform="matrix(0.05,0,0,0.05,0,0)" xlink:href="#bl"/><use transform="matrix(0.05,0,0,0.05,10.3,0)" xlink:href="#aG"/><use transform="matrix(0.05,0,0,0.05,16.25,0)" xlink:href="#az"/><use transform="matrix(0.05,0,0,0.05,26.25,0)" xlink:href="#aF"/><use transform="matrix(0.05,0,0,0.05,36.25,0)" xlink:href="#ay"/><use transform="matrix(0.05,0,0,0.05,45.25,0)" xlink:href="#aS"/><use transform="matrix(0.05,0,0,0.05,50.25,0)" xlink:href="#aN"/><use transform="matrix(0.05,0,0,0.05,60.25,0)" xlink:href="#aG"/><use transform="matrix(0.05,0,0,0.05,66.2,0)" xlink:href="#aA"/></g><g id="ae"><use transform="matrix(0.05,0,0,0.05,0,0)" xlink:href="#aY"/><use transform="matrix(0.05,0,0,0.05,5,0)" xlink:href="#aF"/><use transform="matrix(0.05,0,0,0.05,15,0)" xlink:href="#aB"/><use transform="matrix(0.05,0,0,0.05,25,0)" xlink:href="#aP"/><use transform="matrix(0.05,0,0,0.05,35,0)" xlink:href="#aM"/></g><g id="ag"><use transform="matrix(0.05,0,0,0.05,0,0)" xlink:href="#aw"/><use transform="matrix(0.05,0,0,0.05,12.950000000000001,0)" xlink:href="#ax"/><use transform="matrix(0.05,0,0,0.05,22.950000000000003,0)" xlink:href="#aS"/><use transform="matrix(0.05,0,0,0.05,27.950000000000003,0)" xlink:href="#ax"/><use transform="matrix(0.05,0,0,0.05,37.95,0)" xlink:href="#aG"/><use transform="matrix(0.05,0,0,0.05,43.900000000000006,0)" xlink:href="#ax"/><use transform="matrix(0.05,0,0,0.05,53.900000000000006,0)" xlink:href="#aF"/><use transform="matrix(0.05,0,0,0.05,63.900000000000006,0)" xlink:href="#aW"/><use transform="matrix(0.05,0,0,0.05,72.9,0)" xlink:href="#ax"/></g><g id="ah"><use transform="matrix(0.05,0,0,0.05,0,0)" xlink:href="#aw"/><use transform="matrix(0.05,0,0,0.05,12.950000000000001,0)" xlink:href="#ax"/><use transform="matrix(0.05,0,0,0.05,22.950000000000003,0)" xlink:href="#aS"/><use transform="matrix(0.05,0,0,0.05,27.950000000000003,0)" xlink:href="#aE"/><use transform="matrix(0.05,0,0,0.05,31.900000000000002,0)" xlink:href="#aF"/><use transform="matrix(0.05,0,0,0.05,41.900000000000006,0)" xlink:href="#ax"/></g><g id="ai"><use transform="matrix(0.05,0,0,0.05,0,0)" xlink:href="#aP"/><use transform="matrix(0.05,0,0,0.05,10,0)" xlink:href="#ay"/><use transform="matrix(0.05,0,0,0.05,19,0)" xlink:href="#aE"/><use transform="matrix(0.05,0,0,0.05,22.95,0)" xlink:href="#aF"/><use transform="matrix(0.05,0,0,0.05,32.95,0)" xlink:href="#bk"/></g><g id="aj"><use transform="matrix(0.05,0,0,0.05,0,0)" xlink:href="#aX"/><use transform="matrix(0.05,0,0,0.05,9,0)" xlink:href="#ax"/><use transform="matrix(0.05,0,0,0.05,19,0)" xlink:href="#aF"/><use transform="matrix(0.05,0,0,0.05,29,0)" xlink:href="#aM"/><use transform="matrix(0.05,0,0,0.05,34,0)" xlink:href="#aG"/><use transform="matrix(0.05,0,0,0.05,39.95,0)" xlink:href="#aE"/><use transform="matrix(0.05,0,0,0.05,43.900000000000006,0)" xlink:href="#aW"/><use transform="matrix(0.05,0,0,0.05,52.900000000000006,0)" xlink:href="#aC"/><use transform="matrix(0.05,0,0,0.05,56.85,0)" xlink:href="#ax"/></g><path d="M103-251c84 0 111 97 45 133-19 10-37 24-39 52H78c0-63 77-55 77-114 0-30-21-42-52-43-32 0-53 17-56 46l-32-2c7-45 34-72 88-72zM77 0v-35h34V0H77" id="bm"/><g id="ak"><use transform="matrix(0.05,0,0,0.05,0,0)" xlink:href="#aA"/><use transform="matrix(0.05,0,0,0.05,14.950000000000001,0)" xlink:href="#az"/><use transform="matrix(0.05,0,0,0.05,24.950000000000003,0)" xlink:href="#ay"/><use transform="matrix(0.05,0,0,0.05,33.95,0)" xlink:href="#aL"/><use transform="matrix(0.05,0,0,0.05,42.95,0)" xlink:href="#bm"/></g><path d="M137-103V0h-34v-103L8-248h37l75 118 75-118h37" id="bn"/><g id="al"><use transform="matrix(0.05,0,0,0.05,0,0)" xlink:href="#bn"/><use transform="matrix(0.05,0,0,0.05,10.35,0)" xlink:href="#ax"/><use transform="matrix(0.05,0,0,0.05,20.35,0)" xlink:href="#ay"/></g><g id="am"><use transform="matrix(0.05,0,0,0.05,0,0)" xlink:href="#ba"/><use transform="matrix(0.05,0,0,0.05,12.950000000000001,0)" xlink:href="#aN"/></g><g id="an"><use transform="matrix(0.05,0,0,0.05,0,0)" xlink:href="#aV"/><use transform="matrix(0.05,0,0,0.05,12,0)" xlink:href="#aF"/><use transform="matrix(0.05,0,0,0.05,22,0)" xlink:href="#az"/><use transform="matrix(0.05,0,0,0.05,32,0)" xlink:href="#aM"/><use transform="matrix(0.05,0,0,0.05,37,0)" xlink:href="#aN"/><use transform="matrix(0.05,0,0,0.05,47,0)" xlink:href="#aA"/><use transform="matrix(0.05,0,0,0.05,61.95,0)" xlink:href="#aE"/><use transform="matrix(0.05,0,0,0.05,65.9,0)" xlink:href="#aW"/><use transform="matrix(0.05,0,0,0.05,74.9,0)" xlink:href="#az"/><use transform="matrix(0.05,0,0,0.05,84.9,0)" xlink:href="#aC"/></g><g id="ao"><use transform="matrix(0.05,0,0,0.05,0,0)" xlink:href="#bc"/><use transform="matrix(0.05,0,0,0.05,12,0)" xlink:href="#aG"/><use transform="matrix(0.05,0,0,0.05,17.95,0)" xlink:href="#ax"/><use transform="matrix(0.05,0,0,0.05,27.950000000000003,0)" xlink:href="#aB"/><use transform="matrix(0.05,0,0,0.05,37.95,0)" xlink:href="#aG"/><use transform="matrix(0.05,0,0,0.05,43.900000000000006,0)" xlink:href="#aN"/><use transform="matrix(0.05,0,0,0.05,53.900000000000006,0)" xlink:href="#aW"/><use transform="matrix(0.05,0,0,0.05,62.900000000000006,0)" xlink:href="#ax"/><use transform="matrix(0.05,0,0,0.05,72.9,0)" xlink:href="#ay"/><use transform="matrix(0.05,0,0,0.05,81.9,0)" xlink:href="#ay"/><use transform="matrix(0.05,0,0,0.05,90.9,0)" xlink:href="#aE"/><use transform="matrix(0.05,0,0,0.05,94.85000000000001,0)" xlink:href="#aF"/><use transform="matrix(0.05,0,0,0.05,104.85000000000001,0)" xlink:href="#bk"/></g><g id="ap"><use transform="matrix(0.05,0,0,0.05,0,0)" xlink:href="#aK"/><use transform="matrix(0.05,0,0,0.05,10.950000000000001,0)" xlink:href="#aP"/><use transform="matrix(0.05,0,0,0.05,20.950000000000003,0)" xlink:href="#aF"/><use transform="matrix(0.05,0,0,0.05,30.950000000000003,0)" xlink:href="#aW"/><use transform="matrix(0.05,0,0,0.05,39.95,0)" xlink:href="#aM"/><use transform="matrix(0.05,0,0,0.05,44.95,0)" xlink:href="#aE"/><use transform="matrix(0.05,0,0,0.05,48.900000000000006,0)" xlink:href="#aN"/><use transform="matrix(0.05,0,0,0.05,58.900000000000006,0)" xlink:href="#aF"/><use transform="matrix(0.05,0,0,0.05,68.9,0)" xlink:href="#az"/><use transform="matrix(0.05,0,0,0.05,78.9,0)" xlink:href="#aC"/></g><g id="aq"><use transform="matrix(0.05,0,0,0.05,0,0)" xlink:href="#bl"/><use transform="matrix(0.05,0,0,0.05,10.3,0)" xlink:href="#aE"/><use transform="matrix(0.05,0,0,0.05,14.25,0)" xlink:href="#ay"/><use transform="matrix(0.05,0,0,0.05,23.25,0)" xlink:href="#ay"/><use transform="matrix(0.05,0,0,0.05,32.25,0)" xlink:href="#aP"/><use transform="matrix(0.05,0,0,0.05,42.25,0)" xlink:href="#ax"/></g><g id="ar"><use transform="matrix(0.05,0,0,0.05,0,0)" xlink:href="#aJ"/><use transform="matrix(0.05,0,0,0.05,12,0)" xlink:href="#ax"/><use transform="matrix(0.05,0,0,0.05,22,0)" xlink:href="#bk"/><use transform="matrix(0.05,0,0,0.05,32,0)" xlink:href="#aA"/><use transform="matrix(0.05,0,0,0.05,46.95,0)" xlink:href="#ax"/><use transform="matrix(0.05,0,0,0.05,56.95,0)" xlink:href="#aF"/><use transform="matrix(0.05,0,0,0.05,66.95,0)" xlink:href="#aM"/><use transform="matrix(0.05,0,0,0.05,71.95,0)" xlink:href="#az"/><use transform="matrix(0.05,0,0,0.05,81.95,0)" xlink:href="#aM"/><use transform="matrix(0.05,0,0,0.05,86.95,0)" xlink:href="#aE"/><use transform="matrix(0.05,0,0,0.05,90.9,0)" xlink:href="#aN"/><use transform="matrix(0.05,0,0,0.05,100.9,0)" xlink:href="#aF"/></g><g id="as"><use transform="matrix(0.05,0,0,0.05,0,0)" xlink:href="#aV"/><use transform="matrix(0.05,0,0,0.05,12,0)" xlink:href="#aF"/><use transform="matrix(0.05,0,0,0.05,22,0)" xlink:href="#az"/><use transform="matrix(0.05,0,0,0.05,32,0)" xlink:href="#aM"/><use transform="matrix(0.05,0,0,0.05,37,0)" xlink:href="#aN"/><use transform="matrix(0.05,0,0,0.05,47,0)" xlink:href="#aA"/><use transform="matrix(0.05,0,0,0.05,61.95,0)" xlink:href="#aE"/><use transform="matrix(0.05,0,0,0.05,65.9,0)" xlink:href="#aW"/><use transform="matrix(0.05,0,0,0.05,74.9,0)" xlink:href="#az"/><use transform="matrix(0.05,0,0,0.05,84.9,0)" xlink:href="#aC"/></g><g id="at"><use transform="matrix(0.05,0,0,0.05,0,0)" xlink:href="#aI"/><use transform="matrix(0.05,0,0,0.05,12.950000000000001,0)" xlink:href="#aN"/><use transform="matrix(0.05,0,0,0.05,22.950000000000003,0)" xlink:href="#bf"/><use transform="matrix(0.05,0,0,0.05,28.900000000000002,0)" xlink:href="#aw"/><use transform="matrix(0.05,0,0,0.05,41.85,0)" xlink:href="#ax"/><use transform="matrix(0.05,0,0,0.05,51.85,0)" xlink:href="#bk"/><use transform="matrix(0.05,0,0,0.05,61.85,0)" xlink:href="#aE"/><use transform="matrix(0.05,0,0,0.05,65.8,0)" xlink:href="#ay"/><use transform="matrix(0.05,0,0,0.05,74.8,0)" xlink:href="#aM"/><use transform="matrix(0.05,0,0,0.05,79.8,0)" xlink:href="#aG"/><use transform="matrix(0.05,0,0,0.05,85.75,0)" xlink:href="#az"/><use transform="matrix(0.05,0,0,0.05,95.75,0)" xlink:href="#aM"/><use transform="matrix(0.05,0,0,0.05,100.75,0)" xlink:href="#aE"/><use transform="matrix(0.05,0,0,0.05,104.7,0)" xlink:href="#aN"/><use transform="matrix(0.05,0,0,0.05,114.7,0)" xlink:href="#aF"/></g><g id="au"><use transform="matrix(0.05,0,0,0.05,0,0)" xlink:href="#bc"/><use transform="matrix(0.05,0,0,0.05,12,0)" xlink:href="#aE"/><use transform="matrix(0.05,0,0,0.05,15.949999999999998,0)" xlink:href="#aB"/><use transform="matrix(0.05,0,0,0.05,25.950000000000003,0)" xlink:href="#ax"/><use transform="matrix(0.05,0,0,0.05,35.95,0)" xlink:href="#aC"/><use transform="matrix(0.05,0,0,0.05,39.900000000000006,0)" xlink:href="#aE"/><use transform="matrix(0.05,0,0,0.05,43.85000000000001,0)" xlink:href="#aF"/><use transform="matrix(0.05,0,0,0.05,53.85,0)" xlink:href="#ax"/></g><g id="av"><use transform="matrix(0.05,0,0,0.05,0,0)" xlink:href="#aI"/><use transform="matrix(0.05,0,0,0.05,12.950000000000001,0)" xlink:href="#aN"/><use transform="matrix(0.05,0,0,0.05,22.950000000000003,0)" xlink:href="#aF"/><use transform="matrix(0.05,0,0,0.05,32.95,0)" xlink:href="#aS"/><use transform="matrix(0.05,0,0,0.05,37.95,0)" xlink:href="#aE"/><use transform="matrix(0.05,0,0,0.05,41.900000000000006,0)" xlink:href="#bk"/><use transform="matrix(0.05,0,0,0.05,51.900000000000006,0)" xlink:href="#aP"/><use transform="matrix(0.05,0,0,0.05,61.900000000000006,0)" xlink:href="#aG"/><use transform="matrix(0.05,0,0,0.05,67.85000000000001,0)" xlink:href="#az"/><use transform="matrix(0.05,0,0,0.05,77.85000000000001,0)" xlink:href="#aM"/><use transform="matrix(0.05,0,0,0.05,82.85000000000001,0)" xlink:href="#aE"/><use transform="matrix(0.05,0,0,0.05,86.80000000000001,0)" xlink:href="#aN"/><use transform="matrix(0.05,0,0,0.05,96.80000000000001,0)" xlink:href="#aF"/></g></defs></g></svg>