<svg xmlns="http://www.w3.org/2000/svg" xmlns:xlink="http://www.w3.org/1999/xlink" xmlns:lucid="lucid" width="2400" height="1860"><g transform="translate(-160 1040)" lucid:page-tab-id="0_0"><path d="M0-1296h3456v2656H0z" fill="#fff"/><path d="M260-414.45h880v202H260zM200-80h1216.25v880H200zM1540-81.65h1000V660H1540z" stroke="#000" stroke-width="2" fill="#83bbe5"/><path d="M736.2-1020c24.2 0 43.8 17.9 43.8 40s-19.6 40-43.8 40H604.8c-24.2 0-43.8-17.9-43.8-40s19.6-40 43.8-40z" stroke="#000" stroke-width="2" fill="#ffc374"/><use xlink:href="#a" transform="matrix(1,0,0,1,566.0000085610559,-1015) translate(46.62499999999999 38.4625)"/><use xlink:href="#b" transform="matrix(1,0,0,1,566.0000085610559,-1015) translate(128.475 38.4625)"/><path d="M561-668.2h219v96.4H561z" stroke="#000" stroke-width="2" fill="#b2d6ef"/><use xlink:href="#c" transform="matrix(1,0,0,1,566.0000085610559,-663.2) translate(29.14999999999999 14.4)"/><use xlink:href="#d" transform="matrix(1,0,0,1,566.0000085610559,-663.2) translate(57.099999999999994 14.4)"/><use xlink:href="#e" transform="matrix(1,0,0,1,566.0000085610559,-663.2) translate(97.05 14.4)"/><use xlink:href="#f" transform="matrix(1,0,0,1,566.0000085610559,-663.2) translate(68.07499999999999 36)"/><use xlink:href="#g" transform="matrix(1,0,0,1,566.0000085610559,-663.2) translate(83.05 57.6)"/><use xlink:href="#h" transform="matrix(1,0,0,1,566.0000085610559,-663.2) translate(11.75 79.20000000000002)"/><path d="M561-780h219v80H561z" stroke="#000" stroke-width="2" fill="#b2d6ef"/><use xlink:href="#i" transform="matrix(1,0,0,1,566.0000085610559,-775) translate(71.55 16.5875)"/><use xlink:href="#j" transform="matrix(1,0,0,1,566.0000085610559,-775) translate(68.07499999999999 38.1875)"/><use xlink:href="#k" transform="matrix(1,0,0,1,566.0000085610559,-775) translate(46.099999999999994 59.7875)"/><use xlink:href="#l" transform="matrix(1,0,0,1,566.0000085610559,-775) translate(94 59.7875)"/><path d="M561-540h219v80H561z" stroke="#000" stroke-width="2" fill="#b2d6ef"/><use xlink:href="#m" transform="matrix(1,0,0,1,566.0000085610559,-535) translate(43.099999999999994 27.525)"/><use xlink:href="#n" transform="matrix(1,0,0,1,566.0000085610559,-535) translate(115.95 27.525)"/><use xlink:href="#o" transform="matrix(1,0,0,1,566.0000085610559,-535) translate(135.95 27.525)"/><use xlink:href="#p" transform="matrix(1,0,0,1,566.0000085610559,-535) translate(28.674999999999997 49.125)"/><use xlink:href="#q" transform="matrix(1,0,0,1,566.0000085610559,-535) translate(80.525 49.125)"/><path d="M561-900h219v80H561z" stroke="#000" stroke-width="2" fill="#b2d6ef"/><use xlink:href="#r" transform="matrix(1,0,0,1,566.0000085610559,-895) translate(64.07499999999999 27.525)"/><use xlink:href="#p" transform="matrix(1,0,0,1,566.0000085610559,-895) translate(50.64999999999999 49.125)"/><use xlink:href="#s" transform="matrix(1,0,0,1,566.0000085610559,-895) translate(102.5 49.125)"/><path d="M300-323.7h140v67.14H300z" stroke="#000" stroke-width="2" fill="#b2d6ef"/><use xlink:href="#t" transform="matrix(1,0,0,1,305,-318.6906064209276) translate(44.55 21.65)"/><use xlink:href="#u" transform="matrix(1,0,0,1,305,-318.6906064209276) translate(17.099999999999994 43.25)"/><path d="M260-420h240v60H260z" stroke="#000" stroke-opacity="0" stroke-width="2" fill="#fff" fill-opacity="0"/><use xlink:href="#v" transform="matrix(1,0,0,1,265,-415) translate(12.259259259259252 30.708333333333336)"/><use xlink:href="#w" transform="matrix(1,0,0,1,265,-415) translate(87.66666666666667 30.708333333333336)"/><path d="M460-323.7h140v67.14H460z" stroke="#000" stroke-width="2" fill="#b2d6ef"/><use xlink:href="#x" transform="matrix(1,0,0,1,464.9999999999993,-318.6906064209276) translate(48.849999999999994 21.65)"/><use xlink:href="#y" transform="matrix(1,0,0,1,464.9999999999993,-318.6906064209276) translate(47.525 43.25)"/><path d="M620.5-323.7h140v67.14h-140z" stroke="#000" stroke-width="2" fill="#b2d6ef"/><use xlink:href="#z" transform="matrix(1,0,0,1,625.5000042805277,-318.6906064209276) translate(18.624999999999993 21.65)"/><use xlink:href="#A" transform="matrix(1,0,0,1,625.5000042805277,-318.6906064209276) translate(43.55 43.25)"/><path d="M781-323.7h140v67.14H781z" stroke="#000" stroke-width="2" fill="#b2d6ef"/><use xlink:href="#B" transform="matrix(1,0,0,1,786.0000085610552,-318.6906064209276) translate(41.575 32.525)"/><path d="M941-323.7h140v67.14H941z" stroke="#000" stroke-width="2" fill="#b2d6ef"/><use xlink:href="#C" transform="matrix(1,0,0,1,946.000008561055,-318.6906064209276) translate(25.049999999999997 21.65)"/><use xlink:href="#D" transform="matrix(1,0,0,1,946.000008561055,-318.6906064209276) translate(62 21.65)"/><use xlink:href="#p" transform="matrix(1,0,0,1,946.000008561055,-318.6906064209276) translate(10.125 43.25)"/><use xlink:href="#E" transform="matrix(1,0,0,1,946.000008561055,-318.6906064209276) translate(61.975 43.25)"/><path d="M1087.2-1020c24.2 0 43.8 17.9 43.8 40s-19.6 40-43.8 40H955.8c-24.2 0-43.8-17.9-43.8-40s19.6-40 43.8-40z" stroke="#000" stroke-width="2" fill="#ffc374"/><use xlink:href="#F" transform="matrix(1,0,0,1,917.0000171221118,-1015) translate(12.654999999999982 27.525)"/><use xlink:href="#G" transform="matrix(1,0,0,1,917.0000171221118,-1015) translate(106.505 27.525)"/><use xlink:href="#D" transform="matrix(1,0,0,1,917.0000171221118,-1015) translate(153.405 27.525)"/><use xlink:href="#H" transform="matrix(1,0,0,1,917.0000171221118,-1015) translate(57.129999999999995 49.125)"/><use xlink:href="#I" transform="matrix(1,0,0,1,917.0000171221118,-1015) translate(77.03 49.125)"/><path d="M180-80h381v54.74H180z" stroke="#000" stroke-opacity="0" stroke-width="2" fill="#fff" fill-opacity="0"/><use xlink:href="#J" transform="matrix(1,0,0,1,185,-75.00000000000003) translate(36.96296296296293 21.333333333333336)"/><use xlink:href="#K" transform="matrix(1,0,0,1,185,-75.00000000000003) translate(187.77777777777777 21.333333333333336)"/><use xlink:href="#L" transform="matrix(1,0,0,1,185,-75.00000000000003) translate(220.22222222222223 21.333333333333336)"/><use xlink:href="#M" transform="matrix(1,0,0,1,185,-75.00000000000003) translate(108.44444444444444 53.333333333333336)"/><path d="M250.5 180H759v330H250.5zM1030 179.9h330v315.2h-330z" stroke="#000" stroke-width="2" fill="#b2d6ef"/><path d="M200 179.9h180v40H200z" stroke="#000" stroke-opacity="0" stroke-width="2" fill="#fff" fill-opacity="0"/><use xlink:href="#N" transform="matrix(1,0,0,1,205,184.89999999999998) translate(68.05 18.15)"/><path d="M951 169.9h240v60H951z" stroke="#000" stroke-opacity="0" stroke-width="2" fill="#fff" fill-opacity="0"/><use xlink:href="#O" transform="matrix(1,0,0,1,956.0000085610559,174.89999999999998) translate(92.25 30.025)"/><path d="M280 240.1h160v79.8H280z" stroke="#000" stroke-width="2" fill="#fff"/><use xlink:href="#P" transform="matrix(1,0,0,1,285,245.1) translate(3.1500000000000057 16.5875)"/><use xlink:href="#Q" transform="matrix(1,0,0,1,285,245.1) translate(58.05000000000001 16.5875)"/><use xlink:href="#R" transform="matrix(1,0,0,1,285,245.1) translate(7.049999999999997 38.1875)"/><use xlink:href="#S" transform="matrix(1,0,0,1,285,245.1) translate(27.049999999999997 38.1875)"/><use xlink:href="#n" transform="matrix(1,0,0,1,285,245.1) translate(53 38.1875)"/><use xlink:href="#T" transform="matrix(1,0,0,1,285,245.1) translate(73 38.1875)"/><use xlink:href="#U" transform="matrix(1,0,0,1,285,245.1) translate(25.64999999999999 59.7875)"/><use xlink:href="#V" transform="matrix(1,0,0,1,285,245.1) translate(68.89999999999999 59.7875)"/><path d="M520 260h185.5v80H520z" stroke="#000" stroke-width="2" fill="#fff"/><use xlink:href="#W" transform="matrix(1,0,0,1,525,265) translate(2.6999999999999886 16.5875)"/><use xlink:href="#Q" transform="matrix(1,0,0,1,525,265) translate(84.5 16.5875)"/><use xlink:href="#R" transform="matrix(1,0,0,1,525,265) translate(20.049999999999997 38.1875)"/><use xlink:href="#S" transform="matrix(1,0,0,1,525,265) translate(40.05 38.1875)"/><use xlink:href="#n" transform="matrix(1,0,0,1,525,265) translate(66 38.1875)"/><use xlink:href="#T" transform="matrix(1,0,0,1,525,265) translate(86 38.1875)"/><use xlink:href="#U" transform="matrix(1,0,0,1,525,265) translate(37.175 59.7875)"/><use xlink:href="#X" transform="matrix(1,0,0,1,525,265) translate(80.425 59.7875)"/><path d="M360 380.1h160v79.8H360z" stroke="#000" stroke-width="2" fill="#fff"/><use xlink:href="#Y" transform="matrix(1,0,0,1,365,385.1) translate(15.574999999999996 27.525)"/><use xlink:href="#Z" transform="matrix(1,0,0,1,365,385.1) translate(65.525 27.525)"/><use xlink:href="#aa" transform="matrix(1,0,0,1,365,385.1) translate(95.525 27.525)"/><use xlink:href="#U" transform="matrix(1,0,0,1,365,385.1) translate(1.4499999999999886 49.125)"/><use xlink:href="#ab" transform="matrix(1,0,0,1,365,385.1) translate(44.69999999999999 49.125)"/><path d="M580 400h160v80H580z" stroke="#000" stroke-width="2" fill="#fff"/><use xlink:href="#ac" transform="matrix(1,0,0,1,585,405) translate(37.525 16.5875)"/><use xlink:href="#ad" transform="matrix(1,0,0,1,585,405) translate(87.475 16.5875)"/><use xlink:href="#ae" transform="matrix(1,0,0,1,585,405) translate(16.124999999999993 38.1875)"/><use xlink:href="#aa" transform="matrix(1,0,0,1,585,405) translate(94.975 38.1875)"/><use xlink:href="#U" transform="matrix(1,0,0,1,585,405) translate(9.474999999999994 59.7875)"/><use xlink:href="#af" transform="matrix(1,0,0,1,585,405) translate(52.724999999999994 59.7875)"/><path d="M1115 257.5h160v160h-160z" stroke="#000" stroke-width="2" fill="#fff"/><use xlink:href="#P" transform="matrix(1,0,0,1,1120,262.49375) translate(2.875 33.15)"/><use xlink:href="#ag" transform="matrix(1,0,0,1,1120,262.49375) translate(57.775000000000006 33.15)"/><use xlink:href="#ah" transform="matrix(1,0,0,1,1120,262.49375) translate(73.275 33.15)"/><use xlink:href="#S" transform="matrix(1,0,0,1,1120,262.49375) translate(17.049999999999997 54.75)"/><use xlink:href="#n" transform="matrix(1,0,0,1,1120,262.49375) translate(43 54.75)"/><use xlink:href="#ai" transform="matrix(1,0,0,1,1120,262.49375) translate(63 54.75)"/><use xlink:href="#aj" transform="matrix(1,0,0,1,1120,262.49375) translate(30.6 76.35000000000001)"/><use xlink:href="#ak" transform="matrix(1,0,0,1,1120,262.49375) translate(50.575 97.95000000000002)"/><use xlink:href="#al" transform="matrix(1,0,0,1,1120,262.49375) translate(7.125 119.55000000000001)"/><path d="M739.6 610c22.04 0 39.9 23.73 39.9 53s-17.86 53-39.9 53H619.9c-22.04 0-39.9-23.73-39.9-53s17.86-53 39.9-53z" stroke="#000" stroke-width="2" fill="#ffeca9"/><use xlink:href="#am" transform="matrix(1,0,0,1,585,615) translate(11.449444444444433 36.489583333333336)"/><use xlink:href="#an" transform="matrix(1,0,0,1,585,615) translate(92.78277777777777 36.489583333333336)"/><use xlink:href="#ao" transform="matrix(1,0,0,1,585,615) translate(22.819814814814798 68.48958333333334)"/><use xlink:href="#ap" transform="matrix(1,0,0,1,585,615) translate(94.81981481481482 68.48958333333334)"/><path d="M1050.4 610c20.77 0 37.6 23.73 37.6 53s-16.83 53-37.6 53H937.6c-20.77 0-37.6-23.73-37.6-53s16.83-53 37.6-53z" stroke="#000" stroke-width="2" fill="#ffeca9"/><use xlink:href="#aq" transform="matrix(1,0,0,1,905,615) translate(32.11611111111111 36.489583333333336)"/><use xlink:href="#ar" transform="matrix(1,0,0,1,905,615) translate(60.19018518518518 68.48958333333334)"/><path d="M439.85 610c22.04 0 39.9 23.73 39.9 53s-17.86 53-39.9 53h-119.7c-22.04 0-39.9-23.73-39.9-53s17.86-53 39.9-53z" stroke="#000" stroke-width="2" fill="#ffeca9"/><use xlink:href="#am" transform="matrix(1,0,0,1,285.25000214026386,615) translate(22.042037037037026 36.489583333333336)"/><use xlink:href="#as" transform="matrix(1,0,0,1,285.25000214026386,615) translate(103.37537037037036 36.489583333333336)"/><use xlink:href="#ap" transform="matrix(1,0,0,1,285.25000214026386,615) translate(58.819814814814805 68.48958333333334)"/><path d="M1352 610c26.5 0 48 23.73 48 53s-21.5 53-48 53h-144c-26.5 0-48-23.73-48-53s21.5-53 48-53z" stroke="#000" stroke-width="2" fill="#ffeca9"/><use xlink:href="#at" transform="matrix(1,0,0,1,1165,615) translate(16.430925925925912 36.489583333333336)"/><use xlink:href="#au" transform="matrix(1,0,0,1,1165,615) translate(155.46796296296299 36.489583333333336)"/><use xlink:href="#av" transform="matrix(1,0,0,1,1165,615) translate(10.671666666666647 68.48958333333334)"/><use xlink:href="#aw" transform="matrix(1,0,0,1,1165,615) translate(38.74574074074073 68.48958333333334)"/><use xlink:href="#ax" transform="matrix(1,0,0,1,1165,615) translate(148.22722222222222 68.48958333333334)"/><path d="M559-500H219V40h21.5" stroke="#000" stroke-width="2" fill="none"/><path d="M560-499h-1.03v-2H560z"/><path d="M255.76 40l-14.26 4.64v-9.28z" stroke="#000" stroke-width="2"/><path d="M388 0c17.67 0 32 17.9 32 40s-14.33 40-32 40h-96c-17.67 0-32-17.9-32-40s14.33-40 32-40z" stroke="#000" stroke-width="2" fill="#ffc374"/><use xlink:href="#ay" transform="matrix(1,0,0,1,265,5) translate(4.099999999999994 38.4625)"/><use xlink:href="#az" transform="matrix(1,0,0,1,265,5) translate(102.95 38.4625)"/><path d="M868 0c17.67 0 32 17.9 32 40s-14.33 40-32 40h-96c-17.67 0-32-17.9-32-40s14.33-40 32-40z" stroke="#000" stroke-width="2" fill="#ffc374"/><use xlink:href="#F" transform="matrix(1,0,0,1,745,5) translate(7.125 27.525)"/><use xlink:href="#aA" transform="matrix(1,0,0,1,745,5) translate(100.97500000000001 27.525)"/><use xlink:href="#aB" transform="matrix(1,0,0,1,745,5) translate(56.525 49.125)"/><path d="M628 0c17.67 0 32 17.9 32 40s-14.33 40-32 40h-96c-17.67 0-32-17.9-32-40s14.33-40 32-40z" stroke="#000" stroke-width="2" fill="#ffc374"/><use xlink:href="#aC" transform="matrix(1,0,0,1,505,5) translate(15.125 38.4625)"/><use xlink:href="#aD" transform="matrix(1,0,0,1,505,5) translate(92.97500000000001 38.4625)"/><path d="M1119 .2c17.67 0 32 17.9 32 40s-14.33 40-32 40h-96c-17.67 0-32-17.9-32-40s14.33-40 32-40z" stroke="#000" stroke-width="2" fill="#ffc374"/><use xlink:href="#aC" transform="matrix(1,0,0,1,996.0000085610559,5.199999999999818) translate(10.625 27.525)"/><use xlink:href="#aE" transform="matrix(1,0,0,1,996.0000085610559,5.199999999999818) translate(88.47500000000001 27.525)"/><use xlink:href="#az" transform="matrix(1,0,0,1,996.0000085610559,5.199999999999818) translate(53.525 49.125)"/><path d="M928 180c17.67 0 32 17.9 32 40s-14.33 40-32 40h-96c-17.67 0-32-17.9-32-40s14.33-40 32-40z" stroke="#000" stroke-width="2" fill="#ffc374"/><use xlink:href="#aC" transform="matrix(1,0,0,1,805,185) translate(14.599999999999994 38.4625)"/><use xlink:href="#aF" transform="matrix(1,0,0,1,805,185) translate(92.45 38.4625)"/><path d="M928 280c17.67 0 32 17.9 32 40s-14.33 40-32 40h-96c-17.67 0-32-17.9-32-40s14.33-40 32-40z" stroke="#000" stroke-width="2" fill="#ffc374"/><use xlink:href="#aG" transform="matrix(1,0,0,1,805,285) translate(48.95 27.525)"/><use xlink:href="#aH" transform="matrix(1,0,0,1,805,285) translate(4.674999999999997 49.125)"/><use xlink:href="#aI" transform="matrix(1,0,0,1,805,285) translate(116.47500000000001 49.125)"/><path d="M2456 265.33c35.35 0 64 35.67 64 79.67s-28.65 79.67-64 79.67h-192c-35.35 0-64-35.67-64-79.67s28.65-79.67 64-79.67z" stroke="#000" stroke-width="2" fill="#ffeca9"/><use xlink:href="#aJ" transform="matrix(1,0,0,1,2205,270.3333333333333) translate(27.037037037037038 63.520833333333336)"/><use xlink:href="#aK" transform="matrix(1,0,0,1,2205,270.3333333333333) translate(146.81481481481484 63.520833333333336)"/><use xlink:href="#aL" transform="matrix(1,0,0,1,2205,270.3333333333333) translate(225.33333333333334 63.520833333333336)"/><use xlink:href="#aM" transform="matrix(1,0,0,1,2205,270.3333333333333) translate(60.33833333333332 95.52083333333334)"/><use xlink:href="#aN" transform="matrix(1,0,0,1,2205,270.3333333333333) translate(122.41240740740739 95.52083333333334)"/><use xlink:href="#aO" transform="matrix(1,0,0,1,2205,270.3333333333333) translate(172.7087037037037 95.52083333333334)"/><path d="M1820 265.33h280v159.34h-280z" stroke="#000" stroke-width="2" fill="#b2d6ef"/><use xlink:href="#aP" transform="matrix(1,0,0,1,1825,270.3333333333333) translate(4.949999999999989 80.025)"/><use xlink:href="#aQ" transform="matrix(1,0,0,1,1825,270.3333333333333) translate(87.44999999999999 80.025)"/><use xlink:href="#aR" transform="matrix(1,0,0,1,1825,270.3333333333333) translate(146.35 80.025)"/><path d="M1580-93.07h460v80.87h-460z" stroke="#000" stroke-opacity="0" stroke-width="2" fill="#fff" fill-opacity="0"/><use xlink:href="#aS" transform="matrix(1,0,0,1,1585,-88.0652715957317) translate(91.48148148148147 41.302083333333336)"/><use xlink:href="#aT" transform="matrix(1,0,0,1,1585,-88.0652715957317) translate(182.66666666666669 41.302083333333336)"/><path d="M670.5-938v18.5" stroke="#000" stroke-width="2" fill="none"/><path d="M671.5-937.97h-2V-939h2z"/><path d="M670.5-904.24l-4.64-14.26h9.28z" stroke="#000" stroke-width="2"/><path d="M670.5-938v18.5M670.5-937.97V-939" stroke="#000" stroke-width="2" fill="none"/><path d="M670.5-904.24l-4.64-14.26h9.28z" stroke="#000" stroke-width="2"/><path d="M670.5-818v18.5" stroke="#000" stroke-width="2" fill="none"/><path d="M671.5-817.97h-2V-819h2z"/><path d="M670.5-784.24l-4.64-14.26h9.28z" stroke="#000" stroke-width="2"/><path d="M670.5-698v10.3" stroke="#000" stroke-width="2" fill="none"/><path d="M671.5-697.97h-2V-699h2z"/><path d="M670.5-672.44l-4.64-14.26h9.28z" stroke="#000" stroke-width="2"/><path d="M670.5-569.8v10.3" stroke="#000" stroke-width="2" fill="none"/><path d="M671.5-569.77h-2v-1.03h2z"/><path d="M670.5-544.24l-4.64-14.26h9.28z" stroke="#000" stroke-width="2"/><path d="M670.5-458v98H530v16.8" stroke="#000" stroke-width="2" fill="none"/><path d="M671.5-457.97h-2V-459h2z"/><path d="M530-327.93l-4.64-14.26h9.28z" stroke="#000" stroke-width="2"/><path d="M1021.5-938v594.81" stroke="#000" stroke-width="2" fill="none"/><path d="M1022.5-937.97h-2V-939h2z"/><path d="M1021.5-327.93l-4.64-14.26h9.28z" stroke="#000" stroke-width="2"/><path d="M671.5-360h316.83v16.8M671.53-360h-1.03" stroke="#000" stroke-width="2" fill="none"/><path d="M988.33-327.93l-4.63-14.26h9.27z" stroke="#000" stroke-width="2"/><path d="M671.5-360H851v16.8M671.53-360h-1.03" stroke="#000" stroke-width="2" fill="none"/><path d="M851-327.93l-4.64-14.26h9.28z" stroke="#000" stroke-width="2"/><path d="M671.5-360h34.83v16.8M671.53-360h-1.03" stroke="#000" stroke-width="2" fill="none"/><path d="M706.33-327.93l-4.64-14.26h9.26z" stroke="#000" stroke-width="2"/><path d="M669.5-361.2H370v18M669.47-361.2h1.03" stroke="#000" stroke-width="2" fill="none"/><path d="M370-327.93l-4.64-14.26h9.28z" stroke="#000" stroke-width="2"/><path d="M700-210.45V-150h120v130.5" stroke="#000" stroke-width="2" fill="none"/><path d="M701-210.42h-2v-1.03h2z"/><path d="M820-4.24l-4.64-14.26h9.28z" stroke="#000" stroke-width="2"/><path d="M820 82v78.05H340v60.55" stroke="#000" stroke-width="2" fill="none"/><path d="M821 82.03h-2V81h2z"/><path d="M340 235.86l-4.64-14.26h9.28z" stroke="#000" stroke-width="2"/><path d="M580 82v58H396.65v80.6" stroke="#000" stroke-width="2" fill="none"/><path d="M581 82.03h-2V81h2z"/><path d="M396.65 235.86l-4.63-14.26h9.27z" stroke="#000" stroke-width="2"/><path d="M442 280h59.5" stroke="#000" stroke-width="2" fill="none"/><path d="M442.03 281H441v-2h1.03z"/><path d="M516.76 280l-14.26 4.64v-9.28z" stroke="#000" stroke-width="2"/><path d="M333.6 321.9v268.6" stroke="#000" stroke-width="2" fill="none"/><path d="M334.6 321.93h-2v-1.03h2z"/><path d="M333.6 605.76l-4.64-14.26h9.27z" stroke="#000" stroke-width="2"/><path d="M334.6 348.4H440v12.2M334.62 348.4h-1.02" stroke="#000" stroke-width="2" fill="none"/><path d="M440 375.86l-4.64-14.26h9.28z" stroke="#000" stroke-width="2"/><path d="M440 461.9v73.05h207.27v55.55" stroke="#000" stroke-width="2" fill="none"/><path d="M441 461.93h-2v-1.03h2z"/><path d="M647.27 605.76l-4.63-14.26h9.27z" stroke="#000" stroke-width="2"/><path d="M316.8 82v28H555v130.5" stroke="#000" stroke-width="2" fill="none"/><path d="M317.8 82.03h-2V81h2z"/><path d="M555.02 255.76l-4.63-14.26h9.26z" stroke="#000" stroke-width="2"/><path d="M1071 82.2V170H653.27v70.5" stroke="#000" stroke-width="2" fill="none"/><path d="M1072 82.23h-2V81.2h2z"/><path d="M653.27 255.76l-4.64-14.26h9.27z" stroke="#000" stroke-width="2"/><path d="M798 220h-45.25v55.5H725" stroke="#000" stroke-width="2" fill="none"/><path d="M799 220l.03 1h-1.06v-2h1.1z"/><path d="M709.74 275.5l14.26-4.63v9.27z" stroke="#000" stroke-width="2"/><path d="M798 320h-73" stroke="#000" stroke-width="2" fill="none"/><path d="M799 320l.03 1h-1.06v-2h1.1z"/><path d="M709.74 320l14.26-4.64v9.28z" stroke="#000" stroke-width="2"/><path d="M612.75 342v28H660v10.5" stroke="#000" stroke-width="2" fill="none"/><path d="M613.75 342.03h-2V341h2z"/><path d="M660 395.76l-4.64-14.26h9.28z" stroke="#000" stroke-width="2"/><path d="M661 370.6h299v220.73M661.03 370.6H660" stroke="#000" stroke-width="2" fill="none"/><path d="M960.68 605.77l-5.3-14.03 9.26-.44z" stroke="#000" stroke-width="2"/><path d="M660 482v38h586.3v70.5" stroke="#000" stroke-width="2" fill="none"/><path d="M661 482.03h-2V481h2z"/><path d="M1246.3 605.76l-4.65-14.26h9.28z" stroke="#000" stroke-width="2"/><path d="M781.77 82v358H759.5" stroke="#000" stroke-width="2" fill="none"/><path d="M782.77 82.03h-2V81h2z"/><path d="M744.24 440l14.26-4.64v9.28z" stroke="#000" stroke-width="2"/><path d="M861.9 82v48h357.7v108" stroke="#666" stroke-width="2" fill="none"/><path d="M862.9 82.03h-2V81h2z" fill="#666"/><path d="M1219.6 253.26L1215 239h9.27z" stroke="#666" stroke-width="2" fill="#666"/><path d="M1102.3 82.2V150h150.43v88" stroke="#666" stroke-width="2" fill="none"/><path d="M1103.3 82.23h-2V81.2h2z" fill="#666"/><path d="M1252.73 253.26L1248.1 239h9.27z" stroke="#666" stroke-width="2" fill="#666"/><path d="M605.48 82v28H1179v128" stroke="#666" stroke-width="2" fill="none"/><path d="M606.48 82.03h-2V81h2z" fill="#666"/><path d="M1179 253.26L1174.4 239h9.27z" stroke="#666" stroke-width="2" fill="#666"/><path d="M361.88 82v18h779.74v138" stroke="#666" stroke-width="2" fill="none"/><path d="M362.88 82.03h-2V81h2z" fill="#666"/><path d="M1141.62 253.26l-4.64-14.27h9.27z" stroke="#666" stroke-width="2" fill="#666"/><path d="M1149.63 419.5V550H424.15v40.5" stroke="#666" stroke-width="2" fill="none"/><path d="M1150.63 419.52h-2v-1.03h2z" fill="#666"/><path d="M424.15 605.76l-4.64-14.26h9.28z" stroke="#666" stroke-width="2" fill="#666"/><path d="M1179.55 419.5V570H717.93v20.5" stroke="#666" stroke-width="2" fill="none"/><path d="M1180.55 419.52h-2v-1.03h2z" fill="#666"/><path d="M717.93 605.76l-4.63-14.26h9.27z" stroke="#666" stroke-width="2" fill="#666"/><path d="M1222.5 419.5V590h-189.76v.5" stroke="#666" stroke-width="2" fill="none"/><path d="M1223.5 419.52h-2v-1.03h2z" fill="#666"/><path d="M1032.74 605.76l-4.63-14.26h9.28z" stroke="#666" stroke-width="2" fill="#666"/><path d="M1252.42 419.5v50.63h77.5V590.5" stroke="#666" stroke-width="2" fill="none"/><path d="M1253.42 419.52h-2v-1.03h2z" fill="#666"/><path d="M1329.93 605.76l-4.64-14.26h9.26z" stroke="#666" stroke-width="2" fill="#666"/><path d="M821-149.73h819V12.5M821.03-149.73H820" stroke="#000" stroke-width="2" fill="none"/><path d="M1640 27.76l-4.64-14.26h9.28z" stroke="#000" stroke-width="2"/><path d="M1688 32c17.67 0 32 17.9 32 40s-14.33 40-32 40h-96c-17.67 0-32-17.9-32-40s14.33-40 32-40z" stroke="#000" stroke-width="2" fill="#ffc374"/><g><use xlink:href="#F" transform="matrix(1,0,0,1,1565,37) translate(7.125 27.525)"/><use xlink:href="#aA" transform="matrix(1,0,0,1,1565,37) translate(100.97500000000001 27.525)"/><use xlink:href="#aB" transform="matrix(1,0,0,1,1565,37) translate(56.525 49.125)"/></g><path d="M1640 114v26.23h160.5" stroke="#000" stroke-width="2" fill="none"/><path d="M1641 114.03h-2V113h2z"/><path d="M1815.76 140.23l-14.26 4.64v-9.27z" stroke="#000" stroke-width="2"/><path d="M1820 60.57h280V219.9h-280z" stroke="#000" stroke-width="2" fill="#b2d6ef"/><g><use xlink:href="#aU" transform="matrix(1,0,0,1,1825,65.5666666666666) translate(92.8 80.025)"/><use xlink:href="#aV" transform="matrix(1,0,0,1,1825,65.5666666666666) translate(131.35 80.025)"/></g><path d="M1640 114v231h160.5" stroke="#000" stroke-width="2" fill="none"/><path d="M1641 114.03h-2V113h2z"/><path d="M1815.76 345l-14.26 4.64v-9.28z" stroke="#000" stroke-width="2"/><path d="M2102 140h48v205h30.5" stroke="#000" stroke-width="2" fill="none"/><path d="M2102.03 141H2101v-2h1.03z"/><path d="M2195.76 345l-14.26 4.64v-9.28z" stroke="#000" stroke-width="2"/><path d="M2102 345h78.5" stroke="#000" stroke-width="2" fill="none"/><path d="M2102.03 346H2101v-2h1.03z"/><path d="M2195.76 345l-14.26 4.64v-9.28z" stroke="#000" stroke-width="2"/><path d="M1820 470.1h280v159.33h-280z" stroke="#000" stroke-width="2" fill="#b2d6ef"/><g><use xlink:href="#aW" transform="matrix(1,0,0,1,1825,475.1) translate(22.249999999999986 65.9625)"/><use xlink:href="#aX" transform="matrix(1,0,0,1,1825,475.1) translate(129.05 65.9625)"/><use xlink:href="#aY" transform="matrix(1,0,0,1,1825,475.1) translate(6.346301851851877 87.5625)"/><use xlink:href="#aZ" transform="matrix(1,0,0,1,1825,475.1) translate(78.32082814814815 87.5625)"/><use xlink:href="#ba" transform="matrix(1,0,0,1,1825,475.1) translate(103.9503937037037 87.5625)"/><use xlink:href="#bb" transform="matrix(1,0,0,1,1825,475.1) translate(198.66620629629625 87.5625)"/></g><path d="M1641.3 346v203.77h159.2M1641.3 346.03V345" stroke="#000" stroke-width="2" fill="none"/><path d="M1815.76 549.77l-14.26 4.63v-9.27z" stroke="#000" stroke-width="2"/><path d="M2102 549.77h48V345h30.5" stroke="#000" stroke-width="2" fill="none"/><path d="M2102.03 550.77H2101v-2h1.03z"/><path d="M2195.76 345l-14.26 4.64v-9.28z" stroke="#000" stroke-width="2"/><defs><path d="M185-189c-5-48-123-54-124 2 14 75 158 14 163 119 3 78-121 87-175 55-17-10-28-26-33-46l33-7c5 56 141 63 141-1 0-78-155-14-162-118-5-82 145-84 179-34 5 7 8 16 11 25" id="bc"/><path d="M59-47c-2 24 18 29 38 22v24C64 9 27 4 27-40v-127H5v-23h24l9-43h21v43h35v23H59v120" id="bd"/><path d="M114-163C36-179 61-72 57 0H25l-1-190h30c1 12-1 29 2 39 6-27 23-49 58-41v29" id="be"/><path d="M84 4C-5 8 30-112 23-190h32v120c0 31 7 50 39 49 72-2 45-101 50-169h31l1 190h-30c-1-10 1-25-2-33-11 22-28 36-60 37" id="bf"/><path d="M96-169c-40 0-48 33-48 73s9 75 48 75c24 0 41-14 43-38l32 2c-6 37-31 61-74 61-59 0-76-41-82-99-10-93 101-131 147-64 4 7 5 14 7 22l-32 3c-4-21-16-35-41-35" id="bg"/><path d="M141-36C126-15 110 5 73 4 37 3 15-17 15-53c-1-64 63-63 125-63 3-35-9-54-41-54-24 1-41 7-42 31l-33-3c5-37 33-52 76-52 45 0 72 20 72 64v82c-1 20 7 32 28 27v20c-31 9-61-2-59-35zM48-53c0 20 12 33 32 33 41-3 63-29 60-74-43 2-92-5-92 41" id="bh"/><path d="M24 0v-261h32V0H24" id="bi"/><g id="a"><use transform="matrix(0.05,0,0,0.05,0,0)" xlink:href="#bc"/><use transform="matrix(0.05,0,0,0.05,12,0)" xlink:href="#bd"/><use transform="matrix(0.05,0,0,0.05,17,0)" xlink:href="#be"/><use transform="matrix(0.05,0,0,0.05,22.95,0)" xlink:href="#bf"/><use transform="matrix(0.05,0,0,0.05,32.95,0)" xlink:href="#bg"/><use transform="matrix(0.05,0,0,0.05,41.95,0)" xlink:href="#bd"/><use transform="matrix(0.05,0,0,0.05,46.95,0)" xlink:href="#bf"/><use transform="matrix(0.05,0,0,0.05,56.95,0)" xlink:href="#be"/><use transform="matrix(0.05,0,0,0.05,62.900000000000006,0)" xlink:href="#bh"/><use transform="matrix(0.05,0,0,0.05,72.9,0)" xlink:href="#bi"/></g><path d="M127-220V0H93v-220H8v-28h204v28h-85" id="bj"/><path d="M27 0v-27h64v-190l-56 39v-29l58-41h29v221h61V0H27" id="bk"/><path d="M206 0h-36l-40-164L89 0H53L-1-190h32L70-26l43-164h34l41 164 42-164h31" id="bl"/><g id="b"><use transform="matrix(0.05,0,0,0.05,0,0)" xlink:href="#bj"/><use transform="matrix(0.05,0,0,0.05,10.950000000000001,0)" xlink:href="#bk"/><use transform="matrix(0.05,0,0,0.05,20.950000000000003,0)" xlink:href="#bl"/></g><path d="M190 0L58-211 59 0H30v-248h39L202-35l-2-213h31V0h-41" id="bm"/><path d="M155-56V0h-30v-56H8v-25l114-167h33v167h35v25h-35zm-30-156c-27 46-58 90-88 131h88v-131" id="bn"/><g id="c"><use transform="matrix(0.05,0,0,0.05,0,0)" xlink:href="#bm"/><use transform="matrix(0.05,0,0,0.05,12.950000000000001,0)" xlink:href="#bn"/></g><path d="M160-131c35 5 61 23 61 61C221 17 115-2 30 0v-248c76 3 177-17 177 60 0 33-19 50-47 57zm-97-11c50-1 110 9 110-42 0-47-63-36-110-37v79zm0 115c55-2 124 14 124-45 0-56-70-42-124-44v89" id="bo"/><path d="M24-231v-30h32v30H24zM24 0v-190h32V0H24" id="bp"/><path d="M135-143c-3-34-86-38-87 0 15 53 115 12 119 90S17 21 10-45l28-5c4 36 97 45 98 0-10-56-113-15-118-90-4-57 82-63 122-42 12 7 21 19 24 35" id="bq"/><g id="d"><use transform="matrix(0.05,0,0,0.05,0,0)" xlink:href="#bo"/><use transform="matrix(0.05,0,0,0.05,12,0)" xlink:href="#bp"/><use transform="matrix(0.05,0,0,0.05,15.949999999999998,0)" xlink:href="#bh"/><use transform="matrix(0.05,0,0,0.05,25.950000000000003,0)" xlink:href="#bq"/></g><path d="M212-179c-10-28-35-45-73-45-59 0-87 40-87 99 0 60 29 101 89 101 43 0 62-24 78-52l27 14C228-24 195 4 139 4 59 4 22-46 18-125c-6-104 99-153 187-111 19 9 31 26 39 46" id="br"/><path d="M100-194c62-1 85 37 85 99 1 63-27 99-86 99S16-35 15-95c0-66 28-99 85-99zM99-20c44 1 53-31 53-75 0-43-8-75-51-75s-53 32-53 75 10 74 51 75" id="bs"/><path d="M100-194c63 0 86 42 84 106H49c0 40 14 67 53 68 26 1 43-12 49-29l28 8c-11 28-37 45-77 45C44 4 14-33 15-96c1-61 26-98 85-98zm52 81c6-60-76-77-97-28-3 7-6 17-6 28h103" id="bt"/><path d="M117-194c89-4 53 116 60 194h-32v-121c0-31-8-49-39-48C34-167 62-67 57 0H25l-1-190h30c1 10-1 24 2 32 11-22 29-35 61-36" id="bu"/><g id="e"><use transform="matrix(0.05,0,0,0.05,0,0)" xlink:href="#br"/><use transform="matrix(0.05,0,0,0.05,12.950000000000001,0)" xlink:href="#bs"/><use transform="matrix(0.05,0,0,0.05,22.950000000000003,0)" xlink:href="#be"/><use transform="matrix(0.05,0,0,0.05,28.900000000000002,0)" xlink:href="#be"/><use transform="matrix(0.05,0,0,0.05,34.85,0)" xlink:href="#bt"/><use transform="matrix(0.05,0,0,0.05,44.85,0)" xlink:href="#bg"/><use transform="matrix(0.05,0,0,0.05,53.85,0)" xlink:href="#bd"/><use transform="matrix(0.05,0,0,0.05,58.85,0)" xlink:href="#bp"/><use transform="matrix(0.05,0,0,0.05,62.800000000000004,0)" xlink:href="#bs"/><use transform="matrix(0.05,0,0,0.05,72.80000000000001,0)" xlink:href="#bu"/></g><path d="M87 75C49 33 22-17 22-94c0-76 28-126 65-167h31c-38 41-64 92-64 168S80 34 118 75H87" id="bv"/><path d="M140-251c81 0 123 46 123 126C263-46 219 4 140 4 59 4 17-45 17-125s42-126 123-126zm0 227c63 0 89-41 89-101s-29-99-89-99c-61 0-89 39-89 99S79-25 140-24" id="bw"/><path d="M115-194c55 1 70 41 70 98S169 2 115 4C84 4 66-9 55-30l1 105H24l-1-265h31l2 30c10-21 28-34 59-34zm-8 174c40 0 45-34 45-75s-6-73-45-74c-42 0-51 32-51 76 0 43 10 73 51 73" id="bx"/><g id="f"><use transform="matrix(0.05,0,0,0.05,0,0)" xlink:href="#bv"/><use transform="matrix(0.05,0,0,0.05,5.95,0)" xlink:href="#bw"/><use transform="matrix(0.05,0,0,0.05,19.95,0)" xlink:href="#bx"/><use transform="matrix(0.05,0,0,0.05,29.950000000000003,0)" xlink:href="#bd"/><use transform="matrix(0.05,0,0,0.05,34.95,0)" xlink:href="#bp"/><use transform="matrix(0.05,0,0,0.05,38.900000000000006,0)" xlink:href="#bs"/><use transform="matrix(0.05,0,0,0.05,48.900000000000006,0)" xlink:href="#bu"/><use transform="matrix(0.05,0,0,0.05,58.900000000000006,0)" xlink:href="#bh"/><use transform="matrix(0.05,0,0,0.05,68.9,0)" xlink:href="#bi"/></g><path d="M205 0l-28-72H64L36 0H1l101-248h38L239 0h-34zm-38-99l-47-123c-12 45-31 82-46 123h93" id="by"/><g id="g"><use transform="matrix(0.05,0,0,0.05,0,0)" xlink:href="#by"/><use transform="matrix(0.05,0,0,0.05,12,0)" xlink:href="#bm"/><use transform="matrix(0.05,0,0,0.05,24.950000000000003,0)" xlink:href="#bj"/><use transform="matrix(0.05,0,0,0.05,33.900000000000006,0)" xlink:href="#bq"/></g><path d="M63-220v92h138v28H63V0H30v-248h175v28H63" id="bz"/><path d="M85-194c31 0 48 13 60 33l-1-100h32l1 261h-30c-2-10 0-23-3-31C134-8 116 4 85 4 32 4 16-35 15-94c0-66 23-100 70-100zm9 24c-40 0-46 34-46 75 0 40 6 74 45 74 42 0 51-32 51-76 0-42-9-74-50-73" id="bA"/><path d="M33-261c38 41 65 92 65 168S71 34 33 75H2C39 34 66-17 66-93S39-220 2-261h31" id="bB"/><g id="h"><use transform="matrix(0.05,0,0,0.05,0,0)" xlink:href="#bm"/><use transform="matrix(0.05,0,0,0.05,12.950000000000001,0)" xlink:href="#bn"/><use transform="matrix(0.05,0,0,0.05,22.950000000000003,0)" xlink:href="#bo"/><use transform="matrix(0.05,0,0,0.05,34.95,0)" xlink:href="#bp"/><use transform="matrix(0.05,0,0,0.05,38.900000000000006,0)" xlink:href="#bh"/><use transform="matrix(0.05,0,0,0.05,48.900000000000006,0)" xlink:href="#bq"/><use transform="matrix(0.05,0,0,0.05,57.900000000000006,0)" xlink:href="#bz"/><use transform="matrix(0.05,0,0,0.05,68.85000000000001,0)" xlink:href="#bp"/><use transform="matrix(0.05,0,0,0.05,72.80000000000001,0)" xlink:href="#bt"/><use transform="matrix(0.05,0,0,0.05,82.80000000000001,0)" xlink:href="#bi"/><use transform="matrix(0.05,0,0,0.05,86.75000000000001,0)" xlink:href="#bA"/><use transform="matrix(0.05,0,0,0.05,96.75000000000001,0)" xlink:href="#br"/><use transform="matrix(0.05,0,0,0.05,109.7,0)" xlink:href="#bs"/><use transform="matrix(0.05,0,0,0.05,119.7,0)" xlink:href="#be"/><use transform="matrix(0.05,0,0,0.05,125.65000000000003,0)" xlink:href="#be"/><use transform="matrix(0.05,0,0,0.05,131.60000000000002,0)" xlink:href="#bt"/><use transform="matrix(0.05,0,0,0.05,141.60000000000002,0)" xlink:href="#bg"/><use transform="matrix(0.05,0,0,0.05,150.60000000000002,0)" xlink:href="#bd"/><use transform="matrix(0.05,0,0,0.05,155.60000000000002,0)" xlink:href="#bp"/><use transform="matrix(0.05,0,0,0.05,159.55,0)" xlink:href="#bs"/><use transform="matrix(0.05,0,0,0.05,169.55,0)" xlink:href="#bu"/><use transform="matrix(0.05,0,0,0.05,179.55,0)" xlink:href="#bB"/></g><path d="M30-248c118-7 216 8 213 122C240-48 200 0 122 0H30v-248zM63-27c89 8 146-16 146-99s-60-101-146-95v194" id="bC"/><g id="i"><use transform="matrix(0.05,0,0,0.05,0,0)" xlink:href="#bC"/><use transform="matrix(0.05,0,0,0.05,12.950000000000001,0)" xlink:href="#bt"/><use transform="matrix(0.05,0,0,0.05,22.950000000000003,0)" xlink:href="#bu"/><use transform="matrix(0.05,0,0,0.05,32.95,0)" xlink:href="#bs"/><use transform="matrix(0.05,0,0,0.05,42.95,0)" xlink:href="#bp"/><use transform="matrix(0.05,0,0,0.05,46.900000000000006,0)" xlink:href="#bq"/><use transform="matrix(0.05,0,0,0.05,55.900000000000006,0)" xlink:href="#bt"/></g><g id="j"><use transform="matrix(0.05,0,0,0.05,0,0)" xlink:href="#bv"/><use transform="matrix(0.05,0,0,0.05,5.95,0)" xlink:href="#bw"/><use transform="matrix(0.05,0,0,0.05,19.95,0)" xlink:href="#bx"/><use transform="matrix(0.05,0,0,0.05,29.950000000000003,0)" xlink:href="#bd"/><use transform="matrix(0.05,0,0,0.05,34.95,0)" xlink:href="#bp"/><use transform="matrix(0.05,0,0,0.05,38.900000000000006,0)" xlink:href="#bs"/><use transform="matrix(0.05,0,0,0.05,48.900000000000006,0)" xlink:href="#bu"/><use transform="matrix(0.05,0,0,0.05,58.900000000000006,0)" xlink:href="#bh"/><use transform="matrix(0.05,0,0,0.05,68.9,0)" xlink:href="#bi"/></g><g id="k"><use transform="matrix(0.05,0,0,0.05,0,0)" xlink:href="#by"/><use transform="matrix(0.05,0,0,0.05,12,0)" xlink:href="#bm"/><use transform="matrix(0.05,0,0,0.05,24.950000000000003,0)" xlink:href="#bj"/><use transform="matrix(0.05,0,0,0.05,33.900000000000006,0)" xlink:href="#bq"/></g><g id="l"><use transform="matrix(0.05,0,0,0.05,0,0)" xlink:href="#bA"/><use transform="matrix(0.05,0,0,0.05,10,0)" xlink:href="#bt"/><use transform="matrix(0.05,0,0,0.05,20,0)" xlink:href="#bu"/><use transform="matrix(0.05,0,0,0.05,30,0)" xlink:href="#bs"/><use transform="matrix(0.05,0,0,0.05,40,0)" xlink:href="#bp"/><use transform="matrix(0.05,0,0,0.05,43.95,0)" xlink:href="#bq"/><use transform="matrix(0.05,0,0,0.05,52.95,0)" xlink:href="#bt"/><use transform="matrix(0.05,0,0,0.05,62.95,0)" xlink:href="#bB"/></g><path d="M233-177c-1 41-23 64-60 70L243 0h-38l-65-103H63V0H30v-248c88 3 205-21 203 71zM63-129c60-2 137 13 137-47 0-61-80-42-137-45v92" id="bD"/><g id="m"><use transform="matrix(0.05,0,0,0.05,0,0)" xlink:href="#bD"/><use transform="matrix(0.05,0,0,0.05,12.950000000000001,0)" xlink:href="#bt"/><use transform="matrix(0.05,0,0,0.05,22.950000000000003,0)" xlink:href="#bs"/><use transform="matrix(0.05,0,0,0.05,32.95,0)" xlink:href="#be"/><use transform="matrix(0.05,0,0,0.05,38.900000000000006,0)" xlink:href="#bp"/><use transform="matrix(0.05,0,0,0.05,42.85000000000001,0)" xlink:href="#bt"/><use transform="matrix(0.05,0,0,0.05,52.85,0)" xlink:href="#bu"/><use transform="matrix(0.05,0,0,0.05,62.85,0)" xlink:href="#bd"/></g><g id="n"><use transform="matrix(0.05,0,0,0.05,0,0)" xlink:href="#bd"/><use transform="matrix(0.05,0,0,0.05,5,0)" xlink:href="#bs"/></g><path d="M30-248c87 1 191-15 191 75 0 78-77 80-158 76V0H30v-248zm33 125c57 0 124 11 124-50 0-59-68-47-124-48v98" id="bE"/><path d="M33 0v-248h34V0H33" id="bF"/><g id="o"><use transform="matrix(0.05,0,0,0.05,0,0)" xlink:href="#bD"/><use transform="matrix(0.05,0,0,0.05,12.950000000000001,0)" xlink:href="#bE"/><use transform="matrix(0.05,0,0,0.05,24.950000000000003,0)" xlink:href="#bF"/></g><g id="p"><use transform="matrix(0.05,0,0,0.05,0,0)" xlink:href="#bv"/><use transform="matrix(0.05,0,0,0.05,5.95,0)" xlink:href="#by"/><use transform="matrix(0.05,0,0,0.05,17.95,0)" xlink:href="#bz"/><use transform="matrix(0.05,0,0,0.05,28.899999999999995,0)" xlink:href="#bm"/><use transform="matrix(0.05,0,0,0.05,41.85,0)" xlink:href="#bF"/></g><path d="M126-127c33 6 58 20 58 59 0 88-139 92-164 29-3-8-5-16-6-25l32-3c6 27 21 44 54 44 32 0 52-15 52-46 0-38-36-46-79-43v-28c39 1 72-4 72-42 0-27-17-43-46-43-28 0-47 15-49 41l-32-3c6-42 35-63 81-64 48-1 79 21 79 65 0 36-21 52-52 59" id="bG"/><path d="M210-169c-67 3-38 105-44 169h-31v-121c0-29-5-50-35-48C34-165 62-65 56 0H25l-1-190h30c1 10-1 24 2 32 10-44 99-50 107 0 11-21 27-35 58-36 85-2 47 119 55 194h-31v-121c0-29-5-49-35-48" id="bH"/><g id="q"><use transform="matrix(0.05,0,0,0.05,0,0)" xlink:href="#bG"/><use transform="matrix(0.05,0,0,0.05,10,0)" xlink:href="#bA"/><use transform="matrix(0.05,0,0,0.05,20,0)" xlink:href="#be"/><use transform="matrix(0.05,0,0,0.05,25.950000000000003,0)" xlink:href="#bt"/><use transform="matrix(0.05,0,0,0.05,35.95,0)" xlink:href="#bq"/><use transform="matrix(0.05,0,0,0.05,44.95,0)" xlink:href="#bh"/><use transform="matrix(0.05,0,0,0.05,54.95,0)" xlink:href="#bH"/><use transform="matrix(0.05,0,0,0.05,69.9,0)" xlink:href="#bx"/><use transform="matrix(0.05,0,0,0.05,79.9,0)" xlink:href="#bi"/><use transform="matrix(0.05,0,0,0.05,83.85000000000001,0)" xlink:href="#bt"/><use transform="matrix(0.05,0,0,0.05,93.85000000000001,0)" xlink:href="#bB"/></g><path d="M115-194c53 0 69 39 70 98 0 66-23 100-70 100C84 3 66-7 56-30L54 0H23l1-261h32v101c10-23 28-34 59-34zm-8 174c40 0 45-34 45-75 0-40-5-75-45-74-42 0-51 32-51 76 0 43 10 73 51 73" id="bI"/><path d="M145-31C134-9 116 4 85 4 32 4 16-35 15-94c0-59 17-99 70-100 32-1 48 14 60 33 0-11-1-24 2-32h30l-1 268h-32zM93-21c41 0 51-33 51-76s-8-73-50-73c-40 0-46 35-46 75s5 74 45 74" id="bJ"/><g id="r"><use transform="matrix(0.05,0,0,0.05,0,0)" xlink:href="#bC"/><use transform="matrix(0.05,0,0,0.05,12.950000000000001,0)" xlink:href="#bt"/><use transform="matrix(0.05,0,0,0.05,22.950000000000003,0)" xlink:href="#bs"/><use transform="matrix(0.05,0,0,0.05,32.95,0)" xlink:href="#bI"/><use transform="matrix(0.05,0,0,0.05,42.95,0)" xlink:href="#bi"/><use transform="matrix(0.05,0,0,0.05,46.900000000000006,0)" xlink:href="#bp"/><use transform="matrix(0.05,0,0,0.05,50.85000000000001,0)" xlink:href="#bJ"/><use transform="matrix(0.05,0,0,0.05,60.85,0)" xlink:href="#bf"/><use transform="matrix(0.05,0,0,0.05,70.85000000000001,0)" xlink:href="#bt"/></g><path d="M101-234c-31-9-42 10-38 44h38v23H63V0H32v-167H5v-23h27c-7-52 17-82 69-68v24" id="bK"/><g id="s"><use transform="matrix(0.05,0,0,0.05,0,0)" xlink:href="#bG"/><use transform="matrix(0.05,0,0,0.05,10,0)" xlink:href="#bA"/><use transform="matrix(0.05,0,0,0.05,20,0)" xlink:href="#be"/><use transform="matrix(0.05,0,0,0.05,25.950000000000003,0)" xlink:href="#bt"/><use transform="matrix(0.05,0,0,0.05,35.95,0)" xlink:href="#bK"/><use transform="matrix(0.05,0,0,0.05,40.95,0)" xlink:href="#bp"/><use transform="matrix(0.05,0,0,0.05,44.900000000000006,0)" xlink:href="#bd"/><use transform="matrix(0.05,0,0,0.05,49.900000000000006,0)" xlink:href="#bB"/></g><g id="t"><use transform="matrix(0.05,0,0,0.05,0,0)" xlink:href="#by"/><use transform="matrix(0.05,0,0,0.05,12,0)" xlink:href="#bz"/><use transform="matrix(0.05,0,0,0.05,22.950000000000003,0)" xlink:href="#bm"/><use transform="matrix(0.05,0,0,0.05,35.900000000000006,0)" xlink:href="#bF"/></g><path d="M143 0L79-87 56-68V0H24v-261h32v163l83-92h37l-77 82L181 0h-38" id="bL"/><g id="u"><use transform="matrix(0.05,0,0,0.05,0,0)" xlink:href="#bG"/><use transform="matrix(0.05,0,0,0.05,10,0)" xlink:href="#bA"/><use transform="matrix(0.05,0,0,0.05,20,0)" xlink:href="#bc"/><use transform="matrix(0.05,0,0,0.05,32,0)" xlink:href="#bL"/><use transform="matrix(0.05,0,0,0.05,41,0)" xlink:href="#bf"/><use transform="matrix(0.05,0,0,0.05,51,0)" xlink:href="#bi"/><use transform="matrix(0.05,0,0,0.05,54.95,0)" xlink:href="#bi"/><use transform="matrix(0.05,0,0,0.05,58.900000000000006,0)" xlink:href="#bc"/><use transform="matrix(0.05,0,0,0.05,70.9,0)" xlink:href="#bd"/><use transform="matrix(0.05,0,0,0.05,75.9,0)" xlink:href="#be"/><use transform="matrix(0.05,0,0,0.05,81.85000000000001,0)" xlink:href="#bp"/><use transform="matrix(0.05,0,0,0.05,85.80000000000001,0)" xlink:href="#bx"/></g><path d="M182-130c37 4 62 22 62 59C244 23 116-4 24 0v-248c84 5 203-23 205 63 0 31-19 50-47 55zM76-148c40-3 101 13 101-30 0-44-60-28-101-31v61zm0 110c48-3 116 14 116-37 0-48-69-32-116-35v72" id="bM"/><path d="M135-150c-39-12-60 13-60 57V0H25l-1-190h47c2 13-1 29 3 40 6-28 27-53 61-41v41" id="bN"/><path d="M133-34C117-15 103 5 69 4 32 3 11-16 11-54c-1-60 55-63 116-61 1-26-3-47-28-47-18 1-26 9-28 27l-52-2c7-38 36-58 82-57s74 22 75 68l1 82c-1 14 12 18 25 15v27c-30 8-71 5-69-32zm-48 3c29 0 43-24 42-57-32 0-66-3-65 30 0 17 8 27 23 27" id="bO"/><path d="M25-224v-37h50v37H25zM25 0v-190h50V0H25" id="bP"/><path d="M135-194c87-1 58 113 63 194h-50c-7-57 23-157-34-157-59 0-34 97-39 157H25l-1-190h47c2 12-1 28 3 38 12-26 28-41 61-42" id="bQ"/><g id="v"><use transform="matrix(0.07407407407407408,0,0,0.07407407407407408,0,0)" xlink:href="#bM"/><use transform="matrix(0.07407407407407408,0,0,0.07407407407407408,19.185185185185187,0)" xlink:href="#bN"/><use transform="matrix(0.07407407407407408,0,0,0.07407407407407408,29.555555555555554,0)" xlink:href="#bO"/><use transform="matrix(0.07407407407407408,0,0,0.07407407407407408,44.370370370370374,0)" xlink:href="#bP"/><use transform="matrix(0.07407407407407408,0,0,0.07407407407407408,51.777777777777786,0)" xlink:href="#bQ"/></g><path d="M24 0v-248h195v40H76v63h132v40H76v65h150V0H24" id="bR"/><path d="M144 0l-44-69L55 0H2l70-98-66-92h53l41 62 40-62h54l-67 91 71 99h-54" id="bS"/><path d="M115-3C79 11 28 4 28-45v-112H4v-33h27l15-45h31v45h36v33H77v99c-1 23 16 31 38 25v30" id="bT"/><path d="M190-63c-7 42-38 67-86 67-59 0-84-38-90-98-12-110 154-137 174-36l-49 2c-2-19-15-32-35-32-30 0-35 28-38 64-6 74 65 87 74 30" id="bU"/><path d="M110-194c64 0 96 36 96 99 0 64-35 99-97 99-61 0-95-36-95-99 0-62 34-99 96-99zm-1 164c35 0 45-28 45-65 0-40-10-65-43-65-34 0-45 26-45 65 0 36 10 65 43 65" id="bV"/><g id="w"><use transform="matrix(0.07407407407407408,0,0,0.07407407407407408,0,0)" xlink:href="#bR"/><use transform="matrix(0.07407407407407408,0,0,0.07407407407407408,17.77777777777778,0)" xlink:href="#bS"/><use transform="matrix(0.07407407407407408,0,0,0.07407407407407408,32.592592592592595,0)" xlink:href="#bT"/><use transform="matrix(0.07407407407407408,0,0,0.07407407407407408,41.40740740740741,0)" xlink:href="#bN"/><use transform="matrix(0.07407407407407408,0,0,0.07407407407407408,51.777777777777786,0)" xlink:href="#bO"/><use transform="matrix(0.07407407407407408,0,0,0.07407407407407408,66.59259259259261,0)" xlink:href="#bU"/><use transform="matrix(0.07407407407407408,0,0,0.07407407407407408,81.40740740740742,0)" xlink:href="#bT"/><use transform="matrix(0.07407407407407408,0,0,0.07407407407407408,90.22222222222223,0)" xlink:href="#bP"/><use transform="matrix(0.07407407407407408,0,0,0.07407407407407408,97.62962962962962,0)" xlink:href="#bV"/><use transform="matrix(0.07407407407407408,0,0,0.07407407407407408,113.85185185185186,0)" xlink:href="#bQ"/></g><path d="M30 0v-248h33v221h125V0H30" id="bW"/><g id="x"><use transform="matrix(0.05,0,0,0.05,0,0)" xlink:href="#bz"/><use transform="matrix(0.05,0,0,0.05,10.950000000000001,0)" xlink:href="#bc"/><use transform="matrix(0.05,0,0,0.05,22.950000000000003,0)" xlink:href="#bW"/></g><path d="M30 0v-248h187v28H63v79h144v27H63v87h162V0H30" id="bX"/><g id="y"><use transform="matrix(0.05,0,0,0.05,0,0)" xlink:href="#bo"/><use transform="matrix(0.05,0,0,0.05,12,0)" xlink:href="#bX"/><use transform="matrix(0.05,0,0,0.05,24,0)" xlink:href="#bj"/></g><g id="z"><use transform="matrix(0.05,0,0,0.05,0,0)" xlink:href="#bu"/><use transform="matrix(0.05,0,0,0.05,10,0)" xlink:href="#bp"/><use transform="matrix(0.05,0,0,0.05,13.949999999999998,0)" xlink:href="#bl"/><use transform="matrix(0.05,0,0,0.05,26.899999999999995,0)" xlink:href="#bs"/><use transform="matrix(0.05,0,0,0.05,36.9,0)" xlink:href="#be"/><use transform="matrix(0.05,0,0,0.05,42.85,0)" xlink:href="#bL"/><use transform="matrix(0.05,0,0,0.05,51.85,0)" xlink:href="#bK"/><use transform="matrix(0.05,0,0,0.05,56.85,0)" xlink:href="#bi"/><use transform="matrix(0.05,0,0,0.05,60.800000000000004,0)" xlink:href="#bs"/><use transform="matrix(0.05,0,0,0.05,70.80000000000001,0)" xlink:href="#bl"/><use transform="matrix(0.05,0,0,0.05,83.75000000000001,0)" xlink:href="#bq"/></g><g id="A"><use transform="matrix(0.05,0,0,0.05,0,0)" xlink:href="#by"/><use transform="matrix(0.05,0,0,0.05,12,0)" xlink:href="#bm"/><use transform="matrix(0.05,0,0,0.05,24.950000000000003,0)" xlink:href="#bj"/><use transform="matrix(0.05,0,0,0.05,33.900000000000006,0)" xlink:href="#bq"/></g><path d="M232-93c-1 65-40 97-104 97C67 4 28-28 28-90v-158h33c8 89-33 224 67 224 102 0 64-133 71-224h33v155" id="bY"/><path d="M16-82v-28h88v28H16" id="bZ"/><g id="B"><use transform="matrix(0.05,0,0,0.05,0,0)" xlink:href="#bY"/><use transform="matrix(0.05,0,0,0.05,12.950000000000001,0)" xlink:href="#bZ"/><use transform="matrix(0.05,0,0,0.05,18.900000000000002,0)" xlink:href="#bm"/><use transform="matrix(0.05,0,0,0.05,31.85,0)" xlink:href="#bt"/><use transform="matrix(0.05,0,0,0.05,41.85,0)" xlink:href="#bd"/></g><g id="C"><use transform="matrix(0.05,0,0,0.05,0,0)" xlink:href="#bY"/><use transform="matrix(0.05,0,0,0.05,12.950000000000001,0)" xlink:href="#bq"/><use transform="matrix(0.05,0,0,0.05,21.950000000000003,0)" xlink:href="#bt"/></g><path d="M240 0l2-218c-23 76-54 145-80 218h-23L58-218 59 0H30v-248h44l77 211c21-75 51-140 76-211h43V0h-30" id="ca"/><g id="D"><use transform="matrix(0.05,0,0,0.05,0,0)" xlink:href="#ca"/><use transform="matrix(0.05,0,0,0.05,14.950000000000001,0)" xlink:href="#bh"/><use transform="matrix(0.05,0,0,0.05,24.950000000000003,0)" xlink:href="#bq"/><use transform="matrix(0.05,0,0,0.05,33.95,0)" xlink:href="#bL"/></g><g id="E"><use transform="matrix(0.05,0,0,0.05,0,0)" xlink:href="#bG"/><use transform="matrix(0.05,0,0,0.05,10,0)" xlink:href="#bA"/><use transform="matrix(0.05,0,0,0.05,20,0)" xlink:href="#bg"/><use transform="matrix(0.05,0,0,0.05,29,0)" xlink:href="#bh"/><use transform="matrix(0.05,0,0,0.05,39,0)" xlink:href="#bi"/><use transform="matrix(0.05,0,0,0.05,42.95,0)" xlink:href="#bg"/><use transform="matrix(0.05,0,0,0.05,51.95,0)" xlink:href="#bB"/></g><g id="F"><use transform="matrix(0.05,0,0,0.05,0,0)" xlink:href="#by"/><use transform="matrix(0.05,0,0,0.05,12,0)" xlink:href="#bu"/><use transform="matrix(0.05,0,0,0.05,22,0)" xlink:href="#bh"/><use transform="matrix(0.05,0,0,0.05,32,0)" xlink:href="#bd"/><use transform="matrix(0.05,0,0,0.05,37,0)" xlink:href="#bs"/><use transform="matrix(0.05,0,0,0.05,47,0)" xlink:href="#bH"/><use transform="matrix(0.05,0,0,0.05,61.95,0)" xlink:href="#bp"/><use transform="matrix(0.05,0,0,0.05,65.9,0)" xlink:href="#bg"/><use transform="matrix(0.05,0,0,0.05,74.9,0)" xlink:href="#bh"/><use transform="matrix(0.05,0,0,0.05,84.9,0)" xlink:href="#bi"/></g><g id="G"><use transform="matrix(0.05,0,0,0.05,0,0)" xlink:href="#bo"/><use transform="matrix(0.05,0,0,0.05,12,0)" xlink:href="#be"/><use transform="matrix(0.05,0,0,0.05,17.95,0)" xlink:href="#bh"/><use transform="matrix(0.05,0,0,0.05,27.950000000000003,0)" xlink:href="#bp"/><use transform="matrix(0.05,0,0,0.05,31.899999999999995,0)" xlink:href="#bu"/></g><g id="H"><use transform="matrix(0.05,0,0,0.05,0,0)" xlink:href="#bv"/><use transform="matrix(0.05,0,0,0.05,5.95,0)" xlink:href="#bp"/><use transform="matrix(0.05,0,0,0.05,9.9,0)" xlink:href="#bK"/></g><path d="M108 0H70L1-190h34L89-25l56-165h34" id="cb"/><g id="I"><use transform="matrix(0.05,0,0,0.05,0,0)" xlink:href="#bx"/><use transform="matrix(0.05,0,0,0.05,10,0)" xlink:href="#be"/><use transform="matrix(0.05,0,0,0.05,15.949999999999998,0)" xlink:href="#bs"/><use transform="matrix(0.05,0,0,0.05,25.950000000000003,0)" xlink:href="#cb"/><use transform="matrix(0.05,0,0,0.05,34.95,0)" xlink:href="#bp"/><use transform="matrix(0.05,0,0,0.05,38.900000000000006,0)" xlink:href="#bA"/><use transform="matrix(0.05,0,0,0.05,48.900000000000006,0)" xlink:href="#bt"/><use transform="matrix(0.05,0,0,0.05,58.900000000000006,0)" xlink:href="#bA"/><use transform="matrix(0.05,0,0,0.05,68.9,0)" xlink:href="#bB"/></g><path d="M199 0l-22-63H83L61 0H9l90-248h61L250 0h-51zm-33-102l-36-108c-10 38-24 72-36 108h72" id="cc"/><path d="M220-157c-53 9-28 100-34 157h-49v-107c1-27-5-49-29-50C55-147 81-57 75 0H25l-1-190h47c2 12-1 28 3 38 10-53 101-56 108 0 13-22 24-43 59-42 82 1 51 116 57 194h-49v-107c-1-25-5-48-29-50" id="cd"/><path d="M25 0v-261h50V0H25" id="ce"/><g id="J"><use transform="matrix(0.07407407407407408,0,0,0.07407407407407408,0,0)" xlink:href="#cc"/><use transform="matrix(0.07407407407407408,0,0,0.07407407407407408,19.185185185185187,0)" xlink:href="#bQ"/><use transform="matrix(0.07407407407407408,0,0,0.07407407407407408,35.40740740740741,0)" xlink:href="#bO"/><use transform="matrix(0.07407407407407408,0,0,0.07407407407407408,50.22222222222223,0)" xlink:href="#bT"/><use transform="matrix(0.07407407407407408,0,0,0.07407407407407408,59.037037037037045,0)" xlink:href="#bV"/><use transform="matrix(0.07407407407407408,0,0,0.07407407407407408,75.25925925925927,0)" xlink:href="#cd"/><use transform="matrix(0.07407407407407408,0,0,0.07407407407407408,98.96296296296298,0)" xlink:href="#bP"/><use transform="matrix(0.07407407407407408,0,0,0.07407407407407408,106.37037037037038,0)" xlink:href="#bU"/><use transform="matrix(0.07407407407407408,0,0,0.07407407407407408,121.18518518518519,0)" xlink:href="#bO"/><use transform="matrix(0.07407407407407408,0,0,0.07407407407407408,136,0)" xlink:href="#ce"/></g><g id="K"><use transform="matrix(0.07407407407407408,0,0,0.07407407407407408,0,0)" xlink:href="#bT"/><use transform="matrix(0.07407407407407408,0,0,0.07407407407407408,8.814814814814817,0)" xlink:href="#bV"/></g><path d="M136-208V0H84v-208H4v-40h212v40h-80" id="cf"/><path d="M185-48c-13 30-37 53-82 52C43 2 14-33 14-96s30-98 90-98c62 0 83 45 84 108H66c0 31 8 55 39 56 18 0 30-7 34-22zm-45-69c5-46-57-63-70-21-2 6-4 13-4 21h74" id="cg"/><path d="M135-194c53 0 70 44 70 98 0 56-19 98-73 100-31 1-45-17-59-34 3 33 2 69 2 105H25l-1-265h48c2 10 0 23 3 31 11-24 29-35 60-35zM114-30c33 0 39-31 40-66 0-38-9-64-40-64-56 0-55 130 0 130" id="ch"/><g id="L"><use transform="matrix(0.07407407407407408,0,0,0.07407407407407408,0,0)" xlink:href="#cf"/><use transform="matrix(0.07407407407407408,0,0,0.07407407407407408,14.222222222222225,0)" xlink:href="#cg"/><use transform="matrix(0.07407407407407408,0,0,0.07407407407407408,29.03703703703704,0)" xlink:href="#cd"/><use transform="matrix(0.07407407407407408,0,0,0.07407407407407408,52.74074074074075,0)" xlink:href="#ch"/><use transform="matrix(0.07407407407407408,0,0,0.07407407407407408,68.96296296296298,0)" xlink:href="#ce"/><use transform="matrix(0.07407407407407408,0,0,0.07407407407407408,76.37037037037038,0)" xlink:href="#bO"/><use transform="matrix(0.07407407407407408,0,0,0.07407407407407408,91.18518518518519,0)" xlink:href="#bT"/><use transform="matrix(0.07407407407407408,0,0,0.07407407407407408,100,0)" xlink:href="#cg"/></g><path d="M240-174c0 40-23 61-54 70L253 0h-59l-57-94H76V0H24v-248c93 4 217-23 216 74zM76-134c48-2 112 12 112-38 0-48-66-32-112-35v73" id="ci"/><path d="M195-6C206 82 75 100 31 46c-4-6-6-13-8-21l49-6c3 16 16 24 34 25 40 0 42-37 40-79-11 22-30 35-61 35-53 0-70-43-70-97 0-56 18-96 73-97 30 0 46 14 59 34l2-30h47zm-90-29c32 0 41-27 41-63 0-35-9-62-40-62-32 0-39 29-40 63 0 36 9 62 39 62" id="cj"/><path d="M137-138c1-29-70-34-71-4 15 46 118 7 119 86 1 83-164 76-172 9l43-7c4 19 20 25 44 25 33 8 57-30 24-41C81-84 22-81 20-136c-2-80 154-74 161-7" id="ck"/><g id="M"><use transform="matrix(0.07407407407407408,0,0,0.07407407407407408,0,0)" xlink:href="#ci"/><use transform="matrix(0.07407407407407408,0,0,0.07407407407407408,19.185185185185187,0)" xlink:href="#cg"/><use transform="matrix(0.07407407407407408,0,0,0.07407407407407408,34,0)" xlink:href="#cj"/><use transform="matrix(0.07407407407407408,0,0,0.07407407407407408,50.22222222222223,0)" xlink:href="#bP"/><use transform="matrix(0.07407407407407408,0,0,0.07407407407407408,57.62962962962964,0)" xlink:href="#ck"/><use transform="matrix(0.07407407407407408,0,0,0.07407407407407408,72.44444444444446,0)" xlink:href="#bT"/><use transform="matrix(0.07407407407407408,0,0,0.07407407407407408,81.25925925925927,0)" xlink:href="#bN"/><use transform="matrix(0.07407407407407408,0,0,0.07407407407407408,91.62962962962965,0)" xlink:href="#bO"/><use transform="matrix(0.07407407407407408,0,0,0.07407407407407408,106.44444444444446,0)" xlink:href="#bT"/><use transform="matrix(0.07407407407407408,0,0,0.07407407407407408,115.25925925925928,0)" xlink:href="#bP"/><use transform="matrix(0.07407407407407408,0,0,0.07407407407407408,122.66666666666667,0)" xlink:href="#bV"/><use transform="matrix(0.07407407407407408,0,0,0.07407407407407408,138.88888888888889,0)" xlink:href="#bQ"/></g><path d="M76-208v77h127v40H76V0H24v-248h183v40H76" id="cl"/><path d="M169-182c-1-43-94-46-97-3 18 66 151 10 154 114 3 95-165 93-204 36-6-8-10-19-12-30l50-8c3 46 112 56 116 5-17-69-150-10-154-114-4-87 153-88 188-35 5 8 8 18 10 28" id="cm"/><path d="M24 0v-248h52v208h133V0H24" id="cn"/><g id="N"><use transform="matrix(0.05,0,0,0.05,0,0)" xlink:href="#cl"/><use transform="matrix(0.05,0,0,0.05,10.950000000000001,0)" xlink:href="#cm"/><use transform="matrix(0.05,0,0,0.05,22.950000000000003,0)" xlink:href="#cn"/></g><path d="M175 0L67-191c6 58 2 128 3 191H24v-248h59L193-55c-6-58-2-129-3-193h46V0h-61" id="co"/><g id="O"><use transform="matrix(0.05,0,0,0.05,0,0)" xlink:href="#cc"/><use transform="matrix(0.05,0,0,0.05,12.950000000000001,0)" xlink:href="#co"/><use transform="matrix(0.05,0,0,0.05,25.900000000000002,0)" xlink:href="#cf"/><use transform="matrix(0.05,0,0,0.05,35.5,0)" xlink:href="#ck"/></g><g id="P"><use transform="matrix(0.05,0,0,0.05,0,0)" xlink:href="#bW"/><use transform="matrix(0.05,0,0,0.05,10,0)" xlink:href="#bp"/><use transform="matrix(0.05,0,0,0.05,13.949999999999998,0)" xlink:href="#bu"/><use transform="matrix(0.05,0,0,0.05,23.95,0)" xlink:href="#bt"/><use transform="matrix(0.05,0,0,0.05,33.95,0)" xlink:href="#bh"/><use transform="matrix(0.05,0,0,0.05,43.95,0)" xlink:href="#be"/></g><path d="M177-190C167-65 218 103 67 71c-23-6-38-20-44-43l32-5c15 47 100 32 89-28v-30C133-14 115 1 83 1 29 1 15-40 15-95c0-56 16-97 71-98 29-1 48 16 59 35 1-10 0-23 2-32h30zM94-22c36 0 50-32 50-73 0-42-14-75-50-75-39 0-46 34-46 75s6 73 46 73" id="cp"/><g id="Q"><use transform="matrix(0.05,0,0,0.05,0,0)" xlink:href="#be"/><use transform="matrix(0.05,0,0,0.05,5.95,0)" xlink:href="#bt"/><use transform="matrix(0.05,0,0,0.05,15.949999999999998,0)" xlink:href="#cp"/><use transform="matrix(0.05,0,0,0.05,25.950000000000003,0)" xlink:href="#bp"/><use transform="matrix(0.05,0,0,0.05,29.899999999999995,0)" xlink:href="#bq"/><use transform="matrix(0.05,0,0,0.05,38.9,0)" xlink:href="#bd"/><use transform="matrix(0.05,0,0,0.05,43.9,0)" xlink:href="#be"/><use transform="matrix(0.05,0,0,0.05,49.85,0)" xlink:href="#bh"/><use transform="matrix(0.05,0,0,0.05,59.85,0)" xlink:href="#bd"/><use transform="matrix(0.05,0,0,0.05,64.85,0)" xlink:href="#bp"/><use transform="matrix(0.05,0,0,0.05,68.8,0)" xlink:href="#bs"/><use transform="matrix(0.05,0,0,0.05,78.8,0)" xlink:href="#bu"/></g><g id="R"><use transform="matrix(0.05,0,0,0.05,0,0)" xlink:href="#bs"/><use transform="matrix(0.05,0,0,0.05,10,0)" xlink:href="#bK"/></g><g id="S"><use transform="matrix(0.05,0,0,0.05,0,0)" xlink:href="#bj"/><use transform="matrix(0.05,0,0,0.05,10.950000000000001,0)" xlink:href="#bk"/></g><g id="T"><use transform="matrix(0.05,0,0,0.05,0,0)" xlink:href="#bq"/><use transform="matrix(0.05,0,0,0.05,9,0)" xlink:href="#bd"/><use transform="matrix(0.05,0,0,0.05,14,0)" xlink:href="#bh"/><use transform="matrix(0.05,0,0,0.05,24,0)" xlink:href="#bu"/><use transform="matrix(0.05,0,0,0.05,34,0)" xlink:href="#bA"/><use transform="matrix(0.05,0,0,0.05,44,0)" xlink:href="#bh"/><use transform="matrix(0.05,0,0,0.05,54,0)" xlink:href="#be"/><use transform="matrix(0.05,0,0,0.05,59.95,0)" xlink:href="#bA"/></g><g id="U"><use transform="matrix(0.05,0,0,0.05,0,0)" xlink:href="#bv"/><use transform="matrix(0.05,0,0,0.05,5.95,0)" xlink:href="#bz"/><use transform="matrix(0.05,0,0,0.05,16.900000000000002,0)" xlink:href="#bc"/><use transform="matrix(0.05,0,0,0.05,28.900000000000002,0)" xlink:href="#bW"/></g><g id="V"><use transform="matrix(0.05,0,0,0.05,0,0)" xlink:href="#bz"/><use transform="matrix(0.05,0,0,0.05,10.950000000000001,0)" xlink:href="#bW"/><use transform="matrix(0.05,0,0,0.05,20.950000000000003,0)" xlink:href="#bF"/><use transform="matrix(0.05,0,0,0.05,25.950000000000003,0)" xlink:href="#bD"/><use transform="matrix(0.05,0,0,0.05,38.550000000000004,0)" xlink:href="#bj"/><use transform="matrix(0.05,0,0,0.05,49.50000000000001,0)" xlink:href="#bB"/></g><g id="W"><use transform="matrix(0.05,0,0,0.05,0,0)" xlink:href="#bm"/><use transform="matrix(0.05,0,0,0.05,12.950000000000001,0)" xlink:href="#bs"/><use transform="matrix(0.05,0,0,0.05,22.950000000000003,0)" xlink:href="#bu"/><use transform="matrix(0.05,0,0,0.05,32.95,0)" xlink:href="#bi"/><use transform="matrix(0.05,0,0,0.05,36.900000000000006,0)" xlink:href="#bp"/><use transform="matrix(0.05,0,0,0.05,40.85000000000001,0)" xlink:href="#bu"/><use transform="matrix(0.05,0,0,0.05,50.85000000000001,0)" xlink:href="#bt"/><use transform="matrix(0.05,0,0,0.05,60.85,0)" xlink:href="#bh"/><use transform="matrix(0.05,0,0,0.05,70.85000000000001,0)" xlink:href="#be"/></g><g id="X"><use transform="matrix(0.05,0,0,0.05,0,0)" xlink:href="#bz"/><use transform="matrix(0.05,0,0,0.05,10.950000000000001,0)" xlink:href="#bm"/><use transform="matrix(0.05,0,0,0.05,23.900000000000002,0)" xlink:href="#bF"/><use transform="matrix(0.05,0,0,0.05,28.900000000000002,0)" xlink:href="#bD"/><use transform="matrix(0.05,0,0,0.05,41.5,0)" xlink:href="#bj"/><use transform="matrix(0.05,0,0,0.05,52.45,0)" xlink:href="#bB"/></g><g id="Y"><use transform="matrix(0.05,0,0,0.05,0,0)" xlink:href="#bF"/><use transform="matrix(0.05,0,0,0.05,5,0)" xlink:href="#bu"/><use transform="matrix(0.05,0,0,0.05,15,0)" xlink:href="#cb"/><use transform="matrix(0.05,0,0,0.05,24,0)" xlink:href="#bt"/><use transform="matrix(0.05,0,0,0.05,34,0)" xlink:href="#be"/><use transform="matrix(0.05,0,0,0.05,39.95,0)" xlink:href="#bd"/></g><path d="M106-169C34-169 62-67 57 0H25v-261h32l-1 103c12-21 28-36 61-36 89 0 53 116 60 194h-32v-121c2-32-8-49-39-48" id="cq"/><g id="Z"><use transform="matrix(0.05,0,0,0.05,0,0)" xlink:href="#bd"/><use transform="matrix(0.05,0,0,0.05,5,0)" xlink:href="#cq"/><use transform="matrix(0.05,0,0,0.05,15,0)" xlink:href="#bt"/></g><g id="aa"><use transform="matrix(0.05,0,0,0.05,0,0)" xlink:href="#bl"/><use transform="matrix(0.05,0,0,0.05,12.950000000000001,0)" xlink:href="#bh"/><use transform="matrix(0.05,0,0,0.05,22.950000000000003,0)" xlink:href="#be"/><use transform="matrix(0.05,0,0,0.05,28.900000000000002,0)" xlink:href="#bx"/></g><path d="M-5 72V49h209v23H-5" id="cr"/><path d="M141 0L90-78 38 0H4l68-98-65-92h35l48 74 47-74h35l-64 92 68 98h-35" id="cs"/><g id="ab"><use transform="matrix(0.05,0,0,0.05,0,0)" xlink:href="#bg"/><use transform="matrix(0.05,0,0,0.05,9,0)" xlink:href="#bs"/><use transform="matrix(0.05,0,0,0.05,19,0)" xlink:href="#bu"/><use transform="matrix(0.05,0,0,0.05,29,0)" xlink:href="#cb"/><use transform="matrix(0.05,0,0,0.05,38,0)" xlink:href="#bt"/><use transform="matrix(0.05,0,0,0.05,48,0)" xlink:href="#be"/><use transform="matrix(0.05,0,0,0.05,53.95,0)" xlink:href="#bd"/><use transform="matrix(0.05,0,0,0.05,58.95,0)" xlink:href="#cr"/><use transform="matrix(0.05,0,0,0.05,68.95,0)" xlink:href="#cs"/><use transform="matrix(0.05,0,0,0.05,77.95,0)" xlink:href="#bK"/><use transform="matrix(0.05,0,0,0.05,82.95,0)" xlink:href="#bH"/><use transform="matrix(0.05,0,0,0.05,97.9,0)" xlink:href="#bB"/></g><path d="M179-190L93 31C79 59 56 82 12 73V49c39 6 53-20 64-50L1-190h34L92-34l54-156h33" id="ct"/><g id="ac"><use transform="matrix(0.05,0,0,0.05,0,0)" xlink:href="#by"/><use transform="matrix(0.05,0,0,0.05,12,0)" xlink:href="#bx"/><use transform="matrix(0.05,0,0,0.05,22,0)" xlink:href="#bx"/><use transform="matrix(0.05,0,0,0.05,32,0)" xlink:href="#bi"/><use transform="matrix(0.05,0,0,0.05,35.95,0)" xlink:href="#ct"/></g><g id="ad"><use transform="matrix(0.05,0,0,0.05,0,0)" xlink:href="#bd"/><use transform="matrix(0.05,0,0,0.05,5,0)" xlink:href="#cq"/><use transform="matrix(0.05,0,0,0.05,15,0)" xlink:href="#bt"/></g><g id="ae"><use transform="matrix(0.05,0,0,0.05,0,0)" xlink:href="#bu"/><use transform="matrix(0.05,0,0,0.05,10,0)" xlink:href="#bs"/><use transform="matrix(0.05,0,0,0.05,20,0)" xlink:href="#bu"/><use transform="matrix(0.05,0,0,0.05,30,0)" xlink:href="#bi"/><use transform="matrix(0.05,0,0,0.05,33.95,0)" xlink:href="#bp"/><use transform="matrix(0.05,0,0,0.05,37.900000000000006,0)" xlink:href="#bu"/><use transform="matrix(0.05,0,0,0.05,47.900000000000006,0)" xlink:href="#bt"/><use transform="matrix(0.05,0,0,0.05,57.900000000000006,0)" xlink:href="#bh"/><use transform="matrix(0.05,0,0,0.05,67.9,0)" xlink:href="#be"/></g><g id="af"><use transform="matrix(0.05,0,0,0.05,0,0)" xlink:href="#bh"/><use transform="matrix(0.05,0,0,0.05,10,0)" xlink:href="#bx"/><use transform="matrix(0.05,0,0,0.05,20,0)" xlink:href="#bx"/><use transform="matrix(0.05,0,0,0.05,30,0)" xlink:href="#bi"/><use transform="matrix(0.05,0,0,0.05,33.95,0)" xlink:href="#ct"/><use transform="matrix(0.05,0,0,0.05,42.95,0)" xlink:href="#bl"/><use transform="matrix(0.05,0,0,0.05,55.900000000000006,0)" xlink:href="#bh"/><use transform="matrix(0.05,0,0,0.05,65.9,0)" xlink:href="#be"/><use transform="matrix(0.05,0,0,0.05,71.85000000000001,0)" xlink:href="#bx"/><use transform="matrix(0.05,0,0,0.05,81.85000000000001,0)" xlink:href="#bB"/></g><path d="M118-107v75H92v-75H18v-26h74v-75h26v75h74v26h-74" id="cu"/><use transform="matrix(0.05,0,0,0.05,0,0)" xlink:href="#cu" id="ag"/><g id="ah"><use transform="matrix(0.05,0,0,0.05,0,0)" xlink:href="#bu"/><use transform="matrix(0.05,0,0,0.05,10,0)" xlink:href="#bs"/><use transform="matrix(0.05,0,0,0.05,20,0)" xlink:href="#bu"/><use transform="matrix(0.05,0,0,0.05,30,0)" xlink:href="#bi"/><use transform="matrix(0.05,0,0,0.05,33.95,0)" xlink:href="#bp"/><use transform="matrix(0.05,0,0,0.05,37.900000000000006,0)" xlink:href="#bu"/><use transform="matrix(0.05,0,0,0.05,47.900000000000006,0)" xlink:href="#bt"/><use transform="matrix(0.05,0,0,0.05,57.900000000000006,0)" xlink:href="#bh"/><use transform="matrix(0.05,0,0,0.05,67.9,0)" xlink:href="#be"/></g><g id="ai"><use transform="matrix(0.05,0,0,0.05,0,0)" xlink:href="#bq"/><use transform="matrix(0.05,0,0,0.05,9,0)" xlink:href="#bd"/><use transform="matrix(0.05,0,0,0.05,14,0)" xlink:href="#bh"/><use transform="matrix(0.05,0,0,0.05,24,0)" xlink:href="#bu"/><use transform="matrix(0.05,0,0,0.05,34,0)" xlink:href="#bA"/><use transform="matrix(0.05,0,0,0.05,44,0)" xlink:href="#bh"/><use transform="matrix(0.05,0,0,0.05,54,0)" xlink:href="#be"/><use transform="matrix(0.05,0,0,0.05,59.95,0)" xlink:href="#bA"/></g><g id="aj"><use transform="matrix(0.05,0,0,0.05,0,0)" xlink:href="#be"/><use transform="matrix(0.05,0,0,0.05,5.95,0)" xlink:href="#bt"/><use transform="matrix(0.05,0,0,0.05,15.949999999999998,0)" xlink:href="#cp"/><use transform="matrix(0.05,0,0,0.05,25.950000000000003,0)" xlink:href="#bp"/><use transform="matrix(0.05,0,0,0.05,29.899999999999995,0)" xlink:href="#bq"/><use transform="matrix(0.05,0,0,0.05,38.9,0)" xlink:href="#bd"/><use transform="matrix(0.05,0,0,0.05,43.9,0)" xlink:href="#be"/><use transform="matrix(0.05,0,0,0.05,49.85,0)" xlink:href="#bh"/><use transform="matrix(0.05,0,0,0.05,59.85,0)" xlink:href="#bd"/><use transform="matrix(0.05,0,0,0.05,64.85,0)" xlink:href="#bp"/><use transform="matrix(0.05,0,0,0.05,68.8,0)" xlink:href="#bs"/><use transform="matrix(0.05,0,0,0.05,78.8,0)" xlink:href="#bu"/></g><g id="ak"><use transform="matrix(0.05,0,0,0.05,0,0)" xlink:href="#bv"/><use transform="matrix(0.05,0,0,0.05,5.95,0)" xlink:href="#by"/><use transform="matrix(0.05,0,0,0.05,17.95,0)" xlink:href="#bm"/><use transform="matrix(0.05,0,0,0.05,30.899999999999995,0)" xlink:href="#bj"/><use transform="matrix(0.05,0,0,0.05,39.85,0)" xlink:href="#bq"/></g><g id="al"><use transform="matrix(0.05,0,0,0.05,0,0)" xlink:href="#bh"/><use transform="matrix(0.05,0,0,0.05,10,0)" xlink:href="#bu"/><use transform="matrix(0.05,0,0,0.05,20,0)" xlink:href="#bd"/><use transform="matrix(0.05,0,0,0.05,25,0)" xlink:href="#bq"/><use transform="matrix(0.05,0,0,0.05,34,0)" xlink:href="#bD"/><use transform="matrix(0.05,0,0,0.05,46.95,0)" xlink:href="#bt"/><use transform="matrix(0.05,0,0,0.05,56.95,0)" xlink:href="#cp"/><use transform="matrix(0.05,0,0,0.05,66.95,0)" xlink:href="#bp"/><use transform="matrix(0.05,0,0,0.05,70.9,0)" xlink:href="#bq"/><use transform="matrix(0.05,0,0,0.05,79.9,0)" xlink:href="#bd"/><use transform="matrix(0.05,0,0,0.05,84.9,0)" xlink:href="#be"/><use transform="matrix(0.05,0,0,0.05,90.85000000000001,0)" xlink:href="#bh"/><use transform="matrix(0.05,0,0,0.05,100.85000000000001,0)" xlink:href="#bd"/><use transform="matrix(0.05,0,0,0.05,105.85000000000001,0)" xlink:href="#bp"/><use transform="matrix(0.05,0,0,0.05,109.80000000000001,0)" xlink:href="#bs"/><use transform="matrix(0.05,0,0,0.05,119.80000000000001,0)" xlink:href="#bu"/><use transform="matrix(0.05,0,0,0.05,129.8,0)" xlink:href="#bB"/></g><g id="am"><use transform="matrix(0.07407407407407408,0,0,0.07407407407407408,0,0)" xlink:href="#bW"/><use transform="matrix(0.07407407407407408,0,0,0.07407407407407408,14.814814814814817,0)" xlink:href="#bp"/><use transform="matrix(0.07407407407407408,0,0,0.07407407407407408,20.666666666666668,0)" xlink:href="#bu"/><use transform="matrix(0.07407407407407408,0,0,0.07407407407407408,35.48148148148149,0)" xlink:href="#bt"/><use transform="matrix(0.07407407407407408,0,0,0.07407407407407408,50.296296296296305,0)" xlink:href="#bh"/><use transform="matrix(0.07407407407407408,0,0,0.07407407407407408,65.11111111111111,0)" xlink:href="#be"/></g><g id="an"><use transform="matrix(0.07407407407407408,0,0,0.07407407407407408,0,0)" xlink:href="#bp"/><use transform="matrix(0.07407407407407408,0,0,0.07407407407407408,5.851851851851853,0)" xlink:href="#bu"/><use transform="matrix(0.07407407407407408,0,0,0.07407407407407408,20.666666666666668,0)" xlink:href="#cb"/><use transform="matrix(0.07407407407407408,0,0,0.07407407407407408,34.00000000000001,0)" xlink:href="#bt"/><use transform="matrix(0.07407407407407408,0,0,0.07407407407407408,48.814814814814824,0)" xlink:href="#be"/><use transform="matrix(0.07407407407407408,0,0,0.07407407407407408,57.62962962962964,0)" xlink:href="#bq"/><use transform="matrix(0.07407407407407408,0,0,0.07407407407407408,70.96296296296298,0)" xlink:href="#bt"/></g><g id="ao"><use transform="matrix(0.07407407407407408,0,0,0.07407407407407408,0,0)" xlink:href="#bh"/><use transform="matrix(0.07407407407407408,0,0,0.07407407407407408,14.814814814814817,0)" xlink:href="#bK"/><use transform="matrix(0.07407407407407408,0,0,0.07407407407407408,21.703703703703706,0)" xlink:href="#bK"/><use transform="matrix(0.07407407407407408,0,0,0.07407407407407408,29.111111111111114,0)" xlink:href="#bp"/><use transform="matrix(0.07407407407407408,0,0,0.07407407407407408,34.96296296296297,0)" xlink:href="#bu"/><use transform="matrix(0.07407407407407408,0,0,0.07407407407407408,49.777777777777786,0)" xlink:href="#bt"/></g><g id="ap"><use transform="matrix(0.07407407407407408,0,0,0.07407407407407408,0,0)" xlink:href="#bH"/><use transform="matrix(0.07407407407407408,0,0,0.07407407407407408,22.148148148148152,0)" xlink:href="#bh"/><use transform="matrix(0.07407407407407408,0,0,0.07407407407407408,36.96296296296297,0)" xlink:href="#bd"/><use transform="matrix(0.07407407407407408,0,0,0.07407407407407408,44.37037037037039,0)" xlink:href="#be"/><use transform="matrix(0.07407407407407408,0,0,0.07407407407407408,53.1851851851852,0)" xlink:href="#bp"/><use transform="matrix(0.07407407407407408,0,0,0.07407407407407408,59.03703703703705,0)" xlink:href="#cs"/></g><g id="aq"><use transform="matrix(0.07407407407407408,0,0,0.07407407407407408,0,0)" xlink:href="#bm"/><use transform="matrix(0.07407407407407408,0,0,0.07407407407407408,19.185185185185187,0)" xlink:href="#bs"/><use transform="matrix(0.07407407407407408,0,0,0.07407407407407408,34,0)" xlink:href="#bu"/><use transform="matrix(0.07407407407407408,0,0,0.07407407407407408,48.81481481481481,0)" xlink:href="#bi"/><use transform="matrix(0.07407407407407408,0,0,0.07407407407407408,54.66666666666667,0)" xlink:href="#bp"/><use transform="matrix(0.07407407407407408,0,0,0.07407407407407408,60.518518518518526,0)" xlink:href="#bu"/><use transform="matrix(0.07407407407407408,0,0,0.07407407407407408,75.33333333333334,0)" xlink:href="#bt"/><use transform="matrix(0.07407407407407408,0,0,0.07407407407407408,90.14814814814817,0)" xlink:href="#bh"/><use transform="matrix(0.07407407407407408,0,0,0.07407407407407408,104.96296296296296,0)" xlink:href="#be"/></g><g id="ar"><use transform="matrix(0.07407407407407408,0,0,0.07407407407407408,0,0)" xlink:href="#bl"/><use transform="matrix(0.07407407407407408,0,0,0.07407407407407408,19.185185185185187,0)" xlink:href="#bh"/><use transform="matrix(0.07407407407407408,0,0,0.07407407407407408,34,0)" xlink:href="#be"/><use transform="matrix(0.07407407407407408,0,0,0.07407407407407408,42.814814814814824,0)" xlink:href="#bx"/></g><g id="as"><use transform="matrix(0.07407407407407408,0,0,0.07407407407407408,0,0)" xlink:href="#bh"/><use transform="matrix(0.07407407407407408,0,0,0.07407407407407408,14.814814814814817,0)" xlink:href="#bK"/><use transform="matrix(0.07407407407407408,0,0,0.07407407407407408,21.703703703703706,0)" xlink:href="#bK"/><use transform="matrix(0.07407407407407408,0,0,0.07407407407407408,29.111111111111114,0)" xlink:href="#bp"/><use transform="matrix(0.07407407407407408,0,0,0.07407407407407408,34.96296296296297,0)" xlink:href="#bu"/><use transform="matrix(0.07407407407407408,0,0,0.07407407407407408,49.777777777777786,0)" xlink:href="#bt"/></g><g id="at"><use transform="matrix(0.07407407407407408,0,0,0.07407407407407408,0,0)" xlink:href="#by"/><use transform="matrix(0.07407407407407408,0,0,0.07407407407407408,17.77777777777778,0)" xlink:href="#bu"/><use transform="matrix(0.07407407407407408,0,0,0.07407407407407408,32.592592592592595,0)" xlink:href="#bh"/><use transform="matrix(0.07407407407407408,0,0,0.07407407407407408,47.40740740740741,0)" xlink:href="#bd"/><use transform="matrix(0.07407407407407408,0,0,0.07407407407407408,54.814814814814824,0)" xlink:href="#bs"/><use transform="matrix(0.07407407407407408,0,0,0.07407407407407408,69.62962962962965,0)" xlink:href="#bH"/><use transform="matrix(0.07407407407407408,0,0,0.07407407407407408,91.7777777777778,0)" xlink:href="#bp"/><use transform="matrix(0.07407407407407408,0,0,0.07407407407407408,97.62962962962965,0)" xlink:href="#bg"/><use transform="matrix(0.07407407407407408,0,0,0.07407407407407408,110.96296296296299,0)" xlink:href="#bh"/><use transform="matrix(0.07407407407407408,0,0,0.07407407407407408,125.7777777777778,0)" xlink:href="#bi"/></g><g id="au"><use transform="matrix(0.07407407407407408,0,0,0.07407407407407408,0,0)" xlink:href="#bI"/><use transform="matrix(0.07407407407407408,0,0,0.07407407407407408,14.814814814814817,0)" xlink:href="#be"/><use transform="matrix(0.07407407407407408,0,0,0.07407407407407408,23.629629629629633,0)" xlink:href="#bh"/><use transform="matrix(0.07407407407407408,0,0,0.07407407407407408,38.44444444444445,0)" xlink:href="#bp"/><use transform="matrix(0.07407407407407408,0,0,0.07407407407407408,44.296296296296305,0)" xlink:href="#bu"/></g><g id="av"><use transform="matrix(0.07407407407407408,0,0,0.07407407407407408,0,0)" xlink:href="#bp"/><use transform="matrix(0.07407407407407408,0,0,0.07407407407407408,5.851851851851853,0)" xlink:href="#bu"/></g><g id="aw"><use transform="matrix(0.07407407407407408,0,0,0.07407407407407408,0,0)" xlink:href="#bd"/><use transform="matrix(0.07407407407407408,0,0,0.07407407407407408,7.407407407407408,0)" xlink:href="#bt"/><use transform="matrix(0.07407407407407408,0,0,0.07407407407407408,22.222222222222225,0)" xlink:href="#bH"/><use transform="matrix(0.07407407407407408,0,0,0.07407407407407408,44.37037037037039,0)" xlink:href="#bx"/><use transform="matrix(0.07407407407407408,0,0,0.07407407407407408,59.185185185185205,0)" xlink:href="#bi"/><use transform="matrix(0.07407407407407408,0,0,0.07407407407407408,65.03703703703705,0)" xlink:href="#bh"/><use transform="matrix(0.07407407407407408,0,0,0.07407407407407408,79.85185185185188,0)" xlink:href="#bd"/><use transform="matrix(0.07407407407407408,0,0,0.07407407407407408,87.25925925925928,0)" xlink:href="#bt"/></g><g id="ax"><use transform="matrix(0.07407407407407408,0,0,0.07407407407407408,0,0)" xlink:href="#bq"/><use transform="matrix(0.07407407407407408,0,0,0.07407407407407408,13.333333333333336,0)" xlink:href="#bx"/><use transform="matrix(0.07407407407407408,0,0,0.07407407407407408,28.148148148148152,0)" xlink:href="#bh"/><use transform="matrix(0.07407407407407408,0,0,0.07407407407407408,42.96296296296297,0)" xlink:href="#bg"/><use transform="matrix(0.07407407407407408,0,0,0.07407407407407408,56.296296296296305,0)" xlink:href="#bt"/></g><g id="ay"><use transform="matrix(0.05,0,0,0.05,0,0)" xlink:href="#by"/><use transform="matrix(0.05,0,0,0.05,12,0)" xlink:href="#bu"/><use transform="matrix(0.05,0,0,0.05,22,0)" xlink:href="#bh"/><use transform="matrix(0.05,0,0,0.05,32,0)" xlink:href="#bd"/><use transform="matrix(0.05,0,0,0.05,37,0)" xlink:href="#bs"/><use transform="matrix(0.05,0,0,0.05,47,0)" xlink:href="#bH"/><use transform="matrix(0.05,0,0,0.05,61.95,0)" xlink:href="#bp"/><use transform="matrix(0.05,0,0,0.05,65.9,0)" xlink:href="#bg"/><use transform="matrix(0.05,0,0,0.05,74.9,0)" xlink:href="#bh"/><use transform="matrix(0.05,0,0,0.05,84.9,0)" xlink:href="#bi"/></g><path d="M197 0v-115H63V0H30v-248h33v105h134v-105h34V0h-34" id="cv"/><g id="az"><use transform="matrix(0.05,0,0,0.05,0,0)" xlink:href="#cv"/><use transform="matrix(0.05,0,0,0.05,12.950000000000001,0)" xlink:href="#bt"/><use transform="matrix(0.05,0,0,0.05,22.950000000000003,0)" xlink:href="#bh"/><use transform="matrix(0.05,0,0,0.05,32.95,0)" xlink:href="#bA"/></g><g id="aA"><use transform="matrix(0.05,0,0,0.05,0,0)" xlink:href="#bo"/><use transform="matrix(0.05,0,0,0.05,12,0)" xlink:href="#be"/><use transform="matrix(0.05,0,0,0.05,17.95,0)" xlink:href="#bh"/><use transform="matrix(0.05,0,0,0.05,27.950000000000003,0)" xlink:href="#bp"/><use transform="matrix(0.05,0,0,0.05,31.899999999999995,0)" xlink:href="#bu"/></g><g id="aB"><use transform="matrix(0.05,0,0,0.05,0,0)" xlink:href="#bw"/><use transform="matrix(0.05,0,0,0.05,14,0)" xlink:href="#bu"/><use transform="matrix(0.05,0,0,0.05,24,0)" xlink:href="#bi"/><use transform="matrix(0.05,0,0,0.05,27.950000000000003,0)" xlink:href="#ct"/></g><g id="aC"><use transform="matrix(0.05,0,0,0.05,0,0)" xlink:href="#bj"/><use transform="matrix(0.05,0,0,0.05,8.950000000000001,0)" xlink:href="#bt"/><use transform="matrix(0.05,0,0,0.05,18.950000000000003,0)" xlink:href="#bH"/><use transform="matrix(0.05,0,0,0.05,33.900000000000006,0)" xlink:href="#bx"/><use transform="matrix(0.05,0,0,0.05,43.900000000000006,0)" xlink:href="#bi"/><use transform="matrix(0.05,0,0,0.05,47.85000000000001,0)" xlink:href="#bh"/><use transform="matrix(0.05,0,0,0.05,57.85,0)" xlink:href="#bd"/><use transform="matrix(0.05,0,0,0.05,62.85,0)" xlink:href="#bt"/></g><g id="aD"><use transform="matrix(0.05,0,0,0.05,0,0)" xlink:href="#bo"/><use transform="matrix(0.05,0,0,0.05,12,0)" xlink:href="#be"/><use transform="matrix(0.05,0,0,0.05,17.95,0)" xlink:href="#bh"/><use transform="matrix(0.05,0,0,0.05,27.950000000000003,0)" xlink:href="#bp"/><use transform="matrix(0.05,0,0,0.05,31.899999999999995,0)" xlink:href="#bu"/></g><path d="M266 0h-40l-56-210L115 0H75L2-248h35L96-30l15-64 43-154h32l59 218 59-218h35" id="cw"/><g id="aE"><use transform="matrix(0.05,0,0,0.05,0,0)" xlink:href="#cw"/><use transform="matrix(0.05,0,0,0.05,16.95,0)" xlink:href="#cq"/><use transform="matrix(0.05,0,0,0.05,26.950000000000003,0)" xlink:href="#bs"/><use transform="matrix(0.05,0,0,0.05,36.95,0)" xlink:href="#bi"/><use transform="matrix(0.05,0,0,0.05,40.900000000000006,0)" xlink:href="#bt"/></g><g id="aF"><use transform="matrix(0.05,0,0,0.05,0,0)" xlink:href="#ca"/><use transform="matrix(0.05,0,0,0.05,14.950000000000001,0)" xlink:href="#bh"/><use transform="matrix(0.05,0,0,0.05,24.950000000000003,0)" xlink:href="#bq"/><use transform="matrix(0.05,0,0,0.05,33.95,0)" xlink:href="#bL"/></g><g id="aG"><use transform="matrix(0.05,0,0,0.05,0,0)" xlink:href="#bz"/><use transform="matrix(0.05,0,0,0.05,10.950000000000001,0)" xlink:href="#bm"/><use transform="matrix(0.05,0,0,0.05,23.900000000000002,0)" xlink:href="#bF"/><use transform="matrix(0.05,0,0,0.05,28.900000000000002,0)" xlink:href="#bD"/><use transform="matrix(0.05,0,0,0.05,41.5,0)" xlink:href="#bj"/></g><g id="aH"><use transform="matrix(0.05,0,0,0.05,0,0)" xlink:href="#br"/><use transform="matrix(0.05,0,0,0.05,12.950000000000001,0)" xlink:href="#bs"/><use transform="matrix(0.05,0,0,0.05,22.950000000000003,0)" xlink:href="#bu"/><use transform="matrix(0.05,0,0,0.05,32.95,0)" xlink:href="#bK"/><use transform="matrix(0.05,0,0,0.05,37.95,0)" xlink:href="#bp"/><use transform="matrix(0.05,0,0,0.05,41.900000000000006,0)" xlink:href="#cp"/><use transform="matrix(0.05,0,0,0.05,51.900000000000006,0)" xlink:href="#bf"/><use transform="matrix(0.05,0,0,0.05,61.900000000000006,0)" xlink:href="#be"/><use transform="matrix(0.05,0,0,0.05,67.85000000000001,0)" xlink:href="#bh"/><use transform="matrix(0.05,0,0,0.05,77.85000000000001,0)" xlink:href="#bd"/><use transform="matrix(0.05,0,0,0.05,82.85000000000001,0)" xlink:href="#bp"/><use transform="matrix(0.05,0,0,0.05,86.80000000000001,0)" xlink:href="#bs"/><use transform="matrix(0.05,0,0,0.05,96.80000000000001,0)" xlink:href="#bu"/></g><g id="aI"><use transform="matrix(0.05,0,0,0.05,0,0)" xlink:href="#bz"/><use transform="matrix(0.05,0,0,0.05,10.950000000000001,0)" xlink:href="#bp"/><use transform="matrix(0.05,0,0,0.05,14.9,0)" xlink:href="#bi"/><use transform="matrix(0.05,0,0,0.05,18.85,0)" xlink:href="#bt"/></g><g id="aJ"><use transform="matrix(0.07407407407407408,0,0,0.07407407407407408,0,0)" xlink:href="#bF"/><use transform="matrix(0.07407407407407408,0,0,0.07407407407407408,7.407407407407408,0)" xlink:href="#bu"/><use transform="matrix(0.07407407407407408,0,0,0.07407407407407408,22.222222222222225,0)" xlink:href="#bA"/><use transform="matrix(0.07407407407407408,0,0,0.07407407407407408,37.03703703703704,0)" xlink:href="#bp"/><use transform="matrix(0.07407407407407408,0,0,0.07407407407407408,42.88888888888889,0)" xlink:href="#cb"/><use transform="matrix(0.07407407407407408,0,0,0.07407407407407408,56.22222222222223,0)" xlink:href="#bp"/><use transform="matrix(0.07407407407407408,0,0,0.07407407407407408,62.07407407407408,0)" xlink:href="#bA"/><use transform="matrix(0.07407407407407408,0,0,0.07407407407407408,76.8888888888889,0)" xlink:href="#bf"/><use transform="matrix(0.07407407407407408,0,0,0.07407407407407408,91.70370370370371,0)" xlink:href="#bh"/><use transform="matrix(0.07407407407407408,0,0,0.07407407407407408,106.51851851851853,0)" xlink:href="#bi"/></g><g id="aK"><use transform="matrix(0.07407407407407408,0,0,0.07407407407407408,0,0)" xlink:href="#bq"/><use transform="matrix(0.07407407407407408,0,0,0.07407407407407408,13.333333333333336,0)" xlink:href="#bx"/><use transform="matrix(0.07407407407407408,0,0,0.07407407407407408,28.148148148148152,0)" xlink:href="#bh"/><use transform="matrix(0.07407407407407408,0,0,0.07407407407407408,42.96296296296297,0)" xlink:href="#bg"/><use transform="matrix(0.07407407407407408,0,0,0.07407407407407408,56.296296296296305,0)" xlink:href="#bt"/></g><path d="M68-38c1 34 0 65-14 84H32c9-13 17-26 17-46H33v-38h35" id="cx"/><g id="aL"><use transform="matrix(0.07407407407407408,0,0,0.07407407407407408,0,0)" xlink:href="#br"/><use transform="matrix(0.07407407407407408,0,0,0.07407407407407408,19.185185185185187,0)" xlink:href="#bc"/><use transform="matrix(0.07407407407407408,0,0,0.07407407407407408,36.96296296296296,0)" xlink:href="#bz"/><use transform="matrix(0.07407407407407408,0,0,0.07407407407407408,50.22222222222223,0)" xlink:href="#cx"/></g><g id="aM"><use transform="matrix(0.07407407407407408,0,0,0.07407407407407408,0,0)" xlink:href="#cw"/><use transform="matrix(0.07407407407407408,0,0,0.07407407407407408,25.111111111111114,0)" xlink:href="#ca"/><use transform="matrix(0.07407407407407408,0,0,0.07407407407407408,47.25925925925927,0)" xlink:href="#cx"/></g><path d="M143 4C61 4 22-44 18-125c-5-107 100-154 193-111 17 8 29 25 37 43l-32 9c-13-25-37-40-76-40-61 0-88 39-88 99 0 61 29 100 91 101 35 0 62-11 79-27v-45h-74v-28h105v86C228-13 192 4 143 4" id="cy"/><g id="aN"><use transform="matrix(0.07407407407407408,0,0,0.07407407407407408,0,0)" xlink:href="#cy"/><use transform="matrix(0.07407407407407408,0,0,0.07407407407407408,20.740740740740744,0)" xlink:href="#ca"/></g><g id="aO"><use transform="matrix(0.07407407407407408,0,0,0.07407407407407408,0,0)" xlink:href="#bH"/><use transform="matrix(0.07407407407407408,0,0,0.07407407407407408,22.148148148148152,0)" xlink:href="#bh"/><use transform="matrix(0.07407407407407408,0,0,0.07407407407407408,36.96296296296297,0)" xlink:href="#bq"/><use transform="matrix(0.07407407407407408,0,0,0.07407407407407408,50.296296296296305,0)" xlink:href="#bL"/><use transform="matrix(0.07407407407407408,0,0,0.07407407407407408,63.62962962962964,0)" xlink:href="#bq"/></g><g id="aP"><use transform="matrix(0.05,0,0,0.05,0,0)" xlink:href="#cf"/><use transform="matrix(0.05,0,0,0.05,9.600000000000001,0)" xlink:href="#cg"/><use transform="matrix(0.05,0,0,0.05,19.6,0)" xlink:href="#cd"/><use transform="matrix(0.05,0,0,0.05,35.6,0)" xlink:href="#ch"/><use transform="matrix(0.05,0,0,0.05,46.550000000000004,0)" xlink:href="#ce"/><use transform="matrix(0.05,0,0,0.05,51.550000000000004,0)" xlink:href="#bO"/><use transform="matrix(0.05,0,0,0.05,61.550000000000004,0)" xlink:href="#bT"/><use transform="matrix(0.05,0,0,0.05,67.5,0)" xlink:href="#cg"/></g><path d="M88-194c31-1 46 15 58 34l-1-101h50l1 261h-48c-2-10 0-23-3-31C134-8 116 4 84 4 32 4 16-41 15-95c0-56 19-97 73-99zm17 164c33 0 40-30 41-66 1-37-9-64-41-64s-38 30-39 65c0 43 13 65 39 65" id="cz"/><g id="aQ"><use transform="matrix(0.05,0,0,0.05,0,0)" xlink:href="#bM"/><use transform="matrix(0.05,0,0,0.05,12.950000000000001,0)" xlink:href="#bO"/><use transform="matrix(0.05,0,0,0.05,22.950000000000003,0)" xlink:href="#ck"/><use transform="matrix(0.05,0,0,0.05,32.95,0)" xlink:href="#cg"/><use transform="matrix(0.05,0,0,0.05,42.95,0)" xlink:href="#cz"/></g><g id="aR"><use transform="matrix(0.05,0,0,0.05,0,0)" xlink:href="#cm"/><use transform="matrix(0.05,0,0,0.05,12,0)" xlink:href="#cg"/><use transform="matrix(0.05,0,0,0.05,22,0)" xlink:href="#cj"/><use transform="matrix(0.05,0,0,0.05,32.95,0)" xlink:href="#cd"/><use transform="matrix(0.05,0,0,0.05,48.95,0)" xlink:href="#cg"/><use transform="matrix(0.05,0,0,0.05,58.95,0)" xlink:href="#bQ"/><use transform="matrix(0.05,0,0,0.05,69.9,0)" xlink:href="#bT"/><use transform="matrix(0.05,0,0,0.05,75.85000000000001,0)" xlink:href="#bO"/><use transform="matrix(0.05,0,0,0.05,85.85000000000001,0)" xlink:href="#bT"/><use transform="matrix(0.05,0,0,0.05,91.80000000000001,0)" xlink:href="#bP"/><use transform="matrix(0.05,0,0,0.05,96.80000000000001,0)" xlink:href="#bV"/><use transform="matrix(0.05,0,0,0.05,107.75,0)" xlink:href="#bQ"/></g><path d="M85 4C-2 5 27-109 22-190h50c7 57-23 150 33 157 60-5 35-97 40-157h50l1 190h-47c-2-12 1-28-3-38-12 25-28 42-61 42" id="cA"/><g id="aS"><use transform="matrix(0.07407407407407408,0,0,0.07407407407407408,0,0)" xlink:href="#cf"/><use transform="matrix(0.07407407407407408,0,0,0.07407407407407408,15.703703703703706,0)" xlink:href="#bP"/><use transform="matrix(0.07407407407407408,0,0,0.07407407407407408,23.111111111111114,0)" xlink:href="#ck"/><use transform="matrix(0.07407407407407408,0,0,0.07407407407407408,37.92592592592593,0)" xlink:href="#ck"/><use transform="matrix(0.07407407407407408,0,0,0.07407407407407408,52.74074074074075,0)" xlink:href="#cA"/><use transform="matrix(0.07407407407407408,0,0,0.07407407407407408,68.96296296296298,0)" xlink:href="#cg"/></g><g id="aT"><use transform="matrix(0.07407407407407408,0,0,0.07407407407407408,0,0)" xlink:href="#cm"/><use transform="matrix(0.07407407407407408,0,0,0.07407407407407408,17.77777777777778,0)" xlink:href="#cg"/><use transform="matrix(0.07407407407407408,0,0,0.07407407407407408,32.592592592592595,0)" xlink:href="#cj"/><use transform="matrix(0.07407407407407408,0,0,0.07407407407407408,48.814814814814824,0)" xlink:href="#cd"/><use transform="matrix(0.07407407407407408,0,0,0.07407407407407408,72.51851851851853,0)" xlink:href="#cg"/><use transform="matrix(0.07407407407407408,0,0,0.07407407407407408,87.33333333333334,0)" xlink:href="#bQ"/><use transform="matrix(0.07407407407407408,0,0,0.07407407407407408,103.55555555555557,0)" xlink:href="#bT"/><use transform="matrix(0.07407407407407408,0,0,0.07407407407407408,112.37037037037038,0)" xlink:href="#bO"/><use transform="matrix(0.07407407407407408,0,0,0.07407407407407408,127.18518518518519,0)" xlink:href="#bT"/><use transform="matrix(0.07407407407407408,0,0,0.07407407407407408,136,0)" xlink:href="#bP"/><use transform="matrix(0.07407407407407408,0,0,0.07407407407407408,143.40740740740742,0)" xlink:href="#bV"/><use transform="matrix(0.07407407407407408,0,0,0.07407407407407408,159.62962962962965,0)" xlink:href="#bQ"/></g><g id="aU"><use transform="matrix(0.05,0,0,0.05,0,0)" xlink:href="#cl"/><use transform="matrix(0.05,0,0,0.05,10.950000000000001,0)" xlink:href="#cm"/><use transform="matrix(0.05,0,0,0.05,22.950000000000003,0)" xlink:href="#cn"/></g><g id="aV"><use transform="matrix(0.05,0,0,0.05,0,0)" xlink:href="#cl"/><use transform="matrix(0.05,0,0,0.05,9.950000000000001,0)" xlink:href="#cc"/><use transform="matrix(0.05,0,0,0.05,22.900000000000002,0)" xlink:href="#cm"/><use transform="matrix(0.05,0,0,0.05,34.900000000000006,0)" xlink:href="#cf"/></g><path d="M24-248c93 1 206-16 204 79-1 75-69 88-152 82V0H24v-248zm52 121c47 0 100 7 100-41 0-47-54-39-100-39v80" id="cB"/><path d="M14-72v-43h91v43H14" id="cC"/><g id="aW"><use transform="matrix(0.05,0,0,0.05,0,0)" xlink:href="#cB"/><use transform="matrix(0.05,0,0,0.05,12,0)" xlink:href="#bN"/><use transform="matrix(0.05,0,0,0.05,19,0)" xlink:href="#bP"/><use transform="matrix(0.05,0,0,0.05,24,0)" xlink:href="#bV"/><use transform="matrix(0.05,0,0,0.05,34.95,0)" xlink:href="#bN"/><use transform="matrix(0.05,0,0,0.05,41.95,0)" xlink:href="#cC"/><use transform="matrix(0.05,0,0,0.05,47.900000000000006,0)" xlink:href="#bM"/><use transform="matrix(0.05,0,0,0.05,60.85,0)" xlink:href="#bO"/><use transform="matrix(0.05,0,0,0.05,70.85000000000001,0)" xlink:href="#ck"/><use transform="matrix(0.05,0,0,0.05,80.85000000000001,0)" xlink:href="#cg"/><use transform="matrix(0.05,0,0,0.05,90.85000000000001,0)" xlink:href="#cz"/></g><g id="aX"><use transform="matrix(0.05,0,0,0.05,0,0)" xlink:href="#cm"/><use transform="matrix(0.05,0,0,0.05,12,0)" xlink:href="#cg"/><use transform="matrix(0.05,0,0,0.05,22,0)" xlink:href="#cj"/><use transform="matrix(0.05,0,0,0.05,32.95,0)" xlink:href="#cd"/><use transform="matrix(0.05,0,0,0.05,48.95,0)" xlink:href="#cg"/><use transform="matrix(0.05,0,0,0.05,58.95,0)" xlink:href="#bQ"/><use transform="matrix(0.05,0,0,0.05,69.9,0)" xlink:href="#bT"/><use transform="matrix(0.05,0,0,0.05,75.85000000000001,0)" xlink:href="#bO"/><use transform="matrix(0.05,0,0,0.05,85.85000000000001,0)" xlink:href="#bT"/><use transform="matrix(0.05,0,0,0.05,91.80000000000001,0)" xlink:href="#bP"/><use transform="matrix(0.05,0,0,0.05,96.80000000000001,0)" xlink:href="#bV"/><use transform="matrix(0.05,0,0,0.05,107.75,0)" xlink:href="#bQ"/></g><g id="aY"><use transform="matrix(0.05,0,0,0.05,0,0)" xlink:href="#bv"/><use transform="matrix(0.04938259259259258,0,0,0.04938259259259258,5.95,0)" xlink:href="#bw"/><use transform="matrix(0.04938259259259258,0,0,0.04938259259259258,19.777125925925922,0)" xlink:href="#bx"/><use transform="matrix(0.04938259259259258,0,0,0.04938259259259258,29.653644444444435,0)" xlink:href="#bd"/><use transform="matrix(0.04938259259259258,0,0,0.04938259259259258,34.59190370370369,0)" xlink:href="#bp"/><use transform="matrix(0.04938259259259258,0,0,0.04938259259259258,38.4931285185185,0)" xlink:href="#bH"/><use transform="matrix(0.04938259259259258,0,0,0.04938259259259258,53.25852370370369,0)" xlink:href="#bh"/><use transform="matrix(0.04938259259259258,0,0,0.04938259259259258,63.135042222222204,0)" xlink:href="#bi"/></g><g id="aZ"><use transform="matrix(0.04938259259259258,0,0,0.04938259259259258,0,0)" xlink:href="#bK"/><use transform="matrix(0.04938259259259258,0,0,0.04938259259259258,4.938259259259258,0)" xlink:href="#bs"/><use transform="matrix(0.04938259259259258,0,0,0.04938259259259258,14.814777777777774,0)" xlink:href="#be"/></g><g id="ba"><use transform="matrix(0.04938259259259258,0,0,0.04938259259259258,0,0)" xlink:href="#bu"/><use transform="matrix(0.04938259259259258,0,0,0.04938259259259258,9.876518518518516,0)" xlink:href="#bs"/><use transform="matrix(0.04938259259259258,0,0,0.04938259259259258,19.753037037037032,0)" xlink:href="#bu"/><use transform="matrix(0.04938259259259258,0,0,0.04938259259259258,29.629555555555548,0)" xlink:href="#bZ"/><use transform="matrix(0.04938259259259258,0,0,0.04938259259259258,35.50608407407407,0)" xlink:href="#cq"/><use transform="matrix(0.04938259259259258,0,0,0.04938259259259258,45.38260259259258,0)" xlink:href="#bf"/><use transform="matrix(0.04938259259259258,0,0,0.04938259259259258,55.2591211111111,0)" xlink:href="#bH"/><use transform="matrix(0.04938259259259258,0,0,0.04938259259259258,70.02451629629628,0)" xlink:href="#bh"/><use transform="matrix(0.04938259259259258,0,0,0.04938259259259258,79.9010348148148,0)" xlink:href="#bu"/></g><g id="bb"><use transform="matrix(0.04938259259259258,0,0,0.04938259259259258,0,0)" xlink:href="#bx"/><use transform="matrix(0.04938259259259258,0,0,0.04938259259259258,9.876518518518516,0)" xlink:href="#be"/><use transform="matrix(0.04938259259259258,0,0,0.04938259259259258,15.753047037037033,0)" xlink:href="#bp"/><use transform="matrix(0.04938259259259258,0,0,0.04938259259259258,19.654271851851846,0)" xlink:href="#bH"/><use transform="matrix(0.04938259259259258,0,0,0.04938259259259258,34.41966703703703,0)" xlink:href="#bh"/><use transform="matrix(0.04938259259259258,0,0,0.04938259259259258,44.296185555555546,0)" xlink:href="#bd"/><use transform="matrix(0.04938259259259258,0,0,0.04938259259259258,49.23444481481481,0)" xlink:href="#bt"/><use transform="matrix(0.04938259259259258,0,0,0.04938259259259258,59.11096333333332,0)" xlink:href="#bB"/></g></defs></g></svg>