<svg xmlns="http://www.w3.org/2000/svg" xmlns:xlink="http://www.w3.org/1999/xlink" xmlns:lucid="lucid" width="840" height="840"><g transform="translate(-400 -100)" lucid:page-tab-id="0_0"><path d="M480 220h740v441H480z" stroke="#000" stroke-width="2" fill="#ccc"/><path d="M882 120c15.46 0 28 13.66 28 30.5S897.46 181 882 181h-84c-15.46 0-28-13.66-28-30.5s12.54-30.5 28-30.5z" stroke="#000" stroke-width="2" fill="#ffc374"/><use xlink:href="#a" transform="matrix(1,0,0,1,775,125) translate(23.525 30.3375)"/><use xlink:href="#b" transform="matrix(1,0,0,1,775,125) translate(68.525 30.3375)"/><path d="M520 259h160v80H520z" stroke="#000" stroke-width="2" fill="#c1e4f7"/><use xlink:href="#c" transform="matrix(1,0,0,1,525,264) translate(30.574999999999996 27.525)"/><use xlink:href="#d" transform="matrix(1,0,0,1,525,264) translate(17.574999999999996 49.125)"/><path d="M1000 259h160v80h-160z" stroke="#000" stroke-width="2" fill="#c1e4f7"/><use xlink:href="#e" transform="matrix(1,0,0,1,1005,264) translate(33.574999999999996 27.525)"/><use xlink:href="#d" transform="matrix(1,0,0,1,1005,264) translate(17.574999999999996 49.125)"/><path d="M760 399h160v80H760z" stroke="#000" stroke-width="2" fill="#c1e4f7"/><use xlink:href="#f" transform="matrix(1,0,0,1,765,404) translate(22.599999999999994 16.5875)"/><use xlink:href="#g" transform="matrix(1,0,0,1,765,404) translate(17.624999999999993 38.1875)"/><use xlink:href="#h" transform="matrix(1,0,0,1,765,404) translate(117.375 38.1875)"/><use xlink:href="#i" transform="matrix(1,0,0,1,765,404) translate(26.949999999999996 59.7875)"/><path d="M520 399h160v80H520z" stroke="#000" stroke-width="2" fill="#c1e4f7"/><use xlink:href="#j" transform="matrix(1,0,0,1,525,404) translate(48.875 27.525)"/><use xlink:href="#k" transform="matrix(1,0,0,1,525,404) translate(19.549999999999997 49.125)"/><path d="M1000 399h160v80h-160z" stroke="#000" stroke-width="2" fill="#c1e4f7"/><use xlink:href="#l" transform="matrix(1,0,0,1,1005,404) translate(37.55 27.525)"/><use xlink:href="#m" transform="matrix(1,0,0,1,1005,404) translate(29.574999999999996 49.125)"/><path d="M760 539h160v80H760z" stroke="#000" stroke-width="2" fill="#c1e4f7"/><use xlink:href="#n" transform="matrix(1,0,0,1,765,544) translate(21.074999999999996 27.525)"/><use xlink:href="#h" transform="matrix(1,0,0,1,765,544) translate(113.92500000000001 27.525)"/><use xlink:href="#o" transform="matrix(1,0,0,1,765,544) translate(29.924999999999997 49.125)"/><path d="M768 150.5H600v89" stroke="#000" stroke-width="2" fill="none"/><path d="M769 150.48l.05 1.02h-1.08v-2h1.1z"/><path d="M600 254.76l-4.64-14.26h9.28z" stroke="#000" stroke-width="2"/><path d="M912 150.5h168v89" stroke="#000" stroke-width="2" fill="none"/><path d="M912.03 151.5h-1.1l.07-.98-.05-1.02h1.08z"/><path d="M1080 254.76l-4.64-14.26h9.28z" stroke="#000" stroke-width="2"/><path d="M840 183v196.5" stroke="#000" stroke-width="2" fill="none"/><path d="M841 183.03h-2V182h2z"/><path d="M840 394.76l-4.64-14.26h9.28z" stroke="#000" stroke-width="2"/><path d="M600 341v38.5" stroke="#000" stroke-width="2" fill="none"/><path d="M601 341.03h-2V340h2z"/><path d="M600 394.76l-4.64-14.26h9.28z" stroke="#000" stroke-width="2"/><path d="M682 439h58.5" stroke="#000" stroke-width="2" fill="none"/><path d="M682.03 440H681v-2h1.03z"/><path d="M755.76 439l-14.26 4.64v-9.28z" stroke="#000" stroke-width="2"/><path d="M1080 341v38.5" stroke="#000" stroke-width="2" fill="none"/><path d="M1081 341.03h-2V340h2z"/><path d="M1080 394.76l-4.64-14.26h9.28z" stroke="#000" stroke-width="2"/><path d="M1122.67 481v108.5h-1.34v91" stroke="#000" stroke-width="2" fill="none"/><path d="M1123.67 481.03h-2V480h2z"/><path d="M1121.33 695.76l-4.63-14.26h9.27z" stroke="#000" stroke-width="2"/><path d="M1080 481v38.5" stroke="#000" stroke-width="2" fill="none"/><path d="M1081 481.03h-2V480h2z"/><path d="M1080 534.76l-4.64-14.26h9.28z" stroke="#000" stroke-width="2"/><path d="M998 579h-58.5" stroke="#000" stroke-width="2" fill="none"/><path d="M999 580h-1.03v-2H999z"/><path d="M924.24 579l14.26-4.64v9.28z" stroke="#000" stroke-width="2"/><path d="M840 481v38.5" stroke="#000" stroke-width="2" fill="none"/><path d="M841 481.03h-2V480h2z"/><path d="M840 534.76l-4.64-14.26h9.28z" stroke="#000" stroke-width="2"/><path d="M1038.67 481v28H881.33v10.5" stroke="#000" stroke-width="2" fill="none"/><path d="M1039.67 481.03h-2V480h2z"/><path d="M881.33 534.76l-4.63-14.26h9.27z" stroke="#000" stroke-width="2"/><path d="M1128 700c17.67 0 32 17.9 32 40s-14.33 40-32 40h-96c-17.67 0-32-17.9-32-40s14.33-40 32-40z" stroke="#000" stroke-width="2" fill="#ffc374"/><use xlink:href="#p" transform="matrix(1,0,0,1,1005,705) translate(26.525 27.525)"/><use xlink:href="#q" transform="matrix(1,0,0,1,1005,705) translate(85.525 27.525)"/><use xlink:href="#r" transform="matrix(1,0,0,1,1005,705) translate(15.599999999999994 49.125)"/><use xlink:href="#s" transform="matrix(1,0,0,1,1005,705) translate(77.45 49.125)"/><path d="M888 700c17.67 0 32 17.9 32 40s-14.33 40-32 40h-96c-17.67 0-32-17.9-32-40s14.33-40 32-40z" stroke="#000" stroke-width="2" fill="#ffc374"/><use xlink:href="#p" transform="matrix(1,0,0,1,765,705) translate(26.525 27.525)"/><use xlink:href="#q" transform="matrix(1,0,0,1,765,705) translate(85.525 27.525)"/><use xlink:href="#t" transform="matrix(1,0,0,1,765,705) translate(4.625 49.125)"/><use xlink:href="#s" transform="matrix(1,0,0,1,765,705) translate(88.42500000000001 49.125)"/><path d="M840 621v59.5" stroke="#000" stroke-width="2" fill="none"/><path d="M841 621.03h-2V620h2z"/><path d="M840 695.76l-4.64-14.26h9.28z" stroke="#000" stroke-width="2"/><path d="M1080 621v59.5" stroke="#000" stroke-width="2" fill="none"/><path d="M1081 621.03h-2V620h2z"/><path d="M1080 695.76l-4.64-14.26h9.28z" stroke="#000" stroke-width="2"/><path d="M1000 539h160v80h-160z" stroke="#000" stroke-width="2" fill="#c1e4f7"/><use xlink:href="#u" transform="matrix(1,0,0,1,1005,544) translate(26.074999999999996 27.525)"/><use xlink:href="#v" transform="matrix(1,0,0,1,1005,544) translate(35.55 49.125)"/><path d="M760 840h160v80H760z" stroke="#000" stroke-width="2" fill="#c1e4f7"/><use xlink:href="#w" transform="matrix(1,0,0,1,765,845) translate(25.574999999999996 27.525)"/><use xlink:href="#x" transform="matrix(1,0,0,1,765,845) translate(38.525 49.125)"/><path d="M840 782v38.5" stroke="#000" stroke-width="2" fill="none"/><path d="M841 782.03h-2V781h2z"/><path d="M840 835.76l-4.64-14.26h9.28z" stroke="#000" stroke-width="2"/><path d="M480 600h240v60H480z" stroke="#000" stroke-opacity="0" stroke-width="2" fill="#fff" fill-opacity="0"/><use xlink:href="#y" transform="matrix(1,0,0,1,485,605) translate(16.674999999999997 30.025)"/><use xlink:href="#z" transform="matrix(1,0,0,1,485,605) translate(146.425 30.025)"/><path d="M420 220h240v60H420z" stroke="#000" stroke-opacity="0" stroke-width="2" fill="#fff" fill-opacity="0"/><use xlink:href="#A" transform="matrix(1,0,0,1,425,225) translate(93.525 30.025)"/><path d="M660 500h240v60H660z" stroke="#000" stroke-opacity="0" stroke-width="2" fill="#fff" fill-opacity="0"/><use xlink:href="#A" transform="matrix(1,0,0,1,665,505) translate(93.525 30.025)"/><path d="M440 360h220v60H440z" stroke="#000" stroke-opacity="0" stroke-width="2" fill="#fff" fill-opacity="0"/><use xlink:href="#B" transform="matrix(1,0,0,1,445,365) translate(73.07499999999999 30.025)"/><path d="M910 360h240v60H910z" stroke="#000" stroke-opacity="0" stroke-width="2" fill="#fff" fill-opacity="0"/><g><use xlink:href="#B" transform="matrix(1,0,0,1,915,365) translate(83.07499999999999 30.025)"/></g><path d="M660 360h240v60H660z" stroke="#000" stroke-opacity="0" stroke-width="2" fill="#fff" fill-opacity="0"/><g><use xlink:href="#C" transform="matrix(1,0,0,1,665,365) translate(95 30.025)"/></g><path d="M900 499.5h240v60H900z" stroke="#000" stroke-opacity="0" stroke-width="2" fill="#fff" fill-opacity="0"/><g><use xlink:href="#C" transform="matrix(1,0,0,1,905,504.5) translate(95 30.025)"/></g><path d="M910 220h240v60H910z" stroke="#000" stroke-opacity="0" stroke-width="2" fill="#fff" fill-opacity="0"/><g><use xlink:href="#B" transform="matrix(1,0,0,1,915,225) translate(83.07499999999999 30.025)"/></g><path d="M660 800h240v60H660z" stroke="#000" stroke-opacity="0" stroke-width="2" fill="#fff" fill-opacity="0"/><g><use xlink:href="#D" transform="matrix(1,0,0,1,665,805) translate(90.225 30.025)"/></g><path d="M998 299h-28v211h-88.67v9.5" stroke="#000" stroke-width="2" fill="none"/><path d="M999 300h-1.03v-2H999z"/><path d="M881.33 534.76l-4.63-14.26h9.27z" stroke="#000" stroke-width="2"/><path d="M648 840c17.67 0 32 17.9 32 40s-14.33 40-32 40h-96c-17.67 0-32-17.9-32-40s14.33-40 32-40z" stroke="#000" stroke-width="2" fill="#ffc374"/><g><use xlink:href="#E" transform="matrix(1,0,0,1,525,845) translate(9.625 27.525)"/><use xlink:href="#F" transform="matrix(1,0,0,1,525,845) translate(91.47500000000001 27.525)"/><use xlink:href="#G" transform="matrix(1,0,0,1,525,845) translate(21.64999999999999 49.125)"/><use xlink:href="#H" transform="matrix(1,0,0,1,525,845) translate(41.54999999999999 49.125)"/></g><path d="M682 880h58.5" stroke="#000" stroke-width="2" fill="none"/><path d="M682.03 881h-1.1l.07-1-.03-1h1.06z"/><path d="M755.76 880l-14.26 4.64v-9.28z" stroke="#000" stroke-width="2"/><defs><path d="M33 0v-248h34V0H33" id="I"/><path d="M117-194c89-4 53 116 60 194h-32v-121c0-31-8-49-39-48C34-167 62-67 57 0H25l-1-190h30c1 10-1 24 2 32 11-22 29-35 61-36" id="J"/><path d="M115-194c55 1 70 41 70 98S169 2 115 4C84 4 66-9 55-30l1 105H24l-1-265h31l2 30c10-21 28-34 59-34zm-8 174c40 0 45-34 45-75s-6-73-45-74c-42 0-51 32-51 76 0 43 10 73 51 73" id="K"/><path d="M84 4C-5 8 30-112 23-190h32v120c0 31 7 50 39 49 72-2 45-101 50-169h31l1 190h-30c-1-10 1-25-2-33-11 22-28 36-60 37" id="L"/><path d="M59-47c-2 24 18 29 38 22v24C64 9 27 4 27-40v-127H5v-23h24l9-43h21v43h35v23H59v120" id="M"/><g id="a"><use transform="matrix(0.05,0,0,0.05,0,0)" xlink:href="#I"/><use transform="matrix(0.05,0,0,0.05,5,0)" xlink:href="#J"/><use transform="matrix(0.05,0,0,0.05,15,0)" xlink:href="#K"/><use transform="matrix(0.05,0,0,0.05,25,0)" xlink:href="#L"/><use transform="matrix(0.05,0,0,0.05,35,0)" xlink:href="#M"/></g><path d="M30-248c118-7 216 8 213 122C240-48 200 0 122 0H30v-248zM63-27c89 8 146-16 146-99s-60-101-146-95v194" id="N"/><path d="M141-36C126-15 110 5 73 4 37 3 15-17 15-53c-1-64 63-63 125-63 3-35-9-54-41-54-24 1-41 7-42 31l-33-3c5-37 33-52 76-52 45 0 72 20 72 64v82c-1 20 7 32 28 27v20c-31 9-61-2-59-35zM48-53c0 20 12 33 32 33 41-3 63-29 60-74-43 2-92-5-92 41" id="O"/><g id="b"><use transform="matrix(0.05,0,0,0.05,0,0)" xlink:href="#N"/><use transform="matrix(0.05,0,0,0.05,12.950000000000001,0)" xlink:href="#O"/><use transform="matrix(0.05,0,0,0.05,22.950000000000003,0)" xlink:href="#M"/><use transform="matrix(0.05,0,0,0.05,27.950000000000003,0)" xlink:href="#O"/></g><path d="M205 0l-28-72H64L36 0H1l101-248h38L239 0h-34zm-38-99l-47-123c-12 45-31 82-46 123h93" id="P"/><path d="M100-194c62-1 85 37 85 99 1 63-27 99-86 99S16-35 15-95c0-66 28-99 85-99zM99-20c44 1 53-31 53-75 0-43-8-75-51-75s-53 32-53 75 10 74 51 75" id="Q"/><path d="M210-169c-67 3-38 105-44 169h-31v-121c0-29-5-50-35-48C34-165 62-65 56 0H25l-1-190h30c1 10-1 24 2 32 10-44 99-50 107 0 11-21 27-35 58-36 85-2 47 119 55 194h-31v-121c0-29-5-49-35-48" id="R"/><path d="M24-231v-30h32v30H24zM24 0v-190h32V0H24" id="S"/><path d="M96-169c-40 0-48 33-48 73s9 75 48 75c24 0 41-14 43-38l32 2c-6 37-31 61-74 61-59 0-76-41-82-99-10-93 101-131 147-64 4 7 5 14 7 22l-32 3c-4-21-16-35-41-35" id="T"/><path d="M24 0v-261h32V0H24" id="U"/><g id="c"><use transform="matrix(0.05,0,0,0.05,0,0)" xlink:href="#P"/><use transform="matrix(0.05,0,0,0.05,12,0)" xlink:href="#J"/><use transform="matrix(0.05,0,0,0.05,22,0)" xlink:href="#O"/><use transform="matrix(0.05,0,0,0.05,32,0)" xlink:href="#M"/><use transform="matrix(0.05,0,0,0.05,37,0)" xlink:href="#Q"/><use transform="matrix(0.05,0,0,0.05,47,0)" xlink:href="#R"/><use transform="matrix(0.05,0,0,0.05,61.95,0)" xlink:href="#S"/><use transform="matrix(0.05,0,0,0.05,65.9,0)" xlink:href="#T"/><use transform="matrix(0.05,0,0,0.05,74.9,0)" xlink:href="#O"/><use transform="matrix(0.05,0,0,0.05,84.9,0)" xlink:href="#U"/></g><path d="M30-248c87 1 191-15 191 75 0 78-77 80-158 76V0H30v-248zm33 125c57 0 124 11 124-50 0-59-68-47-124-48v98" id="V"/><path d="M114-163C36-179 61-72 57 0H25l-1-190h30c1 12-1 29 2 39 6-27 23-49 58-41v29" id="W"/><path d="M100-194c63 0 86 42 84 106H49c0 40 14 67 53 68 26 1 43-12 49-29l28 8c-11 28-37 45-77 45C44 4 14-33 15-96c1-61 26-98 85-98zm52 81c6-60-76-77-97-28-3 7-6 17-6 28h103" id="X"/><path d="M135-143c-3-34-86-38-87 0 15 53 115 12 119 90S17 21 10-45l28-5c4 36 97 45 98 0-10-56-113-15-118-90-4-57 82-63 122-42 12 7 21 19 24 35" id="Y"/><path d="M177-190C167-65 218 103 67 71c-23-6-38-20-44-43l32-5c15 47 100 32 89-28v-30C133-14 115 1 83 1 29 1 15-40 15-95c0-56 16-97 71-98 29-1 48 16 59 35 1-10 0-23 2-32h30zM94-22c36 0 50-32 50-73 0-42-14-75-50-75-39 0-46 34-46 75s6 73 46 73" id="Z"/><g id="d"><use transform="matrix(0.05,0,0,0.05,0,0)" xlink:href="#V"/><use transform="matrix(0.05,0,0,0.05,12,0)" xlink:href="#W"/><use transform="matrix(0.05,0,0,0.05,17.95,0)" xlink:href="#X"/><use transform="matrix(0.05,0,0,0.05,27.950000000000003,0)" xlink:href="#K"/><use transform="matrix(0.05,0,0,0.05,37.95,0)" xlink:href="#W"/><use transform="matrix(0.05,0,0,0.05,43.900000000000006,0)" xlink:href="#Q"/><use transform="matrix(0.05,0,0,0.05,53.900000000000006,0)" xlink:href="#T"/><use transform="matrix(0.05,0,0,0.05,62.900000000000006,0)" xlink:href="#X"/><use transform="matrix(0.05,0,0,0.05,72.9,0)" xlink:href="#Y"/><use transform="matrix(0.05,0,0,0.05,81.9,0)" xlink:href="#Y"/><use transform="matrix(0.05,0,0,0.05,90.9,0)" xlink:href="#S"/><use transform="matrix(0.05,0,0,0.05,94.85000000000001,0)" xlink:href="#J"/><use transform="matrix(0.05,0,0,0.05,104.85000000000001,0)" xlink:href="#Z"/></g><path d="M63-220v92h138v28H63V0H30v-248h175v28H63" id="aa"/><g id="e"><use transform="matrix(0.05,0,0,0.05,0,0)" xlink:href="#aa"/><use transform="matrix(0.05,0,0,0.05,10.950000000000001,0)" xlink:href="#L"/><use transform="matrix(0.05,0,0,0.05,20.950000000000003,0)" xlink:href="#J"/><use transform="matrix(0.05,0,0,0.05,30.950000000000003,0)" xlink:href="#T"/><use transform="matrix(0.05,0,0,0.05,39.95,0)" xlink:href="#M"/><use transform="matrix(0.05,0,0,0.05,44.95,0)" xlink:href="#S"/><use transform="matrix(0.05,0,0,0.05,48.900000000000006,0)" xlink:href="#Q"/><use transform="matrix(0.05,0,0,0.05,58.900000000000006,0)" xlink:href="#J"/><use transform="matrix(0.05,0,0,0.05,68.9,0)" xlink:href="#O"/><use transform="matrix(0.05,0,0,0.05,78.9,0)" xlink:href="#U"/></g><path d="M233-177c-1 41-23 64-60 70L243 0h-38l-65-103H63V0H30v-248c88 3 205-21 203 71zM63-129c60-2 137 13 137-47 0-61-80-42-137-45v92" id="ab"/><g id="f"><use transform="matrix(0.05,0,0,0.05,0,0)" xlink:href="#ab"/><use transform="matrix(0.05,0,0,0.05,12.950000000000001,0)" xlink:href="#X"/><use transform="matrix(0.05,0,0,0.05,22.950000000000003,0)" xlink:href="#Z"/><use transform="matrix(0.05,0,0,0.05,32.95,0)" xlink:href="#S"/><use transform="matrix(0.05,0,0,0.05,36.900000000000006,0)" xlink:href="#Y"/><use transform="matrix(0.05,0,0,0.05,45.900000000000006,0)" xlink:href="#M"/><use transform="matrix(0.05,0,0,0.05,50.900000000000006,0)" xlink:href="#W"/><use transform="matrix(0.05,0,0,0.05,56.85,0)" xlink:href="#O"/><use transform="matrix(0.05,0,0,0.05,66.85000000000001,0)" xlink:href="#M"/><use transform="matrix(0.05,0,0,0.05,71.85000000000001,0)" xlink:href="#S"/><use transform="matrix(0.05,0,0,0.05,75.80000000000001,0)" xlink:href="#Q"/><use transform="matrix(0.05,0,0,0.05,85.80000000000001,0)" xlink:href="#J"/><use transform="matrix(0.05,0,0,0.05,95.80000000000001,0)" xlink:href="#Y"/></g><path d="M87 75C49 33 22-17 22-94c0-76 28-126 65-167h31c-38 41-64 92-64 168S80 34 118 75H87" id="ac"/><path d="M212-179c-10-28-35-45-73-45-59 0-87 40-87 99 0 60 29 101 89 101 43 0 62-24 78-52l27 14C228-24 195 4 139 4 59 4 22-46 18-125c-6-104 99-153 187-111 19 9 31 26 39 46" id="ad"/><g id="g"><use transform="matrix(0.05,0,0,0.05,0,0)" xlink:href="#ac"/><use transform="matrix(0.05,0,0,0.05,5.95,0)" xlink:href="#ad"/><use transform="matrix(0.05,0,0,0.05,18.900000000000002,0)" xlink:href="#O"/><use transform="matrix(0.05,0,0,0.05,28.900000000000002,0)" xlink:href="#U"/><use transform="matrix(0.05,0,0,0.05,32.85,0)" xlink:href="#T"/><use transform="matrix(0.05,0,0,0.05,41.85,0)" xlink:href="#L"/><use transform="matrix(0.05,0,0,0.05,51.85,0)" xlink:href="#U"/><use transform="matrix(0.05,0,0,0.05,55.800000000000004,0)" xlink:href="#O"/><use transform="matrix(0.05,0,0,0.05,65.80000000000001,0)" xlink:href="#M"/><use transform="matrix(0.05,0,0,0.05,70.80000000000001,0)" xlink:href="#S"/><use transform="matrix(0.05,0,0,0.05,74.75000000000001,0)" xlink:href="#Q"/><use transform="matrix(0.05,0,0,0.05,84.75000000000001,0)" xlink:href="#J"/></g><path d="M101-234c-31-9-42 10-38 44h38v23H63V0H32v-167H5v-23h27c-7-52 17-82 69-68v24" id="ae"/><g id="h"><use transform="matrix(0.05,0,0,0.05,0,0)" xlink:href="#Q"/><use transform="matrix(0.05,0,0,0.05,10,0)" xlink:href="#ae"/></g><path d="M127-220V0H93v-220H8v-28h204v28h-85" id="af"/><path d="M33-261c38 41 65 92 65 168S71 34 33 75H2C39 34 66-17 66-93S39-220 2-261h31" id="ag"/><g id="i"><use transform="matrix(0.05,0,0,0.05,0,0)" xlink:href="#af"/><use transform="matrix(0.05,0,0,0.05,10.3,0)" xlink:href="#W"/><use transform="matrix(0.05,0,0,0.05,16.25,0)" xlink:href="#O"/><use transform="matrix(0.05,0,0,0.05,26.25,0)" xlink:href="#J"/><use transform="matrix(0.05,0,0,0.05,36.25,0)" xlink:href="#Y"/><use transform="matrix(0.05,0,0,0.05,45.25,0)" xlink:href="#ae"/><use transform="matrix(0.05,0,0,0.05,50.25,0)" xlink:href="#Q"/><use transform="matrix(0.05,0,0,0.05,60.25,0)" xlink:href="#W"/><use transform="matrix(0.05,0,0,0.05,66.2,0)" xlink:href="#R"/><use transform="matrix(0.05,0,0,0.05,81.15,0)" xlink:href="#Y"/><use transform="matrix(0.05,0,0,0.05,90.15,0)" xlink:href="#ag"/></g><g id="j"><use transform="matrix(0.05,0,0,0.05,0,0)" xlink:href="#af"/><use transform="matrix(0.05,0,0,0.05,10.3,0)" xlink:href="#S"/><use transform="matrix(0.05,0,0,0.05,14.25,0)" xlink:href="#Y"/><use transform="matrix(0.05,0,0,0.05,23.25,0)" xlink:href="#Y"/><use transform="matrix(0.05,0,0,0.05,32.25,0)" xlink:href="#L"/><use transform="matrix(0.05,0,0,0.05,42.25,0)" xlink:href="#X"/></g><path d="M185-189c-5-48-123-54-124 2 14 75 158 14 163 119 3 78-121 87-175 55-17-10-28-26-33-46l33-7c5 56 141 63 141-1 0-78-155-14-162-118-5-82 145-84 179-34 5 7 8 16 11 25" id="ah"/><g id="k"><use transform="matrix(0.05,0,0,0.05,0,0)" xlink:href="#ah"/><use transform="matrix(0.05,0,0,0.05,12,0)" xlink:href="#X"/><use transform="matrix(0.05,0,0,0.05,22,0)" xlink:href="#Z"/><use transform="matrix(0.05,0,0,0.05,32,0)" xlink:href="#R"/><use transform="matrix(0.05,0,0,0.05,46.95,0)" xlink:href="#X"/><use transform="matrix(0.05,0,0,0.05,56.95,0)" xlink:href="#J"/><use transform="matrix(0.05,0,0,0.05,66.95,0)" xlink:href="#M"/><use transform="matrix(0.05,0,0,0.05,71.95,0)" xlink:href="#O"/><use transform="matrix(0.05,0,0,0.05,81.95,0)" xlink:href="#M"/><use transform="matrix(0.05,0,0,0.05,86.95,0)" xlink:href="#S"/><use transform="matrix(0.05,0,0,0.05,90.9,0)" xlink:href="#Q"/><use transform="matrix(0.05,0,0,0.05,100.9,0)" xlink:href="#J"/></g><path d="M190 0L58-211 59 0H30v-248h39L202-35l-2-213h31V0h-41" id="ai"/><g id="l"><use transform="matrix(0.05,0,0,0.05,0,0)" xlink:href="#ai"/><use transform="matrix(0.05,0,0,0.05,12.950000000000001,0)" xlink:href="#L"/><use transform="matrix(0.05,0,0,0.05,22.950000000000003,0)" xlink:href="#S"/><use transform="matrix(0.05,0,0,0.05,26.900000000000002,0)" xlink:href="#Y"/><use transform="matrix(0.05,0,0,0.05,35.900000000000006,0)" xlink:href="#O"/><use transform="matrix(0.05,0,0,0.05,45.900000000000006,0)" xlink:href="#J"/><use transform="matrix(0.05,0,0,0.05,55.900000000000006,0)" xlink:href="#T"/><use transform="matrix(0.05,0,0,0.05,64.9,0)" xlink:href="#X"/></g><g id="m"><use transform="matrix(0.05,0,0,0.05,0,0)" xlink:href="#ab"/><use transform="matrix(0.05,0,0,0.05,12.950000000000001,0)" xlink:href="#X"/><use transform="matrix(0.05,0,0,0.05,22.950000000000003,0)" xlink:href="#Z"/><use transform="matrix(0.05,0,0,0.05,32.95,0)" xlink:href="#W"/><use transform="matrix(0.05,0,0,0.05,38.900000000000006,0)" xlink:href="#X"/><use transform="matrix(0.05,0,0,0.05,48.900000000000006,0)" xlink:href="#Y"/><use transform="matrix(0.05,0,0,0.05,57.900000000000006,0)" xlink:href="#Y"/><use transform="matrix(0.05,0,0,0.05,66.9,0)" xlink:href="#S"/><use transform="matrix(0.05,0,0,0.05,70.85000000000001,0)" xlink:href="#Q"/><use transform="matrix(0.05,0,0,0.05,80.85000000000001,0)" xlink:href="#J"/></g><g id="n"><use transform="matrix(0.05,0,0,0.05,0,0)" xlink:href="#P"/><use transform="matrix(0.05,0,0,0.05,12,0)" xlink:href="#K"/><use transform="matrix(0.05,0,0,0.05,22,0)" xlink:href="#K"/><use transform="matrix(0.05,0,0,0.05,32,0)" xlink:href="#U"/><use transform="matrix(0.05,0,0,0.05,35.95,0)" xlink:href="#S"/><use transform="matrix(0.05,0,0,0.05,39.900000000000006,0)" xlink:href="#T"/><use transform="matrix(0.05,0,0,0.05,48.900000000000006,0)" xlink:href="#O"/><use transform="matrix(0.05,0,0,0.05,58.900000000000006,0)" xlink:href="#M"/><use transform="matrix(0.05,0,0,0.05,63.900000000000006,0)" xlink:href="#S"/><use transform="matrix(0.05,0,0,0.05,67.85000000000001,0)" xlink:href="#Q"/><use transform="matrix(0.05,0,0,0.05,77.85000000000001,0)" xlink:href="#J"/></g><g id="o"><use transform="matrix(0.05,0,0,0.05,0,0)" xlink:href="#af"/><use transform="matrix(0.05,0,0,0.05,10.3,0)" xlink:href="#W"/><use transform="matrix(0.05,0,0,0.05,16.25,0)" xlink:href="#O"/><use transform="matrix(0.05,0,0,0.05,26.25,0)" xlink:href="#J"/><use transform="matrix(0.05,0,0,0.05,36.25,0)" xlink:href="#Y"/><use transform="matrix(0.05,0,0,0.05,45.25,0)" xlink:href="#ae"/><use transform="matrix(0.05,0,0,0.05,50.25,0)" xlink:href="#Q"/><use transform="matrix(0.05,0,0,0.05,60.25,0)" xlink:href="#W"/><use transform="matrix(0.05,0,0,0.05,66.2,0)" xlink:href="#R"/><use transform="matrix(0.05,0,0,0.05,81.15,0)" xlink:href="#Y"/></g><path d="M140-251c81 0 123 46 123 126C263-46 219 4 140 4 59 4 17-45 17-125s42-126 123-126zm0 227c63 0 89-41 89-101s-29-99-89-99c-61 0-89 39-89 99S79-25 140-24" id="aj"/><g id="p"><use transform="matrix(0.05,0,0,0.05,0,0)" xlink:href="#aj"/><use transform="matrix(0.05,0,0,0.05,14,0)" xlink:href="#L"/><use transform="matrix(0.05,0,0,0.05,24,0)" xlink:href="#M"/><use transform="matrix(0.05,0,0,0.05,29,0)" xlink:href="#K"/><use transform="matrix(0.05,0,0,0.05,39,0)" xlink:href="#L"/><use transform="matrix(0.05,0,0,0.05,49,0)" xlink:href="#M"/></g><g id="q"><use transform="matrix(0.05,0,0,0.05,0,0)" xlink:href="#N"/><use transform="matrix(0.05,0,0,0.05,12.950000000000001,0)" xlink:href="#O"/><use transform="matrix(0.05,0,0,0.05,22.950000000000003,0)" xlink:href="#M"/><use transform="matrix(0.05,0,0,0.05,27.950000000000003,0)" xlink:href="#O"/></g><path d="M108 0H70L1-190h34L89-25l56-165h34" id="ak"/><g id="r"><use transform="matrix(0.05,0,0,0.05,0,0)" xlink:href="#ac"/><use transform="matrix(0.05,0,0,0.05,5.95,0)" xlink:href="#ai"/><use transform="matrix(0.05,0,0,0.05,18.900000000000002,0)" xlink:href="#O"/><use transform="matrix(0.05,0,0,0.05,28.900000000000002,0)" xlink:href="#M"/><use transform="matrix(0.05,0,0,0.05,33.900000000000006,0)" xlink:href="#S"/><use transform="matrix(0.05,0,0,0.05,37.85000000000001,0)" xlink:href="#ak"/><use transform="matrix(0.05,0,0,0.05,46.85000000000001,0)" xlink:href="#X"/></g><g id="s"><use transform="matrix(0.05,0,0,0.05,0,0)" xlink:href="#ah"/><use transform="matrix(0.05,0,0,0.05,12,0)" xlink:href="#K"/><use transform="matrix(0.05,0,0,0.05,22,0)" xlink:href="#O"/><use transform="matrix(0.05,0,0,0.05,32,0)" xlink:href="#T"/><use transform="matrix(0.05,0,0,0.05,41,0)" xlink:href="#X"/><use transform="matrix(0.05,0,0,0.05,51,0)" xlink:href="#ag"/></g><g id="t"><use transform="matrix(0.05,0,0,0.05,0,0)" xlink:href="#ac"/><use transform="matrix(0.05,0,0,0.05,5.95,0)" xlink:href="#af"/><use transform="matrix(0.05,0,0,0.05,14.9,0)" xlink:href="#X"/><use transform="matrix(0.05,0,0,0.05,24.900000000000002,0)" xlink:href="#R"/><use transform="matrix(0.05,0,0,0.05,39.85,0)" xlink:href="#K"/><use transform="matrix(0.05,0,0,0.05,49.85,0)" xlink:href="#U"/><use transform="matrix(0.05,0,0,0.05,53.800000000000004,0)" xlink:href="#O"/><use transform="matrix(0.05,0,0,0.05,63.800000000000004,0)" xlink:href="#M"/><use transform="matrix(0.05,0,0,0.05,68.80000000000001,0)" xlink:href="#X"/></g><path d="M179-190L93 31C79 59 56 82 12 73V49c39 6 53-20 64-50L1-190h34L92-34l54-156h33" id="al"/><g id="u"><use transform="matrix(0.05,0,0,0.05,0,0)" xlink:href="#ad"/><use transform="matrix(0.05,0,0,0.05,12.950000000000001,0)" xlink:href="#Q"/><use transform="matrix(0.05,0,0,0.05,22.950000000000003,0)" xlink:href="#J"/><use transform="matrix(0.05,0,0,0.05,32.95,0)" xlink:href="#J"/><use transform="matrix(0.05,0,0,0.05,42.95,0)" xlink:href="#X"/><use transform="matrix(0.05,0,0,0.05,52.95,0)" xlink:href="#T"/><use transform="matrix(0.05,0,0,0.05,61.95,0)" xlink:href="#M"/><use transform="matrix(0.05,0,0,0.05,66.95,0)" xlink:href="#S"/><use transform="matrix(0.05,0,0,0.05,70.9,0)" xlink:href="#ak"/><use transform="matrix(0.05,0,0,0.05,79.9,0)" xlink:href="#S"/><use transform="matrix(0.05,0,0,0.05,83.85000000000001,0)" xlink:href="#M"/><use transform="matrix(0.05,0,0,0.05,88.85000000000001,0)" xlink:href="#al"/></g><path d="M240 0l2-218c-23 76-54 145-80 218h-23L58-218 59 0H30v-248h44l77 211c21-75 51-140 76-211h43V0h-30" id="am"/><g id="v"><use transform="matrix(0.05,0,0,0.05,0,0)" xlink:href="#am"/><use transform="matrix(0.05,0,0,0.05,14.950000000000001,0)" xlink:href="#X"/><use transform="matrix(0.05,0,0,0.05,24.950000000000003,0)" xlink:href="#O"/><use transform="matrix(0.05,0,0,0.05,34.95,0)" xlink:href="#Y"/><use transform="matrix(0.05,0,0,0.05,43.95,0)" xlink:href="#L"/><use transform="matrix(0.05,0,0,0.05,53.95,0)" xlink:href="#W"/><use transform="matrix(0.05,0,0,0.05,59.900000000000006,0)" xlink:href="#X"/><use transform="matrix(0.05,0,0,0.05,69.9,0)" xlink:href="#Y"/></g><path d="M143 4C61 4 22-44 18-125c-5-107 100-154 193-111 17 8 29 25 37 43l-32 9c-13-25-37-40-76-40-61 0-88 39-88 99 0 61 29 100 91 101 35 0 62-11 79-27v-45h-74v-28h105v86C228-13 192 4 143 4" id="an"/><path d="M16-82v-28h88v28H16" id="ao"/><path d="M30 0v-248h33v221h125V0H30" id="ap"/><g id="w"><use transform="matrix(0.05,0,0,0.05,0,0)" xlink:href="#an"/><use transform="matrix(0.05,0,0,0.05,14,0)" xlink:href="#W"/><use transform="matrix(0.05,0,0,0.05,19.95,0)" xlink:href="#Q"/><use transform="matrix(0.05,0,0,0.05,29.950000000000003,0)" xlink:href="#L"/><use transform="matrix(0.05,0,0,0.05,39.95,0)" xlink:href="#K"/><use transform="matrix(0.05,0,0,0.05,49.95,0)" xlink:href="#ao"/><use transform="matrix(0.05,0,0,0.05,55.900000000000006,0)" xlink:href="#ap"/><use transform="matrix(0.05,0,0,0.05,65.9,0)" xlink:href="#X"/><use transform="matrix(0.05,0,0,0.05,75.9,0)" xlink:href="#ak"/><use transform="matrix(0.05,0,0,0.05,84.9,0)" xlink:href="#X"/><use transform="matrix(0.05,0,0,0.05,94.9,0)" xlink:href="#U"/></g><g id="x"><use transform="matrix(0.05,0,0,0.05,0,0)" xlink:href="#P"/><use transform="matrix(0.05,0,0,0.05,12,0)" xlink:href="#J"/><use transform="matrix(0.05,0,0,0.05,22,0)" xlink:href="#O"/><use transform="matrix(0.05,0,0,0.05,32,0)" xlink:href="#U"/><use transform="matrix(0.05,0,0,0.05,35.95,0)" xlink:href="#al"/><use transform="matrix(0.05,0,0,0.05,44.95,0)" xlink:href="#Y"/><use transform="matrix(0.05,0,0,0.05,53.95,0)" xlink:href="#X"/><use transform="matrix(0.05,0,0,0.05,63.95,0)" xlink:href="#Y"/></g><path d="M85-194c31 0 48 13 60 33l-1-100h32l1 261h-30c-2-10 0-23-3-31C134-8 116 4 85 4 32 4 16-35 15-94c0-66 23-100 70-100zm9 24c-40 0-46 34-46 75 0 40 6 74 45 74 42 0 51-32 51-76 0-42-9-74-50-73" id="aq"/><g id="y"><use transform="matrix(0.05,0,0,0.05,0,0)" xlink:href="#I"/><use transform="matrix(0.05,0,0,0.05,5,0)" xlink:href="#J"/><use transform="matrix(0.05,0,0,0.05,15,0)" xlink:href="#aq"/><use transform="matrix(0.05,0,0,0.05,25,0)" xlink:href="#S"/><use transform="matrix(0.05,0,0,0.05,28.950000000000003,0)" xlink:href="#ak"/><use transform="matrix(0.05,0,0,0.05,37.95,0)" xlink:href="#S"/><use transform="matrix(0.05,0,0,0.05,41.900000000000006,0)" xlink:href="#aq"/><use transform="matrix(0.05,0,0,0.05,51.900000000000006,0)" xlink:href="#L"/><use transform="matrix(0.05,0,0,0.05,61.900000000000006,0)" xlink:href="#O"/><use transform="matrix(0.05,0,0,0.05,71.9,0)" xlink:href="#U"/><use transform="matrix(0.05,0,0,0.05,75.85000000000001,0)" xlink:href="#ao"/><use transform="matrix(0.05,0,0,0.05,81.80000000000001,0)" xlink:href="#ap"/><use transform="matrix(0.05,0,0,0.05,91.80000000000001,0)" xlink:href="#X"/><use transform="matrix(0.05,0,0,0.05,101.80000000000001,0)" xlink:href="#ak"/><use transform="matrix(0.05,0,0,0.05,110.80000000000001,0)" xlink:href="#X"/><use transform="matrix(0.05,0,0,0.05,120.80000000000001,0)" xlink:href="#U"/></g><g id="z"><use transform="matrix(0.05,0,0,0.05,0,0)" xlink:href="#P"/><use transform="matrix(0.05,0,0,0.05,12,0)" xlink:href="#J"/><use transform="matrix(0.05,0,0,0.05,22,0)" xlink:href="#O"/><use transform="matrix(0.05,0,0,0.05,32,0)" xlink:href="#U"/><use transform="matrix(0.05,0,0,0.05,35.95,0)" xlink:href="#al"/><use transform="matrix(0.05,0,0,0.05,44.95,0)" xlink:href="#Y"/><use transform="matrix(0.05,0,0,0.05,53.95,0)" xlink:href="#S"/><use transform="matrix(0.05,0,0,0.05,57.900000000000006,0)" xlink:href="#Y"/></g><path d="M106-169C34-169 62-67 57 0H25v-261h32l-1 103c12-21 28-36 61-36 89 0 53 116 60 194h-32v-121c2-32-8-49-39-48" id="ar"/><g id="A"><use transform="matrix(0.05,0,0,0.05,0,0)" xlink:href="#ah"/><use transform="matrix(0.05,0,0,0.05,12,0)" xlink:href="#ar"/><use transform="matrix(0.05,0,0,0.05,22,0)" xlink:href="#Q"/><use transform="matrix(0.05,0,0,0.05,32,0)" xlink:href="#W"/><use transform="matrix(0.05,0,0,0.05,37.95,0)" xlink:href="#M"/></g><g id="B"><use transform="matrix(0.05,0,0,0.05,0,0)" xlink:href="#am"/><use transform="matrix(0.05,0,0,0.05,14.950000000000001,0)" xlink:href="#X"/><use transform="matrix(0.05,0,0,0.05,24.950000000000003,0)" xlink:href="#aq"/><use transform="matrix(0.05,0,0,0.05,34.95,0)" xlink:href="#S"/><use transform="matrix(0.05,0,0,0.05,38.900000000000006,0)" xlink:href="#L"/><use transform="matrix(0.05,0,0,0.05,48.900000000000006,0)" xlink:href="#R"/></g><g id="C"><use transform="matrix(0.05,0,0,0.05,0,0)" xlink:href="#ap"/><use transform="matrix(0.05,0,0,0.05,10,0)" xlink:href="#Q"/><use transform="matrix(0.05,0,0,0.05,20,0)" xlink:href="#J"/><use transform="matrix(0.05,0,0,0.05,30,0)" xlink:href="#Z"/></g><path d="M137 0h-34L2-248h35l83 218 83-218h36" id="as"/><g id="D"><use transform="matrix(0.05,0,0,0.05,0,0)" xlink:href="#as"/><use transform="matrix(0.05,0,0,0.05,10.65,0)" xlink:href="#O"/><use transform="matrix(0.05,0,0,0.05,20.65,0)" xlink:href="#W"/><use transform="matrix(0.05,0,0,0.05,26.599999999999994,0)" xlink:href="#S"/><use transform="matrix(0.05,0,0,0.05,30.549999999999997,0)" xlink:href="#X"/><use transform="matrix(0.05,0,0,0.05,40.55,0)" xlink:href="#Y"/></g><g id="E"><use transform="matrix(0.05,0,0,0.05,0,0)" xlink:href="#ah"/><use transform="matrix(0.05,0,0,0.05,12,0)" xlink:href="#M"/><use transform="matrix(0.05,0,0,0.05,17,0)" xlink:href="#O"/><use transform="matrix(0.05,0,0,0.05,27,0)" xlink:href="#M"/><use transform="matrix(0.05,0,0,0.05,32,0)" xlink:href="#S"/><use transform="matrix(0.05,0,0,0.05,35.95,0)" xlink:href="#Y"/><use transform="matrix(0.05,0,0,0.05,44.95,0)" xlink:href="#M"/><use transform="matrix(0.05,0,0,0.05,49.95,0)" xlink:href="#S"/><use transform="matrix(0.05,0,0,0.05,53.900000000000006,0)" xlink:href="#T"/><use transform="matrix(0.05,0,0,0.05,62.900000000000006,0)" xlink:href="#O"/><use transform="matrix(0.05,0,0,0.05,72.9,0)" xlink:href="#U"/></g><g id="F"><use transform="matrix(0.05,0,0,0.05,0,0)" xlink:href="#am"/><use transform="matrix(0.05,0,0,0.05,14.950000000000001,0)" xlink:href="#Q"/><use transform="matrix(0.05,0,0,0.05,24.950000000000003,0)" xlink:href="#aq"/><use transform="matrix(0.05,0,0,0.05,34.95,0)" xlink:href="#X"/><use transform="matrix(0.05,0,0,0.05,44.95,0)" xlink:href="#U"/></g><g id="G"><use transform="matrix(0.05,0,0,0.05,0,0)" xlink:href="#ac"/><use transform="matrix(0.05,0,0,0.05,5.95,0)" xlink:href="#S"/><use transform="matrix(0.05,0,0,0.05,9.9,0)" xlink:href="#ae"/></g><path d="M115-194c53 0 69 39 70 98 0 66-23 100-70 100C84 3 66-7 56-30L54 0H23l1-261h32v101c10-23 28-34 59-34zm-8 174c40 0 45-34 45-75 0-40-5-75-45-74-42 0-51 32-51 76 0 43 10 73 51 73" id="at"/><g id="H"><use transform="matrix(0.05,0,0,0.05,0,0)" xlink:href="#O"/><use transform="matrix(0.05,0,0,0.05,10,0)" xlink:href="#K"/><use transform="matrix(0.05,0,0,0.05,20,0)" xlink:href="#K"/><use transform="matrix(0.05,0,0,0.05,30,0)" xlink:href="#U"/><use transform="matrix(0.05,0,0,0.05,33.95,0)" xlink:href="#S"/><use transform="matrix(0.05,0,0,0.05,37.900000000000006,0)" xlink:href="#T"/><use transform="matrix(0.05,0,0,0.05,46.900000000000006,0)" xlink:href="#O"/><use transform="matrix(0.05,0,0,0.05,56.900000000000006,0)" xlink:href="#at"/><use transform="matrix(0.05,0,0,0.05,66.9,0)" xlink:href="#U"/><use transform="matrix(0.05,0,0,0.05,70.85000000000001,0)" xlink:href="#X"/><use transform="matrix(0.05,0,0,0.05,80.85000000000001,0)" xlink:href="#ag"/></g></defs></g></svg>