<svg xmlns="http://www.w3.org/2000/svg" xmlns:xlink="http://www.w3.org/1999/xlink" xmlns:lucid="lucid" width="2000" height="1500"><g transform="translate(-360 1120)" lucid:page-tab-id="0_0"><path d="M460-1001.65h1880V360H460z" stroke="#000" stroke-width="2" fill="#83bbe5"/><path d="M680 78.35h1180v220H680zM680-951.65h1186.5v880H680z" stroke="#000" stroke-width="2" fill="#b2d6ef"/><path d="M1346.5-861.65h240v720h-240z" stroke="#000" stroke-width="2" fill="#b2d6ef"/><path d="M720-791.2h160v120H720z" stroke="#000" stroke-width="2" fill="#fff"/><use xlink:href="#a" transform="matrix(1,0,0,1,725,-786.204646061522) translate(32.8 59.0875)"/><use xlink:href="#b" transform="matrix(1,0,0,1,725,-786.204646061522) translate(71.35 59.0875)"/><path d="M1386.5-791.2h160v120h-160z" stroke="#000" stroke-width="2" fill="#fff"/><use xlink:href="#c" transform="matrix(1,0,0,1,1391.5134575569355,-786.204646061522) translate(56.075 38.4625)"/><use xlink:href="#d" transform="matrix(1,0,0,1,1391.5134575569355,-786.204646061522) translate(9.599999999999994 60.0625)"/><use xlink:href="#e" transform="matrix(1,0,0,1,1391.5134575569355,-786.204646061522) translate(13.149999999999999 81.66250000000001)"/><use xlink:href="#f" transform="matrix(1,0,0,1,1391.5134575569355,-786.204646061522) translate(91 81.66250000000001)"/><path d="M1386.5-611.2h160v120h-160z" stroke="#000" stroke-width="2" fill="#fff"/><use xlink:href="#g" transform="matrix(1,0,0,1,1391.5134575569355,-606.2046460615219) translate(23.099999999999994 38.4625)"/><use xlink:href="#h" transform="matrix(1,0,0,1,1391.5134575569355,-606.2046460615219) translate(22.625 60.0625)"/><use xlink:href="#i" transform="matrix(1,0,0,1,1391.5134575569355,-606.2046460615219) translate(100.475 60.0625)"/><use xlink:href="#j" transform="matrix(1,0,0,1,1391.5134575569355,-606.2046460615219) translate(29.074999999999996 81.66250000000001)"/><path d="M1386.5-291.2h160v120h-160z" stroke="#000" stroke-width="2" fill="#fff"/><use xlink:href="#k" transform="matrix(1,0,0,1,1391.5134575569355,-286.20464606152166) translate(44.55 48.775)"/><use xlink:href="#l" transform="matrix(1,0,0,1,1391.5134575569355,-286.20464606152166) translate(12.299999999999997 70.375)"/><path d="M1186.5-791.2l100 60-100 60-100-60z" stroke="#000" stroke-width="2" fill="#fff"/><use xlink:href="#m" transform="matrix(1,0,0,1,1091.5134575569355,-786.204646061522) translate(34.099999999999994 47.8)"/><use xlink:href="#n" transform="matrix(1,0,0,1,1091.5134575569355,-786.204646061522) translate(102.95 47.8)"/><use xlink:href="#o" transform="matrix(1,0,0,1,1091.5134575569355,-786.204646061522) translate(28.57499999999999 69.4)"/><path d="M1748.8-768.6c17.78 0 32.2 16.74 32.2 37.4 0 20.65-14.42 37.4-32.2 37.4h-96.6c-17.78 0-32.2-16.75-32.2-37.4 0-20.66 14.42-37.4 32.2-37.4z" stroke="#000" stroke-width="2" fill="#ffc374"/><use xlink:href="#m" transform="matrix(1,0,0,1,1625,-763.604646061522) translate(14.604999999999992 24.55625)"/><use xlink:href="#n" transform="matrix(1,0,0,1,1625,-763.604646061522) translate(83.45500000000001 24.55625)"/><use xlink:href="#p" transform="matrix(1,0,0,1,1625,-763.604646061522) translate(13.625 46.15625)"/><use xlink:href="#q" transform="matrix(1,0,0,1,1625,-763.604646061522) translate(65.475 46.15625)"/><use xlink:href="#r" transform="matrix(1,0,0,1,1625,-763.604646061522) translate(93.375 46.15625)"/><path d="M1340-861.65h240v60h-240z" stroke="#000" stroke-opacity="0" stroke-width="2" fill="#fff" fill-opacity="0"/><use xlink:href="#s" transform="matrix(1,0,0,1,1345,-856.6456398503418) translate(21.575000000000003 30.025)"/><path d="M882-731.2h184.07" stroke="#000" stroke-width="2" fill="none"/><path d="M882.03-730.2H881v-2h1.03z"/><path d="M1081.33-731.2l-14.26 4.63v-9.27z" stroke="#000" stroke-width="2"/><path d="M1289.46-731.2H1367" stroke="#000" stroke-width="2" fill="none"/><path d="M1289.48-730.2h-2.7l1.68-1-1.67-1h2.68z"/><path d="M1382.28-731.2l-14.27 4.63v-9.27z" stroke="#000" stroke-width="2"/><path d="M880-801.65h200v60H880z" stroke="#000" stroke-opacity="0" stroke-width="2" fill="#fff" fill-opacity="0"/><use xlink:href="#t" transform="matrix(1,0,0,1,885,-796.6456398503418) translate(3.6500000000000057 17.525)"/><use xlink:href="#u" transform="matrix(1,0,0,1,885,-796.6456398503418) translate(55.60000000000001 17.525)"/><use xlink:href="#v" transform="matrix(1,0,0,1,885,-796.6456398503418) translate(142.4 17.525)"/><use xlink:href="#w" transform="matrix(1,0,0,1,885,-796.6456398503418) translate(9.149999999999991 39.125)"/><use xlink:href="#x" transform="matrix(1,0,0,1,885,-796.6456398503418) translate(45.099999999999994 39.125)"/><use xlink:href="#y" transform="matrix(1,0,0,1,885,-796.6456398503418) translate(97.05 39.125)"/><use xlink:href="#z" transform="matrix(1,0,0,1,885,-796.6456398503418) translate(143 39.125)"/><path d="M1166.5-781.2h240v60h-240z" stroke="#000" stroke-opacity="0" stroke-width="2" fill="#fff" fill-opacity="0"/><use xlink:href="#A" transform="matrix(1,0,0,1,1171.5134575569355,-776.204646061522) translate(100.325 30.025)"/><path d="M1186.5-611.2l100 60-100 60-100-60z" stroke="#000" stroke-width="2" fill="#fff"/><use xlink:href="#B" transform="matrix(1,0,0,1,1091.5134575569355,-606.2046460615219) translate(63.07999999999999 28.41)"/><use xlink:href="#C" transform="matrix(1,0,0,1,1091.5134575569355,-606.2046460615219) translate(29.079999999999995 50.01)"/><use xlink:href="#D" transform="matrix(1,0,0,1,1091.5134575569355,-606.2046460615219) translate(87.03 50.01)"/><use xlink:href="#x" transform="matrix(1,0,0,1,1091.5134575569355,-606.2046460615219) translate(38.054999999999986 71.61)"/><use xlink:href="#E" transform="matrix(1,0,0,1,1091.5134575569355,-606.2046460615219) translate(90.005 71.61)"/><path d="M1186.5-669.04v38.17" stroke="#000" stroke-width="2" fill="none"/><path d="M1187.5-669h-2v-1.64l1 .6 1-.6z"/><path d="M1186.5-615.6l-4.62-14.27h9.27z" stroke="#000" stroke-width="2"/><path d="M1186.5-291.2l100 60-100 60-100-60z" stroke="#000" stroke-width="2" fill="#fff"/><use xlink:href="#B" transform="matrix(1,0,0,1,1091.5134575569355,-286.20464606152166) translate(63.07999999999999 38.4625)"/><use xlink:href="#C" transform="matrix(1,0,0,1,1091.5134575569355,-286.20464606152166) translate(17.07999999999999 60.0625)"/><use xlink:href="#F" transform="matrix(1,0,0,1,1091.5134575569355,-286.20464606152166) translate(75.03 60.0625)"/><use xlink:href="#G" transform="matrix(1,0,0,1,1091.5134575569355,-286.20464606152166) translate(125.98 60.0625)"/><use xlink:href="#E" transform="matrix(1,0,0,1,1091.5134575569355,-286.20464606152166) translate(64.03 81.66250000000001)"/><path d="M1466.5-669.2v27.9h-280v10.43" stroke="#000" stroke-width="2" fill="none"/><path d="M1467.5-669.18h-2v-1.02h2z"/><path d="M1186.5-615.6l-4.62-14.27h9.27z" stroke="#000" stroke-width="2"/><path d="M1289.46-551.2H1367" stroke="#000" stroke-width="2" fill="none"/><path d="M1289.48-550.2h-2.7l1.68-1-1.67-1h2.68z"/><path d="M1382.28-551.2l-14.27 4.63v-9.27z" stroke="#000" stroke-width="2"/><path d="M1186.5-591.2h240v60h-240z" stroke="#000" stroke-opacity="0" stroke-width="2" fill="#fff" fill-opacity="0"/><use xlink:href="#A" transform="matrix(1,0,0,1,1191.5134575569355,-586.2046460615221) translate(100.325 30.025)"/><path d="M1386.5-451.65h160v120h-160z" stroke="#000" stroke-width="2" fill="#fff"/><use xlink:href="#H" transform="matrix(1,0,0,1,1391.5134575569355,-446.6456398503419) translate(28.099999999999994 48.775)"/><use xlink:href="#h" transform="matrix(1,0,0,1,1391.5134575569355,-446.6456398503419) translate(18.150000000000006 70.375)"/><use xlink:href="#I" transform="matrix(1,0,0,1,1391.5134575569355,-446.6456398503419) translate(96 70.375)"/><path d="M1466.5-489.2v18.05" stroke="#000" stroke-width="2" fill="none"/><path d="M1467.5-489.18h-2v-1.02h2z"/><path d="M1466.5-455.88l-4.62-14.27h9.27z" stroke="#000" stroke-width="2"/><path d="M1186.5-489.04v61.4H1367" stroke="#000" stroke-width="2" fill="none"/><path d="M1187.5-489h-2v-1.64l1 .6 1-.6z"/><path d="M1382.28-427.65L1368-423v-9.28z" stroke="#000" stroke-width="2"/><path d="M1384.5-391.65h-198v80.78" stroke="#000" stroke-width="2" fill="none"/><path d="M1385.5-390.65h-1v-2h1z"/><path d="M1186.5-295.6l-4.62-14.27h9.27z" stroke="#000" stroke-width="2"/><path d="M1289.46-231.2H1367" stroke="#000" stroke-width="2" fill="none"/><path d="M1289.48-230.2h-2.7l1.68-1-1.67-1h2.68z"/><path d="M1382.28-231.2l-14.27 4.63v-9.27z" stroke="#000" stroke-width="2"/><path d="M2256-80c35.35 0 64 35.67 64 79.67s-28.65 79.66-64 79.66h-192c-35.35 0-64-35.66-64-79.66S2028.65-80 2064-80z" stroke="#000" stroke-width="2" fill="#ffeca9"/><use xlink:href="#J" transform="matrix(1,0,0,1,2005,-74.99999999999994) translate(27.037037037037038 63.520833333333336)"/><use xlink:href="#K" transform="matrix(1,0,0,1,2005,-74.99999999999994) translate(146.81481481481484 63.520833333333336)"/><use xlink:href="#L" transform="matrix(1,0,0,1,2005,-74.99999999999994) translate(225.33333333333334 63.520833333333336)"/><use xlink:href="#M" transform="matrix(1,0,0,1,2005,-74.99999999999994) translate(60.33833333333332 95.52083333333334)"/><use xlink:href="#N" transform="matrix(1,0,0,1,2005,-74.99999999999994) translate(122.41240740740739 95.52083333333334)"/><use xlink:href="#O" transform="matrix(1,0,0,1,2005,-74.99999999999994) translate(172.7087037037037 95.52083333333334)"/><path d="M1166.5-291.2h240v60h-240z" stroke="#000" stroke-opacity="0" stroke-width="2" fill="#fff" fill-opacity="0"/><use xlink:href="#A" transform="matrix(1,0,0,1,1171.5134575569355,-286.2046460615219) translate(100.325 30.025)"/><path d="M1754.5-591.2c17.7 0 32 17.9 32 40s-14.3 40-32 40h-96c-17.66 0-32-17.9-32-40s14.34-40 32-40z" stroke="#000" stroke-width="2" fill="#ffc374"/><use xlink:href="#m" transform="matrix(1,0,0,1,1631.5134575569364,-586.2046460615219) translate(14.104999999999999 16.5875)"/><use xlink:href="#n" transform="matrix(1,0,0,1,1631.5134575569364,-586.2046460615219) translate(82.95500000000001 16.5875)"/><use xlink:href="#P" transform="matrix(1,0,0,1,1631.5134575569364,-586.2046460615219) translate(9.574999999999989 38.1875)"/><use xlink:href="#Q" transform="matrix(1,0,0,1,1631.5134575569364,-586.2046460615219) translate(88.475 38.1875)"/><use xlink:href="#R" transform="matrix(1,0,0,1,1631.5134575569364,-586.2046460615219) translate(12.054999999999987 59.7875)"/><use xlink:href="#S" transform="matrix(1,0,0,1,1631.5134575569364,-586.2046460615219) translate(63.00499999999999 59.7875)"/><use xlink:href="#T" transform="matrix(1,0,0,1,1631.5134575569364,-586.2046460615219) translate(103.005 59.7875)"/><path d="M1624.5-551.2h-58.48" stroke="#000" stroke-width="2" fill="none"/><path d="M1625.5-551.22l.05 1.02h-1.06v-2h1.07z"/><path d="M1550.75-551.2l14.27-4.64v9.27z" stroke="#000" stroke-width="2"/><path d="M1046.5-691.2h240v60h-240z" stroke="#000" stroke-opacity="0" stroke-width="2" fill="#fff" fill-opacity="0"/><use xlink:href="#U" transform="matrix(1,0,0,1,1051.5134575569355,-686.2046460615219) translate(103.525 30.025)"/><path d="M1046.5-191.2h240v60h-240z" stroke="#000" stroke-opacity="0" stroke-width="2" fill="#fff" fill-opacity="0"/><use xlink:href="#U" transform="matrix(1,0,0,1,1051.5134575569355,-186.204646061522) translate(103.525 30.025)"/><path d="M1046.5-511.2h240v60h-240z" stroke="#000" stroke-opacity="0" stroke-width="2" fill="#fff" fill-opacity="0"/><use xlink:href="#V" transform="matrix(1,0,0,1,1051.5134575569355,-506.2046460615219) translate(103.525 30.025)"/><path d="M1618-731.2h-51.98" stroke="#000" stroke-width="2" fill="none"/><path d="M1619-731.2l.05 1h-1.08v-2h1.1z"/><path d="M1550.75-731.2l14.27-4.64v9.27z" stroke="#000" stroke-width="2"/><path d="M1618-731.2H1566.02" stroke="#000" stroke-width="2" fill="none"/><path d="M1619-731.2l.05 1h-1.08v-2h1.1z"/><path d="M1550.75-731.2l14.27-4.64v9.27z" stroke="#000" stroke-width="2"/><path d="M720 138.02h160v120H720z" stroke="#000" stroke-width="2" fill="#fff"/><g><use xlink:href="#W" transform="matrix(1,0,0,1,725,143.0210671305622) translate(6.799999999999997 59.0875)"/><use xlink:href="#X" transform="matrix(1,0,0,1,725,143.0210671305622) translate(89.3 59.0875)"/></g><path d="M1755.3 149.82c17.8 0 32.2 21.58 32.2 48.2 0 26.62-14.4 48.2-32.2 48.2h-96.6c-17.77 0-32.2-21.58-32.2-48.2 0-26.62 14.43-48.2 32.2-48.2z" stroke="#000" stroke-width="2" fill="#ffc374"/><g><use xlink:href="#m" transform="matrix(1,0,0,1,1631.5134575569364,154.82106713056217) translate(14.604999999999999 14.4)"/><use xlink:href="#n" transform="matrix(1,0,0,1,1631.5134575569364,154.82106713056217) translate(83.45500000000001 14.4)"/><use xlink:href="#Y" transform="matrix(1,0,0,1,1631.5134575569364,154.82106713056217) translate(12.574999999999996 36)"/><use xlink:href="#Z" transform="matrix(1,0,0,1,1631.5134575569364,154.82106713056217) translate(90.42500000000001 36)"/><use xlink:href="#x" transform="matrix(1,0,0,1,1631.5134575569364,154.82106713056217) translate(23.549999999999997 57.6)"/><use xlink:href="#aa" transform="matrix(1,0,0,1,1631.5134575569364,154.82106713056217) translate(75.5 57.6)"/><use xlink:href="#r" transform="matrix(1,0,0,1,1631.5134575569364,154.82106713056217) translate(53.505 79.20000000000002)"/></g><path d="M1240 128.02h280v140h-280z" stroke="#000" stroke-width="2" fill="#fff"/><g><use xlink:href="#ab" transform="matrix(1,0,0,1,1245,133.0210671305622) translate(4.675000000000011 59.0875)"/><use xlink:href="#ac" transform="matrix(1,0,0,1,1245,133.0210671305622) translate(76.52500000000002 59.0875)"/><use xlink:href="#ad" transform="matrix(1,0,0,1,1245,133.0210671305622) translate(150.425 59.0875)"/><use xlink:href="#ae" transform="matrix(1,0,0,1,1245,133.0210671305622) translate(202.375 59.0875)"/><use xlink:href="#af" transform="matrix(1,0,0,1,1245,133.0210671305622) translate(250.325 59.0875)"/><use xlink:href="#ag" transform="matrix(1,0,0,1,1245,133.0210671305622) translate(37.675 80.6875)"/><use xlink:href="#ah" transform="matrix(1,0,0,1,1245,133.0210671305622) translate(117.475 80.6875)"/></g><path d="M1624.5 198.02h-85" stroke="#000" stroke-width="2" fill="none"/><path d="M1625.5 198l.02 1.02h-1.03v-2h1.06z"/><path d="M1524.24 198.02l14.26-4.63v9.26z" stroke="#000" stroke-width="2"/><path d="M882 198.02h338.5" stroke="#000" stroke-width="2" fill="none"/><path d="M882.03 199.02H881v-2h1.03z"/><path d="M1235.76 198.02l-14.26 4.64v-9.27z" stroke="#000" stroke-width="2"/><path d="M1754.5-279.4c17.7 0 32 21.58 32 48.2 0 26.62-14.3 48.2-32 48.2h-96c-17.66 0-32-21.58-32-48.2 0-26.62 14.34-48.2 32-48.2z" stroke="#000" stroke-width="2" fill="#ffc374"/><g><use xlink:href="#m" transform="matrix(1,0,0,1,1631.5134575569364,-274.40464606152165) translate(14.104999999999999 14.4)"/><use xlink:href="#ai" transform="matrix(1,0,0,1,1631.5134575569364,-274.40464606152165) translate(82.95500000000001 14.4)"/><use xlink:href="#aj" transform="matrix(1,0,0,1,1631.5134575569364,-274.40464606152165) translate(2.625 36)"/><use xlink:href="#ak" transform="matrix(1,0,0,1,1631.5134575569364,-274.40464606152165) translate(66.525 36)"/><use xlink:href="#al" transform="matrix(1,0,0,1,1631.5134575569364,-274.40464606152165) translate(28.174999999999997 57.6)"/><use xlink:href="#am" transform="matrix(1,0,0,1,1631.5134575569364,-274.40464606152165) translate(45.175 57.6)"/><use xlink:href="#Q" transform="matrix(1,0,0,1,1631.5134575569364,-274.40464606152165) translate(49.029999999999994 79.20000000000002)"/></g><path d="M1624.5-231.2h-58.48" stroke="#000" stroke-width="2" fill="none"/><path d="M1625.5-231.23l.02 1.03h-1.03v-2h1.06z"/><path d="M1550.75-231.2l14.27-4.64v9.27z" stroke="#000" stroke-width="2"/><path d="M1466.5-139.65v28.83H2160v11.32" stroke="#000" stroke-width="2" fill="none"/><path d="M1467.5-139.62h-2v-1.03h2z"/><path d="M2160-84.24l-4.64-14.26h9.28z" stroke="#000" stroke-width="2"/><path d="M1380 126.02v-22.34h780v-4.84" stroke="#000" stroke-width="2" fill="none"/><path d="M1381 127.02h-2V126h2z"/><path d="M2160 83.57l4.64 14.27h-9.28z" stroke="#000" stroke-width="2"/><path d="M380-1100h460v80.87H380z" stroke="#000" stroke-opacity="0" stroke-width="2" fill="#fff" fill-opacity="0"/><g><use xlink:href="#an" transform="matrix(1,0,0,1,385,-1095) translate(91.48148148148147 41.302083333333336)"/><use xlink:href="#ao" transform="matrix(1,0,0,1,385,-1095) translate(182.66666666666669 41.302083333333336)"/></g><path d="M1186.5-169.04v52.56H1448" stroke="#000" stroke-width="2" fill="none"/><path d="M1187.5-169h-2v-1.64l1 .6 1-.6z"/><path d="M1463.28-116.48l-14.27 4.64v-9.27z" stroke="#000" stroke-width="2"/><path d="M608-919.8c17.67 0 32 17.9 32 40s-14.33 40-32 40h-96c-17.67 0-32-17.9-32-40s14.33-40 32-40z" stroke="#000" stroke-width="2" fill="#ffc374"/><g><use xlink:href="#ap" transform="matrix(1,0,0,1,485,-914.8000000000002) translate(7.125 27.525)"/><use xlink:href="#aq" transform="matrix(1,0,0,1,485,-914.8000000000002) translate(100.97500000000001 27.525)"/><use xlink:href="#ar" transform="matrix(1,0,0,1,485,-914.8000000000002) translate(56.525 49.125)"/></g><path d="M560-837.8v106.6h140.5" stroke="#000" stroke-width="2" fill="none"/><path d="M561-837.77h-2v-1.03h2z"/><path d="M715.76-731.2l-14.26 4.63v-9.27z" stroke="#000" stroke-width="2"/><path d="M560-837.8V40h509.25v129.17h151.25" stroke="#000" stroke-width="2" fill="none"/><path d="M561-837.77h-2v-1.03h2z"/><path d="M1235.76 169.17l-14.26 4.63v-9.27z" stroke="#000" stroke-width="2"/><defs><path d="M76-208v77h127v40H76V0H24v-248h183v40H76" id="as"/><path d="M169-182c-1-43-94-46-97-3 18 66 151 10 154 114 3 95-165 93-204 36-6-8-10-19-12-30l50-8c3 46 112 56 116 5-17-69-150-10-154-114-4-87 153-88 188-35 5 8 8 18 10 28" id="at"/><path d="M24 0v-248h52v208h133V0H24" id="au"/><g id="a"><use transform="matrix(0.05,0,0,0.05,0,0)" xlink:href="#as"/><use transform="matrix(0.05,0,0,0.05,10.950000000000001,0)" xlink:href="#at"/><use transform="matrix(0.05,0,0,0.05,22.950000000000003,0)" xlink:href="#au"/></g><path d="M199 0l-22-63H83L61 0H9l90-248h61L250 0h-51zm-33-102l-36-108c-10 38-24 72-36 108h72" id="av"/><path d="M136-208V0H84v-208H4v-40h212v40h-80" id="aw"/><g id="b"><use transform="matrix(0.05,0,0,0.05,0,0)" xlink:href="#as"/><use transform="matrix(0.05,0,0,0.05,9.950000000000001,0)" xlink:href="#av"/><use transform="matrix(0.05,0,0,0.05,22.900000000000002,0)" xlink:href="#at"/><use transform="matrix(0.05,0,0,0.05,34.900000000000006,0)" xlink:href="#aw"/></g><path d="M30-248c87 1 191-15 191 75 0 78-77 80-158 76V0H30v-248zm33 125c57 0 124 11 124-50 0-59-68-47-124-48v98" id="ax"/><path d="M114-163C36-179 61-72 57 0H25l-1-190h30c1 12-1 29 2 39 6-27 23-49 58-41v29" id="ay"/><path d="M24-231v-30h32v30H24zM24 0v-190h32V0H24" id="az"/><path d="M100-194c62-1 85 37 85 99 1 63-27 99-86 99S16-35 15-95c0-66 28-99 85-99zM99-20c44 1 53-31 53-75 0-43-8-75-51-75s-53 32-53 75 10 74 51 75" id="aA"/><g id="c"><use transform="matrix(0.05,0,0,0.05,0,0)" xlink:href="#ax"/><use transform="matrix(0.05,0,0,0.05,12,0)" xlink:href="#ay"/><use transform="matrix(0.05,0,0,0.05,17.95,0)" xlink:href="#az"/><use transform="matrix(0.05,0,0,0.05,21.9,0)" xlink:href="#aA"/><use transform="matrix(0.05,0,0,0.05,31.899999999999995,0)" xlink:href="#ay"/></g><path d="M108 0H70L1-190h34L89-25l56-165h34" id="aB"/><path d="M100-194c63 0 86 42 84 106H49c0 40 14 67 53 68 26 1 43-12 49-29l28 8c-11 28-37 45-77 45C44 4 14-33 15-96c1-61 26-98 85-98zm52 81c6-60-76-77-97-28-3 7-6 17-6 28h103" id="aC"/><path d="M24 0v-261h32V0H24" id="aD"/><path d="M141-36C126-15 110 5 73 4 37 3 15-17 15-53c-1-64 63-63 125-63 3-35-9-54-41-54-24 1-41 7-42 31l-33-3c5-37 33-52 76-52 45 0 72 20 72 64v82c-1 20 7 32 28 27v20c-31 9-61-2-59-35zM48-53c0 20 12 33 32 33 41-3 63-29 60-74-43 2-92-5-92 41" id="aE"/><path d="M115-194c55 1 70 41 70 98S169 2 115 4C84 4 66-9 55-30l1 105H24l-1-265h31l2 30c10-21 28-34 59-34zm-8 174c40 0 45-34 45-75s-6-73-45-74c-42 0-51 32-51 76 0 43 10 73 51 73" id="aF"/><path d="M0 4l72-265h28L28 4H0" id="aG"/><path d="M210-169c-67 3-38 105-44 169h-31v-121c0-29-5-50-35-48C34-165 62-65 56 0H25l-1-190h30c1 10-1 24 2 32 10-44 99-50 107 0 11-21 27-35 58-36 85-2 47 119 55 194h-31v-121c0-29-5-49-35-48" id="aH"/><path d="M135-143c-3-34-86-38-87 0 15 53 115 12 119 90S17 21 10-45l28-5c4 36 97 45 98 0-10-56-113-15-118-90-4-57 82-63 122-42 12 7 21 19 24 35" id="aI"/><path d="M143 0L79-87 56-68V0H24v-261h32v163l83-92h37l-77 82L181 0h-38" id="aJ"/><path d="M117-194c89-4 53 116 60 194h-32v-121c0-31-8-49-39-48C34-167 62-67 57 0H25l-1-190h30c1 10-1 24 2 32 11-22 29-35 61-36" id="aK"/><path d="M177-190C167-65 218 103 67 71c-23-6-38-20-44-43l32-5c15 47 100 32 89-28v-30C133-14 115 1 83 1 29 1 15-40 15-95c0-56 16-97 71-98 29-1 48 16 59 35 1-10 0-23 2-32h30zM94-22c36 0 50-32 50-73 0-42-14-75-50-75-39 0-46 34-46 75s6 73 46 73" id="aL"/><g id="d"><use transform="matrix(0.05,0,0,0.05,0,0)" xlink:href="#aA"/><use transform="matrix(0.05,0,0,0.05,10,0)" xlink:href="#aB"/><use transform="matrix(0.05,0,0,0.05,19,0)" xlink:href="#aC"/><use transform="matrix(0.05,0,0,0.05,29,0)" xlink:href="#ay"/><use transform="matrix(0.05,0,0,0.05,34.95,0)" xlink:href="#aD"/><use transform="matrix(0.05,0,0,0.05,38.900000000000006,0)" xlink:href="#aE"/><use transform="matrix(0.05,0,0,0.05,48.900000000000006,0)" xlink:href="#aF"/><use transform="matrix(0.05,0,0,0.05,58.900000000000006,0)" xlink:href="#aG"/><use transform="matrix(0.05,0,0,0.05,63.900000000000006,0)" xlink:href="#aH"/><use transform="matrix(0.05,0,0,0.05,78.85000000000001,0)" xlink:href="#aE"/><use transform="matrix(0.05,0,0,0.05,88.85000000000001,0)" xlink:href="#aI"/><use transform="matrix(0.05,0,0,0.05,97.85000000000001,0)" xlink:href="#aJ"/><use transform="matrix(0.05,0,0,0.05,106.85000000000001,0)" xlink:href="#az"/><use transform="matrix(0.05,0,0,0.05,110.80000000000001,0)" xlink:href="#aK"/><use transform="matrix(0.05,0,0,0.05,120.80000000000001,0)" xlink:href="#aL"/></g><path d="M87 75C49 33 22-17 22-94c0-76 28-126 65-167h31c-38 41-64 92-64 168S80 34 118 75H87" id="aM"/><path d="M101-234c-31-9-42 10-38 44h38v23H63V0H32v-167H5v-23h27c-7-52 17-82 69-68v24" id="aN"/><path d="M59-47c-2 24 18 29 38 22v24C64 9 27 4 27-40v-127H5v-23h24l9-43h21v43h35v23H59v120" id="aO"/><path d="M106-169C34-169 62-67 57 0H25v-261h32l-1 103c12-21 28-36 61-36 89 0 53 116 60 194h-32v-121c2-32-8-49-39-48" id="aP"/><g id="e"><use transform="matrix(0.05,0,0,0.05,0,0)" xlink:href="#aM"/><use transform="matrix(0.05,0,0,0.05,5.95,0)" xlink:href="#aN"/><use transform="matrix(0.05,0,0,0.05,10.95,0)" xlink:href="#aI"/><use transform="matrix(0.05,0,0,0.05,19.95,0)" xlink:href="#aD"/><use transform="matrix(0.05,0,0,0.05,23.9,0)" xlink:href="#aH"/><use transform="matrix(0.05,0,0,0.05,38.85,0)" xlink:href="#aE"/><use transform="matrix(0.05,0,0,0.05,48.85,0)" xlink:href="#aO"/><use transform="matrix(0.05,0,0,0.05,53.85,0)" xlink:href="#aP"/><use transform="matrix(0.05,0,0,0.05,63.85,0)" xlink:href="#aI"/></g><path d="M16-82v-28h88v28H16" id="aQ"/><path d="M33-261c38 41 65 92 65 168S71 34 33 75H2C39 34 66-17 66-93S39-220 2-261h31" id="aR"/><g id="f"><use transform="matrix(0.05,0,0,0.05,0,0)" xlink:href="#aQ"/><use transform="matrix(0.05,0,0,0.05,5.95,0)" xlink:href="#aH"/><use transform="matrix(0.05,0,0,0.05,20.900000000000002,0)" xlink:href="#aE"/><use transform="matrix(0.05,0,0,0.05,30.900000000000002,0)" xlink:href="#aI"/><use transform="matrix(0.05,0,0,0.05,39.900000000000006,0)" xlink:href="#aR"/></g><path d="M127-220V0H93v-220H8v-28h204v28h-85" id="aS"/><path d="M85-194c31 0 48 13 60 33l-1-100h32l1 261h-30c-2-10 0-23-3-31C134-8 116 4 85 4 32 4 16-35 15-94c0-66 23-100 70-100zm9 24c-40 0-46 34-46 75 0 40 6 74 45 74 42 0 51-32 51-76 0-42-9-74-50-73" id="aT"/><g id="g"><use transform="matrix(0.05,0,0,0.05,0,0)" xlink:href="#aS"/><use transform="matrix(0.05,0,0,0.05,10.950000000000001,0)" xlink:href="#aP"/><use transform="matrix(0.05,0,0,0.05,20.950000000000003,0)" xlink:href="#ay"/><use transform="matrix(0.05,0,0,0.05,26.900000000000002,0)" xlink:href="#aC"/><use transform="matrix(0.05,0,0,0.05,36.900000000000006,0)" xlink:href="#aI"/><use transform="matrix(0.05,0,0,0.05,45.900000000000006,0)" xlink:href="#aP"/><use transform="matrix(0.05,0,0,0.05,55.900000000000006,0)" xlink:href="#aA"/><use transform="matrix(0.05,0,0,0.05,65.9,0)" xlink:href="#aD"/><use transform="matrix(0.05,0,0,0.05,69.85000000000001,0)" xlink:href="#aT"/><use transform="matrix(0.05,0,0,0.05,79.85000000000001,0)" xlink:href="#az"/><use transform="matrix(0.05,0,0,0.05,83.80000000000001,0)" xlink:href="#aK"/><use transform="matrix(0.05,0,0,0.05,93.80000000000001,0)" xlink:href="#aL"/></g><g id="h"><use transform="matrix(0.05,0,0,0.05,0,0)" xlink:href="#aM"/><use transform="matrix(0.05,0,0,0.05,5.95,0)" xlink:href="#aN"/><use transform="matrix(0.05,0,0,0.05,10.95,0)" xlink:href="#aI"/><use transform="matrix(0.05,0,0,0.05,19.95,0)" xlink:href="#aD"/><use transform="matrix(0.05,0,0,0.05,23.9,0)" xlink:href="#aH"/><use transform="matrix(0.05,0,0,0.05,38.85,0)" xlink:href="#aE"/><use transform="matrix(0.05,0,0,0.05,48.85,0)" xlink:href="#aO"/><use transform="matrix(0.05,0,0,0.05,53.85,0)" xlink:href="#aP"/><use transform="matrix(0.05,0,0,0.05,63.85,0)" xlink:href="#aI"/></g><g id="i"><use transform="matrix(0.05,0,0,0.05,0,0)" xlink:href="#aQ"/><use transform="matrix(0.05,0,0,0.05,5.95,0)" xlink:href="#aO"/><use transform="matrix(0.05,0,0,0.05,10.95,0)" xlink:href="#aP"/><use transform="matrix(0.05,0,0,0.05,20.95,0)" xlink:href="#ay"/></g><path d="M39-94c74 12-11 154 75 146v23c-44 4-70-10-70-52C44-23 55-84 6-82v-22c81 4-7-162 84-157h24v23c-82-15-2 131-75 144" id="aU"/><path d="M76-40C78 24 84 88 6 75V52C86 64 9-79 80-94c-40-6-34-59-34-106 1-29-11-41-40-38v-23c44-4 70 10 70 52 0 47-12 108 38 105v22c-26 1-39 14-38 42" id="aV"/><g id="j"><use transform="matrix(0.05,0,0,0.05,0,0)" xlink:href="#aU"/><use transform="matrix(0.05,0,0,0.05,6,0)" xlink:href="#aO"/><use transform="matrix(0.05,0,0,0.05,11,0)" xlink:href="#aP"/><use transform="matrix(0.05,0,0,0.05,21,0)" xlink:href="#ay"/><use transform="matrix(0.05,0,0,0.05,26.950000000000003,0)" xlink:href="#aC"/><use transform="matrix(0.05,0,0,0.05,36.95,0)" xlink:href="#aI"/><use transform="matrix(0.05,0,0,0.05,45.95,0)" xlink:href="#aP"/><use transform="matrix(0.05,0,0,0.05,55.95,0)" xlink:href="#aA"/><use transform="matrix(0.05,0,0,0.05,65.95,0)" xlink:href="#aD"/><use transform="matrix(0.05,0,0,0.05,69.9,0)" xlink:href="#aT"/><use transform="matrix(0.05,0,0,0.05,79.9,0)" xlink:href="#aV"/><use transform="matrix(0.05,0,0,0.05,85.9,0)" xlink:href="#aR"/></g><path d="M30 0v-248h187v28H63v79h144v27H63v87h162V0H30" id="aW"/><g id="k"><use transform="matrix(0.05,0,0,0.05,0,0)" xlink:href="#aW"/><use transform="matrix(0.05,0,0,0.05,12,0)" xlink:href="#ay"/><use transform="matrix(0.05,0,0,0.05,17.95,0)" xlink:href="#aA"/><use transform="matrix(0.05,0,0,0.05,27.950000000000003,0)" xlink:href="#aI"/><use transform="matrix(0.05,0,0,0.05,36.95,0)" xlink:href="#az"/><use transform="matrix(0.05,0,0,0.05,40.900000000000006,0)" xlink:href="#aA"/><use transform="matrix(0.05,0,0,0.05,50.900000000000006,0)" xlink:href="#aK"/></g><path d="M96-169c-40 0-48 33-48 73s9 75 48 75c24 0 41-14 43-38l32 2c-6 37-31 61-74 61-59 0-76-41-82-99-10-93 101-131 147-64 4 7 5 14 7 22l-32 3c-4-21-16-35-41-35" id="aX"/><path d="M179-190L93 31C79 59 56 82 12 73V49c39 6 53-20 64-50L1-190h34L92-34l54-156h33" id="aY"/><path d="M33 0v-38h34V0H33" id="aZ"/><g id="l"><use transform="matrix(0.05,0,0,0.05,0,0)" xlink:href="#aM"/><use transform="matrix(0.05,0,0,0.05,5.95,0)" xlink:href="#aI"/><use transform="matrix(0.05,0,0,0.05,14.949999999999998,0)" xlink:href="#aX"/><use transform="matrix(0.05,0,0,0.05,23.95,0)" xlink:href="#az"/><use transform="matrix(0.05,0,0,0.05,27.899999999999995,0)" xlink:href="#aF"/><use transform="matrix(0.05,0,0,0.05,37.9,0)" xlink:href="#aY"/><use transform="matrix(0.05,0,0,0.05,45.55,0)" xlink:href="#aZ"/><use transform="matrix(0.05,0,0,0.05,50.55,0)" xlink:href="#aK"/><use transform="matrix(0.05,0,0,0.05,60.54999999999999,0)" xlink:href="#aT"/><use transform="matrix(0.05,0,0,0.05,70.55,0)" xlink:href="#az"/><use transform="matrix(0.05,0,0,0.05,74.5,0)" xlink:href="#aH"/><use transform="matrix(0.05,0,0,0.05,89.45,0)" xlink:href="#aE"/><use transform="matrix(0.05,0,0,0.05,99.45,0)" xlink:href="#aL"/><use transform="matrix(0.05,0,0,0.05,109.45,0)" xlink:href="#aC"/><use transform="matrix(0.05,0,0,0.05,119.45,0)" xlink:href="#aR"/></g><g id="m"><use transform="matrix(0.05,0,0,0.05,0,0)" xlink:href="#ax"/><use transform="matrix(0.05,0,0,0.05,12,0)" xlink:href="#az"/><use transform="matrix(0.05,0,0,0.05,15.949999999999998,0)" xlink:href="#aF"/><use transform="matrix(0.05,0,0,0.05,25.950000000000003,0)" xlink:href="#aC"/><use transform="matrix(0.05,0,0,0.05,35.95,0)" xlink:href="#aD"/><use transform="matrix(0.05,0,0,0.05,39.900000000000006,0)" xlink:href="#az"/><use transform="matrix(0.05,0,0,0.05,43.85000000000001,0)" xlink:href="#aK"/><use transform="matrix(0.05,0,0,0.05,53.85,0)" xlink:href="#aC"/></g><path d="M33-154v-36h34v36H33zM33 0v-36h34V0H33" id="ba"/><g id="n"><use transform="matrix(0.05,0,0,0.05,0,0)" xlink:href="#aX"/><use transform="matrix(0.05,0,0,0.05,9,0)" xlink:href="#aA"/><use transform="matrix(0.05,0,0,0.05,19,0)" xlink:href="#aK"/><use transform="matrix(0.05,0,0,0.05,29,0)" xlink:href="#aN"/><use transform="matrix(0.05,0,0,0.05,34,0)" xlink:href="#az"/><use transform="matrix(0.05,0,0,0.05,37.95,0)" xlink:href="#aL"/><use transform="matrix(0.05,0,0,0.05,47.95,0)" xlink:href="#ba"/></g><path d="M-5 72V49h209v23H-5" id="bb"/><path d="M84 4C-5 8 30-112 23-190h32v120c0 31 7 50 39 49 72-2 45-101 50-169h31l1 190h-30c-1-10 1-25-2-33-11 22-28 36-60 37" id="bc"/><path d="M103-251c84 0 111 97 45 133-19 10-37 24-39 52H78c0-63 77-55 77-114 0-30-21-42-52-43-32 0-53 17-56 46l-32-2c7-45 34-72 88-72zM77 0v-35h34V0H77" id="bd"/><g id="o"><use transform="matrix(0.05,0,0,0.05,0,0)" xlink:href="#aI"/><use transform="matrix(0.05,0,0,0.05,9,0)" xlink:href="#aC"/><use transform="matrix(0.05,0,0,0.05,19,0)" xlink:href="#aL"/><use transform="matrix(0.05,0,0,0.05,29,0)" xlink:href="#bb"/><use transform="matrix(0.05,0,0,0.05,39,0)" xlink:href="#bc"/><use transform="matrix(0.05,0,0,0.05,49,0)" xlink:href="#aI"/><use transform="matrix(0.05,0,0,0.05,58,0)" xlink:href="#aC"/><use transform="matrix(0.05,0,0,0.05,68,0)" xlink:href="#bb"/><use transform="matrix(0.05,0,0,0.05,78,0)" xlink:href="#aF"/><use transform="matrix(0.05,0,0,0.05,88,0)" xlink:href="#ay"/><use transform="matrix(0.05,0,0,0.05,93.95,0)" xlink:href="#az"/><use transform="matrix(0.05,0,0,0.05,97.9,0)" xlink:href="#aA"/><use transform="matrix(0.05,0,0,0.05,107.9,0)" xlink:href="#ay"/><use transform="matrix(0.05,0,0,0.05,113.85000000000001,0)" xlink:href="#aI"/><use transform="matrix(0.05,0,0,0.05,122.85000000000001,0)" xlink:href="#bd"/></g><g id="p"><use transform="matrix(0.05,0,0,0.05,0,0)" xlink:href="#ax"/><use transform="matrix(0.05,0,0,0.05,12,0)" xlink:href="#ay"/><use transform="matrix(0.05,0,0,0.05,17.95,0)" xlink:href="#az"/><use transform="matrix(0.05,0,0,0.05,21.9,0)" xlink:href="#aA"/><use transform="matrix(0.05,0,0,0.05,31.899999999999995,0)" xlink:href="#ay"/><use transform="matrix(0.05,0,0,0.05,37.85,0)" xlink:href="#aI"/></g><g id="q"><use transform="matrix(0.05,0,0,0.05,0,0)" xlink:href="#aN"/><use transform="matrix(0.05,0,0,0.05,5,0)" xlink:href="#az"/><use transform="matrix(0.05,0,0,0.05,8.95,0)" xlink:href="#aD"/><use transform="matrix(0.05,0,0,0.05,12.899999999999999,0)" xlink:href="#aC"/></g><g id="r"><use transform="matrix(0.05,0,0,0.05,0,0)" xlink:href="#aF"/><use transform="matrix(0.05,0,0,0.05,10,0)" xlink:href="#aE"/><use transform="matrix(0.05,0,0,0.05,20,0)" xlink:href="#aO"/><use transform="matrix(0.05,0,0,0.05,25,0)" xlink:href="#aP"/><use transform="matrix(0.05,0,0,0.05,35,0)" xlink:href="#aI"/></g><g id="s"><use transform="matrix(0.05,0,0,0.05,0,0)" xlink:href="#aF"/><use transform="matrix(0.05,0,0,0.05,10,0)" xlink:href="#ay"/><use transform="matrix(0.05,0,0,0.05,15.949999999999998,0)" xlink:href="#aA"/><use transform="matrix(0.05,0,0,0.05,25.950000000000003,0)" xlink:href="#aX"/><use transform="matrix(0.05,0,0,0.05,34.95,0)" xlink:href="#aC"/><use transform="matrix(0.05,0,0,0.05,44.95,0)" xlink:href="#aI"/><use transform="matrix(0.05,0,0,0.05,53.95,0)" xlink:href="#aI"/><use transform="matrix(0.05,0,0,0.05,62.95,0)" xlink:href="#bb"/><use transform="matrix(0.05,0,0,0.05,72.95,0)" xlink:href="#aI"/><use transform="matrix(0.05,0,0,0.05,81.95,0)" xlink:href="#aC"/><use transform="matrix(0.05,0,0,0.05,91.95,0)" xlink:href="#aL"/><use transform="matrix(0.05,0,0,0.05,101.95,0)" xlink:href="#aH"/><use transform="matrix(0.05,0,0,0.05,116.9,0)" xlink:href="#aC"/><use transform="matrix(0.05,0,0,0.05,126.9,0)" xlink:href="#aK"/><use transform="matrix(0.05,0,0,0.05,136.9,0)" xlink:href="#aO"/><use transform="matrix(0.05,0,0,0.05,141.9,0)" xlink:href="#bb"/><use transform="matrix(0.05,0,0,0.05,151.9,0)" xlink:href="#aH"/><use transform="matrix(0.05,0,0,0.05,166.85,0)" xlink:href="#aE"/><use transform="matrix(0.05,0,0,0.05,176.85,0)" xlink:href="#aF"/></g><g id="t"><use transform="matrix(0.05,0,0,0.05,0,0)" xlink:href="#aO"/><use transform="matrix(0.05,0,0,0.05,5,0)" xlink:href="#az"/><use transform="matrix(0.05,0,0,0.05,8.95,0)" xlink:href="#aI"/><use transform="matrix(0.05,0,0,0.05,17.95,0)" xlink:href="#aI"/><use transform="matrix(0.05,0,0,0.05,26.950000000000003,0)" xlink:href="#bc"/><use transform="matrix(0.05,0,0,0.05,36.95,0)" xlink:href="#aC"/></g><path d="M115-194c53 0 69 39 70 98 0 66-23 100-70 100C84 3 66-7 56-30L54 0H23l1-261h32v101c10-23 28-34 59-34zm-8 174c40 0 45-34 45-75 0-40-5-75-45-74-42 0-51 32-51 76 0 43 10 73 51 73" id="be"/><g id="u"><use transform="matrix(0.05,0,0,0.05,0,0)" xlink:href="#aF"/><use transform="matrix(0.05,0,0,0.05,10,0)" xlink:href="#ay"/><use transform="matrix(0.05,0,0,0.05,15.949999999999998,0)" xlink:href="#aA"/><use transform="matrix(0.05,0,0,0.05,25.950000000000003,0)" xlink:href="#be"/><use transform="matrix(0.05,0,0,0.05,35.95,0)" xlink:href="#aE"/><use transform="matrix(0.05,0,0,0.05,45.95,0)" xlink:href="#be"/><use transform="matrix(0.05,0,0,0.05,55.95,0)" xlink:href="#az"/><use transform="matrix(0.05,0,0,0.05,59.900000000000006,0)" xlink:href="#aD"/><use transform="matrix(0.05,0,0,0.05,63.85,0)" xlink:href="#az"/><use transform="matrix(0.05,0,0,0.05,67.80000000000001,0)" xlink:href="#aO"/><use transform="matrix(0.05,0,0,0.05,72.80000000000001,0)" xlink:href="#aY"/></g><g id="v"><use transform="matrix(0.05,0,0,0.05,0,0)" xlink:href="#aH"/><use transform="matrix(0.05,0,0,0.05,14.950000000000001,0)" xlink:href="#aE"/><use transform="matrix(0.05,0,0,0.05,24.950000000000003,0)" xlink:href="#aF"/><use transform="matrix(0.05,0,0,0.05,34.95,0)" xlink:href="#aI"/></g><g id="w"><use transform="matrix(0.05,0,0,0.05,0,0)" xlink:href="#aM"/><use transform="matrix(0.05,0,0,0.05,5.95,0)" xlink:href="#aK"/><use transform="matrix(0.05,0,0,0.05,15.949999999999998,0)" xlink:href="#aA"/><use transform="matrix(0.05,0,0,0.05,25.950000000000003,0)" xlink:href="#aO"/></g><g id="x"><use transform="matrix(0.05,0,0,0.05,0,0)" xlink:href="#aO"/><use transform="matrix(0.05,0,0,0.05,5,0)" xlink:href="#az"/><use transform="matrix(0.05,0,0,0.05,8.95,0)" xlink:href="#aI"/><use transform="matrix(0.05,0,0,0.05,17.95,0)" xlink:href="#aI"/><use transform="matrix(0.05,0,0,0.05,26.950000000000003,0)" xlink:href="#bc"/><use transform="matrix(0.05,0,0,0.05,36.95,0)" xlink:href="#aC"/></g><g id="y"><use transform="matrix(0.05,0,0,0.05,0,0)" xlink:href="#aX"/><use transform="matrix(0.05,0,0,0.05,9,0)" xlink:href="#aD"/><use transform="matrix(0.05,0,0,0.05,12.949999999999998,0)" xlink:href="#aE"/><use transform="matrix(0.05,0,0,0.05,22.95,0)" xlink:href="#aI"/><use transform="matrix(0.05,0,0,0.05,31.950000000000003,0)" xlink:href="#aI"/></g><g id="z"><use transform="matrix(0.05,0,0,0.05,0,0)" xlink:href="#aN"/><use transform="matrix(0.05,0,0,0.05,5,0)" xlink:href="#az"/><use transform="matrix(0.05,0,0,0.05,8.95,0)" xlink:href="#aD"/><use transform="matrix(0.05,0,0,0.05,12.899999999999999,0)" xlink:href="#aC"/><use transform="matrix(0.05,0,0,0.05,22.9,0)" xlink:href="#aI"/><use transform="matrix(0.05,0,0,0.05,31.899999999999995,0)" xlink:href="#aR"/></g><path d="M137-103V0h-34v-103L8-248h37l75 118 75-118h37" id="bf"/><g id="A"><use transform="matrix(0.05,0,0,0.05,0,0)" xlink:href="#bf"/><use transform="matrix(0.05,0,0,0.05,10.35,0)" xlink:href="#aC"/><use transform="matrix(0.05,0,0,0.05,20.35,0)" xlink:href="#aI"/></g><g id="B"><use transform="matrix(0.05,0,0,0.05,0,0)" xlink:href="#ax"/><use transform="matrix(0.05,0,0,0.05,12,0)" xlink:href="#az"/><use transform="matrix(0.05,0,0,0.05,15.949999999999998,0)" xlink:href="#aF"/><use transform="matrix(0.05,0,0,0.05,25.950000000000003,0)" xlink:href="#aC"/><use transform="matrix(0.05,0,0,0.05,35.95,0)" xlink:href="#aD"/><use transform="matrix(0.05,0,0,0.05,39.900000000000006,0)" xlink:href="#az"/><use transform="matrix(0.05,0,0,0.05,43.85000000000001,0)" xlink:href="#aK"/><use transform="matrix(0.05,0,0,0.05,53.85,0)" xlink:href="#aC"/></g><g id="C"><use transform="matrix(0.05,0,0,0.05,0,0)" xlink:href="#aX"/><use transform="matrix(0.05,0,0,0.05,9,0)" xlink:href="#aA"/><use transform="matrix(0.05,0,0,0.05,19,0)" xlink:href="#aK"/><use transform="matrix(0.05,0,0,0.05,29,0)" xlink:href="#aN"/><use transform="matrix(0.05,0,0,0.05,34,0)" xlink:href="#az"/><use transform="matrix(0.05,0,0,0.05,37.95,0)" xlink:href="#aL"/><use transform="matrix(0.05,0,0,0.05,47.95,0)" xlink:href="#ba"/></g><g id="D"><use transform="matrix(0.05,0,0,0.05,0,0)" xlink:href="#aO"/><use transform="matrix(0.05,0,0,0.05,5,0)" xlink:href="#aP"/><use transform="matrix(0.05,0,0,0.05,15,0)" xlink:href="#ay"/><use transform="matrix(0.05,0,0,0.05,20.95,0)" xlink:href="#aC"/><use transform="matrix(0.05,0,0,0.05,30.950000000000003,0)" xlink:href="#aI"/><use transform="matrix(0.05,0,0,0.05,39.95,0)" xlink:href="#aP"/><use transform="matrix(0.05,0,0,0.05,49.95,0)" xlink:href="#aA"/><use transform="matrix(0.05,0,0,0.05,59.95,0)" xlink:href="#aD"/><use transform="matrix(0.05,0,0,0.05,63.900000000000006,0)" xlink:href="#aT"/></g><g id="E"><use transform="matrix(0.05,0,0,0.05,0,0)" xlink:href="#aH"/><use transform="matrix(0.05,0,0,0.05,14.950000000000001,0)" xlink:href="#aE"/><use transform="matrix(0.05,0,0,0.05,24.950000000000003,0)" xlink:href="#aI"/><use transform="matrix(0.05,0,0,0.05,33.95,0)" xlink:href="#aJ"/><use transform="matrix(0.05,0,0,0.05,42.95,0)" xlink:href="#aI"/><use transform="matrix(0.05,0,0,0.05,51.95,0)" xlink:href="#bd"/></g><g id="F"><use transform="matrix(0.05,0,0,0.05,0,0)" xlink:href="#aC"/><use transform="matrix(0.05,0,0,0.05,10,0)" xlink:href="#ay"/><use transform="matrix(0.05,0,0,0.05,15.949999999999998,0)" xlink:href="#aA"/><use transform="matrix(0.05,0,0,0.05,25.950000000000003,0)" xlink:href="#aT"/><use transform="matrix(0.05,0,0,0.05,35.95,0)" xlink:href="#aC"/></g><g id="G"><use transform="matrix(0.05,0,0,0.05,0,0)" xlink:href="#aO"/><use transform="matrix(0.05,0,0,0.05,5,0)" xlink:href="#az"/><use transform="matrix(0.05,0,0,0.05,8.95,0)" xlink:href="#aI"/><use transform="matrix(0.05,0,0,0.05,17.95,0)" xlink:href="#aI"/><use transform="matrix(0.05,0,0,0.05,26.950000000000003,0)" xlink:href="#bc"/><use transform="matrix(0.05,0,0,0.05,36.95,0)" xlink:href="#aC"/></g><path d="M160-131c35 5 61 23 61 61C221 17 115-2 30 0v-248c76 3 177-17 177 60 0 33-19 50-47 57zm-97-11c50-1 110 9 110-42 0-47-63-36-110-37v79zm0 115c55-2 124 14 124-45 0-56-70-42-124-44v89" id="bg"/><path d="M9 0v-24l116-142H16v-24h144v24L44-24h123V0H9" id="bh"/><g id="H"><use transform="matrix(0.05,0,0,0.05,0,0)" xlink:href="#bg"/><use transform="matrix(0.05,0,0,0.05,12,0)" xlink:href="#az"/><use transform="matrix(0.05,0,0,0.05,15.949999999999998,0)" xlink:href="#aK"/><use transform="matrix(0.05,0,0,0.05,25.950000000000003,0)" xlink:href="#aE"/><use transform="matrix(0.05,0,0,0.05,35.95,0)" xlink:href="#ay"/><use transform="matrix(0.05,0,0,0.05,41.900000000000006,0)" xlink:href="#az"/><use transform="matrix(0.05,0,0,0.05,45.85000000000001,0)" xlink:href="#bh"/><use transform="matrix(0.05,0,0,0.05,54.85,0)" xlink:href="#aE"/><use transform="matrix(0.05,0,0,0.05,64.85000000000001,0)" xlink:href="#aO"/><use transform="matrix(0.05,0,0,0.05,69.85000000000001,0)" xlink:href="#az"/><use transform="matrix(0.05,0,0,0.05,73.80000000000001,0)" xlink:href="#aA"/><use transform="matrix(0.05,0,0,0.05,83.80000000000001,0)" xlink:href="#aK"/></g><g id="I"><use transform="matrix(0.05,0,0,0.05,0,0)" xlink:href="#aQ"/><use transform="matrix(0.05,0,0,0.05,5.95,0)" xlink:href="#be"/><use transform="matrix(0.05,0,0,0.05,15.949999999999998,0)" xlink:href="#az"/><use transform="matrix(0.05,0,0,0.05,19.9,0)" xlink:href="#aK"/><use transform="matrix(0.05,0,0,0.05,29.899999999999995,0)" xlink:href="#aR"/></g><path d="M33 0v-248h34V0H33" id="bi"/><g id="J"><use transform="matrix(0.07407407407407408,0,0,0.07407407407407408,0,0)" xlink:href="#bi"/><use transform="matrix(0.07407407407407408,0,0,0.07407407407407408,7.407407407407408,0)" xlink:href="#aK"/><use transform="matrix(0.07407407407407408,0,0,0.07407407407407408,22.222222222222225,0)" xlink:href="#aT"/><use transform="matrix(0.07407407407407408,0,0,0.07407407407407408,37.03703703703704,0)" xlink:href="#az"/><use transform="matrix(0.07407407407407408,0,0,0.07407407407407408,42.88888888888889,0)" xlink:href="#aB"/><use transform="matrix(0.07407407407407408,0,0,0.07407407407407408,56.22222222222223,0)" xlink:href="#az"/><use transform="matrix(0.07407407407407408,0,0,0.07407407407407408,62.07407407407408,0)" xlink:href="#aT"/><use transform="matrix(0.07407407407407408,0,0,0.07407407407407408,76.8888888888889,0)" xlink:href="#bc"/><use transform="matrix(0.07407407407407408,0,0,0.07407407407407408,91.70370370370371,0)" xlink:href="#aE"/><use transform="matrix(0.07407407407407408,0,0,0.07407407407407408,106.51851851851853,0)" xlink:href="#aD"/></g><g id="K"><use transform="matrix(0.07407407407407408,0,0,0.07407407407407408,0,0)" xlink:href="#aI"/><use transform="matrix(0.07407407407407408,0,0,0.07407407407407408,13.333333333333336,0)" xlink:href="#aF"/><use transform="matrix(0.07407407407407408,0,0,0.07407407407407408,28.148148148148152,0)" xlink:href="#aE"/><use transform="matrix(0.07407407407407408,0,0,0.07407407407407408,42.96296296296297,0)" xlink:href="#aX"/><use transform="matrix(0.07407407407407408,0,0,0.07407407407407408,56.296296296296305,0)" xlink:href="#aC"/></g><path d="M212-179c-10-28-35-45-73-45-59 0-87 40-87 99 0 60 29 101 89 101 43 0 62-24 78-52l27 14C228-24 195 4 139 4 59 4 22-46 18-125c-6-104 99-153 187-111 19 9 31 26 39 46" id="bj"/><path d="M185-189c-5-48-123-54-124 2 14 75 158 14 163 119 3 78-121 87-175 55-17-10-28-26-33-46l33-7c5 56 141 63 141-1 0-78-155-14-162-118-5-82 145-84 179-34 5 7 8 16 11 25" id="bk"/><path d="M63-220v92h138v28H63V0H30v-248h175v28H63" id="bl"/><path d="M68-38c1 34 0 65-14 84H32c9-13 17-26 17-46H33v-38h35" id="bm"/><g id="L"><use transform="matrix(0.07407407407407408,0,0,0.07407407407407408,0,0)" xlink:href="#bj"/><use transform="matrix(0.07407407407407408,0,0,0.07407407407407408,19.185185185185187,0)" xlink:href="#bk"/><use transform="matrix(0.07407407407407408,0,0,0.07407407407407408,36.96296296296296,0)" xlink:href="#bl"/><use transform="matrix(0.07407407407407408,0,0,0.07407407407407408,50.22222222222223,0)" xlink:href="#bm"/></g><path d="M266 0h-40l-56-210L115 0H75L2-248h35L96-30l15-64 43-154h32l59 218 59-218h35" id="bn"/><path d="M240 0l2-218c-23 76-54 145-80 218h-23L58-218 59 0H30v-248h44l77 211c21-75 51-140 76-211h43V0h-30" id="bo"/><g id="M"><use transform="matrix(0.07407407407407408,0,0,0.07407407407407408,0,0)" xlink:href="#bn"/><use transform="matrix(0.07407407407407408,0,0,0.07407407407407408,25.111111111111114,0)" xlink:href="#bo"/><use transform="matrix(0.07407407407407408,0,0,0.07407407407407408,47.25925925925927,0)" xlink:href="#bm"/></g><path d="M143 4C61 4 22-44 18-125c-5-107 100-154 193-111 17 8 29 25 37 43l-32 9c-13-25-37-40-76-40-61 0-88 39-88 99 0 61 29 100 91 101 35 0 62-11 79-27v-45h-74v-28h105v86C228-13 192 4 143 4" id="bp"/><g id="N"><use transform="matrix(0.07407407407407408,0,0,0.07407407407407408,0,0)" xlink:href="#bp"/><use transform="matrix(0.07407407407407408,0,0,0.07407407407407408,20.740740740740744,0)" xlink:href="#bo"/></g><g id="O"><use transform="matrix(0.07407407407407408,0,0,0.07407407407407408,0,0)" xlink:href="#aH"/><use transform="matrix(0.07407407407407408,0,0,0.07407407407407408,22.148148148148152,0)" xlink:href="#aE"/><use transform="matrix(0.07407407407407408,0,0,0.07407407407407408,36.96296296296297,0)" xlink:href="#aI"/><use transform="matrix(0.07407407407407408,0,0,0.07407407407407408,50.296296296296305,0)" xlink:href="#aJ"/><use transform="matrix(0.07407407407407408,0,0,0.07407407407407408,63.62962962962964,0)" xlink:href="#aI"/></g><g id="P"><use transform="matrix(0.05,0,0,0.05,0,0)" xlink:href="#aO"/><use transform="matrix(0.05,0,0,0.05,5,0)" xlink:href="#aP"/><use transform="matrix(0.05,0,0,0.05,15,0)" xlink:href="#ay"/><use transform="matrix(0.05,0,0,0.05,20.95,0)" xlink:href="#aC"/><use transform="matrix(0.05,0,0,0.05,30.950000000000003,0)" xlink:href="#aI"/><use transform="matrix(0.05,0,0,0.05,39.95,0)" xlink:href="#aP"/><use transform="matrix(0.05,0,0,0.05,49.95,0)" xlink:href="#aA"/><use transform="matrix(0.05,0,0,0.05,59.95,0)" xlink:href="#aD"/><use transform="matrix(0.05,0,0,0.05,63.900000000000006,0)" xlink:href="#aT"/></g><g id="Q"><use transform="matrix(0.05,0,0,0.05,0,0)" xlink:href="#aB"/><use transform="matrix(0.05,0,0,0.05,9,0)" xlink:href="#aE"/><use transform="matrix(0.05,0,0,0.05,19,0)" xlink:href="#aD"/><use transform="matrix(0.05,0,0,0.05,22.95,0)" xlink:href="#bc"/><use transform="matrix(0.05,0,0,0.05,32.95,0)" xlink:href="#aC"/><use transform="matrix(0.05,0,0,0.05,42.95,0)" xlink:href="#aI"/></g><path d="M101-251c68 0 85 55 85 127S166 4 100 4C33 4 14-52 14-124c0-73 17-127 87-127zm-1 229c47 0 54-49 54-102s-4-102-53-102c-51 0-55 48-55 102 0 53 5 102 54 102" id="bq"/><path d="M99-251c64 0 84 50 84 122C183-37 130 33 47-8c-14-7-20-23-25-40l30-5c6 39 69 39 84 7 9-19 16-44 16-74-10 22-31 35-62 35-49 0-73-33-73-83 0-54 28-83 82-83zm-1 141c31-1 51-18 51-49 0-36-14-67-51-67-34 0-49 23-49 58 0 34 15 58 49 58" id="br"/><path d="M54-142c48-35 137-8 131 61C196 18 31 33 14-55l32-4c7 23 22 37 52 37 35-1 51-22 54-58 4-55-73-65-99-34H22l8-134h141v27H59" id="bs"/><g id="R"><use transform="matrix(0.05,0,0,0.05,0,0)" xlink:href="#aM"/><use transform="matrix(0.05,0,0,0.05,5.95,0)" xlink:href="#bq"/><use transform="matrix(0.05,0,0,0.05,15.949999999999998,0)" xlink:href="#aZ"/><use transform="matrix(0.05,0,0,0.05,20.95,0)" xlink:href="#br"/><use transform="matrix(0.05,0,0,0.05,30.950000000000003,0)" xlink:href="#bs"/><use transform="matrix(0.05,0,0,0.05,40.95,0)" xlink:href="#bm"/></g><path d="M134-131c28 9 52 24 51 62-1 50-34 73-85 73S17-19 16-69c0-36 21-54 49-61-75-25-45-126 34-121 46 3 78 18 79 63 0 33-17 51-44 57zm-34-11c31 1 46-15 46-44 0-28-17-43-47-42-29 0-46 13-45 42 1 28 16 44 46 44zm1 122c35 0 51-18 51-52 0-30-18-46-53-46-33 0-51 17-51 47 0 34 19 51 53 51" id="bt"/><g id="S"><use transform="matrix(0.05,0,0,0.05,0,0)" xlink:href="#bq"/><use transform="matrix(0.05,0,0,0.05,10,0)" xlink:href="#aZ"/><use transform="matrix(0.05,0,0,0.05,15,0)" xlink:href="#br"/><use transform="matrix(0.05,0,0,0.05,25,0)" xlink:href="#bt"/></g><g id="T"><use transform="matrix(0.05,0,0,0.05,0,0)" xlink:href="#aC"/><use transform="matrix(0.05,0,0,0.05,10,0)" xlink:href="#aO"/><use transform="matrix(0.05,0,0,0.05,15,0)" xlink:href="#aX"/><use transform="matrix(0.05,0,0,0.05,24,0)" xlink:href="#aZ"/><use transform="matrix(0.05,0,0,0.05,29,0)" xlink:href="#aR"/></g><path d="M190 0L58-211 59 0H30v-248h39L202-35l-2-213h31V0h-41" id="bu"/><g id="U"><use transform="matrix(0.05,0,0,0.05,0,0)" xlink:href="#bu"/><use transform="matrix(0.05,0,0,0.05,12.950000000000001,0)" xlink:href="#aA"/></g><g id="V"><use transform="matrix(0.05,0,0,0.05,0,0)" xlink:href="#bu"/><use transform="matrix(0.05,0,0,0.05,12.950000000000001,0)" xlink:href="#aA"/></g><path d="M185-48c-13 30-37 53-82 52C43 2 14-33 14-96s30-98 90-98c62 0 83 45 84 108H66c0 31 8 55 39 56 18 0 30-7 34-22zm-45-69c5-46-57-63-70-21-2 6-4 13-4 21h74" id="bv"/><path d="M220-157c-53 9-28 100-34 157h-49v-107c1-27-5-49-29-50C55-147 81-57 75 0H25l-1-190h47c2 12-1 28 3 38 10-53 101-56 108 0 13-22 24-43 59-42 82 1 51 116 57 194h-49v-107c-1-25-5-48-29-50" id="bw"/><path d="M135-194c53 0 70 44 70 98 0 56-19 98-73 100-31 1-45-17-59-34 3 33 2 69 2 105H25l-1-265h48c2 10 0 23 3 31 11-24 29-35 60-35zM114-30c33 0 39-31 40-66 0-38-9-64-40-64-56 0-55 130 0 130" id="bx"/><path d="M25 0v-261h50V0H25" id="by"/><path d="M133-34C117-15 103 5 69 4 32 3 11-16 11-54c-1-60 55-63 116-61 1-26-3-47-28-47-18 1-26 9-28 27l-52-2c7-38 36-58 82-57s74 22 75 68l1 82c-1 14 12 18 25 15v27c-30 8-71 5-69-32zm-48 3c29 0 43-24 42-57-32 0-66-3-65 30 0 17 8 27 23 27" id="bz"/><path d="M115-3C79 11 28 4 28-45v-112H4v-33h27l15-45h31v45h36v33H77v99c-1 23 16 31 38 25v30" id="bA"/><g id="W"><use transform="matrix(0.05,0,0,0.05,0,0)" xlink:href="#aw"/><use transform="matrix(0.05,0,0,0.05,9.600000000000001,0)" xlink:href="#bv"/><use transform="matrix(0.05,0,0,0.05,19.6,0)" xlink:href="#bw"/><use transform="matrix(0.05,0,0,0.05,35.6,0)" xlink:href="#bx"/><use transform="matrix(0.05,0,0,0.05,46.550000000000004,0)" xlink:href="#by"/><use transform="matrix(0.05,0,0,0.05,51.550000000000004,0)" xlink:href="#bz"/><use transform="matrix(0.05,0,0,0.05,61.550000000000004,0)" xlink:href="#bA"/><use transform="matrix(0.05,0,0,0.05,67.5,0)" xlink:href="#bv"/></g><path d="M182-130c37 4 62 22 62 59C244 23 116-4 24 0v-248c84 5 203-23 205 63 0 31-19 50-47 55zM76-148c40-3 101 13 101-30 0-44-60-28-101-31v61zm0 110c48-3 116 14 116-37 0-48-69-32-116-35v72" id="bB"/><path d="M137-138c1-29-70-34-71-4 15 46 118 7 119 86 1 83-164 76-172 9l43-7c4 19 20 25 44 25 33 8 57-30 24-41C81-84 22-81 20-136c-2-80 154-74 161-7" id="bC"/><path d="M88-194c31-1 46 15 58 34l-1-101h50l1 261h-48c-2-10 0-23-3-31C134-8 116 4 84 4 32 4 16-41 15-95c0-56 19-97 73-99zm17 164c33 0 40-30 41-66 1-37-9-64-41-64s-38 30-39 65c0 43 13 65 39 65" id="bD"/><g id="X"><use transform="matrix(0.05,0,0,0.05,0,0)" xlink:href="#bB"/><use transform="matrix(0.05,0,0,0.05,12.950000000000001,0)" xlink:href="#bz"/><use transform="matrix(0.05,0,0,0.05,22.950000000000003,0)" xlink:href="#bC"/><use transform="matrix(0.05,0,0,0.05,32.95,0)" xlink:href="#bv"/><use transform="matrix(0.05,0,0,0.05,42.95,0)" xlink:href="#bD"/></g><g id="Y"><use transform="matrix(0.05,0,0,0.05,0,0)" xlink:href="#aS"/><use transform="matrix(0.05,0,0,0.05,8.950000000000001,0)" xlink:href="#aC"/><use transform="matrix(0.05,0,0,0.05,18.950000000000003,0)" xlink:href="#aH"/><use transform="matrix(0.05,0,0,0.05,33.900000000000006,0)" xlink:href="#aF"/><use transform="matrix(0.05,0,0,0.05,43.900000000000006,0)" xlink:href="#aD"/><use transform="matrix(0.05,0,0,0.05,47.85000000000001,0)" xlink:href="#aE"/><use transform="matrix(0.05,0,0,0.05,57.85,0)" xlink:href="#aO"/><use transform="matrix(0.05,0,0,0.05,62.85,0)" xlink:href="#aC"/></g><g id="Z"><use transform="matrix(0.05,0,0,0.05,0,0)" xlink:href="#aI"/><use transform="matrix(0.05,0,0,0.05,9,0)" xlink:href="#aF"/><use transform="matrix(0.05,0,0,0.05,19,0)" xlink:href="#aE"/><use transform="matrix(0.05,0,0,0.05,29,0)" xlink:href="#aX"/><use transform="matrix(0.05,0,0,0.05,38,0)" xlink:href="#aC"/></g><g id="aa"><use transform="matrix(0.05,0,0,0.05,0,0)" xlink:href="#aH"/><use transform="matrix(0.05,0,0,0.05,14.950000000000001,0)" xlink:href="#aE"/><use transform="matrix(0.05,0,0,0.05,24.950000000000003,0)" xlink:href="#aI"/><use transform="matrix(0.05,0,0,0.05,33.95,0)" xlink:href="#aJ"/><use transform="matrix(0.05,0,0,0.05,42.95,0)" xlink:href="#aI"/></g><path d="M233-177c-1 41-23 64-60 70L243 0h-38l-65-103H63V0H30v-248c88 3 205-21 203 71zM63-129c60-2 137 13 137-47 0-61-80-42-137-45v92" id="bE"/><g id="ab"><use transform="matrix(0.05,0,0,0.05,0,0)" xlink:href="#bE"/><use transform="matrix(0.05,0,0,0.05,12.950000000000001,0)" xlink:href="#aC"/><use transform="matrix(0.05,0,0,0.05,22.950000000000003,0)" xlink:href="#aL"/><use transform="matrix(0.05,0,0,0.05,32.95,0)" xlink:href="#az"/><use transform="matrix(0.05,0,0,0.05,36.900000000000006,0)" xlink:href="#aI"/><use transform="matrix(0.05,0,0,0.05,45.900000000000006,0)" xlink:href="#aO"/><use transform="matrix(0.05,0,0,0.05,50.900000000000006,0)" xlink:href="#aC"/><use transform="matrix(0.05,0,0,0.05,60.900000000000006,0)" xlink:href="#ay"/></g><g id="ac"><use transform="matrix(0.05,0,0,0.05,0,0)" xlink:href="#aO"/><use transform="matrix(0.05,0,0,0.05,5,0)" xlink:href="#aC"/><use transform="matrix(0.05,0,0,0.05,15,0)" xlink:href="#aH"/><use transform="matrix(0.05,0,0,0.05,29.950000000000003,0)" xlink:href="#aF"/><use transform="matrix(0.05,0,0,0.05,39.95,0)" xlink:href="#aD"/><use transform="matrix(0.05,0,0,0.05,43.900000000000006,0)" xlink:href="#aE"/><use transform="matrix(0.05,0,0,0.05,53.900000000000006,0)" xlink:href="#aO"/><use transform="matrix(0.05,0,0,0.05,58.900000000000006,0)" xlink:href="#aC"/></g><g id="ad"><use transform="matrix(0.05,0,0,0.05,0,0)" xlink:href="#aO"/><use transform="matrix(0.05,0,0,0.05,5,0)" xlink:href="#az"/><use transform="matrix(0.05,0,0,0.05,8.95,0)" xlink:href="#aI"/><use transform="matrix(0.05,0,0,0.05,17.95,0)" xlink:href="#aI"/><use transform="matrix(0.05,0,0,0.05,26.950000000000003,0)" xlink:href="#bc"/><use transform="matrix(0.05,0,0,0.05,36.95,0)" xlink:href="#aC"/></g><g id="ae"><use transform="matrix(0.05,0,0,0.05,0,0)" xlink:href="#aH"/><use transform="matrix(0.05,0,0,0.05,14.950000000000001,0)" xlink:href="#aE"/><use transform="matrix(0.05,0,0,0.05,24.950000000000003,0)" xlink:href="#aI"/><use transform="matrix(0.05,0,0,0.05,33.95,0)" xlink:href="#aJ"/></g><g id="af"><use transform="matrix(0.05,0,0,0.05,0,0)" xlink:href="#aO"/><use transform="matrix(0.05,0,0,0.05,5,0)" xlink:href="#aA"/></g><g id="ag"><use transform="matrix(0.05,0,0,0.05,0,0)" xlink:href="#az"/><use transform="matrix(0.05,0,0,0.05,3.95,0)" xlink:href="#aK"/><use transform="matrix(0.05,0,0,0.05,13.949999999999998,0)" xlink:href="#aT"/><use transform="matrix(0.05,0,0,0.05,23.95,0)" xlink:href="#az"/><use transform="matrix(0.05,0,0,0.05,27.899999999999995,0)" xlink:href="#aB"/><use transform="matrix(0.05,0,0,0.05,36.9,0)" xlink:href="#az"/><use transform="matrix(0.05,0,0,0.05,40.85,0)" xlink:href="#aT"/><use transform="matrix(0.05,0,0,0.05,50.85,0)" xlink:href="#bc"/><use transform="matrix(0.05,0,0,0.05,60.85,0)" xlink:href="#aE"/><use transform="matrix(0.05,0,0,0.05,70.85,0)" xlink:href="#aD"/></g><path d="M27 0v-27h64v-190l-56 39v-29l58-41h29v221h61V0H27" id="bF"/><g id="ah"><use transform="matrix(0.05,0,0,0.05,0,0)" xlink:href="#aI"/><use transform="matrix(0.05,0,0,0.05,9,0)" xlink:href="#aF"/><use transform="matrix(0.05,0,0,0.05,19,0)" xlink:href="#aE"/><use transform="matrix(0.05,0,0,0.05,29,0)" xlink:href="#aX"/><use transform="matrix(0.05,0,0,0.05,38,0)" xlink:href="#aC"/><use transform="matrix(0.05,0,0,0.05,48,0)" xlink:href="#aM"/><use transform="matrix(0.05,0,0,0.05,53.95,0)" xlink:href="#aW"/><use transform="matrix(0.05,0,0,0.05,65.95,0)" xlink:href="#ax"/><use transform="matrix(0.05,0,0,0.05,77.95,0)" xlink:href="#bi"/><use transform="matrix(0.05,0,0,0.05,82.95,0)" xlink:href="#aG"/><use transform="matrix(0.05,0,0,0.05,87.95,0)" xlink:href="#aS"/><use transform="matrix(0.05,0,0,0.05,98.9,0)" xlink:href="#bF"/><use transform="matrix(0.05,0,0,0.05,108.9,0)" xlink:href="#aR"/></g><g id="ai"><use transform="matrix(0.05,0,0,0.05,0,0)" xlink:href="#aX"/><use transform="matrix(0.05,0,0,0.05,9,0)" xlink:href="#aA"/><use transform="matrix(0.05,0,0,0.05,19,0)" xlink:href="#aK"/><use transform="matrix(0.05,0,0,0.05,29,0)" xlink:href="#aN"/><use transform="matrix(0.05,0,0,0.05,34,0)" xlink:href="#az"/><use transform="matrix(0.05,0,0,0.05,37.95,0)" xlink:href="#aL"/><use transform="matrix(0.05,0,0,0.05,47.95,0)" xlink:href="#ba"/></g><g id="aj"><use transform="matrix(0.05,0,0,0.05,0,0)" xlink:href="#aC"/><use transform="matrix(0.05,0,0,0.05,10,0)" xlink:href="#ay"/><use transform="matrix(0.05,0,0,0.05,15.949999999999998,0)" xlink:href="#aA"/><use transform="matrix(0.05,0,0,0.05,25.950000000000003,0)" xlink:href="#aI"/><use transform="matrix(0.05,0,0,0.05,34.95,0)" xlink:href="#az"/><use transform="matrix(0.05,0,0,0.05,38.900000000000006,0)" xlink:href="#aA"/><use transform="matrix(0.05,0,0,0.05,48.900000000000006,0)" xlink:href="#aK"/></g><g id="ak"><use transform="matrix(0.05,0,0,0.05,0,0)" xlink:href="#aF"/><use transform="matrix(0.05,0,0,0.05,10,0)" xlink:href="#ay"/><use transform="matrix(0.05,0,0,0.05,15.949999999999998,0)" xlink:href="#aA"/><use transform="matrix(0.05,0,0,0.05,25.950000000000003,0)" xlink:href="#aF"/><use transform="matrix(0.05,0,0,0.05,35.95,0)" xlink:href="#aA"/><use transform="matrix(0.05,0,0,0.05,45.95,0)" xlink:href="#ay"/><use transform="matrix(0.05,0,0,0.05,51.900000000000006,0)" xlink:href="#aO"/><use transform="matrix(0.05,0,0,0.05,56.900000000000006,0)" xlink:href="#az"/><use transform="matrix(0.05,0,0,0.05,60.85,0)" xlink:href="#aA"/><use transform="matrix(0.05,0,0,0.05,70.85000000000001,0)" xlink:href="#aK"/></g><path d="M234-2c-28 10-62 0-77-18C117 19 8 12 13-65c3-43 29-61 60-76-25-40-17-114 47-108 35 3 59 15 59 50 0 44-40 53-71 69 14 26 32 50 51 72 14-21 24-43 30-72l26 8c-9 33-21 57-38 82 13 13 33 22 57 15v23zM97-151c25-10 52-18 56-48-1-18-13-29-33-29-42 0-39 50-23 77zM42-66c-3 51 71 58 98 28-20-24-41-51-56-80-23 10-40 24-42 52" id="bG"/><use transform="matrix(0.05,0,0,0.05,0,0)" xlink:href="#bG" id="al"/><g id="am"><use transform="matrix(0.05,0,0,0.05,0,0)" xlink:href="#aH"/><use transform="matrix(0.05,0,0,0.05,14.950000000000001,0)" xlink:href="#az"/><use transform="matrix(0.05,0,0,0.05,18.900000000000002,0)" xlink:href="#aD"/><use transform="matrix(0.05,0,0,0.05,22.85,0)" xlink:href="#aD"/><use transform="matrix(0.05,0,0,0.05,26.8,0)" xlink:href="#az"/><use transform="matrix(0.05,0,0,0.05,30.75,0)" xlink:href="#aH"/><use transform="matrix(0.05,0,0,0.05,45.7,0)" xlink:href="#aC"/><use transform="matrix(0.05,0,0,0.05,55.7,0)" xlink:href="#aO"/><use transform="matrix(0.05,0,0,0.05,60.7,0)" xlink:href="#aC"/><use transform="matrix(0.05,0,0,0.05,70.7,0)" xlink:href="#ay"/></g><path d="M25-224v-37h50v37H25zM25 0v-190h50V0H25" id="bH"/><path d="M85 4C-2 5 27-109 22-190h50c7 57-23 150 33 157 60-5 35-97 40-157h50l1 190h-47c-2-12 1-28-3-38-12 25-28 42-61 42" id="bI"/><g id="an"><use transform="matrix(0.07407407407407408,0,0,0.07407407407407408,0,0)" xlink:href="#aw"/><use transform="matrix(0.07407407407407408,0,0,0.07407407407407408,15.703703703703706,0)" xlink:href="#bH"/><use transform="matrix(0.07407407407407408,0,0,0.07407407407407408,23.111111111111114,0)" xlink:href="#bC"/><use transform="matrix(0.07407407407407408,0,0,0.07407407407407408,37.92592592592593,0)" xlink:href="#bC"/><use transform="matrix(0.07407407407407408,0,0,0.07407407407407408,52.74074074074075,0)" xlink:href="#bI"/><use transform="matrix(0.07407407407407408,0,0,0.07407407407407408,68.96296296296298,0)" xlink:href="#bv"/></g><path d="M195-6C206 82 75 100 31 46c-4-6-6-13-8-21l49-6c3 16 16 24 34 25 40 0 42-37 40-79-11 22-30 35-61 35-53 0-70-43-70-97 0-56 18-96 73-97 30 0 46 14 59 34l2-30h47zm-90-29c32 0 41-27 41-63 0-35-9-62-40-62-32 0-39 29-40 63 0 36 9 62 39 62" id="bJ"/><path d="M135-194c87-1 58 113 63 194h-50c-7-57 23-157-34-157-59 0-34 97-39 157H25l-1-190h47c2 12-1 28 3 38 12-26 28-41 61-42" id="bK"/><path d="M110-194c64 0 96 36 96 99 0 64-35 99-97 99-61 0-95-36-95-99 0-62 34-99 96-99zm-1 164c35 0 45-28 45-65 0-40-10-65-43-65-34 0-45 26-45 65 0 36 10 65 43 65" id="bL"/><g id="ao"><use transform="matrix(0.07407407407407408,0,0,0.07407407407407408,0,0)" xlink:href="#at"/><use transform="matrix(0.07407407407407408,0,0,0.07407407407407408,17.77777777777778,0)" xlink:href="#bv"/><use transform="matrix(0.07407407407407408,0,0,0.07407407407407408,32.592592592592595,0)" xlink:href="#bJ"/><use transform="matrix(0.07407407407407408,0,0,0.07407407407407408,48.814814814814824,0)" xlink:href="#bw"/><use transform="matrix(0.07407407407407408,0,0,0.07407407407407408,72.51851851851853,0)" xlink:href="#bv"/><use transform="matrix(0.07407407407407408,0,0,0.07407407407407408,87.33333333333334,0)" xlink:href="#bK"/><use transform="matrix(0.07407407407407408,0,0,0.07407407407407408,103.55555555555557,0)" xlink:href="#bA"/><use transform="matrix(0.07407407407407408,0,0,0.07407407407407408,112.37037037037038,0)" xlink:href="#bz"/><use transform="matrix(0.07407407407407408,0,0,0.07407407407407408,127.18518518518519,0)" xlink:href="#bA"/><use transform="matrix(0.07407407407407408,0,0,0.07407407407407408,136,0)" xlink:href="#bH"/><use transform="matrix(0.07407407407407408,0,0,0.07407407407407408,143.40740740740742,0)" xlink:href="#bL"/><use transform="matrix(0.07407407407407408,0,0,0.07407407407407408,159.62962962962965,0)" xlink:href="#bK"/></g><path d="M205 0l-28-72H64L36 0H1l101-248h38L239 0h-34zm-38-99l-47-123c-12 45-31 82-46 123h93" id="bM"/><g id="ap"><use transform="matrix(0.05,0,0,0.05,0,0)" xlink:href="#bM"/><use transform="matrix(0.05,0,0,0.05,12,0)" xlink:href="#aK"/><use transform="matrix(0.05,0,0,0.05,22,0)" xlink:href="#aE"/><use transform="matrix(0.05,0,0,0.05,32,0)" xlink:href="#aO"/><use transform="matrix(0.05,0,0,0.05,37,0)" xlink:href="#aA"/><use transform="matrix(0.05,0,0,0.05,47,0)" xlink:href="#aH"/><use transform="matrix(0.05,0,0,0.05,61.95,0)" xlink:href="#az"/><use transform="matrix(0.05,0,0,0.05,65.9,0)" xlink:href="#aX"/><use transform="matrix(0.05,0,0,0.05,74.9,0)" xlink:href="#aE"/><use transform="matrix(0.05,0,0,0.05,84.9,0)" xlink:href="#aD"/></g><g id="aq"><use transform="matrix(0.05,0,0,0.05,0,0)" xlink:href="#bg"/><use transform="matrix(0.05,0,0,0.05,12,0)" xlink:href="#ay"/><use transform="matrix(0.05,0,0,0.05,17.95,0)" xlink:href="#aE"/><use transform="matrix(0.05,0,0,0.05,27.950000000000003,0)" xlink:href="#az"/><use transform="matrix(0.05,0,0,0.05,31.899999999999995,0)" xlink:href="#aK"/></g><path d="M140-251c81 0 123 46 123 126C263-46 219 4 140 4 59 4 17-45 17-125s42-126 123-126zm0 227c63 0 89-41 89-101s-29-99-89-99c-61 0-89 39-89 99S79-25 140-24" id="bN"/><g id="ar"><use transform="matrix(0.05,0,0,0.05,0,0)" xlink:href="#bN"/><use transform="matrix(0.05,0,0,0.05,14,0)" xlink:href="#aK"/><use transform="matrix(0.05,0,0,0.05,24,0)" xlink:href="#aD"/><use transform="matrix(0.05,0,0,0.05,27.950000000000003,0)" xlink:href="#aY"/></g></defs></g></svg>