<svg preserveAspectRatio="xMinYMin meet" viewBox="0 0 1785.71 980" xmlns="http://www.w3.org/2000/svg" xmlns:xlink="http://www.w3.org/1999/xlink" xmlns:lucid="lucid" width="1785.71" height="980"><g transform="translate(-20 -20)" lucid:page-tab-id="0_0"><path d="M129.52 137.23c0-3.3 2.7-6 6-6h569.9c3.32 0 6 2.7 6 6v680.1c0 3.32-2.68 6-6 6h-569.9c-3.3 0-6-2.68-6-6z" fill="#3aa6dd"/><use xlink:href="#a" transform="matrix(1,0,0,1,141.52380952380952,143.2300551604991) translate(220.02213541666666 24.739583333333336)"/><path d="M219.05 203.28c0-3.3 2.68-6 6-6H615.9c3.32 0 6 2.7 6 6v571c0 3.3-2.68 6-6 6H225.05c-3.32 0-6-2.7-6-6z" fill="#0c7cba"/><use xlink:href="#b" transform="matrix(1,0,0,1,235.04761904761904,213.2813166178226) translate(89.02647569444446 548.4471661644444)"/><use xlink:href="#c" transform="matrix(1,0,0,1,235.04761904761904,213.2813166178226) translate(185.3046875 548.4471661644444)"/><path d="M695.05 509.05c-3.32 0-6-2.7-6-6V182.47c0-3.3 2.68-6 6-6h75.07c3.32 0 6 2.7 6 6v320.58c0 3.3-2.68 6-6 6z" fill="#0c7cba"/><use xlink:href="#d" transform="matrix(6.123233995736766e-17,-1,1,6.123233995736766e-17,702.047619047619,496.0461085311957) translate(58.32313368055557 20.616319444444443)"/><use xlink:href="#e" transform="matrix(6.123233995736766e-17,-1,1,6.123233995736766e-17,702.047619047619,496.0461085311957) translate(160.44986979166669 20.616319444444443)"/><path d="M785.18 224c2.4-2.28 7.06-4.1 10.37-4.1H914.9c9.87 0 17.9 15.02 17.9 33.56 0 18.54-8.03 33.57-17.9 33.57H795.54c-3.3 0-7.96-1.84-10.37-4.1l-27.06-25.37c-2.42-2.27-2.42-5.94 0-8.2z" fill="#a3d977"/><use xlink:href="#f" transform="matrix(1,0,0,1,753.7429277031545,219.88607852258463) translate(60.89671006944444 41.86631944444444)"/><path d="M785.18 313.3c2.4-2.28 7.06-4.1 10.37-4.1H914.9c9.87 0 17.9 15.02 17.9 33.56 0 18.54-8.03 33.57-17.9 33.57H795.54c-3.3 0-7.96-1.84-10.37-4.1l-27.06-25.37c-2.42-2.27-2.42-5.94 0-8.2z" fill="#a3d977"/><use xlink:href="#g" transform="matrix(1,0,0,1,753.7429277031545,309.18607852258435) translate(43.644105902777774 41.86631944444444)"/><path d="M785.18 402.6c2.4-2.28 7.06-4.1 10.37-4.1H914.9c9.87 0 17.9 15.02 17.9 33.56 0 18.54-8.03 33.57-17.9 33.57H795.54c-3.3 0-7.96-1.84-10.37-4.1l-27.06-25.37c-2.42-2.27-2.42-5.94 0-8.2z" fill="#a3d977"/><use xlink:href="#h" transform="matrix(1,0,0,1,753.7429277031545,398.486078522584) translate(59.48069444444444 41.86631944444444)"/><path d="M68.38 509.05c-3.3 0-6-2.7-6-6V227.7c0-3.3 2.7-6 6-6h77.05c3.3 0 6 2.7 6 6v275.35c0 3.3-2.7 6-6 6z" fill="#834187"/><use xlink:href="#i" transform="matrix(6.123233995736766e-17,-1,1,6.123233995736766e-17,62.38095238095235,509.04610853119596) translate(229.44053819444446 51.55381944444444)"/><path d="M277 280.4c-1.73-2.82-1.73-7.42 0-10.25l27.34-45.13c1.72-2.84 5.8-5.13 9.1-5.13h55.16c3.3 0 7.4 2.28 9.1 5.12l27.36 45.13c1.7 2.83 1.7 7.43 0 10.26l-27.35 45.14c-1.7 2.83-5.8 5.13-9.1 5.13h-55.15c-3.3 0-7.4-2.3-9.1-5.13z" stroke="#5e5e5e" stroke-width="2" fill="#fff"/><use xlink:href="#j" transform="matrix(1,0,0,1,273.88095238095235,219.88607852258463) translate(26.655390625000003 49.7734375)"/><use xlink:href="#k" transform="matrix(1,0,0,1,273.88095238095235,219.88607852258463) translate(36.6485546875 73.2109375)"/><path d="M107.67 353.4h2.88m3.86 0h5.78m3.85 0h5.78m3.86 0h5.78m3.85 0h5.77m3.85 0h5.78m3.85 0h5.78m3.85 0h5.78m3.85 0h2.9l2.7-.73m2.57-2.57l.73-2.7v-2.83m0-3.78v-5.68m0-3.78v-5.66m0-3.78v-5.67m0-3.78v-5.67m0-3.78v-5.66m0-3.78v-5.67m0-3.8v-2.82l.73-2.7M194 276l2.7-.72h2.97m3.97 0h5.95m3.96 0h5.96m3.96 0h5.96m3.97 0h5.96m3.97 0h5.95m3.97 0h2.98" stroke="#ccc" stroke-width="2" fill="none"/><path d="M107.7 354.4h-1.03v-2h1.02z" fill="#ccc"/><path d="M271.5 275.28l-14.27 4.63v-9.26z" stroke="#ccc" stroke-width="2" fill="#ccc"/><path d="M378.72 437.25c-1.66-2.87-1.66-7.52 0-10.38l44.34-76.5c1.66-2.85 5.7-5.18 9-5.18h88.73c3.3 0 7.33 2.32 9 5.18l44.33 76.5c1.67 2.85 1.67 7.5 0 10.37l-44.34 76.48c-1.67 2.87-5.7 5.2-9 5.2h-88.73c-3.3 0-7.35-2.33-9-5.2z" stroke="#5e5e5e" stroke-width="2" fill="#c7e8ac"/><use xlink:href="#l" transform="matrix(1,0,0,1,375.71428571428567,345.1914356654412) translate(44.27127604166668 80.42881944444444)"/><use xlink:href="#m" transform="matrix(1,0,0,1,375.71428571428567,345.1914356654412) translate(55.116545138888895 106.4704861111111)"/><path d="M531.82 275.28c0 12.05-9.77 21.82-21.82 21.82s-21.82-9.77-21.82-21.82 9.77-21.82 21.82-21.82 21.82 9.77 21.82 21.82zm-37.25-15.43l30.86 30.86m-30.86 0l30.86-30.85" stroke="#5e5e5e" stroke-width="2" fill="#fff"/><path d="M408.32 275.28h60.35" stroke="#ccc" stroke-width="2" fill="none"/><path d="M408.35 276.28h-1.14l.15-1.28-.1-.72h1.1z" fill="#ccc"/><path d="M483.94 275.28l-14.27 4.63v-9.26z" stroke="#ccc" stroke-width="2" fill="#ccc"/><path d="M688.05 342.76h-71.1c-3.33 0-6-2.7-6-6v-55.48c0-3.3-2.7-6-6-6h-53.62" stroke="#ccc" stroke-width="2" fill="none"/><path d="M689.05 343.76h-1.03v-2h1.03z" fill="#ccc"/><path d="M536.06 275.28l14.27-4.64v9.27z" stroke="#ccc" stroke-width="2" fill="#ccc"/><path d="M510 299.1v2.4m0 3.22v4.8m0 3.22v2.4l-.73 2.7m-2.57 2.58l-2.7.73h-3.45m-4.6 0h-6.92m-4.6 0h-3.46l-1.98.7m-1.86 1.9l-.63 1.07-.07.87" stroke="#ccc" stroke-width="2" fill="none"/><path d="M510 298.1l1-.1v1.13h-2V298z" fill="#ccc"/><path d="M476.43 340.96l-4.64-14.27h9.26z" stroke="#ccc" stroke-width="2" fill="#ccc"/><path d="M40 336.47c0-3.3 2.7-6 6-6h54.67c3.3 0 6 2.7 6 6v33.86c0 3.3-2.7 6-6 6H46c-3.3 0-6-2.7-6-6z" fill="#b391b5"/><use xlink:href="#n" transform="matrix(1,0,0,1,40,330.4742278495111) translate(11.004340277777779 27.993055555555554)"/><path d="M40 404.5c0-3.33 2.7-6 6-6h54.67c3.3 0 6 2.67 6 6v33.84c0 3.3-2.7 6-6 6H46c-3.3 0-6-2.7-6-6z" fill="#b391b5"/><use xlink:href="#o" transform="matrix(1,0,0,1,40,398.48607852258414) translate(20.34027777777778 27.993055555555554)"/><path d="M246.17 516.18c0-14.83 10.02-26.85 22.38-26.85 12.37 0 22.4 12.02 22.4 26.85v80.57c0 14.84-10.03 26.86-22.4 26.86-12.36 0-22.38-12-22.38-26.85z" stroke="#5e5e5e" stroke-width="2" fill="#b391b5"/><use xlink:href="#p" transform="matrix(6.123233995736766e-17,-1,1,6.123233995736766e-17,246.17344958330222,623.6110075414515) translate(30.17427083333333 27.743055555555554)"/><path d="M244.17 541.85h-42.73c-3.3 0-6-2.68-6-6V418.5c0-3.3-2.68-6-6-6h-64.27" stroke="#ccc" stroke-width="2" fill="none"/><path d="M245.17 542.85h-1.02v-2h1.02z" fill="#ccc"/><path d="M109.9 412.5l14.27-4.62v9.27z" stroke="#ccc" stroke-width="2" fill="#ccc"/><path d="M430.44 583.98c0-3.3 2.7-6 6-6H585.6c3.3 0 6 2.7 6 6v70.1c-26.93-12.7-43.68-12.7-53.84-12.7-16.1 0-37.54 12.7-53.66 12.7-10 0-26.9 0-53.66-12.7z" stroke="#5e5e5e" stroke-width="2" fill="#99d5ca"/><path d="M439.4 590.7c0-3.32 2.68-6 6-6h149.14c3.3 0 6 2.68 6 6v70.1c-26.9-12.72-43.67-12.72-53.82-12.72-16.12 0-37.55 12.7-53.66 12.7-10 0-26.92 0-53.66-12.7z" stroke="#5e5e5e" stroke-width="2" fill="#99d5ca"/><path d="M448.35 597.4c0-3.3 2.68-6 6-6H603.5c3.3 0 6 2.7 6 6v70.1c-26.92-12.7-43.68-12.7-53.83-12.7-16.12 0-37.55 12.7-53.66 12.7-9.98 0-26.9 0-53.65-12.7z" stroke="#5e5e5e" stroke-width="2" fill="#99d5ca"/><use xlink:href="#q" transform="matrix(1,0,0,1,448.34765442484047,591.409888046394) translate(20.561414930555564 36.61631944444444)"/><path d="M476.43 520.92v3.23m0 4.3v6.47m0 4.3v3.23l.73 2.7m2.57 2.57l2.7.73h3.15m4.2 0h6.32m4.2 0h6.3m4.2 0h3.17l2.7.73m2.57 2.57l.73 2.7v4.03" stroke="#ccc" stroke-width="2" fill="none"/><path d="M477.43 520.95h-2v-1.03h2z" fill="#ccc"/><path d="M519.97 573.75l-4.64-14.27h9.27z" stroke="#ccc" stroke-width="2" fill="#ccc"/><path d="M461.78 651.12c0-3.3 2.68-6 6-6h122.28c3.32 0 6 2.7 6 6v61.15c-22.42-11.22-36.4-11.22-44.85-11.22-13.42 0-31.28 11.22-44.7 11.22-8.33 0-22.43 0-44.72-11.22z" stroke="#5e5e5e" stroke-width="2" fill="#5abaa7"/><use xlink:href="#r" transform="matrix(1,0,0,1,461.7762258534117,645.1241737606798) translate(40.3203125 33.99305555555556)"/><path d="M428.44 622.88H366.7c-3.32 0-6-2.7-6-6v-54.4c0-3.33-2.7-6-6-6h-44.26" stroke="#ccc" stroke-width="2" fill="none"/><path d="M429.44 623.88h-1.02v-2h1.02z" fill="#ccc"/><path d="M295.17 556.47l14.27-4.64v9.27z" stroke="#ccc" stroke-width="2" fill="#ccc"/><path d="M459.78 678.85H347.15c-3.3 0-6-2.68-6-6V561.47c-2.76 0-5-2.24-5-5s2.24-5 5-5v-46.14c0-.04-.03-.07-.06-.07-.05 0-.08-.03-.08-.06V350.17" stroke="#ccc" stroke-width="2" fill="none"/><path d="M460.78 679.85h-1.03v-2h1.03z" fill="#ccc"/><path d="M341.02 334.9l4.64 14.27h-9.27z" stroke="#ccc" stroke-width="2" fill="#ccc"/><path d="M107.67 434.37h3.1m4.16 0h6.22m4.15 0h6.23m4.15 0h6.23m4.16 0h6.22m4.15 0h6.23m4.15 0h3.12l2.7.73m2.57 2.57l.72 2.7v3.02m0 4v6.04m0 4.03v6.03m0 4.02v6.03m0 4.03v6.03m0 4.03v6.04m0 4.02v6.02m0 4.02v6.04m0 4.02v6.03m0 4.03v6.03m0 4v6.04m0 4.03V554m0 4.02v3.02l.73 2.7m2.57 2.57l2.7.74h3.36m4.47 0h6.7m4.5 0h6.7m4.48 0h6.7m4.5 0h3.34" stroke="#ccc" stroke-width="2" fill="none"/><path d="M107.7 435.37h-1.03v-2h1.02z" fill="#ccc"/><path d="M241.94 567.04l-14.27 4.63v-9.27z" stroke="#ccc" stroke-width="2" fill="#ccc"/><path d="M594.9 430.06h31.82c2.2 0 4-1.8 4-4v-49.98c0-4.42 3.58-8 8-8h31.83" stroke="#ccc" stroke-width="2" fill="none"/><path d="M594.9 434.06h31.82c4.4 0 8-3.58 8-8v-49.98c0-2.2 1.8-4 4-4h31.83" stroke="#ccc" stroke-width="2" fill="none"/><path d="M579.62 432.06l14.27-4.64v9.27zM685.8 370.08l-14.25 4.64v-9.27z" stroke="#ccc" stroke-width="2" fill="#fff"/><path d="M1135.44 118.64c0 43.43-34.8 78.64-77.72 78.64S980 162.08 980 118.64C980 75.2 1014.8 40 1057.72 40c42.93 0 77.72 35.2 77.72 78.64z" fill="#ffbbb1"/><use xlink:href="#s" transform="matrix(1,0,0,1,985.0000000000001,45) translate(41.96158854166667 66.86631944444444)"/><use xlink:href="#t" transform="matrix(1,0,0,1,985.0000000000001,45) translate(25.153862847222214 92.9079861111111)"/><path d="M980 157.43c0-3.32 2.7-6 6-6h54.67c3.3 0 6 2.68 6 6v33.85c0 3.32-2.7 6-6 6H986c-3.3 0-6-2.68-6-6z" fill="#ff8f80"/><use xlink:href="#o" transform="matrix(1,0,0,1,979.9999999999998,151.4266088018921) translate(20.34027777777778 27.993055555555554)"/><path d="M953.4 250.46h53.93c1.66 0 3-1.35 3-3V217.9" stroke="#5e5e5e" stroke-width="3" fill="none"/><path d="M953.4 256.46h53.93c4.97 0 9-4.03 9-9V217.9" stroke="#5e5e5e" stroke-width="3" fill="none"/><path d="M937.64 253.46l14.27-4.64v9.27zM1013.33 202.14l4.64 14.26h-9.27z" stroke="#5e5e5e" stroke-width="3" fill="#fff"/><path d="M953.4 339.76h53.93c1.66 0 3-1.35 3-3V217.9" stroke="#5e5e5e" stroke-width="3" fill="none"/><path d="M953.4 345.76h53.93c4.97 0 9-4.03 9-9V217.9" stroke="#5e5e5e" stroke-width="3" fill="none"/><path d="M937.64 342.76l14.27-4.64v9.27zM1013.33 202.14l4.64 14.26h-9.27z" stroke="#5e5e5e" stroke-width="3" fill="#fff"/><path d="M980 538.38c0-3.3 2.7-6 6-6h793.7c3.33 0 6 2.7 6 6V974c0 3.3-2.67 6-6 6H986c-3.3 0-6-2.7-6-6z" fill="#d1bcd2"/><use xlink:href="#u" transform="matrix(1,0,0,1,992,544.3809523809524) translate(317.16644965277777 20.616319444444443)"/><use xlink:href="#v" transform="matrix(1,0,0,1,992,544.3809523809524) translate(394.71636284722223 20.616319444444443)"/><path d="M932.8 629.6c0-3.3 2.68-6 6-6h214.25c3.3 0 6 2.7 6 6v277.26c0 3.3-2.7 6-6 6H938.8c-3.32 0-6-2.7-6-6z" fill="#fff"/><use xlink:href="#w" transform="matrix(1,0,0,1,944.7905467507734,635.6110075413903) translate(0 17.77777777777778)"/><path d="M1248.57 629.6c0-3.3 2.7-6 6-6h502.76c3.32 0 6 2.7 6 6v322.02c0 3.3-2.68 6-6 6h-502.76c-3.3 0-6-2.7-6-6z" fill="#fff"/><use xlink:href="#x" transform="matrix(1,0,0,1,1260.571428571429,635.6110075413904) translate(0 17.77777777777778)"/><path d="M1745.8 723.76c0 43.44-35.28 78.65-78.8 78.65-43.5 0-78.78-35.2-78.78-78.64 0-43.43 35.27-78.64 78.78-78.64 43.52 0 78.8 35.2 78.8 78.64z" fill="#ffbbb1"/><use xlink:href="#s" transform="matrix(1,0,0,1,1593.2155243214575,650.1241737606798) translate(42.96158854166667 66.86631944444444)"/><use xlink:href="#t" transform="matrix(1,0,0,1,1593.2155243214575,650.1241737606798) translate(26.153862847222214 92.9079861111111)"/><path d="M1580 761.1c0-3.32 2.7-6 6-6h54.67c3.3 0 6 2.68 6 6v33.85c0 3.32-2.7 6-6 6H1586c-3.3 0-6-2.68-6-6z" fill="#ff8f80"/><use xlink:href="#o" transform="matrix(1,0,0,1,1580,755.0976731364505) translate(20.34027777777778 27.993055555555554)"/><path d="M1557.2 859.7h50.13c1.66 0 3-1.35 3-3v-35.13" stroke="#5e5e5e" stroke-width="3" fill="none"/><path d="M1557.2 865.7h50.13c4.97 0 9-4.03 9-9v-35.13" stroke="#5e5e5e" stroke-width="3" fill="none"/><path d="M1541.45 862.7l14.26-4.64v9.27zM1613.33 805.8l4.64 14.27h-9.27z" stroke="#5e5e5e" stroke-width="3" fill="#fff"/><path d="M956.4 762.2c0-3.32 2.68-6 6-6h167.04c3.32 0 6 2.68 6 6v122.28c0 3.3-2.68 6-6 6H962.4c-3.32 0-6-2.7-6-6z" stroke="#b391b5" stroke-width="10" fill="#fff"/><path d="M974.3 756.2v134.28m143.24-134.3v134.3" stroke="#b391b5" stroke-width="10" fill="none"/><use xlink:href="#y" transform="matrix(1,0,0,1,983.776225756339,761.1904761904763) translate(33.05555555555556 42.50000000000001)"/><use xlink:href="#z" transform="matrix(1,0,0,1,983.776225756339,761.1904761904763) translate(28.638888888888893 66.5)"/><use xlink:href="#A" transform="matrix(1,0,0,1,983.776225756339,761.1904761904763) translate(29.72222222222223 90.5)"/><path d="M889.8 470.63v96.5h162.53c8.84 0 16 7.18 16 16v150.1h175.24" stroke="#b391b5" stroke-width="10" fill="none"/><path d="M869.8 470.63v100.5c0 8.85 7.15 16 16 16h162.53v150.1c0 8.83 7.17 16 16 16h179.24" stroke="#b391b5" stroke-width="10" fill="none"/><path d="M894.8 470.76h-10v-5.13h10zM874.8 470.76h-10v-5.13h10zM1248.57 738.23h-5.13v-10h5.13zM1248.57 758.23h-5.13v-10h5.13z" fill="#b391b5"/><path d="M1219.87 681.62c0-3.3 2.7-6 6-6h180.8c3.3 0 6 2.7 6 6v245.04c0 3.32-2.7 6-6 6h-180.8c-3.3 0-6-2.68-6-6z" fill="#3aa6dd"/><use xlink:href="#B" transform="matrix(1,0,0,1,1235.8748511904764,691.6190476190475) translate(31.3517795138889 119.49131944444444)"/><path d="M1402.6 900.16c-3.32 0-6-2.7-6-6V711.23c0-3.3 2.68-6 6-6h20.73c3.3 0 6 2.7 6 6v182.93c0 3.3-2.7 6-6 6z" fill="#0c7cba"/><use xlink:href="#C" transform="matrix(6.123233995736766e-17,-1,1,6.123233995736766e-17,1396.5934523809528,900.1596881655721) translate(21.358506944444457 22.680555555555554)"/><use xlink:href="#D" transform="matrix(6.123233995736766e-17,-1,1,6.123233995736766e-17,1396.5934523809528,900.1596881655721) translate(103.05989583333334 22.680555555555554)"/><g><path d="M1209.8 900.78c-3.3 0-6-2.7-6-6V713.75c0-3.3 2.7-6 6-6h21.35c3.3 0 6 2.7 6 6v181.03c0 3.3-2.7 6-6 6z" fill="#834187"/></g><g><use xlink:href="#E" transform="matrix(6.123233995736766e-17,-1,1,6.123233995736766e-17,1203.8095238095239,900.7771675724164) translate(82.67621527777779 22.868055555555554)"/></g><path d="M975.52 453.92c14.84 0 26.86 10.46 26.86 23.36 0 12.9-12.02 23.37-26.86 23.37h-80.57c-14.83 0-26.85-10.46-26.85-23.37 0-12.9 12.02-23.36 26.85-23.36z" fill="#3aa6dd"/><g><use xlink:href="#F" transform="matrix(1,0,0,1,873.095238095238,458.9170837874437) translate(12.25925925925928 22.229166666666664)"/><use xlink:href="#G" transform="matrix(1,0,0,1,873.095238095238,458.9170837874437) translate(75.81481481481481 22.229166666666664)"/></g><path d="M885.53 566.67c0-3.32 2.7-6 6-6h155.23c3.3 0 6 2.68 6 6v21.25c0 3.32-2.7 6-6 6H891.53c-3.3 0-6-2.68-6-6z" stroke="#000" stroke-opacity="0" stroke-width="3" fill="#b391b5"/><g><use xlink:href="#H" transform="matrix(1,0,0,1,890.5349039950802,565.6678426540783) translate(8.1666666666667 15.166666666666664)"/><use xlink:href="#I" transform="matrix(1,0,0,1,890.5349039950802,565.6678426540783) translate(76.20370370370371 15.166666666666664)"/><use xlink:href="#J" transform="matrix(1,0,0,1,890.5349039950802,565.6678426540783) translate(107.27777777777777 15.166666666666664)"/></g><path d="M1437.87 854.45c3-1.4 8.13-2.5 11.45-2.5h75.6c6.45 0 11.67 4.8 11.67 10.75 0 5.94-5.23 10.75-11.67 10.75h-75.6c-3.33 0-8.45-1.12-11.46-2.5l-12.42-5.74c-3-1.38-3-3.63 0-5.02z" fill="#a3d977"/><g><use xlink:href="#K" transform="matrix(1,0,0,1,1420,851.939586529221) translate(30.20237413194445 14.431423611111107)"/></g><defs><path fill="#fff" d="M631-137c179 0 314-70 314-231 0-71-25-127-75-166s-141-77-272-115c-165-47-285-106-360-175s-112-154-112-255c0-245 231-397 495-397 206 0 369 89 449 218 43 68 65 142 65 223H942c0-184-129-283-321-283-172 0-299 76-301 236 0 59 26 109 76 150s135 78 256 113c205 59 345 116 436 256 35 53 50 119 50 193-2 256-231 398-507 390C333 12 90-129 80-422h193c0 187 160 285 358 285" id="L"/><path fill="#fff" d="M277-555c0 244 77 420 297 424 127 2 249-93 255-210h175C980-127 805 20 574 20 258 20 81-222 92-562c11-319 164-533 481-540 237-5 426 165 431 392H829c-7-133-115-242-256-240-209 4-296 166-296 395" id="M"/><path fill="#fff" d="M589-945c-131 0-219 81-264 174V0H140v-1536h185v585c82-101 189-151 320-151 229 0 346 129 346 387V0H806v-716c-2-153-65-229-217-229" id="N"/><path fill="#fff" d="M599-131c141 0 220-65 285-146l113 88C906-50 770 20 589 20 281 21 93-214 93-545c0-223 93-397 233-485 74-48 154-72 240-72 300 2 449 218 445 537v77H278c0 197 129 357 321 357zm227-509c-3-180-88-310-260-310-170 0-264 140-282 310h542" id="O"/><path fill="#fff" d="M520 20C244 20 95-247 95-550c0-298 151-550 427-552 127 0 227 43 301 130v-564h185V0H838l-9-116C755-25 652 20 520 20zm48-965c-210 0-288 177-288 416 0 218 87 392 286 392 117 0 203-53 257-158v-497c-55-102-140-153-255-153" id="P"/><path fill="#fff" d="M491 20c-241-1-355-148-355-398v-704h185v699c0 164 67 246 200 246 141 0 235-53 282-158v-787h185V0H812l-4-107C736-22 630 20 491 20" id="Q"/><path fill="#fff" d="M341 0H156v-1536h185V0" id="R"/><path fill="#fff" d="M663-916c-163-27-288 18-338 148V0H140v-1082h180l3 125c61-97 147-145 258-145 36 0 63 5 82 14v172" id="S"/><g id="a"><use transform="matrix(0.013020833333333334,0,0,0.013020833333333334,0,0)" xlink:href="#L"/><use transform="matrix(0.013020833333333334,0,0,0.013020833333333334,15.8203125,0)" xlink:href="#M"/><use transform="matrix(0.013020833333333334,0,0,0.013020833333333334,29.778645833333336,0)" xlink:href="#N"/><use transform="matrix(0.013020833333333334,0,0,0.013020833333333334,44.466145833333336,0)" xlink:href="#O"/><use transform="matrix(0.013020833333333334,0,0,0.013020833333333334,58.59375,0)" xlink:href="#P"/><use transform="matrix(0.013020833333333334,0,0,0.013020833333333334,73.6328125,0)" xlink:href="#Q"/><use transform="matrix(0.013020833333333334,0,0,0.013020833333333334,88.33333333333333,0)" xlink:href="#R"/><use transform="matrix(0.013020833333333334,0,0,0.013020833333333334,94.8046875,0)" xlink:href="#O"/><use transform="matrix(0.013020833333333334,0,0,0.013020833333333334,108.93229166666667,0)" xlink:href="#S"/></g><g id="b"><use transform="matrix(0.010850694444444444,0,0,0.010850694444444444,0,0)" xlink:href="#L"/><use transform="matrix(0.010850694444444444,0,0,0.010850694444444444,13.18359375,0)" xlink:href="#M"/><use transform="matrix(0.010850694444444444,0,0,0.010850694444444444,24.815538194444443,0)" xlink:href="#N"/><use transform="matrix(0.010850694444444444,0,0,0.010850694444444444,37.05512152777777,0)" xlink:href="#O"/><use transform="matrix(0.010850694444444444,0,0,0.010850694444444444,48.828124999999986,0)" xlink:href="#P"/><use transform="matrix(0.010850694444444444,0,0,0.010850694444444444,61.36067708333333,0)" xlink:href="#Q"/><use transform="matrix(0.010850694444444444,0,0,0.010850694444444444,73.6111111111111,0)" xlink:href="#R"/><use transform="matrix(0.010850694444444444,0,0,0.010850694444444444,79.00390624999999,0)" xlink:href="#O"/></g><path fill="#fff" d="M992-673H361v516h733V0H169v-1456h915v158H361v468h631v157" id="T"/><path fill="#fff" d="M503-687l240-395h216L605-547 970 0H756L506-405 256 0H41l365-547-354-535h214" id="U"/><path fill="#fff" d="M456 20C285 20 205-92 206-268v-671H9v-143h197v-262h185v262h202v143H391v671c-9 125 92 149 207 118V0c-49 13-96 20-142 20" id="V"/><path fill="#fff" d="M341 0H156v-1082h185V0zm-91-1264c-68 0-108-42-109-105 0-62 41-107 109-107s110 44 110 107-42 105-110 105" id="W"/><path fill="#fff" d="M584 20C278 26 81-227 91-551c10-320 175-545 491-551 308-5 503 247 494 573-9 322-175 543-492 549zm-2-970c-208 0-305 185-305 421 0 216 106 398 307 398 211 0 307-186 307-420 0-214-109-399-309-399" id="X"/><path fill="#fff" d="M589-945c-131 0-219 81-264 174V0H140v-1082h175l6 136c83-104 191-156 324-156 229 0 346 129 346 387V0H806v-716c-2-153-65-229-217-229" id="Y"/><g id="c"><use transform="matrix(0.010850694444444444,0,0,0.010850694444444444,0,0)" xlink:href="#T"/><use transform="matrix(0.010850694444444444,0,0,0.010850694444444444,12.630208333333332,0)" xlink:href="#U"/><use transform="matrix(0.010850694444444444,0,0,0.010850694444444444,23.426649305555554,0)" xlink:href="#O"/><use transform="matrix(0.010850694444444444,0,0,0.010850694444444444,35.19965277777777,0)" xlink:href="#M"/><use transform="matrix(0.010850694444444444,0,0,0.010850694444444444,46.83159722222221,0)" xlink:href="#Q"/><use transform="matrix(0.010850694444444444,0,0,0.010850694444444444,59.082031249999986,0)" xlink:href="#V"/><use transform="matrix(0.010850694444444444,0,0,0.010850694444444444,66.34114583333333,0)" xlink:href="#W"/><use transform="matrix(0.010850694444444444,0,0,0.010850694444444444,71.73394097222221,0)" xlink:href="#X"/><use transform="matrix(0.010850694444444444,0,0,0.010850694444444444,84.40755208333333,0)" xlink:href="#Y"/></g><path fill="#fff" d="M1160-420C1159-145 963 0 674 0H169v-1456h476c294-1 476 112 476 388 0 153-99 253-216 302 146 38 255 167 255 346zM678-157c171 2 289-95 289-261 0-175-95-263-286-263H361v524h317zm250-912c-2-172-104-229-283-229H361v463h290c157 3 278-84 277-234" id="Z"/><path fill="#fff" d="M561-1102c238-4 403 126 403 351v498c0 99 13 178 38 237V0H808c-11-21-19-59-26-114C696-25 593 20 474 20c-199 0-368-130-365-320 4-251 214-359 490-356h180v-85c-1-135-86-212-229-212-115 0-232 67-233 171H131c20-205 206-316 430-320zM294-326c0 117 90 185 207 185 122 0 239-75 278-162v-222H634c-227 0-340 66-340 199" id="aa"/><path fill="#fff" d="M442-501L326-380V0H141v-1536h185v929c135-169 291-317 436-475h225L566-630 1036 0H819" id="ab"/><path fill="#fff" d="M538-131c121 0 232-49 232-156 0-50-20-88-56-117-73-60-334-92-420-143-92-55-162-110-162-238 0-190 192-317 400-317 223 0 414 129 413 338H759c0-108-110-186-227-186-119 0-215 53-215 159 0 45 18 78 53 101 76 52 331 90 416 139 98 57 169 115 169 251C955-92 760 20 538 20c-176 0-314-68-386-174-38-55-57-115-57-179h185c6 129 116 202 258 202" id="ac"/><g id="d"><use transform="matrix(0.010850694444444444,0,0,0.010850694444444444,0,0)" xlink:href="#Z"/><use transform="matrix(0.010850694444444444,0,0,0.010850694444444444,13.834635416666666,0)" xlink:href="#aa"/><use transform="matrix(0.010850694444444444,0,0,0.010850694444444444,25.92230902777778,0)" xlink:href="#M"/><use transform="matrix(0.010850694444444444,0,0,0.010850694444444444,37.55425347222222,0)" xlink:href="#ab"/><use transform="matrix(0.010850694444444444,0,0,0.010850694444444444,48.60026041666667,0)" xlink:href="#O"/><use transform="matrix(0.010850694444444444,0,0,0.010850694444444444,60.3732638888889,0)" xlink:href="#Y"/><use transform="matrix(0.010850694444444444,0,0,0.010850694444444444,72.63454861111111,0)" xlink:href="#P"/><use transform="matrix(0.010850694444444444,0,0,0.010850694444444444,85.16710069444444,0)" xlink:href="#ac"/></g><path fill="#fff" d="M375 0H183v-1456h192V0" id="ad"/><path fill="#fff" d="M704-1390c-164-38-297 28-288 194v114h231v143H416V0H231v-939H60v-143h171v-111c-12-274 208-416 483-347" id="ae"/><g id="e"><use transform="matrix(0.010850694444444444,0,0,0.010850694444444444,0,0)" xlink:href="#ad"/><use transform="matrix(0.010850694444444444,0,0,0.010850694444444444,6.043836805555555,0)" xlink:href="#Y"/><use transform="matrix(0.010850694444444444,0,0,0.010850694444444444,18.30512152777778,0)" xlink:href="#V"/><use transform="matrix(0.010850694444444444,0,0,0.010850694444444444,25.56423611111111,0)" xlink:href="#O"/><use transform="matrix(0.010850694444444444,0,0,0.010850694444444444,37.33723958333333,0)" xlink:href="#S"/><use transform="matrix(0.010850694444444444,0,0,0.010850694444444444,45.019531249999986,0)" xlink:href="#ae"/><use transform="matrix(0.010850694444444444,0,0,0.010850694444444444,52.734374999999986,0)" xlink:href="#aa"/><use transform="matrix(0.010850694444444444,0,0,0.010850694444444444,64.8220486111111,0)" xlink:href="#M"/><use transform="matrix(0.010850694444444444,0,0,0.010850694444444444,76.45399305555554,0)" xlink:href="#O"/></g><path fill="#333" d="M1222-777c17 480-206 763-650 777H169v-1456h411c408 9 627 269 642 679zm-190 4c3-312-149-522-447-525H361v1141h202c308 0 473-209 469-531v-85" id="af"/><path fill="#333" d="M584 20C278 26 81-227 91-551c10-320 175-545 491-551 308-5 503 247 494 573-9 322-175 543-492 549zm-2-970c-208 0-305 185-305 421 0 216 106 398 307 398 211 0 307-186 307-420 0-214-109-399-309-399" id="ag"/><path fill="#333" d="M277-555c0 244 77 420 297 424 127 2 249-93 255-210h175C980-127 805 20 574 20 258 20 81-222 92-562c11-319 164-533 481-540 237-5 426 165 431 392H829c-7-133-115-242-256-240-209 4-296 166-296 395" id="ah"/><path fill="#333" d="M442-501L326-380V0H141v-1536h185v929c135-169 291-317 436-475h225L566-630 1036 0H819" id="ai"/><path fill="#333" d="M599-131c141 0 220-65 285-146l113 88C906-50 770 20 589 20 281 21 93-214 93-545c0-223 93-397 233-485 74-48 154-72 240-72 300 2 449 218 445 537v77H278c0 197 129 357 321 357zm227-509c-3-180-88-310-260-310-170 0-264 140-282 310h542" id="aj"/><path fill="#333" d="M663-916c-163-27-288 18-338 148V0H140v-1082h180l3 125c61-97 147-145 258-145 36 0 63 5 82 14v172" id="ak"/><g id="f"><use transform="matrix(0.010850694444444444,0,0,0.010850694444444444,0,0)" xlink:href="#af"/><use transform="matrix(0.010850694444444444,0,0,0.010850694444444444,14.572482638888888,0)" xlink:href="#ag"/><use transform="matrix(0.010850694444444444,0,0,0.010850694444444444,27.24609375,0)" xlink:href="#ah"/><use transform="matrix(0.010850694444444444,0,0,0.010850694444444444,38.87803819444444,0)" xlink:href="#ai"/><use transform="matrix(0.010850694444444444,0,0,0.010850694444444444,49.924045138888886,0)" xlink:href="#aj"/><use transform="matrix(0.010850694444444444,0,0,0.010850694444444444,61.69704861111111,0)" xlink:href="#ak"/></g><path fill="#333" d="M631-137c179 0 314-70 314-231 0-71-25-127-75-166s-141-77-272-115c-165-47-285-106-360-175s-112-154-112-255c0-245 231-397 495-397 206 0 369 89 449 218 43 68 65 142 65 223H942c0-184-129-283-321-283-172 0-299 76-301 236 0 59 26 109 76 150s135 78 256 113c205 59 345 116 436 256 35 53 50 119 50 193-2 256-231 398-507 390C333 12 90-129 80-422h193c0 187 160 285 358 285" id="al"/><path fill="#333" d="M341 0H156v-1082h185V0zm-91-1264c-68 0-108-42-109-105 0-62 41-107 109-107s110 44 110 107-42 105-110 105" id="am"/><path fill="#333" d="M589-945c-131 0-219 81-264 174V0H140v-1082h175l6 136c83-104 191-156 324-156 229 0 346 129 346 387V0H806v-716c-2-153-65-229-217-229" id="an"/><path fill="#333" d="M521 20C240 20 96-239 96-550c0-303 147-552 427-552 132 0 235 47 309 140l9-120h169V-26c4 277-183 454-459 452-165-1-334-81-400-187l96-111c79 98 176 147 291 147 180 1 288-109 286-290v-93C750-23 649 20 521 20zm48-965c-209 0-287 178-287 416 0 217 86 392 285 392 117 0 202-53 257-159v-494c-57-103-142-155-255-155" id="ao"/><path fill="#333" d="M491 20c-241-1-355-148-355-398v-704h185v699c0 164 67 246 200 246 141 0 235-53 282-158v-787h185V0H812l-4-107C736-22 630 20 491 20" id="ap"/><path fill="#333" d="M341 0H156v-1536h185V0" id="aq"/><path fill="#333" d="M561-1102c238-4 403 126 403 351v498c0 99 13 178 38 237V0H808c-11-21-19-59-26-114C696-25 593 20 474 20c-199 0-368-130-365-320 4-251 214-359 490-356h180v-85c-1-135-86-212-229-212-115 0-232 67-233 171H131c20-205 206-316 430-320zM294-326c0 117 90 185 207 185 122 0 239-75 278-162v-222H634c-227 0-340 66-340 199" id="ar"/><path fill="#333" d="M456 20C285 20 205-92 206-268v-671H9v-143h197v-262h185v262h202v143H391v671c-9 125 92 149 207 118V0c-49 13-96 20-142 20" id="as"/><path fill="#333" d="M494-271l252-811h198L509 167C425 381 299 474 84 421V271c167 16 242-37 283-173l41-110L22-1082h202" id="at"/><g id="g"><use transform="matrix(0.010850694444444444,0,0,0.010850694444444444,0,0)" xlink:href="#al"/><use transform="matrix(0.010850694444444444,0,0,0.010850694444444444,13.18359375,0)" xlink:href="#am"/><use transform="matrix(0.010850694444444444,0,0,0.010850694444444444,18.57638888888889,0)" xlink:href="#an"/><use transform="matrix(0.010850694444444444,0,0,0.010850694444444444,30.83767361111111,0)" xlink:href="#ao"/><use transform="matrix(0.010850694444444444,0,0,0.010850694444444444,43.30512152777778,0)" xlink:href="#ap"/><use transform="matrix(0.010850694444444444,0,0,0.010850694444444444,55.55555555555556,0)" xlink:href="#aq"/><use transform="matrix(0.010850694444444444,0,0,0.010850694444444444,60.94835069444444,0)" xlink:href="#ar"/><use transform="matrix(0.010850694444444444,0,0,0.010850694444444444,73.03602430555556,0)" xlink:href="#ak"/><use transform="matrix(0.010850694444444444,0,0,0.010850694444444444,80.55555555555556,0)" xlink:href="#am"/><use transform="matrix(0.010850694444444444,0,0,0.010850694444444444,85.94835069444444,0)" xlink:href="#as"/><use transform="matrix(0.010850694444444444,0,0,0.010850694444444444,93.20746527777777,0)" xlink:href="#at"/></g><path fill="#333" d="M362-157h690V0H169v-1456h193v1299" id="au"/><path fill="#333" d="M665-137c214 0 337-121 336-332v-987h193v990c-3 300-218 486-529 486-309 0-526-181-525-484v-992h190v986c-1 210 123 333 335 333" id="av"/><path fill="#333" d="M1161-1018c0 201-122 330-278 388l342 618V0h-206L703-589H361V0H168v-1456h482c310-2 511 139 511 438zm-193 0c0-187-120-280-313-280H361v552h295c179 3 313-101 312-272" id="aw"/><path fill="#333" d="M417-1456L893-268l476-1188h249V0h-192c-4-403 4-794 18-1179L966 0H819L342-1176c15 384 23 773 19 1176H169v-1456h248" id="ax"/><g id="h"><use transform="matrix(0.010850694444444444,0,0,0.010850694444444444,0,0)" xlink:href="#al"/><use transform="matrix(0.010850694444444444,0,0,0.010850694444444444,13.18359375,0)" xlink:href="#au"/><use transform="matrix(0.010850694444444444,0,0,0.010850694444444444,24.55512152777778,0)" xlink:href="#av"/><use transform="matrix(0.010850694444444444,0,0,0.010850694444444444,38.96484375,0)" xlink:href="#aw"/><use transform="matrix(0.010850694444444444,0,0,0.010850694444444444,52.64756944444444,0)" xlink:href="#ax"/></g><path fill="#fff" d="M973-380H363L226 0H28l556-1456h168L1309 0h-197zM421-538h495l-248-681" id="ay"/><path fill="#fff" d="M1216-1011c-1 297-202 441-512 441H361V0H169v-1456h537c297-6 510 164 510 445zm-192 2c1-178-126-288-307-289H361v571h345c196 1 318-92 318-282" id="az"/><g id="i"><use transform="matrix(0.010850694444444444,0,0,0.010850694444444444,0,0)" xlink:href="#ay"/><use transform="matrix(0.010850694444444444,0,0,0.010850694444444444,14.496527777777777,0)" xlink:href="#az"/><use transform="matrix(0.010850694444444444,0,0,0.010850694444444444,28.515625,0)" xlink:href="#ad"/></g><path fill="#333" d="M589-945c-131 0-219 81-264 174V0H140v-1536h185v585c82-101 189-151 320-151 229 0 346 129 346 387V0H806v-716c-2-153-65-229-217-229" id="aA"/><path fill="#333" d="M520 20C244 20 95-247 95-550c0-298 151-550 427-552 127 0 227 43 301 130v-564h185V0H838l-9-116C755-25 652 20 520 20zm48-965c-210 0-288 177-288 416 0 218 87 392 286 392 117 0 203-53 257-158v-497c-55-102-140-153-255-153" id="aB"/><g id="j"><use transform="matrix(0.009765624999999998,0,0,0.009765624999999998,0,0)" xlink:href="#al"/><use transform="matrix(0.009765624999999998,0,0,0.009765624999999998,11.865234374999998,0)" xlink:href="#ah"/><use transform="matrix(0.009765624999999998,0,0,0.009765624999999998,22.333984374999996,0)" xlink:href="#aA"/><use transform="matrix(0.009765624999999998,0,0,0.009765624999999998,33.34960937499999,0)" xlink:href="#aj"/><use transform="matrix(0.009765624999999998,0,0,0.009765624999999998,43.94531249999999,0)" xlink:href="#aB"/><use transform="matrix(0.009765624999999998,0,0,0.009765624999999998,55.22460937499999,0)" xlink:href="#ap"/><use transform="matrix(0.009765624999999998,0,0,0.009765624999999998,66.24999999999999,0)" xlink:href="#aq"/><use transform="matrix(0.009765624999999998,0,0,0.009765624999999998,71.10351562499999,0)" xlink:href="#aj"/></g><path fill="#333" d="M319-664C304-226 428 158 661 357l-38 113c-89-49-172-133-254-248C142-97 71-578 194-1025c67-244 240-513 429-618l38 122c-201 153-330 502-342 857" id="aC"/><path fill="#333" d="M497-251l268-831h189L566 0H425L33-1082h189" id="aD"/><path fill="#333" d="M38 357C331 141 457-487 337-984c-53-219-157-429-299-546l39-113c190 106 362 378 431 621 75 268 76 597 0 868C440 88 266 365 77 470" id="aE"/><g id="k"><use transform="matrix(0.009765624999999998,0,0,0.009765624999999998,0,0)" xlink:href="#aC"/><use transform="matrix(0.009765624999999998,0,0,0.009765624999999998,6.835937499999999,0)" xlink:href="#an"/><use transform="matrix(0.009765624999999998,0,0,0.009765624999999998,17.871093749999996,0)" xlink:href="#ar"/><use transform="matrix(0.009765624999999998,0,0,0.009765624999999998,28.749999999999996,0)" xlink:href="#am"/><use transform="matrix(0.009765624999999998,0,0,0.009765624999999998,33.60351562499999,0)" xlink:href="#aD"/><use transform="matrix(0.009765624999999998,0,0,0.009765624999999998,43.16406249999999,0)" xlink:href="#aj"/><use transform="matrix(0.009765624999999998,0,0,0.009765624999999998,53.75976562499999,0)" xlink:href="#aE"/></g><path fill="#333" d="M632-1102c291 0 422 251 422 573 0 297-141 548-419 549-131 0-235-42-310-125v521H140v-1498h169l9 120c75-93 180-140 314-140zm-53 971c207 0 290-180 290-419 0-218-92-395-292-395-112 0-196 50-252 149v517c55 99 140 148 254 148" id="aF"/><path fill="#333" d="M314-151h633V0H88v-136l597-793H97v-153h820v131" id="aG"/><g id="l"><use transform="matrix(0.010850694444444444,0,0,0.010850694444444444,0,0)" xlink:href="#al"/><use transform="matrix(0.010850694444444444,0,0,0.010850694444444444,13.18359375,0)" xlink:href="#aF"/><use transform="matrix(0.010850694444444444,0,0,0.010850694444444444,25.651041666666664,0)" xlink:href="#aj"/><use transform="matrix(0.010850694444444444,0,0,0.010850694444444444,37.424045138888886,0)" xlink:href="#ah"/><use transform="matrix(0.010850694444444444,0,0,0.010850694444444444,49.05598958333333,0)" xlink:href="#am"/><use transform="matrix(0.010850694444444444,0,0,0.010850694444444444,54.44878472222221,0)" xlink:href="#ar"/><use transform="matrix(0.010850694444444444,0,0,0.010850694444444444,66.53645833333333,0)" xlink:href="#aq"/><use transform="matrix(0.010850694444444444,0,0,0.010850694444444444,71.92925347222221,0)" xlink:href="#am"/><use transform="matrix(0.010850694444444444,0,0,0.010850694444444444,77.3220486111111,0)" xlink:href="#aG"/><use transform="matrix(0.010850694444444444,0,0,0.010850694444444444,88.1618923611111,0)" xlink:href="#aj"/><use transform="matrix(0.010850694444444444,0,0,0.010850694444444444,99.93489583333331,0)" xlink:href="#aB"/></g><g id="m"><use transform="matrix(0.010850694444444444,0,0,0.010850694444444444,0,0)" xlink:href="#al"/><use transform="matrix(0.010850694444444444,0,0,0.010850694444444444,13.18359375,0)" xlink:href="#ah"/><use transform="matrix(0.010850694444444444,0,0,0.010850694444444444,24.815538194444443,0)" xlink:href="#aA"/><use transform="matrix(0.010850694444444444,0,0,0.010850694444444444,37.05512152777777,0)" xlink:href="#aj"/><use transform="matrix(0.010850694444444444,0,0,0.010850694444444444,48.828124999999986,0)" xlink:href="#aB"/><use transform="matrix(0.010850694444444444,0,0,0.010850694444444444,61.36067708333333,0)" xlink:href="#ap"/><use transform="matrix(0.010850694444444444,0,0,0.010850694444444444,73.6111111111111,0)" xlink:href="#aq"/><use transform="matrix(0.010850694444444444,0,0,0.010850694444444444,79.00390624999999,0)" xlink:href="#aj"/></g><path fill="#333" d="M1288 0h-193v-673H361V0H169v-1456h192v626h734v-626h193V0" id="aH"/><path fill="#333" d="M1175-1298H707V0H516v-1298H49v-158h1126v158" id="aI"/><path fill="#333" d="M1216-1011c-1 297-202 441-512 441H361V0H169v-1456h537c297-6 510 164 510 445zm-192 2c1-178-126-288-307-289H361v571h345c196 1 318-92 318-282" id="aJ"/><g id="n"><use transform="matrix(0.008680555555555554,0,0,0.008680555555555554,0,0)" xlink:href="#aH"/><use transform="matrix(0.008680555555555554,0,0,0.008680555555555554,12.421874999999998,0)" xlink:href="#aI"/><use transform="matrix(0.008680555555555554,0,0,0.008680555555555554,23.168402777777775,0)" xlink:href="#aI"/><use transform="matrix(0.008680555555555554,0,0,0.008680555555555554,33.776041666666664,0)" xlink:href="#aJ"/></g><path fill="#333" d="M483-459l28 192 41-173 288-1016h162l281 1016 40 176 31-196 226-996h193L1420 0h-175L945-1061l-23-111-23 111L588 0H413L61-1456h192" id="aK"/><g id="o"><use transform="matrix(0.008680555555555554,0,0,0.008680555555555554,0,0)" xlink:href="#aK"/><use transform="matrix(0.008680555555555554,0,0,0.008680555555555554,15.772569444444443,0)" xlink:href="#al"/></g><path fill="#333" d="M538-131c121 0 232-49 232-156 0-50-20-88-56-117-73-60-334-92-420-143-92-55-162-110-162-238 0-190 192-317 400-317 223 0 414 129 413 338H759c0-108-110-186-227-186-119 0-215 53-215 159 0 45 18 78 53 101 76 52 331 90 416 139 98 57 169 115 169 251C955-92 760 20 538 20c-176 0-314-68-386-174-38-55-57-115-57-179h185c6 129 116 202 258 202" id="aL"/><g id="p"><use transform="matrix(0.008680555555555554,0,0,0.008680555555555554,0,0)" xlink:href="#aK"/><use transform="matrix(0.008680555555555554,0,0,0.008680555555555554,15.486111111111109,0)" xlink:href="#ar"/><use transform="matrix(0.008680555555555554,0,0,0.008680555555555554,25.156249999999996,0)" xlink:href="#as"/><use transform="matrix(0.008680555555555554,0,0,0.008680555555555554,30.963541666666664,0)" xlink:href="#ah"/><use transform="matrix(0.008680555555555554,0,0,0.008680555555555554,40.269097222222214,0)" xlink:href="#aA"/><use transform="matrix(0.008680555555555554,0,0,0.008680555555555554,50.06076388888888,0)" xlink:href="#aj"/><use transform="matrix(0.008680555555555554,0,0,0.008680555555555554,59.47916666666666,0)" xlink:href="#ak"/><use transform="matrix(0.008680555555555554,0,0,0.008680555555555554,65.49479166666666,0)" xlink:href="#aL"/></g><g id="q"><use transform="matrix(0.010850694444444444,0,0,0.010850694444444444,0,0)" xlink:href="#ax"/><use transform="matrix(0.010850694444444444,0,0,0.010850694444444444,19.401041666666664,0)" xlink:href="#aj"/><use transform="matrix(0.010850694444444444,0,0,0.010850694444444444,31.17404513888889,0)" xlink:href="#aL"/><use transform="matrix(0.010850694444444444,0,0,0.010850694444444444,42.632378472222214,0)" xlink:href="#aL"/><use transform="matrix(0.010850694444444444,0,0,0.010850694444444444,54.09071180555554,0)" xlink:href="#ar"/><use transform="matrix(0.010850694444444444,0,0,0.010850694444444444,66.17838541666666,0)" xlink:href="#ao"/><use transform="matrix(0.010850694444444444,0,0,0.010850694444444444,78.64583333333333,0)" xlink:href="#aj"/><use transform="matrix(0.010850694444444444,0,0,0.010850694444444444,90.41883680555556,0)" xlink:href="#aL"/></g><path fill="#333" d="M1098-255l208-827h185L1176 0h-150L763-820 507 0H357L43-1082h184l213 810 252-810h149" id="aM"/><g id="r"><use transform="matrix(0.008680555555555554,0,0,0.008680555555555554,0,0)" xlink:href="#al"/><use transform="matrix(0.008680555555555554,0,0,0.008680555555555554,10.546874999999998,0)" xlink:href="#aF"/><use transform="matrix(0.008680555555555554,0,0,0.008680555555555554,20.52083333333333,0)" xlink:href="#ar"/><use transform="matrix(0.008680555555555554,0,0,0.008680555555555554,30.190972222222214,0)" xlink:href="#aM"/><use transform="matrix(0.008680555555555554,0,0,0.008680555555555554,43.550347222222214,0)" xlink:href="#an"/></g><path fill="#333" d="M688-137c238 0 323-102 359-325h193c-32 297-228 482-552 482-361 0-569-299-569-680 0-197 8-360 73-497 88-186 257-317 513-319 316-2 509 195 535 488h-193c-31-212-118-330-342-330-272 0-397 224-393 523v141c-3 282 115 517 376 517" id="aN"/><path fill="#333" d="M525-543H37v-151h488v151" id="aO"/><path fill="#333" d="M973-380H363L226 0H28l556-1456h168L1309 0h-197zM421-538h495l-248-681" id="aP"/><g id="s"><use transform="matrix(0.010850694444444444,0,0,0.010850694444444444,0,0)" xlink:href="#aN"/><use transform="matrix(0.010850694444444444,0,0,0.010850694444444444,14.463975694444445,0)" xlink:href="#aO"/><use transform="matrix(0.010850694444444444,0,0,0.010850694444444444,20.594618055555557,0)" xlink:href="#aJ"/><use transform="matrix(0.010850694444444444,0,0,0.010850694444444444,33.11631944444444,0)" xlink:href="#aP"/><use transform="matrix(0.010850694444444444,0,0,0.010850694444444444,47.61284722222222,0)" xlink:href="#aN"/></g><g id="t"><use transform="matrix(0.010850694444444444,0,0,0.010850694444444444,0,0)" xlink:href="#aN"/><use transform="matrix(0.010850694444444444,0,0,0.010850694444444444,14.463975694444445,0)" xlink:href="#ag"/><use transform="matrix(0.010850694444444444,0,0,0.010850694444444444,27.13758680555556,0)" xlink:href="#an"/><use transform="matrix(0.010850694444444444,0,0,0.010850694444444444,39.39887152777778,0)" xlink:href="#as"/><use transform="matrix(0.010850694444444444,0,0,0.010850694444444444,46.65798611111111,0)" xlink:href="#ar"/><use transform="matrix(0.010850694444444444,0,0,0.010850694444444444,58.74565972222223,0)" xlink:href="#am"/><use transform="matrix(0.010850694444444444,0,0,0.010850694444444444,64.13845486111111,0)" xlink:href="#an"/><use transform="matrix(0.010850694444444444,0,0,0.010850694444444444,76.39973958333334,0)" xlink:href="#aj"/><use transform="matrix(0.010850694444444444,0,0,0.010850694444444444,88.17274305555557,0)" xlink:href="#ak"/></g><g id="u"><use transform="matrix(0.010850694444444444,0,0,0.010850694444444444,0,0)" xlink:href="#al"/><use transform="matrix(0.010850694444444444,0,0,0.010850694444444444,13.18359375,0)" xlink:href="#au"/><use transform="matrix(0.010850694444444444,0,0,0.010850694444444444,24.55512152777778,0)" xlink:href="#av"/><use transform="matrix(0.010850694444444444,0,0,0.010850694444444444,38.96484375,0)" xlink:href="#aw"/><use transform="matrix(0.010850694444444444,0,0,0.010850694444444444,52.64756944444444,0)" xlink:href="#ax"/></g><g id="v"><use transform="matrix(0.010850694444444444,0,0,0.010850694444444444,0,0)" xlink:href="#aN"/><use transform="matrix(0.010850694444444444,0,0,0.010850694444444444,14.463975694444445,0)" xlink:href="#aq"/><use transform="matrix(0.010850694444444444,0,0,0.010850694444444444,19.856770833333332,0)" xlink:href="#ap"/><use transform="matrix(0.010850694444444444,0,0,0.010850694444444444,32.10720486111111,0)" xlink:href="#aL"/><use transform="matrix(0.010850694444444444,0,0,0.010850694444444444,43.56553819444444,0)" xlink:href="#as"/><use transform="matrix(0.010850694444444444,0,0,0.010850694444444444,50.82465277777778,0)" xlink:href="#aj"/><use transform="matrix(0.010850694444444444,0,0,0.010850694444444444,62.59765625,0)" xlink:href="#ak"/></g><path fill="#333" d="M30 0v-248h33v221h125V0H30" id="aQ"/><path fill="#333" d="M100-194c62-1 85 37 85 99 1 63-27 99-86 99S16-35 15-95c0-66 28-99 85-99zM99-20c44 1 53-31 53-75 0-43-8-75-51-75s-53 32-53 75 10 74 51 75" id="aR"/><path fill="#333" d="M177-190C167-65 218 103 67 71c-23-6-38-20-44-43l32-5c15 47 100 32 89-28v-30C133-14 115 1 83 1 29 1 15-40 15-95c0-56 16-97 71-98 29-1 48 16 59 35 1-10 0-23 2-32h30zM94-22c36 0 50-32 50-73 0-42-14-75-50-75-39 0-46 34-46 75s6 73 46 73" id="aS"/><path fill="#333" d="M24-231v-30h32v30H24zM24 0v-190h32V0H24" id="aT"/><path fill="#333" d="M117-194c89-4 53 116 60 194h-32v-121c0-31-8-49-39-48C34-167 62-67 57 0H25l-1-190h30c1 10-1 24 2 32 11-22 29-35 61-36" id="aU"/><g id="w"><use transform="matrix(0.06172839506172839,0,0,0.06172839506172839,0,0)" xlink:href="#aQ"/><use transform="matrix(0.06172839506172839,0,0,0.06172839506172839,12.345679012345679,0)" xlink:href="#aR"/><use transform="matrix(0.06172839506172839,0,0,0.06172839506172839,24.691358024691358,0)" xlink:href="#aS"/><use transform="matrix(0.06172839506172839,0,0,0.06172839506172839,37.03703703703704,0)" xlink:href="#aT"/><use transform="matrix(0.06172839506172839,0,0,0.06172839506172839,41.91358024691358,0)" xlink:href="#aU"/></g><path fill="#333" d="M190 0L58-211 59 0H30v-248h39L202-35l-2-213h31V0h-41" id="aV"/><path fill="#333" d="M85-194c31 0 48 13 60 33l-1-100h32l1 261h-30c-2-10 0-23-3-31C134-8 116 4 85 4 32 4 16-35 15-94c0-66 23-100 70-100zm9 24c-40 0-46 34-46 75 0 40 6 74 45 74 42 0 51-32 51-76 0-42-9-74-50-73" id="aW"/><path fill="#333" d="M100-194c63 0 86 42 84 106H49c0 40 14 67 53 68 26 1 43-12 49-29l28 8c-11 28-37 45-77 45C44 4 14-33 15-96c1-61 26-98 85-98zm52 81c6-60-76-77-97-28-3 7-6 17-6 28h103" id="aX"/><g id="x"><use transform="matrix(0.06172839506172839,0,0,0.06172839506172839,0,0)" xlink:href="#aV"/><use transform="matrix(0.06172839506172839,0,0,0.06172839506172839,15.987654320987653,0)" xlink:href="#aR"/><use transform="matrix(0.06172839506172839,0,0,0.06172839506172839,28.333333333333332,0)" xlink:href="#aW"/><use transform="matrix(0.06172839506172839,0,0,0.06172839506172839,40.67901234567901,0)" xlink:href="#aX"/></g><path fill="#333" d="M135-143c-3-34-86-38-87 0 15 53 115 12 119 90S17 21 10-45l28-5c4 36 97 45 98 0-10-56-113-15-118-90-4-57 82-63 122-42 12 7 21 19 24 35" id="aY"/><path fill="#333" d="M115-194c53 0 69 39 70 98 0 66-23 100-70 100C84 3 66-7 56-30L54 0H23l1-261h32v101c10-23 28-34 59-34zm-8 174c40 0 45-34 45-75 0-40-5-75-45-74-42 0-51 32-51 76 0 43 10 73 51 73" id="aZ"/><path fill="#333" d="M141-36C126-15 110 5 73 4 37 3 15-17 15-53c-1-64 63-63 125-63 3-35-9-54-41-54-24 1-41 7-42 31l-33-3c5-37 33-52 76-52 45 0 72 20 72 64v82c-1 20 7 32 28 27v20c-31 9-61-2-59-35zM48-53c0 20 12 33 32 33 41-3 63-29 60-74-43 2-92-5-92 41" id="ba"/><path fill="#333" d="M59-47c-2 24 18 29 38 22v24C64 9 27 4 27-40v-127H5v-23h24l9-43h21v43h35v23H59v120" id="bb"/><path fill="#333" d="M96-169c-40 0-48 33-48 73s9 75 48 75c24 0 41-14 43-38l32 2c-6 37-31 61-74 61-59 0-76-41-82-99-10-93 101-131 147-64 4 7 5 14 7 22l-32 3c-4-21-16-35-41-35" id="bc"/><path fill="#333" d="M106-169C34-169 62-67 57 0H25v-261h32l-1 103c12-21 28-36 61-36 89 0 53 116 60 194h-32v-121c2-32-8-49-39-48" id="bd"/><g id="y"><use transform="matrix(0.055555555555555546,0,0,0.055555555555555546,0,0)" xlink:href="#aY"/><use transform="matrix(0.055555555555555546,0,0,0.055555555555555546,9.999999999999998,0)" xlink:href="#aZ"/><use transform="matrix(0.055555555555555546,0,0,0.055555555555555546,21.111111111111107,0)" xlink:href="#ba"/><use transform="matrix(0.055555555555555546,0,0,0.055555555555555546,32.222222222222214,0)" xlink:href="#bb"/><use transform="matrix(0.055555555555555546,0,0,0.055555555555555546,37.77777777777777,0)" xlink:href="#bc"/><use transform="matrix(0.055555555555555546,0,0,0.055555555555555546,47.77777777777777,0)" xlink:href="#bd"/></g><path fill="#333" d="M24 0v-261h32V0H24" id="be"/><g id="z"><use transform="matrix(0.055555555555555546,0,0,0.055555555555555546,0,0)" xlink:href="#aY"/><use transform="matrix(0.055555555555555546,0,0,0.055555555555555546,9.999999999999998,0)" xlink:href="#bc"/><use transform="matrix(0.055555555555555546,0,0,0.055555555555555546,19.999999999999996,0)" xlink:href="#ba"/><use transform="matrix(0.055555555555555546,0,0,0.055555555555555546,31.111111111111107,0)" xlink:href="#aU"/><use transform="matrix(0.055555555555555546,0,0,0.055555555555555546,42.222222222222214,0)" xlink:href="#bc"/><use transform="matrix(0.055555555555555546,0,0,0.055555555555555546,52.222222222222214,0)" xlink:href="#aX"/><use transform="matrix(0.055555555555555546,0,0,0.055555555555555546,63.33333333333332,0)" xlink:href="#be"/></g><path fill="#333" d="M145-31C134-9 116 4 85 4 32 4 16-35 15-94c0-59 17-99 70-100 32-1 48 14 60 33 0-11-1-24 2-32h30l-1 268h-32zM93-21c41 0 51-33 51-76s-8-73-50-73c-40 0-46 35-46 75s5 74 45 74" id="bf"/><path fill="#333" d="M84 4C-5 8 30-112 23-190h32v120c0 31 7 50 39 49 72-2 45-101 50-169h31l1 190h-30c-1-10 1-25-2-33-11 22-28 36-60 37" id="bg"/><g id="A"><use transform="matrix(0.055555555555555546,0,0,0.055555555555555546,0,0)" xlink:href="#aY"/><use transform="matrix(0.055555555555555546,0,0,0.055555555555555546,9.999999999999998,0)" xlink:href="#bf"/><use transform="matrix(0.055555555555555546,0,0,0.055555555555555546,21.111111111111107,0)" xlink:href="#bg"/><use transform="matrix(0.055555555555555546,0,0,0.055555555555555546,32.222222222222214,0)" xlink:href="#aX"/><use transform="matrix(0.055555555555555546,0,0,0.055555555555555546,43.33333333333332,0)" xlink:href="#bg"/><use transform="matrix(0.055555555555555546,0,0,0.055555555555555546,54.44444444444443,0)" xlink:href="#aX"/></g><g id="B"><use transform="matrix(0.010850694444444444,0,0,0.010850694444444444,0,0)" xlink:href="#L"/><use transform="matrix(0.010850694444444444,0,0,0.010850694444444444,13.18359375,0)" xlink:href="#M"/><use transform="matrix(0.010850694444444444,0,0,0.010850694444444444,24.815538194444443,0)" xlink:href="#N"/><use transform="matrix(0.010850694444444444,0,0,0.010850694444444444,37.05512152777777,0)" xlink:href="#O"/><use transform="matrix(0.010850694444444444,0,0,0.010850694444444444,48.828124999999986,0)" xlink:href="#P"/><use transform="matrix(0.010850694444444444,0,0,0.010850694444444444,61.36067708333333,0)" xlink:href="#Q"/><use transform="matrix(0.010850694444444444,0,0,0.010850694444444444,73.6111111111111,0)" xlink:href="#R"/><use transform="matrix(0.010850694444444444,0,0,0.010850694444444444,79.00390624999999,0)" xlink:href="#O"/><use transform="matrix(0.010850694444444444,0,0,0.010850694444444444,90.7769097222222,0)" xlink:href="#S"/></g><g id="C"><use transform="matrix(0.008680555555555554,0,0,0.008680555555555554,0,0)" xlink:href="#Z"/><use transform="matrix(0.008680555555555554,0,0,0.008680555555555554,11.067708333333332,0)" xlink:href="#aa"/><use transform="matrix(0.008680555555555554,0,0,0.008680555555555554,20.73784722222222,0)" xlink:href="#M"/><use transform="matrix(0.008680555555555554,0,0,0.008680555555555554,30.04340277777777,0)" xlink:href="#ab"/><use transform="matrix(0.008680555555555554,0,0,0.008680555555555554,38.88020833333333,0)" xlink:href="#O"/><use transform="matrix(0.008680555555555554,0,0,0.008680555555555554,48.2986111111111,0)" xlink:href="#Y"/><use transform="matrix(0.008680555555555554,0,0,0.008680555555555554,58.107638888888886,0)" xlink:href="#P"/><use transform="matrix(0.008680555555555554,0,0,0.008680555555555554,68.13368055555554,0)" xlink:href="#ac"/></g><g id="D"><use transform="matrix(0.008680555555555554,0,0,0.008680555555555554,0,0)" xlink:href="#ad"/><use transform="matrix(0.008680555555555554,0,0,0.008680555555555554,4.835069444444444,0)" xlink:href="#Y"/><use transform="matrix(0.008680555555555554,0,0,0.008680555555555554,14.644097222222221,0)" xlink:href="#V"/><use transform="matrix(0.008680555555555554,0,0,0.008680555555555554,20.451388888888886,0)" xlink:href="#O"/><use transform="matrix(0.008680555555555554,0,0,0.008680555555555554,29.869791666666664,0)" xlink:href="#S"/><use transform="matrix(0.008680555555555554,0,0,0.008680555555555554,36.01562499999999,0)" xlink:href="#ae"/><use transform="matrix(0.008680555555555554,0,0,0.008680555555555554,42.18749999999999,0)" xlink:href="#aa"/><use transform="matrix(0.008680555555555554,0,0,0.008680555555555554,51.85763888888888,0)" xlink:href="#M"/><use transform="matrix(0.008680555555555554,0,0,0.008680555555555554,61.16319444444443,0)" xlink:href="#O"/></g><g id="E"><use transform="matrix(0.008680555555555554,0,0,0.008680555555555554,0,0)" xlink:href="#ay"/><use transform="matrix(0.008680555555555554,0,0,0.008680555555555554,11.59722222222222,0)" xlink:href="#az"/><use transform="matrix(0.008680555555555554,0,0,0.008680555555555554,22.812499999999996,0)" xlink:href="#ad"/></g><path fill="#fff" d="M186 0v-106H76V0H24v-248h52v99h110v-99h50V0h-50" id="bh"/><path fill="#fff" d="M136-208V0H84v-208H4v-40h212v40h-80" id="bi"/><path fill="#fff" d="M24-248c93 1 206-16 204 79-1 75-69 88-152 82V0H24v-248zm52 121c47 0 100 7 100-41 0-47-54-39-100-39v80" id="bj"/><path fill="#fff" d="M4 7l51-268h42L46 7H4" id="bk"/><path fill="#fff" d="M275 0h-61l-44-196L126 0H64L0-248h53L97-49l45-199h58l43 199 44-199h52" id="bl"/><path fill="#fff" d="M169-182c-1-43-94-46-97-3 18 66 151 10 154 114 3 95-165 93-204 36-6-8-10-19-12-30l50-8c3 46 112 56 116 5-17-69-150-10-154-114-4-87 153-88 188-35 5 8 8 18 10 28" id="bm"/><g id="F"><use transform="matrix(0.03703703703703702,0,0,0.03703703703703702,0,0)" xlink:href="#bh"/><use transform="matrix(0.03703703703703702,0,0,0.03703703703703702,9.592592592592588,0)" xlink:href="#bi"/><use transform="matrix(0.03703703703703702,0,0,0.03703703703703702,17.703703703703695,0)" xlink:href="#bi"/><use transform="matrix(0.03703703703703702,0,0,0.03703703703703702,25.814814814814802,0)" xlink:href="#bj"/><use transform="matrix(0.03703703703703702,0,0,0.03703703703703702,34.70370370370369,0)" xlink:href="#bk"/><use transform="matrix(0.03703703703703702,0,0,0.03703703703703702,38.40740740740739,0)" xlink:href="#bl"/><use transform="matrix(0.03703703703703702,0,0,0.03703703703703702,50.96296296296294,0)" xlink:href="#bm"/></g><path fill="#fff" d="M67-125c0 53 21 87 73 88 37 1 54-22 65-47l45 17C233-25 199 4 140 4 58 4 20-42 15-125 8-235 124-281 211-232c18 10 29 29 36 50l-46 12c-8-25-30-41-62-41-52 0-71 34-72 86" id="bn"/><path fill="#fff" d="M25 0v-261h50V0H25" id="bo"/><path fill="#fff" d="M25-224v-37h50v37H25zM25 0v-190h50V0H25" id="bp"/><path fill="#fff" d="M185-48c-13 30-37 53-82 52C43 2 14-33 14-96s30-98 90-98c62 0 83 45 84 108H66c0 31 8 55 39 56 18 0 30-7 34-22zm-45-69c5-46-57-63-70-21-2 6-4 13-4 21h74" id="bq"/><path fill="#fff" d="M135-194c87-1 58 113 63 194h-50c-7-57 23-157-34-157-59 0-34 97-39 157H25l-1-190h47c2 12-1 28 3 38 12-26 28-41 61-42" id="br"/><path fill="#fff" d="M115-3C79 11 28 4 28-45v-112H4v-33h27l15-45h31v45h36v33H77v99c-1 23 16 31 38 25v30" id="bs"/><g id="G"><use transform="matrix(0.03703703703703702,0,0,0.03703703703703702,0,0)" xlink:href="#bn"/><use transform="matrix(0.03703703703703702,0,0,0.03703703703703702,9.592592592592588,0)" xlink:href="#bo"/><use transform="matrix(0.03703703703703702,0,0,0.03703703703703702,13.29629629629629,0)" xlink:href="#bp"/><use transform="matrix(0.03703703703703702,0,0,0.03703703703703702,16.999999999999993,0)" xlink:href="#bq"/><use transform="matrix(0.03703703703703702,0,0,0.03703703703703702,24.407407407407398,0)" xlink:href="#br"/><use transform="matrix(0.03703703703703702,0,0,0.03703703703703702,32.518518518518505,0)" xlink:href="#bs"/></g><path fill="#333" d="M24-248c93 1 206-16 204 79-1 75-69 88-152 82V0H24v-248zm52 121c47 0 100 7 100-41 0-47-54-39-100-39v80" id="bt"/><path fill="#333" d="M185-48c-13 30-37 53-82 52C43 2 14-33 14-96s30-98 90-98c62 0 83 45 84 108H66c0 31 8 55 39 56 18 0 30-7 34-22zm-45-69c5-46-57-63-70-21-2 6-4 13-4 21h74" id="bu"/><path fill="#333" d="M135-150c-39-12-60 13-60 57V0H25l-1-190h47c2 13-1 29 3 40 6-28 27-53 61-41v41" id="bv"/><path fill="#333" d="M137-138c1-29-70-34-71-4 15 46 118 7 119 86 1 83-164 76-172 9l43-7c4 19 20 25 44 25 33 8 57-30 24-41C81-84 22-81 20-136c-2-80 154-74 161-7" id="bw"/><path fill="#333" d="M25-224v-37h50v37H25zM25 0v-190h50V0H25" id="bx"/><path fill="#333" d="M115-3C79 11 28 4 28-45v-112H4v-33h27l15-45h31v45h36v33H77v99c-1 23 16 31 38 25v30" id="by"/><path fill="#333" d="M135-194c87-1 58 113 63 194h-50c-7-57 23-157-34-157-59 0-34 97-39 157H25l-1-190h47c2 12-1 28 3 38 12-26 28-41 61-42" id="bz"/><g id="H"><use transform="matrix(0.03703703703703702,0,0,0.03703703703703702,0,0)" xlink:href="#bt"/><use transform="matrix(0.03703703703703702,0,0,0.03703703703703702,8.888888888888886,0)" xlink:href="#bu"/><use transform="matrix(0.03703703703703702,0,0,0.03703703703703702,16.29629629629629,0)" xlink:href="#bv"/><use transform="matrix(0.03703703703703702,0,0,0.03703703703703702,21.481481481481474,0)" xlink:href="#bw"/><use transform="matrix(0.03703703703703702,0,0,0.03703703703703702,28.888888888888882,0)" xlink:href="#bx"/><use transform="matrix(0.03703703703703702,0,0,0.03703703703703702,32.59259259259258,0)" xlink:href="#bw"/><use transform="matrix(0.03703703703703702,0,0,0.03703703703703702,39.999999999999986,0)" xlink:href="#by"/><use transform="matrix(0.03703703703703702,0,0,0.03703703703703702,44.40740740740739,0)" xlink:href="#bu"/><use transform="matrix(0.03703703703703702,0,0,0.03703703703703702,51.814814814814795,0)" xlink:href="#bz"/><use transform="matrix(0.03703703703703702,0,0,0.03703703703703702,59.9259259259259,0)" xlink:href="#by"/></g><path fill="#333" d="M169-182c-1-43-94-46-97-3 18 66 151 10 154 114 3 95-165 93-204 36-6-8-10-19-12-30l50-8c3 46 112 56 116 5-17-69-150-10-154-114-4-87 153-88 188-35 5 8 8 18 10 28" id="bA"/><path fill="#333" d="M186 0v-106H76V0H24v-248h52v99h110v-99h50V0h-50" id="bB"/><g id="I"><use transform="matrix(0.03703703703703702,0,0,0.03703703703703702,0,0)" xlink:href="#bA"/><use transform="matrix(0.03703703703703702,0,0,0.03703703703703702,8.888888888888886,0)" xlink:href="#bA"/><use transform="matrix(0.03703703703703702,0,0,0.03703703703703702,17.77777777777777,0)" xlink:href="#bB"/></g><path fill="#333" d="M136-208V0H84v-208H4v-40h212v40h-80" id="bC"/><path fill="#333" d="M85 4C-2 5 27-109 22-190h50c7 57-23 150 33 157 60-5 35-97 40-157h50l1 190h-47c-2-12 1-28-3-38-12 25-28 42-61 42" id="bD"/><path fill="#333" d="M25 0v-261h50V0H25" id="bE"/><g id="J"><use transform="matrix(0.03703703703703702,0,0,0.03703703703703702,0,0)" xlink:href="#bC"/><use transform="matrix(0.03703703703703702,0,0,0.03703703703703702,7.111111111111107,0)" xlink:href="#bD"/><use transform="matrix(0.03703703703703702,0,0,0.03703703703703702,15.222222222222214,0)" xlink:href="#bz"/><use transform="matrix(0.03703703703703702,0,0,0.03703703703703702,23.333333333333325,0)" xlink:href="#bz"/><use transform="matrix(0.03703703703703702,0,0,0.03703703703703702,31.444444444444425,0)" xlink:href="#bu"/><use transform="matrix(0.03703703703703702,0,0,0.03703703703703702,38.85185185185183,0)" xlink:href="#bE"/></g><g id="K"><use transform="matrix(0.007595486111111109,0,0,0.007595486111111109,0,0)" xlink:href="#al"/><use transform="matrix(0.007595486111111109,0,0,0.007595486111111109,9.228515624999998,0)" xlink:href="#am"/><use transform="matrix(0.007595486111111109,0,0,0.007595486111111109,13.00347222222222,0)" xlink:href="#an"/><use transform="matrix(0.007595486111111109,0,0,0.007595486111111109,21.58637152777777,0)" xlink:href="#ao"/><use transform="matrix(0.007595486111111109,0,0,0.007595486111111109,30.313585069444436,0)" xlink:href="#ap"/><use transform="matrix(0.007595486111111109,0,0,0.007595486111111109,38.88888888888888,0)" xlink:href="#aq"/><use transform="matrix(0.007595486111111109,0,0,0.007595486111111109,42.6638454861111,0)" xlink:href="#ar"/><use transform="matrix(0.007595486111111109,0,0,0.007595486111111109,51.12521701388887,0)" xlink:href="#ak"/><use transform="matrix(0.007595486111111109,0,0,0.007595486111111109,56.38888888888887,0)" xlink:href="#am"/><use transform="matrix(0.007595486111111109,0,0,0.007595486111111109,60.16384548611109,0)" xlink:href="#as"/><use transform="matrix(0.007595486111111109,0,0,0.007595486111111109,65.24522569444443,0)" xlink:href="#at"/></g></defs></g></svg>
