<svg xmlns="http://www.w3.org/2000/svg" xmlns:xlink="http://www.w3.org/1999/xlink" xmlns:lucid="lucid" width="1390" height="1487.4" preserveAspectRatio="xMinYMin meet" viewBox="0 0 1390 1487.4"><g transform="translate(-230 227.4)" lucid:page-tab-id="0_0"><path d="M748-60c17.67 0 32 17.9 32 40s-14.33 40-32 40h-96c-17.67 0-32-17.9-32-40s14.33-40 32-40z" stroke="#000" stroke-width="2" fill="#ffc374"/><use xlink:href="#a" transform="matrix(1,0,0,1,625,-55) translate(6.599999999999994 27.525)"/><use xlink:href="#b" transform="matrix(1,0,0,1,625,-55) translate(94.45 27.525)"/><use xlink:href="#c" transform="matrix(1,0,0,1,625,-55) translate(21.5 49.125)"/><use xlink:href="#d" transform="matrix(1,0,0,1,625,-55) translate(71.65 49.125)"/><path d="M468-40c17.67 0 32 13.43 32 30s-14.33 30-32 30h-96c-17.67 0-32-13.43-32-30s14.33-30 32-30z" stroke="#000" stroke-width="2" fill="#ffc374"/><use xlink:href="#e" transform="matrix(1,0,0,1,345,-35) translate(5.574999999999989 30.025)"/><use xlink:href="#f" transform="matrix(1,0,0,1,345,-35) translate(51.57499999999999 30.025)"/><path d="M460 440h160v80H460z" stroke="#000" stroke-width="2" fill="#c1e4f7"/><use xlink:href="#g" transform="matrix(1,0,0,1,465,445) translate(28.65 16.5875)"/><use xlink:href="#h" transform="matrix(1,0,0,1,465,445) translate(33.599999999999994 38.1875)"/><use xlink:href="#i" transform="matrix(1,0,0,1,465,445) translate(15.149999999999991 59.7875)"/><use xlink:href="#j" transform="matrix(1,0,0,1,465,445) translate(67 59.7875)"/><path d="M460 560h160v80H460z" stroke="#000" stroke-width="2" fill="#c1e4f7"/><use xlink:href="#k" transform="matrix(1,0,0,1,465,565) translate(34.574999999999996 27.525)"/><use xlink:href="#i" transform="matrix(1,0,0,1,465,565) translate(21.14999999999999 49.125)"/><use xlink:href="#l" transform="matrix(1,0,0,1,465,565) translate(73 49.125)"/><path d="M460 680h160v80H460z" stroke="#000" stroke-width="2" fill="#c1e4f7"/><use xlink:href="#m" transform="matrix(1,0,0,1,465,685) translate(13.599999999999994 16.5875)"/><use xlink:href="#n" transform="matrix(1,0,0,1,465,685) translate(86.45 16.5875)"/><use xlink:href="#o" transform="matrix(1,0,0,1,465,685) translate(106.45 16.5875)"/><use xlink:href="#p" transform="matrix(1,0,0,1,465,685) translate(51.575 38.1875)"/><use xlink:href="#q" transform="matrix(1,0,0,1,465,685) translate(25.099999999999994 59.7875)"/><path d="M460 920h160v80H460z" stroke="#000" stroke-width="2" fill="#c1e4f7"/><use xlink:href="#r" transform="matrix(1,0,0,1,465,925) translate(33.574999999999996 27.525)"/><use xlink:href="#s" transform="matrix(1,0,0,1,465,925) translate(41.55 49.125)"/><path d="M750 920h160v80H750z" stroke="#000" stroke-width="2" fill="#c1e4f7"/><use xlink:href="#t" transform="matrix(1,0,0,1,755,925) translate(18.64999999999999 27.525)"/><use xlink:href="#i" transform="matrix(1,0,0,1,755,925) translate(20.125 49.125)"/><use xlink:href="#u" transform="matrix(1,0,0,1,755,925) translate(71.975 49.125)"/><path d="M750 1040h160v80H750z" stroke="#000" stroke-width="2" fill="#c1e4f7"/><use xlink:href="#v" transform="matrix(1,0,0,1,755,1045) translate(28.950000000000003 16.5875)"/><use xlink:href="#w" transform="matrix(1,0,0,1,755,1045) translate(73.15 16.5875)"/><use xlink:href="#x" transform="matrix(1,0,0,1,755,1045) translate(21.624999999999993 38.1875)"/><use xlink:href="#y" transform="matrix(1,0,0,1,755,1045) translate(16.949999999999996 59.7875)"/><use xlink:href="#z" transform="matrix(1,0,0,1,755,1045) translate(60.199999999999996 59.7875)"/><path d="M950 920h160v80H950z" stroke="#000" stroke-width="2" fill="#c1e4f7"/><use xlink:href="#A" transform="matrix(1,0,0,1,955,925) translate(2.5999999999999943 16.5875)"/><use xlink:href="#B" transform="matrix(1,0,0,1,955,925) translate(82.45 16.5875)"/><use xlink:href="#C" transform="matrix(1,0,0,1,955,925) translate(132.4 16.5875)"/><use xlink:href="#D" transform="matrix(1,0,0,1,955,925) translate(31.6 38.1875)"/><use xlink:href="#E" transform="matrix(1,0,0,1,955,925) translate(70.5 38.1875)"/><use xlink:href="#F" transform="matrix(1,0,0,1,955,925) translate(17.125 59.7875)"/><use xlink:href="#G" transform="matrix(1,0,0,1,955,925) translate(68.975 59.7875)"/><path d="M950 1040h160v80H950z" stroke="#000" stroke-width="2" fill="#c1e4f7"/><use xlink:href="#H" transform="matrix(1,0,0,1,955,1045) translate(14.074999999999996 16.5875)"/><use xlink:href="#I" transform="matrix(1,0,0,1,955,1045) translate(72.975 16.5875)"/><use xlink:href="#C" transform="matrix(1,0,0,1,955,1045) translate(120.92500000000001 16.5875)"/><use xlink:href="#J" transform="matrix(1,0,0,1,955,1045) translate(36.55 38.1875)"/><use xlink:href="#y" transform="matrix(1,0,0,1,955,1045) translate(16.949999999999996 59.7875)"/><use xlink:href="#z" transform="matrix(1,0,0,1,955,1045) translate(60.199999999999996 59.7875)"/><path d="M1568 920c17.67 0 32 17.9 32 40s-14.33 40-32 40h-96c-17.67 0-32-17.9-32-40s14.33-40 32-40z" stroke="#000" stroke-width="2" fill="#ffc374"/><use xlink:href="#K" transform="matrix(1,0,0,1,1445,925) translate(8.599999999999994 27.525)"/><use xlink:href="#L" transform="matrix(1,0,0,1,1445,925) translate(58.55 27.525)"/><use xlink:href="#M" transform="matrix(1,0,0,1,1445,925) translate(30.625 49.125)"/><use xlink:href="#N" transform="matrix(1,0,0,1,1445,925) translate(64.525 49.125)"/><path d="M1278 1040c17.67 0 32 17.9 32 40s-14.33 40-32 40h-96c-17.67 0-32-17.9-32-40s14.33-40 32-40z" stroke="#000" stroke-width="2" fill="#ffc374"/><use xlink:href="#a" transform="matrix(1,0,0,1,1155,1045) translate(10.125 27.525)"/><use xlink:href="#O" transform="matrix(1,0,0,1,1155,1045) translate(97.97500000000001 27.525)"/><use xlink:href="#P" transform="matrix(1,0,0,1,1155,1045) translate(53.525 49.125)"/><path d="M878 1160c17.67 0 32 17.9 32 40s-14.33 40-32 40h-96c-17.67 0-32-17.9-32-40s14.33-40 32-40z" stroke="#000" stroke-width="2" fill="#ffc374"/><use xlink:href="#Q" transform="matrix(1,0,0,1,755,1165) translate(19.554999999999993 16.5875)"/><use xlink:href="#R" transform="matrix(1,0,0,1,755,1165) translate(11.474999999999994 38.1875)"/><use xlink:href="#S" transform="matrix(1,0,0,1,755,1165) translate(99.325 38.1875)"/><use xlink:href="#T" transform="matrix(1,0,0,1,755,1165) translate(49.555 59.7875)"/><path d="M700 22v28H540v10.5" stroke="#000" stroke-width="2" fill="none"/><path d="M701 22.03h-2V21h2z"/><path d="M540 75.76l-4.64-14.26h9.28z" stroke="#000" stroke-width="2"/><path d="M540 282v18.5" stroke="#000" stroke-width="2" fill="none"/><path d="M541 282.03h-2V281h2z"/><path d="M540 315.76l-4.64-14.26h9.28z" stroke="#000" stroke-width="2"/><path d="M540 402v18.5" stroke="#000" stroke-width="2" fill="none"/><path d="M541 402.03h-2V401h2z"/><path d="M540 435.76l-4.64-14.26h9.28z" stroke="#000" stroke-width="2"/><path d="M540 522v18.5" stroke="#000" stroke-width="2" fill="none"/><path d="M541 522.03h-2V521h2z"/><path d="M540 555.76l-4.64-14.26h9.28z" stroke="#000" stroke-width="2"/><path d="M540 642v18.5" stroke="#000" stroke-width="2" fill="none"/><path d="M541 642.03h-2V641h2z"/><path d="M540 675.76l-4.64-14.26h9.28z" stroke="#000" stroke-width="2"/><path d="M622 960h108.5" stroke="#000" stroke-width="2" fill="none"/><path d="M622.03 961H621v-2h1.03z"/><path d="M745.76 960l-14.26 4.64v-9.28z" stroke="#000" stroke-width="2"/><path d="M912 960h18.5" stroke="#000" stroke-width="2" fill="none"/><path d="M912.03 961H911v-2h1.03z"/><path d="M945.76 960l-14.26 4.64v-9.28z" stroke="#000" stroke-width="2"/><path d="M830 1002v18.5" stroke="#000" stroke-width="2" fill="none"/><path d="M831 1002.03h-2V1001h2z"/><path d="M830 1035.76l-4.64-14.26h9.28z" stroke="#000" stroke-width="2"/><path d="M830 1122v18.5" stroke="#000" stroke-width="2" fill="none"/><path d="M831 1122.03h-2V1121h2z"/><path d="M830 1155.76l-4.64-14.26h9.28z" stroke="#000" stroke-width="2"/><path d="M912 1080h18.5" stroke="#000" stroke-width="2" fill="none"/><path d="M912.03 1081H911v-2h1.03z"/><path d="M945.76 1080l-14.26 4.64v-9.28z" stroke="#000" stroke-width="2"/><path d="M1112 1080h18.5" stroke="#000" stroke-width="2" fill="none"/><path d="M1112.03 1081H1111v-2h1.03z"/><path d="M1145.76 1080l-14.26 4.64v-9.28z" stroke="#000" stroke-width="2"/><path d="M460 200h160v80H460z" stroke="#000" stroke-width="2" fill="#c1e4f7"/><use xlink:href="#U" transform="matrix(1,0,0,1,465,205) translate(3.625 27.525)"/><use xlink:href="#V" transform="matrix(1,0,0,1,465,205) translate(62.525000000000006 27.525)"/><use xlink:href="#W" transform="matrix(1,0,0,1,465,205) translate(35.599999999999994 49.125)"/><path d="M460 320h160v80H460z" stroke="#000" stroke-width="2" fill="#c1e4f7"/><use xlink:href="#X" transform="matrix(1,0,0,1,465,325) translate(42.55 16.5875)"/><use xlink:href="#i" transform="matrix(1,0,0,1,465,325) translate(8.625 38.1875)"/><use xlink:href="#Y" transform="matrix(1,0,0,1,465,325) translate(60.475 38.1875)"/><use xlink:href="#Z" transform="matrix(1,0,0,1,465,325) translate(38.574999999999996 59.7875)"/><path d="M460 80h160v80H460z" stroke="#000" stroke-width="2" fill="#c1e4f7"/><use xlink:href="#aa" transform="matrix(1,0,0,1,465,85) translate(45.55 16.5875)"/><use xlink:href="#i" transform="matrix(1,0,0,1,465,85) translate(21.625 38.1875)"/><use xlink:href="#ab" transform="matrix(1,0,0,1,465,85) translate(73.475 38.1875)"/><use xlink:href="#Z" transform="matrix(1,0,0,1,465,85) translate(38.574999999999996 59.7875)"/><path d="M540 162v18.5" stroke="#000" stroke-width="2" fill="none"/><path d="M541 162.03h-2V161h2z"/><path d="M540 195.76l-4.64-14.26h9.28z" stroke="#000" stroke-width="2"/><path d="M420 22v458h20.5" stroke="#000" stroke-width="2" fill="none"/><path d="M421 22.03h-2V21h2z"/><path d="M455.76 480l-14.26 4.64v-9.28z" stroke="#000" stroke-width="2"/><path d="M720 80h280v80H720z" stroke="#000" stroke-width="2" fill="#c1e4f7"/><use xlink:href="#ac" transform="matrix(1,0,0,1,725,85.00000000000003) translate(53.19999999999999 27.7125)"/><use xlink:href="#ad" transform="matrix(1,0,0,1,725,85.00000000000003) translate(134 27.7125)"/><use xlink:href="#ae" transform="matrix(1,0,0,1,725,85.00000000000003) translate(24.94999999999999 49.3125)"/><use xlink:href="#af" transform="matrix(1,0,0,1,725,85.00000000000003) translate(86.89999999999999 49.3125)"/><use xlink:href="#ag" transform="matrix(1,0,0,1,725,85.00000000000003) translate(118.44999999999999 49.3125)"/><use xlink:href="#ah" transform="matrix(1,0,0,1,725,85.00000000000003) translate(128.45 49.3125)"/><path d="M700 22v28h160v10.5" stroke="#000" stroke-width="2" fill="none"/><path d="M701 22.03h-2V21h2z"/><path d="M860 75.76l-4.64-14.26h9.28z" stroke="#000" stroke-width="2"/><path d="M1132-40c15.46 0 28 13.43 28 30s-12.54 30-28 30h-84c-15.46 0-28-13.43-28-30s12.54-30 28-30z" stroke="#000" stroke-width="2" fill="#ffc374"/><use xlink:href="#ai" transform="matrix(1,0,0,1,1025,-35) translate(21.104999999999997 17.525)"/><use xlink:href="#aj" transform="matrix(1,0,0,1,1025,-35) translate(64.955 17.525)"/><use xlink:href="#ak" transform="matrix(1,0,0,1,1025,-35) translate(17.629999999999995 39.125)"/><use xlink:href="#al" transform="matrix(1,0,0,1,1025,-35) translate(37.529999999999994 39.125)"/><path d="M692 440h96l32 40-32 40h-96l-32-40z" stroke="#000" stroke-width="2" fill="#ffeca9"/><use xlink:href="#am" transform="matrix(1,0,0,1,665,445) translate(25.07999999999999 27.7125)"/><use xlink:href="#an" transform="matrix(1,0,0,1,665,445) translate(95.93 27.7125)"/><use xlink:href="#ao" transform="matrix(1,0,0,1,665,445) translate(27.555 49.3125)"/><use xlink:href="#ap" transform="matrix(1,0,0,1,665,445) translate(52.555 49.3125)"/><path d="M1090 22v98h-70.5" stroke="#000" stroke-width="2" fill="none"/><path d="M1091 22.03h-2V21h2z"/><path d="M1004.24 120l14.26-4.64v9.28z" stroke="#000" stroke-width="2"/><path d="M460 800h160v80H460z" stroke="#000" stroke-width="2" fill="#c1e4f7"/><use xlink:href="#U" transform="matrix(1,0,0,1,465,805) translate(4.1499999999999915 27.525)"/><use xlink:href="#aq" transform="matrix(1,0,0,1,465,805) translate(63.05 27.525)"/><use xlink:href="#i" transform="matrix(1,0,0,1,465,805) translate(11.649999999999991 49.125)"/><use xlink:href="#ar" transform="matrix(1,0,0,1,465,805) translate(63.49999999999999 49.125)"/><path d="M540 762v18.5" stroke="#000" stroke-width="2" fill="none"/><path d="M541 762.03h-2V761h2z"/><path d="M540 795.76l-4.64-14.26h9.28z" stroke="#000" stroke-width="2"/><path d="M540 882v18.5" stroke="#000" stroke-width="2" fill="none"/><path d="M541 882.03h-2V881h2z"/><path d="M540 915.76l-4.64-14.26h9.28z" stroke="#000" stroke-width="2"/><path d="M660 800h160v80H660z" stroke="#000" stroke-width="2" fill="#c1e4f7"/><use xlink:href="#U" transform="matrix(1,0,0,1,665,805) translate(3.625 27.525)"/><use xlink:href="#V" transform="matrix(1,0,0,1,665,805) translate(62.525000000000006 27.525)"/><use xlink:href="#W" transform="matrix(1,0,0,1,665,805) translate(35.599999999999994 49.125)"/><path d="M622 840h18.5" stroke="#000" stroke-width="2" fill="none"/><path d="M622.03 841H621v-2h1.03z"/><path d="M655.76 840l-14.26 4.64v-9.28z" stroke="#000" stroke-width="2"/><path d="M740 522v258.5" stroke="#000" stroke-width="2" fill="none"/><path d="M741 522.03h-2V521h2z"/><path d="M740 795.76l-4.64-14.26h9.28z" stroke="#000" stroke-width="2"/><path d="M600-207.4h200v74.8H600z" stroke="#000" stroke-width="2" fill="#ffdba9"/><path d="M620-207.4v74.8m160-74.8v74.8" stroke="#000" stroke-width="2" fill="none"/><use xlink:href="#as" transform="matrix(1,0,0,1,630,-202.4) translate(2.049999999999997 25.299999999999997)"/><use xlink:href="#at" transform="matrix(1,0,0,1,630,-202.4) translate(47.05 25.299999999999997)"/><use xlink:href="#ag" transform="matrix(1,0,0,1,630,-202.4) translate(90 25.299999999999997)"/><use xlink:href="#au" transform="matrix(1,0,0,1,630,-202.4) translate(100 25.299999999999997)"/><use xlink:href="#av" transform="matrix(1,0,0,1,630,-202.4) translate(16.599999999999994 46.9)"/><path d="M700-130.6v51.1" stroke="#000" stroke-width="2" fill="none"/><path d="M701-130.57h-2v-1.03h2z"/><path d="M700-64.24l-4.64-14.26h9.28z" stroke="#000" stroke-width="2"/><path d="M700-130.6v44.3H420v26.8" stroke="#000" stroke-width="2" fill="none"/><path d="M701-130.57h-2v-1.03h2z"/><path d="M420-44.24l-4.64-14.26h9.28z" stroke="#000" stroke-width="2"/><path d="M700-130.6v44.3h390v26.8" stroke="#000" stroke-width="2" fill="none"/><path d="M701-130.57h-2v-1.03h2z"/><path d="M1090-44.24l-4.64-14.26h9.28z" stroke="#000" stroke-width="2"/><path d="M740 438V262.57H639.5" stroke="#000" stroke-width="2" fill="none"/><path d="M741 439h-2v-1.03h2z"/><path d="M624.24 262.57l14.26-4.64v9.27z" stroke="#000" stroke-width="2"/><path d="M1008 200c17.67 0 32 13.43 32 30s-14.33 30-32 30h-96c-17.67 0-32-13.43-32-30s14.33-30 32-30z" stroke="#000" stroke-width="2" fill="#ffc374"/><g><use xlink:href="#U" transform="matrix(1,0,0,1,885,205) translate(6.099999999999994 30.025)"/><use xlink:href="#aw" transform="matrix(1,0,0,1,885,205) translate(65 30.025)"/></g><path d="M622 230.9h238.55" stroke="#000" stroke-width="2" fill="none"/><path d="M622.03 231.9H621v-2h1.03z"/><path d="M875.82 230.9l-14.27 4.64v-9.27z" stroke="#000" stroke-width="2"/><path d="M1008 810c17.67 0 32 13.43 32 30s-14.33 30-32 30h-96c-17.67 0-32-13.43-32-30s14.33-30 32-30z" stroke="#000" stroke-width="2" fill="#ffc374"/><g><use xlink:href="#U" transform="matrix(1,0,0,1,885,815) translate(6.099999999999994 30.025)"/><use xlink:href="#aw" transform="matrix(1,0,0,1,885,815) translate(65 30.025)"/></g><path d="M822 840h38.5" stroke="#000" stroke-width="2" fill="none"/><path d="M822.03 841H821v-2h1.03z"/><path d="M875.76 840l-14.26 4.64v-9.28z" stroke="#000" stroke-width="2"/><path d="M1219 810h72l24 30-24 30h-72l-24-30z" stroke="#000" stroke-width="2" fill="#ffeca9"/><g><use xlink:href="#ax" transform="matrix(1,0,0,1,1200,815) translate(24.549999999999997 17.799999999999997)"/><use xlink:href="#ay" transform="matrix(1,0,0,1,1200,815) translate(62.5 17.799999999999997)"/><use xlink:href="#az" transform="matrix(1,0,0,1,1200,815) translate(8.599999999999994 39.4)"/></g><path d="M1255 872v28.5" stroke="#000" stroke-width="2" fill="none"/><path d="M1256 872.03h-2V871h2z"/><path d="M1255 915.76l-4.64-14.26h9.28z" stroke="#000" stroke-width="2"/><path d="M288 930h84l28 30-28 30h-84l-28-30z" stroke="#000" stroke-width="2" fill="#ffeca9"/><g><use xlink:href="#aA" transform="matrix(1,0,0,1,265,935) translate(31.554999999999996 17.525)"/><use xlink:href="#aB" transform="matrix(1,0,0,1,265,935) translate(30.029999999999998 39.125)"/></g><path d="M402.37 960h38.13" stroke="#000" stroke-width="2" fill="none"/><path d="M402.4 961h-1.97l.94-1-.94-1h1.96z"/><path d="M455.76 960l-14.26 4.64v-9.28z" stroke="#000" stroke-width="2"/><path d="M250 820h160v60H250z" stroke="#000" stroke-width="2" fill="#ffdba9"/><path d="M266 820v60m128-60v60" stroke="#000" stroke-width="2" fill="none"/><g><use xlink:href="#aC" transform="matrix(1,0,0,1,275,825) translate(23.074999999999996 17.799999999999997)"/><use xlink:href="#av" transform="matrix(1,0,0,1,275,825) translate(1.5999999999999943 39.4)"/></g><path d="M330 882v28.5" stroke="#000" stroke-width="2" fill="none"/><path d="M331 882.03h-2V881h2z"/><path d="M330 925.76l-4.64-14.26h9.28z" stroke="#000" stroke-width="2"/><path d="M1175 700h160v60h-160z" stroke="#000" stroke-width="2" fill="#ffdba9"/><path d="M1191 700v60m128-60v60" stroke="#000" stroke-width="2" fill="none"/><g><use xlink:href="#aC" transform="matrix(1,0,0,1,1200,705) translate(23.074999999999996 17.799999999999997)"/><use xlink:href="#av" transform="matrix(1,0,0,1,1200,705) translate(1.5999999999999943 39.4)"/></g><path d="M1255 762v28.5" stroke="#000" stroke-width="2" fill="none"/><path d="M1256 762.03h-2V761h2z"/><path d="M1255 805.76l-4.64-14.26h9.28z" stroke="#000" stroke-width="2"/><path d="M880 440h160v80H880z" stroke="#000" stroke-width="2" fill="#ffdba9"/><path d="M896 440v80m128-80v80" stroke="#000" stroke-width="2" fill="none"/><g><use xlink:href="#aD" transform="matrix(1,0,0,1,905,445) translate(17.549999999999997 28.299999999999997)"/><use xlink:href="#aE" transform="matrix(1,0,0,1,905,445) translate(9.574999999999996 49.9)"/></g><path d="M960 262v158.5" stroke="#000" stroke-width="2" fill="none"/><path d="M961 262.03h-2V261h2z"/><path d="M960 435.76l-4.64-14.26h9.28z" stroke="#000" stroke-width="2"/><path d="M960 808V539.5" stroke="#000" stroke-width="2" fill="none"/><path d="M961 809h-2v-1.03h2z"/><path d="M960 524.24l4.64 14.26h-9.28z" stroke="#000" stroke-width="2"/><path d="M1112 944.1h18.5" stroke="#000" stroke-width="2" fill="none"/><path d="M1112.03 945.1H1111v-2h1.03z"/><path d="M1145.76 944.1l-14.26 4.63v-9.27z" stroke="#000" stroke-width="2"/><path d="M1362 944.1h61.16" stroke="#000" stroke-width="2" fill="none"/><path d="M1362.03 945.1H1361v-2h1.03z"/><path d="M1438.42 944.1l-14.26 4.63v-9.27z" stroke="#000" stroke-width="2"/><path d="M1112 975.77h311.03" stroke="#000" stroke-width="2" fill="none"/><path d="M1112.03 976.77H1111v-2h1.03z"/><path d="M1438.3 975.77l-14.27 4.63v-9.27z" stroke="#000" stroke-width="2"/><path d="M1150 920h210v80h-210z" stroke="#000" stroke-width="2" fill="#c1e4f7"/><g><use xlink:href="#aF" transform="matrix(1,0,0,1,1155,925) translate(17.69999999999999 27.525)"/><use xlink:href="#aG" transform="matrix(1,0,0,1,1155,925) translate(45.64999999999999 27.525)"/><use xlink:href="#aH" transform="matrix(1,0,0,1,1155,925) translate(133.45 27.525)"/><use xlink:href="#aI" transform="matrix(1,0,0,1,1155,925) translate(7.25 49.125)"/></g><path d="M300 330h60l20 30-20 30h-60l-20-30z" stroke="#000" stroke-width="2" fill="#ffeca9"/><g><use xlink:href="#aJ" transform="matrix(1,0,0,1,285,335) translate(13.680000000000001 30.025)"/></g><path d="M330 818V409.5" stroke="#000" stroke-width="2" fill="none"/><path d="M331 819h-2v-1.03h2z"/><path d="M330 394.24l4.64 14.26h-9.28z" stroke="#000" stroke-width="2"/><path d="M382.2 360h58.3" stroke="#ef8d22" stroke-width="2" fill="none"/><path d="M382.23 361h-1.7l.67-1-.66-1h1.7z" fill="#ef8d22"/><path d="M455.76 360l-14.26 4.64v-9.28z" stroke="#ef8d22" stroke-width="2" fill="#ef8d22"/><path d="M330 328V120h110.5" stroke="#ef8d22" stroke-width="2" fill="none"/><path d="M331 329h-2v-1.03h2z" fill="#ef8d22"/><path d="M455.76 120l-14.26 4.64v-9.28z" stroke="#ef8d22" stroke-width="2" fill="#ef8d22"/><path d="M1173 730H775.44V539.5" stroke="#ef8d22" stroke-width="2" fill="none"/><path d="M1174 731h-1.03v-2h1.03z" fill="#ef8d22"/><path d="M775.44 524.24l4.63 14.26h-9.27z" stroke="#ef8d22" stroke-width="2" fill="#ef8d22"/><defs><path d="M63-220v92h138v28H63V0H30v-248h175v28H63" id="aK"/><path d="M84 4C-5 8 30-112 23-190h32v120c0 31 7 50 39 49 72-2 45-101 50-169h31l1 190h-30c-1-10 1-25-2-33-11 22-28 36-60 37" id="aL"/><path d="M117-194c89-4 53 116 60 194h-32v-121c0-31-8-49-39-48C34-167 62-67 57 0H25l-1-190h30c1 10-1 24 2 32 11-22 29-35 61-36" id="aM"/><path d="M96-169c-40 0-48 33-48 73s9 75 48 75c24 0 41-14 43-38l32 2c-6 37-31 61-74 61-59 0-76-41-82-99-10-93 101-131 147-64 4 7 5 14 7 22l-32 3c-4-21-16-35-41-35" id="aN"/><path d="M59-47c-2 24 18 29 38 22v24C64 9 27 4 27-40v-127H5v-23h24l9-43h21v43h35v23H59v120" id="aO"/><path d="M24-231v-30h32v30H24zM24 0v-190h32V0H24" id="aP"/><path d="M100-194c62-1 85 37 85 99 1 63-27 99-86 99S16-35 15-95c0-66 28-99 85-99zM99-20c44 1 53-31 53-75 0-43-8-75-51-75s-53 32-53 75 10 74 51 75" id="aQ"/><path d="M141-36C126-15 110 5 73 4 37 3 15-17 15-53c-1-64 63-63 125-63 3-35-9-54-41-54-24 1-41 7-42 31l-33-3c5-37 33-52 76-52 45 0 72 20 72 64v82c-1 20 7 32 28 27v20c-31 9-61-2-59-35zM48-53c0 20 12 33 32 33 41-3 63-29 60-74-43 2-92-5-92 41" id="aR"/><path d="M24 0v-261h32V0H24" id="aS"/><g id="a"><use transform="matrix(0.05,0,0,0.05,0,0)" xlink:href="#aK"/><use transform="matrix(0.05,0,0,0.05,10.950000000000001,0)" xlink:href="#aL"/><use transform="matrix(0.05,0,0,0.05,20.950000000000003,0)" xlink:href="#aM"/><use transform="matrix(0.05,0,0,0.05,30.950000000000003,0)" xlink:href="#aN"/><use transform="matrix(0.05,0,0,0.05,39.95,0)" xlink:href="#aO"/><use transform="matrix(0.05,0,0,0.05,44.95,0)" xlink:href="#aP"/><use transform="matrix(0.05,0,0,0.05,48.900000000000006,0)" xlink:href="#aQ"/><use transform="matrix(0.05,0,0,0.05,58.900000000000006,0)" xlink:href="#aM"/><use transform="matrix(0.05,0,0,0.05,68.9,0)" xlink:href="#aR"/><use transform="matrix(0.05,0,0,0.05,78.9,0)" xlink:href="#aS"/></g><path d="M160-131c35 5 61 23 61 61C221 17 115-2 30 0v-248c76 3 177-17 177 60 0 33-19 50-47 57zm-97-11c50-1 110 9 110-42 0-47-63-36-110-37v79zm0 115c55-2 124 14 124-45 0-56-70-42-124-44v89" id="aT"/><path d="M140-251c81 0 123 46 123 126C263-46 219 4 140 4 59 4 17-45 17-125s42-126 123-126zm0 227c63 0 89-41 89-101s-29-99-89-99c-61 0-89 39-89 99S79-25 140-24" id="aU"/><path d="M30 0v-248h33v221h125V0H30" id="aV"/><path d="M30-248c118-7 216 8 213 122C240-48 200 0 122 0H30v-248zM63-27c89 8 146-16 146-99s-60-101-146-95v194" id="aW"/><g id="b"><use transform="matrix(0.05,0,0,0.05,0,0)" xlink:href="#aT"/><use transform="matrix(0.05,0,0,0.05,12,0)" xlink:href="#aU"/><use transform="matrix(0.05,0,0,0.05,26,0)" xlink:href="#aV"/><use transform="matrix(0.05,0,0,0.05,36,0)" xlink:href="#aW"/></g><path d="M87 75C49 33 22-17 22-94c0-76 28-126 65-167h31c-38 41-64 92-64 168S80 34 118 75H87" id="aX"/><path d="M127-220V0H93v-220H8v-28h204v28h-85" id="aY"/><path d="M210-169c-67 3-38 105-44 169h-31v-121c0-29-5-50-35-48C34-165 62-65 56 0H25l-1-190h30c1 10-1 24 2 32 10-44 99-50 107 0 11-21 27-35 58-36 85-2 47 119 55 194h-31v-121c0-29-5-49-35-48" id="aZ"/><path d="M100-194c63 0 86 42 84 106H49c0 40 14 67 53 68 26 1 43-12 49-29l28 8c-11 28-37 45-77 45C44 4 14-33 15-96c1-61 26-98 85-98zm52 81c6-60-76-77-97-28-3 7-6 17-6 28h103" id="ba"/><g id="c"><use transform="matrix(0.05,0,0,0.05,0,0)" xlink:href="#aX"/><use transform="matrix(0.05,0,0,0.05,5.95,0)" xlink:href="#aY"/><use transform="matrix(0.05,0,0,0.05,16.25,0)" xlink:href="#aP"/><use transform="matrix(0.05,0,0,0.05,20.2,0)" xlink:href="#aZ"/><use transform="matrix(0.05,0,0,0.05,35.15,0)" xlink:href="#ba"/></g><path d="M185-189c-5-48-123-54-124 2 14 75 158 14 163 119 3 78-121 87-175 55-17-10-28-26-33-46l33-7c5 56 141 63 141-1 0-78-155-14-162-118-5-82 145-84 179-34 5 7 8 16 11 25" id="bb"/><path d="M114-163C36-179 61-72 57 0H25l-1-190h30c1 12-1 29 2 39 6-27 23-49 58-41v29" id="bc"/><path d="M135-143c-3-34-86-38-87 0 15 53 115 12 119 90S17 21 10-45l28-5c4 36 97 45 98 0-10-56-113-15-118-90-4-57 82-63 122-42 12 7 21 19 24 35" id="bd"/><path d="M33-261c38 41 65 92 65 168S71 34 33 75H2C39 34 66-17 66-93S39-220 2-261h31" id="be"/><g id="d"><use transform="matrix(0.05,0,0,0.05,0,0)" xlink:href="#bb"/><use transform="matrix(0.05,0,0,0.05,12,0)" xlink:href="#ba"/><use transform="matrix(0.05,0,0,0.05,22,0)" xlink:href="#bc"/><use transform="matrix(0.05,0,0,0.05,27.950000000000003,0)" xlink:href="#aP"/><use transform="matrix(0.05,0,0,0.05,31.899999999999995,0)" xlink:href="#ba"/><use transform="matrix(0.05,0,0,0.05,41.9,0)" xlink:href="#bd"/><use transform="matrix(0.05,0,0,0.05,50.9,0)" xlink:href="#be"/></g><g id="e"><use transform="matrix(0.05,0,0,0.05,0,0)" xlink:href="#bb"/><use transform="matrix(0.05,0,0,0.05,12,0)" xlink:href="#aN"/><use transform="matrix(0.05,0,0,0.05,21,0)" xlink:href="#aR"/><use transform="matrix(0.05,0,0,0.05,31,0)" xlink:href="#aM"/></g><path d="M30-248c87 1 191-15 191 75 0 78-77 80-158 76V0H30v-248zm33 125c57 0 124 11 124-50 0-59-68-47-124-48v98" id="bf"/><g id="f"><use transform="matrix(0.05,0,0,0.05,0,0)" xlink:href="#bf"/><use transform="matrix(0.05,0,0,0.05,12,0)" xlink:href="#aR"/><use transform="matrix(0.05,0,0,0.05,22,0)" xlink:href="#bc"/><use transform="matrix(0.05,0,0,0.05,27.950000000000003,0)" xlink:href="#aR"/><use transform="matrix(0.05,0,0,0.05,37.95,0)" xlink:href="#aZ"/><use transform="matrix(0.05,0,0,0.05,52.900000000000006,0)" xlink:href="#ba"/><use transform="matrix(0.05,0,0,0.05,62.900000000000006,0)" xlink:href="#aO"/><use transform="matrix(0.05,0,0,0.05,67.9,0)" xlink:href="#ba"/><use transform="matrix(0.05,0,0,0.05,77.9,0)" xlink:href="#bc"/><use transform="matrix(0.05,0,0,0.05,83.85000000000001,0)" xlink:href="#bd"/></g><path d="M16-82v-28h88v28H16" id="bg"/><path d="M177-190C167-65 218 103 67 71c-23-6-38-20-44-43l32-5c15 47 100 32 89-28v-30C133-14 115 1 83 1 29 1 15-40 15-95c0-56 16-97 71-98 29-1 48 16 59 35 1-10 0-23 2-32h30zM94-22c36 0 50-32 50-73 0-42-14-75-50-75-39 0-46 34-46 75s6 73 46 73" id="bh"/><g id="g"><use transform="matrix(0.05,0,0,0.05,0,0)" xlink:href="#bb"/><use transform="matrix(0.05,0,0,0.05,12,0)" xlink:href="#aS"/><use transform="matrix(0.05,0,0,0.05,15.949999999999998,0)" xlink:href="#aP"/><use transform="matrix(0.05,0,0,0.05,19.9,0)" xlink:href="#aN"/><use transform="matrix(0.05,0,0,0.05,28.899999999999995,0)" xlink:href="#ba"/><use transform="matrix(0.05,0,0,0.05,38.9,0)" xlink:href="#bg"/><use transform="matrix(0.05,0,0,0.05,44.85,0)" xlink:href="#aO"/><use transform="matrix(0.05,0,0,0.05,49.85,0)" xlink:href="#aP"/><use transform="matrix(0.05,0,0,0.05,53.800000000000004,0)" xlink:href="#aZ"/><use transform="matrix(0.05,0,0,0.05,68.75,0)" xlink:href="#aP"/><use transform="matrix(0.05,0,0,0.05,72.7,0)" xlink:href="#aM"/><use transform="matrix(0.05,0,0,0.05,82.7,0)" xlink:href="#bh"/></g><path d="M212-179c-10-28-35-45-73-45-59 0-87 40-87 99 0 60 29 101 89 101 43 0 62-24 78-52l27 14C228-24 195 4 139 4 59 4 22-46 18-125c-6-104 99-153 187-111 19 9 31 26 39 46" id="bi"/><g id="h"><use transform="matrix(0.05,0,0,0.05,0,0)" xlink:href="#bi"/><use transform="matrix(0.05,0,0,0.05,12.950000000000001,0)" xlink:href="#aQ"/><use transform="matrix(0.05,0,0,0.05,22.950000000000003,0)" xlink:href="#bc"/><use transform="matrix(0.05,0,0,0.05,28.900000000000002,0)" xlink:href="#bc"/><use transform="matrix(0.05,0,0,0.05,34.85,0)" xlink:href="#ba"/><use transform="matrix(0.05,0,0,0.05,44.85,0)" xlink:href="#aN"/><use transform="matrix(0.05,0,0,0.05,53.85,0)" xlink:href="#aO"/><use transform="matrix(0.05,0,0,0.05,58.85,0)" xlink:href="#aP"/><use transform="matrix(0.05,0,0,0.05,62.800000000000004,0)" xlink:href="#aQ"/><use transform="matrix(0.05,0,0,0.05,72.80000000000001,0)" xlink:href="#aM"/></g><path d="M205 0l-28-72H64L36 0H1l101-248h38L239 0h-34zm-38-99l-47-123c-12 45-31 82-46 123h93" id="bj"/><path d="M190 0L58-211 59 0H30v-248h39L202-35l-2-213h31V0h-41" id="bk"/><path d="M33 0v-248h34V0H33" id="bl"/><g id="i"><use transform="matrix(0.05,0,0,0.05,0,0)" xlink:href="#aX"/><use transform="matrix(0.05,0,0,0.05,5.95,0)" xlink:href="#bj"/><use transform="matrix(0.05,0,0,0.05,17.95,0)" xlink:href="#aK"/><use transform="matrix(0.05,0,0,0.05,28.899999999999995,0)" xlink:href="#bk"/><use transform="matrix(0.05,0,0,0.05,41.85,0)" xlink:href="#bl"/></g><path d="M126-127c33 6 58 20 58 59 0 88-139 92-164 29-3-8-5-16-6-25l32-3c6 27 21 44 54 44 32 0 52-15 52-46 0-38-36-46-79-43v-28c39 1 72-4 72-42 0-27-17-43-46-43-28 0-47 15-49 41l-32-3c6-42 35-63 81-64 48-1 79 21 79 65 0 36-21 52-52 59" id="bm"/><path d="M85-194c31 0 48 13 60 33l-1-100h32l1 261h-30c-2-10 0-23-3-31C134-8 116 4 85 4 32 4 16-35 15-94c0-66 23-100 70-100zm9 24c-40 0-46 34-46 75 0 40 6 74 45 74 42 0 51-32 51-76 0-42-9-74-50-73" id="bn"/><path d="M106-169C34-169 62-67 57 0H25v-261h32l-1 103c12-21 28-36 61-36 89 0 53 116 60 194h-32v-121c2-32-8-49-39-48" id="bo"/><path d="M101-234c-31-9-42 10-38 44h38v23H63V0H32v-167H5v-23h27c-7-52 17-82 69-68v24" id="bp"/><g id="j"><use transform="matrix(0.05,0,0,0.05,0,0)" xlink:href="#bm"/><use transform="matrix(0.05,0,0,0.05,10,0)" xlink:href="#bn"/><use transform="matrix(0.05,0,0,0.05,20,0)" xlink:href="#aY"/><use transform="matrix(0.05,0,0,0.05,28.950000000000003,0)" xlink:href="#bd"/><use transform="matrix(0.05,0,0,0.05,37.95,0)" xlink:href="#bo"/><use transform="matrix(0.05,0,0,0.05,47.95,0)" xlink:href="#aP"/><use transform="matrix(0.05,0,0,0.05,51.900000000000006,0)" xlink:href="#bp"/><use transform="matrix(0.05,0,0,0.05,56.900000000000006,0)" xlink:href="#aO"/><use transform="matrix(0.05,0,0,0.05,61.900000000000006,0)" xlink:href="#be"/></g><path d="M115-194c53 0 69 39 70 98 0 66-23 100-70 100C84 3 66-7 56-30L54 0H23l1-261h32v101c10-23 28-34 59-34zm-8 174c40 0 45-34 45-75 0-40-5-75-45-74-42 0-51 32-51 76 0 43 10 73 51 73" id="bq"/><path d="M145-31C134-9 116 4 85 4 32 4 16-35 15-94c0-59 17-99 70-100 32-1 48 14 60 33 0-11-1-24 2-32h30l-1 268h-32zM93-21c41 0 51-33 51-76s-8-73-50-73c-40 0-46 35-46 75s5 74 45 74" id="br"/><g id="k"><use transform="matrix(0.05,0,0,0.05,0,0)" xlink:href="#aW"/><use transform="matrix(0.05,0,0,0.05,12.950000000000001,0)" xlink:href="#ba"/><use transform="matrix(0.05,0,0,0.05,22.950000000000003,0)" xlink:href="#aQ"/><use transform="matrix(0.05,0,0,0.05,32.95,0)" xlink:href="#bq"/><use transform="matrix(0.05,0,0,0.05,42.95,0)" xlink:href="#aS"/><use transform="matrix(0.05,0,0,0.05,46.900000000000006,0)" xlink:href="#aP"/><use transform="matrix(0.05,0,0,0.05,50.85000000000001,0)" xlink:href="#br"/><use transform="matrix(0.05,0,0,0.05,60.85,0)" xlink:href="#aL"/><use transform="matrix(0.05,0,0,0.05,70.85000000000001,0)" xlink:href="#ba"/></g><g id="l"><use transform="matrix(0.05,0,0,0.05,0,0)" xlink:href="#bm"/><use transform="matrix(0.05,0,0,0.05,10,0)" xlink:href="#bn"/><use transform="matrix(0.05,0,0,0.05,20,0)" xlink:href="#bc"/><use transform="matrix(0.05,0,0,0.05,25.950000000000003,0)" xlink:href="#ba"/><use transform="matrix(0.05,0,0,0.05,35.95,0)" xlink:href="#bp"/><use transform="matrix(0.05,0,0,0.05,40.95,0)" xlink:href="#aP"/><use transform="matrix(0.05,0,0,0.05,44.900000000000006,0)" xlink:href="#aO"/><use transform="matrix(0.05,0,0,0.05,49.900000000000006,0)" xlink:href="#be"/></g><path d="M233-177c-1 41-23 64-60 70L243 0h-38l-65-103H63V0H30v-248c88 3 205-21 203 71zM63-129c60-2 137 13 137-47 0-61-80-42-137-45v92" id="bs"/><g id="m"><use transform="matrix(0.05,0,0,0.05,0,0)" xlink:href="#bs"/><use transform="matrix(0.05,0,0,0.05,12.950000000000001,0)" xlink:href="#ba"/><use transform="matrix(0.05,0,0,0.05,22.950000000000003,0)" xlink:href="#aQ"/><use transform="matrix(0.05,0,0,0.05,32.95,0)" xlink:href="#bc"/><use transform="matrix(0.05,0,0,0.05,38.900000000000006,0)" xlink:href="#aP"/><use transform="matrix(0.05,0,0,0.05,42.85000000000001,0)" xlink:href="#ba"/><use transform="matrix(0.05,0,0,0.05,52.85,0)" xlink:href="#aM"/><use transform="matrix(0.05,0,0,0.05,62.85,0)" xlink:href="#aO"/></g><g id="n"><use transform="matrix(0.05,0,0,0.05,0,0)" xlink:href="#aO"/><use transform="matrix(0.05,0,0,0.05,5,0)" xlink:href="#aQ"/></g><g id="o"><use transform="matrix(0.05,0,0,0.05,0,0)" xlink:href="#bs"/><use transform="matrix(0.05,0,0,0.05,12.950000000000001,0)" xlink:href="#bf"/><use transform="matrix(0.05,0,0,0.05,24.950000000000003,0)" xlink:href="#bl"/></g><g id="p"><use transform="matrix(0.05,0,0,0.05,0,0)" xlink:href="#aX"/><use transform="matrix(0.05,0,0,0.05,5.95,0)" xlink:href="#bj"/><use transform="matrix(0.05,0,0,0.05,17.95,0)" xlink:href="#aK"/><use transform="matrix(0.05,0,0,0.05,28.899999999999995,0)" xlink:href="#bk"/><use transform="matrix(0.05,0,0,0.05,41.85,0)" xlink:href="#bl"/></g><path d="M115-194c55 1 70 41 70 98S169 2 115 4C84 4 66-9 55-30l1 105H24l-1-265h31l2 30c10-21 28-34 59-34zm-8 174c40 0 45-34 45-75s-6-73-45-74c-42 0-51 32-51 76 0 43 10 73 51 73" id="bt"/><g id="q"><use transform="matrix(0.05,0,0,0.05,0,0)" xlink:href="#bm"/><use transform="matrix(0.05,0,0,0.05,10,0)" xlink:href="#bn"/><use transform="matrix(0.05,0,0,0.05,20,0)" xlink:href="#bc"/><use transform="matrix(0.05,0,0,0.05,25.950000000000003,0)" xlink:href="#ba"/><use transform="matrix(0.05,0,0,0.05,35.95,0)" xlink:href="#bd"/><use transform="matrix(0.05,0,0,0.05,44.95,0)" xlink:href="#aR"/><use transform="matrix(0.05,0,0,0.05,54.95,0)" xlink:href="#aZ"/><use transform="matrix(0.05,0,0,0.05,69.9,0)" xlink:href="#bt"/><use transform="matrix(0.05,0,0,0.05,79.9,0)" xlink:href="#aS"/><use transform="matrix(0.05,0,0,0.05,83.85000000000001,0)" xlink:href="#ba"/><use transform="matrix(0.05,0,0,0.05,93.85000000000001,0)" xlink:href="#be"/></g><g id="r"><use transform="matrix(0.05,0,0,0.05,0,0)" xlink:href="#aK"/><use transform="matrix(0.05,0,0,0.05,10.950000000000001,0)" xlink:href="#aL"/><use transform="matrix(0.05,0,0,0.05,20.950000000000003,0)" xlink:href="#aM"/><use transform="matrix(0.05,0,0,0.05,30.950000000000003,0)" xlink:href="#aN"/><use transform="matrix(0.05,0,0,0.05,39.95,0)" xlink:href="#aO"/><use transform="matrix(0.05,0,0,0.05,44.95,0)" xlink:href="#aP"/><use transform="matrix(0.05,0,0,0.05,48.900000000000006,0)" xlink:href="#aQ"/><use transform="matrix(0.05,0,0,0.05,58.900000000000006,0)" xlink:href="#aM"/><use transform="matrix(0.05,0,0,0.05,68.9,0)" xlink:href="#aR"/><use transform="matrix(0.05,0,0,0.05,78.9,0)" xlink:href="#aS"/></g><path d="M240 0l2-218c-23 76-54 145-80 218h-23L58-218 59 0H30v-248h44l77 211c21-75 51-140 76-211h43V0h-30" id="bu"/><path d="M143 0L79-87 56-68V0H24v-261h32v163l83-92h37l-77 82L181 0h-38" id="bv"/><g id="s"><use transform="matrix(0.05,0,0,0.05,0,0)" xlink:href="#bu"/><use transform="matrix(0.05,0,0,0.05,14.950000000000001,0)" xlink:href="#aR"/><use transform="matrix(0.05,0,0,0.05,24.950000000000003,0)" xlink:href="#bd"/><use transform="matrix(0.05,0,0,0.05,33.95,0)" xlink:href="#bv"/><use transform="matrix(0.05,0,0,0.05,42.95,0)" xlink:href="#aP"/><use transform="matrix(0.05,0,0,0.05,46.900000000000006,0)" xlink:href="#aM"/><use transform="matrix(0.05,0,0,0.05,56.900000000000006,0)" xlink:href="#bh"/></g><g id="t"><use transform="matrix(0.05,0,0,0.05,0,0)" xlink:href="#bb"/><use transform="matrix(0.05,0,0,0.05,12,0)" xlink:href="#bv"/><use transform="matrix(0.05,0,0,0.05,21,0)" xlink:href="#aL"/><use transform="matrix(0.05,0,0,0.05,31,0)" xlink:href="#aS"/><use transform="matrix(0.05,0,0,0.05,34.95,0)" xlink:href="#aS"/><use transform="matrix(0.05,0,0,0.05,38.900000000000006,0)" xlink:href="#bg"/><use transform="matrix(0.05,0,0,0.05,44.85000000000001,0)" xlink:href="#bd"/><use transform="matrix(0.05,0,0,0.05,53.85,0)" xlink:href="#aO"/><use transform="matrix(0.05,0,0,0.05,58.85,0)" xlink:href="#bc"/><use transform="matrix(0.05,0,0,0.05,64.80000000000001,0)" xlink:href="#aP"/><use transform="matrix(0.05,0,0,0.05,68.75000000000001,0)" xlink:href="#bt"/><use transform="matrix(0.05,0,0,0.05,78.75000000000001,0)" xlink:href="#bt"/><use transform="matrix(0.05,0,0,0.05,88.75000000000001,0)" xlink:href="#aP"/><use transform="matrix(0.05,0,0,0.05,92.70000000000002,0)" xlink:href="#aM"/><use transform="matrix(0.05,0,0,0.05,102.7,0)" xlink:href="#bh"/></g><g id="u"><use transform="matrix(0.05,0,0,0.05,0,0)" xlink:href="#bm"/><use transform="matrix(0.05,0,0,0.05,10,0)" xlink:href="#bn"/><use transform="matrix(0.05,0,0,0.05,20,0)" xlink:href="#aN"/><use transform="matrix(0.05,0,0,0.05,29,0)" xlink:href="#aR"/><use transform="matrix(0.05,0,0,0.05,39,0)" xlink:href="#aS"/><use transform="matrix(0.05,0,0,0.05,42.95,0)" xlink:href="#aN"/><use transform="matrix(0.05,0,0,0.05,51.95,0)" xlink:href="#be"/></g><g id="v"><use transform="matrix(0.05,0,0,0.05,0,0)" xlink:href="#aY"/><use transform="matrix(0.05,0,0,0.05,10.3,0)" xlink:href="#aP"/><use transform="matrix(0.05,0,0,0.05,14.25,0)" xlink:href="#aZ"/><use transform="matrix(0.05,0,0,0.05,29.200000000000003,0)" xlink:href="#ba"/></g><g id="w"><use transform="matrix(0.05,0,0,0.05,0,0)" xlink:href="#bd"/><use transform="matrix(0.05,0,0,0.05,9,0)" xlink:href="#ba"/><use transform="matrix(0.05,0,0,0.05,19,0)" xlink:href="#bc"/><use transform="matrix(0.05,0,0,0.05,24.95,0)" xlink:href="#aP"/><use transform="matrix(0.05,0,0,0.05,28.899999999999995,0)" xlink:href="#ba"/><use transform="matrix(0.05,0,0,0.05,38.9,0)" xlink:href="#bd"/></g><path d="M9 0v-24l116-142H16v-24h144v24L44-24h123V0H9" id="bw"/><g id="x"><use transform="matrix(0.05,0,0,0.05,0,0)" xlink:href="#aM"/><use transform="matrix(0.05,0,0,0.05,10,0)" xlink:href="#aQ"/><use transform="matrix(0.05,0,0,0.05,20,0)" xlink:href="#bc"/><use transform="matrix(0.05,0,0,0.05,25.950000000000003,0)" xlink:href="#aZ"/><use transform="matrix(0.05,0,0,0.05,40.9,0)" xlink:href="#aR"/><use transform="matrix(0.05,0,0,0.05,50.9,0)" xlink:href="#aS"/><use transform="matrix(0.05,0,0,0.05,54.85,0)" xlink:href="#aP"/><use transform="matrix(0.05,0,0,0.05,58.800000000000004,0)" xlink:href="#bw"/><use transform="matrix(0.05,0,0,0.05,67.80000000000001,0)" xlink:href="#aR"/><use transform="matrix(0.05,0,0,0.05,77.80000000000001,0)" xlink:href="#aO"/><use transform="matrix(0.05,0,0,0.05,82.80000000000001,0)" xlink:href="#aP"/><use transform="matrix(0.05,0,0,0.05,86.75000000000001,0)" xlink:href="#aQ"/><use transform="matrix(0.05,0,0,0.05,96.75000000000001,0)" xlink:href="#aM"/></g><g id="y"><use transform="matrix(0.05,0,0,0.05,0,0)" xlink:href="#aX"/><use transform="matrix(0.05,0,0,0.05,5.95,0)" xlink:href="#aK"/><use transform="matrix(0.05,0,0,0.05,16.900000000000002,0)" xlink:href="#bb"/><use transform="matrix(0.05,0,0,0.05,28.900000000000002,0)" xlink:href="#aV"/></g><g id="z"><use transform="matrix(0.05,0,0,0.05,0,0)" xlink:href="#bp"/><use transform="matrix(0.05,0,0,0.05,5,0)" xlink:href="#bd"/><use transform="matrix(0.05,0,0,0.05,14,0)" xlink:href="#aS"/><use transform="matrix(0.05,0,0,0.05,17.95,0)" xlink:href="#aZ"/><use transform="matrix(0.05,0,0,0.05,32.9,0)" xlink:href="#aR"/><use transform="matrix(0.05,0,0,0.05,42.9,0)" xlink:href="#aO"/><use transform="matrix(0.05,0,0,0.05,47.9,0)" xlink:href="#bo"/><use transform="matrix(0.05,0,0,0.05,57.900000000000006,0)" xlink:href="#bd"/><use transform="matrix(0.05,0,0,0.05,66.9,0)" xlink:href="#be"/></g><g id="A"><use transform="matrix(0.05,0,0,0.05,0,0)" xlink:href="#bi"/><use transform="matrix(0.05,0,0,0.05,12.950000000000001,0)" xlink:href="#aR"/><use transform="matrix(0.05,0,0,0.05,22.950000000000003,0)" xlink:href="#aS"/><use transform="matrix(0.05,0,0,0.05,26.900000000000002,0)" xlink:href="#aN"/><use transform="matrix(0.05,0,0,0.05,35.900000000000006,0)" xlink:href="#aL"/><use transform="matrix(0.05,0,0,0.05,45.900000000000006,0)" xlink:href="#aS"/><use transform="matrix(0.05,0,0,0.05,49.85000000000001,0)" xlink:href="#aR"/><use transform="matrix(0.05,0,0,0.05,59.85,0)" xlink:href="#aO"/><use transform="matrix(0.05,0,0,0.05,64.85000000000001,0)" xlink:href="#ba"/></g><g id="B"><use transform="matrix(0.05,0,0,0.05,0,0)" xlink:href="#aZ"/><use transform="matrix(0.05,0,0,0.05,14.950000000000001,0)" xlink:href="#ba"/><use transform="matrix(0.05,0,0,0.05,24.950000000000003,0)" xlink:href="#aR"/><use transform="matrix(0.05,0,0,0.05,34.95,0)" xlink:href="#aM"/></g><g id="C"><use transform="matrix(0.05,0,0,0.05,0,0)" xlink:href="#aQ"/><use transform="matrix(0.05,0,0,0.05,10,0)" xlink:href="#bp"/></g><g id="D"><use transform="matrix(0.05,0,0,0.05,0,0)" xlink:href="#aO"/><use transform="matrix(0.05,0,0,0.05,5,0)" xlink:href="#aP"/><use transform="matrix(0.05,0,0,0.05,8.95,0)" xlink:href="#aZ"/><use transform="matrix(0.05,0,0,0.05,23.9,0)" xlink:href="#ba"/></g><g id="E"><use transform="matrix(0.05,0,0,0.05,0,0)" xlink:href="#bd"/><use transform="matrix(0.05,0,0,0.05,9,0)" xlink:href="#ba"/><use transform="matrix(0.05,0,0,0.05,19,0)" xlink:href="#bc"/><use transform="matrix(0.05,0,0,0.05,24.95,0)" xlink:href="#aP"/><use transform="matrix(0.05,0,0,0.05,28.899999999999995,0)" xlink:href="#ba"/><use transform="matrix(0.05,0,0,0.05,38.9,0)" xlink:href="#bd"/></g><g id="F"><use transform="matrix(0.05,0,0,0.05,0,0)" xlink:href="#aX"/><use transform="matrix(0.05,0,0,0.05,5.95,0)" xlink:href="#bj"/><use transform="matrix(0.05,0,0,0.05,17.95,0)" xlink:href="#aK"/><use transform="matrix(0.05,0,0,0.05,28.899999999999995,0)" xlink:href="#bk"/><use transform="matrix(0.05,0,0,0.05,41.85,0)" xlink:href="#bl"/></g><g id="G"><use transform="matrix(0.05,0,0,0.05,0,0)" xlink:href="#bm"/><use transform="matrix(0.05,0,0,0.05,10,0)" xlink:href="#bn"/><use transform="matrix(0.05,0,0,0.05,20,0)" xlink:href="#aY"/><use transform="matrix(0.05,0,0,0.05,28.950000000000003,0)" xlink:href="#bd"/><use transform="matrix(0.05,0,0,0.05,37.95,0)" xlink:href="#aO"/><use transform="matrix(0.05,0,0,0.05,42.95,0)" xlink:href="#aR"/><use transform="matrix(0.05,0,0,0.05,52.95,0)" xlink:href="#aO"/><use transform="matrix(0.05,0,0,0.05,57.95,0)" xlink:href="#be"/></g><g id="H"><use transform="matrix(0.05,0,0,0.05,0,0)" xlink:href="#bi"/><use transform="matrix(0.05,0,0,0.05,12.950000000000001,0)" xlink:href="#bc"/><use transform="matrix(0.05,0,0,0.05,18.900000000000002,0)" xlink:href="#ba"/><use transform="matrix(0.05,0,0,0.05,28.900000000000002,0)" xlink:href="#aR"/><use transform="matrix(0.05,0,0,0.05,38.900000000000006,0)" xlink:href="#aO"/><use transform="matrix(0.05,0,0,0.05,43.900000000000006,0)" xlink:href="#ba"/></g><g id="I"><use transform="matrix(0.05,0,0,0.05,0,0)" xlink:href="#aZ"/><use transform="matrix(0.05,0,0,0.05,14.950000000000001,0)" xlink:href="#aR"/><use transform="matrix(0.05,0,0,0.05,24.950000000000003,0)" xlink:href="#bd"/><use transform="matrix(0.05,0,0,0.05,33.95,0)" xlink:href="#bv"/></g><g id="J"><use transform="matrix(0.05,0,0,0.05,0,0)" xlink:href="#bp"/><use transform="matrix(0.05,0,0,0.05,5,0)" xlink:href="#aL"/><use transform="matrix(0.05,0,0,0.05,15,0)" xlink:href="#aM"/><use transform="matrix(0.05,0,0,0.05,25,0)" xlink:href="#aN"/><use transform="matrix(0.05,0,0,0.05,34,0)" xlink:href="#aO"/><use transform="matrix(0.05,0,0,0.05,39,0)" xlink:href="#aP"/><use transform="matrix(0.05,0,0,0.05,42.95,0)" xlink:href="#aQ"/><use transform="matrix(0.05,0,0,0.05,52.95,0)" xlink:href="#aM"/><use transform="matrix(0.05,0,0,0.05,62.95,0)" xlink:href="#aR"/><use transform="matrix(0.05,0,0,0.05,72.95,0)" xlink:href="#aS"/></g><g id="K"><use transform="matrix(0.05,0,0,0.05,0,0)" xlink:href="#bu"/><use transform="matrix(0.05,0,0,0.05,14.950000000000001,0)" xlink:href="#ba"/><use transform="matrix(0.05,0,0,0.05,24.950000000000003,0)" xlink:href="#aR"/><use transform="matrix(0.05,0,0,0.05,34.95,0)" xlink:href="#aM"/></g><g id="L"><use transform="matrix(0.05,0,0,0.05,0,0)" xlink:href="#aK"/><use transform="matrix(0.05,0,0,0.05,10.950000000000001,0)" xlink:href="#aL"/><use transform="matrix(0.05,0,0,0.05,20.950000000000003,0)" xlink:href="#aM"/><use transform="matrix(0.05,0,0,0.05,30.950000000000003,0)" xlink:href="#aN"/><use transform="matrix(0.05,0,0,0.05,39.95,0)" xlink:href="#aO"/><use transform="matrix(0.05,0,0,0.05,44.95,0)" xlink:href="#aP"/><use transform="matrix(0.05,0,0,0.05,48.900000000000006,0)" xlink:href="#aQ"/><use transform="matrix(0.05,0,0,0.05,58.900000000000006,0)" xlink:href="#aM"/><use transform="matrix(0.05,0,0,0.05,68.9,0)" xlink:href="#aR"/><use transform="matrix(0.05,0,0,0.05,78.9,0)" xlink:href="#aS"/></g><g id="M"><use transform="matrix(0.05,0,0,0.05,0,0)" xlink:href="#aX"/><use transform="matrix(0.05,0,0,0.05,5.95,0)" xlink:href="#bm"/><use transform="matrix(0.05,0,0,0.05,15.949999999999998,0)" xlink:href="#aW"/></g><g id="N"><use transform="matrix(0.05,0,0,0.05,0,0)" xlink:href="#aP"/><use transform="matrix(0.05,0,0,0.05,3.95,0)" xlink:href="#aZ"/><use transform="matrix(0.05,0,0,0.05,18.900000000000002,0)" xlink:href="#aR"/><use transform="matrix(0.05,0,0,0.05,28.900000000000002,0)" xlink:href="#bh"/><use transform="matrix(0.05,0,0,0.05,38.900000000000006,0)" xlink:href="#ba"/><use transform="matrix(0.05,0,0,0.05,48.900000000000006,0)" xlink:href="#be"/></g><g id="O"><use transform="matrix(0.05,0,0,0.05,0,0)" xlink:href="#aT"/><use transform="matrix(0.05,0,0,0.05,12,0)" xlink:href="#bc"/><use transform="matrix(0.05,0,0,0.05,17.95,0)" xlink:href="#aR"/><use transform="matrix(0.05,0,0,0.05,27.950000000000003,0)" xlink:href="#aP"/><use transform="matrix(0.05,0,0,0.05,31.899999999999995,0)" xlink:href="#aM"/></g><g id="P"><use transform="matrix(0.05,0,0,0.05,0,0)" xlink:href="#bu"/><use transform="matrix(0.05,0,0,0.05,14.950000000000001,0)" xlink:href="#aR"/><use transform="matrix(0.05,0,0,0.05,24.950000000000003,0)" xlink:href="#bd"/><use transform="matrix(0.05,0,0,0.05,33.95,0)" xlink:href="#bv"/></g><g id="Q"><use transform="matrix(0.05,0,0,0.05,0,0)" xlink:href="#bf"/><use transform="matrix(0.05,0,0,0.05,12,0)" xlink:href="#bc"/><use transform="matrix(0.05,0,0,0.05,17.95,0)" xlink:href="#ba"/><use transform="matrix(0.05,0,0,0.05,27.950000000000003,0)" xlink:href="#bt"/><use transform="matrix(0.05,0,0,0.05,37.95,0)" xlink:href="#bc"/><use transform="matrix(0.05,0,0,0.05,43.900000000000006,0)" xlink:href="#aQ"/><use transform="matrix(0.05,0,0,0.05,53.900000000000006,0)" xlink:href="#aN"/><use transform="matrix(0.05,0,0,0.05,62.900000000000006,0)" xlink:href="#ba"/><use transform="matrix(0.05,0,0,0.05,72.9,0)" xlink:href="#bd"/><use transform="matrix(0.05,0,0,0.05,81.9,0)" xlink:href="#bd"/><use transform="matrix(0.05,0,0,0.05,90.9,0)" xlink:href="#ba"/><use transform="matrix(0.05,0,0,0.05,100.9,0)" xlink:href="#bn"/></g><g id="R"><use transform="matrix(0.05,0,0,0.05,0,0)" xlink:href="#aK"/><use transform="matrix(0.05,0,0,0.05,10.950000000000001,0)" xlink:href="#aL"/><use transform="matrix(0.05,0,0,0.05,20.950000000000003,0)" xlink:href="#aM"/><use transform="matrix(0.05,0,0,0.05,30.950000000000003,0)" xlink:href="#aN"/><use transform="matrix(0.05,0,0,0.05,39.95,0)" xlink:href="#aO"/><use transform="matrix(0.05,0,0,0.05,44.95,0)" xlink:href="#aP"/><use transform="matrix(0.05,0,0,0.05,48.900000000000006,0)" xlink:href="#aQ"/><use transform="matrix(0.05,0,0,0.05,58.900000000000006,0)" xlink:href="#aM"/><use transform="matrix(0.05,0,0,0.05,68.9,0)" xlink:href="#aR"/><use transform="matrix(0.05,0,0,0.05,78.9,0)" xlink:href="#aS"/></g><g id="S"><use transform="matrix(0.05,0,0,0.05,0,0)" xlink:href="#aY"/><use transform="matrix(0.05,0,0,0.05,10.3,0)" xlink:href="#aP"/><use transform="matrix(0.05,0,0,0.05,14.25,0)" xlink:href="#aZ"/><use transform="matrix(0.05,0,0,0.05,29.200000000000003,0)" xlink:href="#ba"/></g><g id="T"><use transform="matrix(0.05,0,0,0.05,0,0)" xlink:href="#bb"/><use transform="matrix(0.05,0,0,0.05,12,0)" xlink:href="#ba"/><use transform="matrix(0.05,0,0,0.05,22,0)" xlink:href="#bc"/><use transform="matrix(0.05,0,0,0.05,27.950000000000003,0)" xlink:href="#aP"/><use transform="matrix(0.05,0,0,0.05,31.899999999999995,0)" xlink:href="#ba"/><use transform="matrix(0.05,0,0,0.05,41.9,0)" xlink:href="#bd"/></g><g id="U"><use transform="matrix(0.05,0,0,0.05,0,0)" xlink:href="#bu"/><use transform="matrix(0.05,0,0,0.05,14.950000000000001,0)" xlink:href="#aQ"/><use transform="matrix(0.05,0,0,0.05,24.950000000000003,0)" xlink:href="#aO"/><use transform="matrix(0.05,0,0,0.05,29.950000000000003,0)" xlink:href="#aP"/><use transform="matrix(0.05,0,0,0.05,33.900000000000006,0)" xlink:href="#aQ"/><use transform="matrix(0.05,0,0,0.05,43.900000000000006,0)" xlink:href="#aM"/></g><path d="M30 0v-248h187v28H63v79h144v27H63v87h162V0H30" id="bx"/><g id="V"><use transform="matrix(0.05,0,0,0.05,0,0)" xlink:href="#bx"/><use transform="matrix(0.05,0,0,0.05,12,0)" xlink:href="#bd"/><use transform="matrix(0.05,0,0,0.05,21,0)" xlink:href="#aO"/><use transform="matrix(0.05,0,0,0.05,26,0)" xlink:href="#aP"/><use transform="matrix(0.05,0,0,0.05,29.950000000000003,0)" xlink:href="#aZ"/><use transform="matrix(0.05,0,0,0.05,44.9,0)" xlink:href="#aR"/><use transform="matrix(0.05,0,0,0.05,54.900000000000006,0)" xlink:href="#aO"/><use transform="matrix(0.05,0,0,0.05,59.900000000000006,0)" xlink:href="#aP"/><use transform="matrix(0.05,0,0,0.05,63.85,0)" xlink:href="#aQ"/><use transform="matrix(0.05,0,0,0.05,73.85,0)" xlink:href="#aM"/></g><g id="W"><use transform="matrix(0.05,0,0,0.05,0,0)" xlink:href="#aX"/><use transform="matrix(0.05,0,0,0.05,5.95,0)" xlink:href="#aU"/><use transform="matrix(0.05,0,0,0.05,19.95,0)" xlink:href="#bt"/><use transform="matrix(0.05,0,0,0.05,29.950000000000003,0)" xlink:href="#aO"/><use transform="matrix(0.05,0,0,0.05,34.95,0)" xlink:href="#aP"/><use transform="matrix(0.05,0,0,0.05,38.900000000000006,0)" xlink:href="#aQ"/><use transform="matrix(0.05,0,0,0.05,48.900000000000006,0)" xlink:href="#aM"/><use transform="matrix(0.05,0,0,0.05,58.900000000000006,0)" xlink:href="#aR"/><use transform="matrix(0.05,0,0,0.05,68.9,0)" xlink:href="#aS"/><use transform="matrix(0.05,0,0,0.05,72.85000000000001,0)" xlink:href="#be"/></g><g id="X"><use transform="matrix(0.05,0,0,0.05,0,0)" xlink:href="#aW"/><use transform="matrix(0.05,0,0,0.05,12.950000000000001,0)" xlink:href="#ba"/><use transform="matrix(0.05,0,0,0.05,22.950000000000003,0)" xlink:href="#bd"/><use transform="matrix(0.05,0,0,0.05,31.950000000000003,0)" xlink:href="#bt"/><use transform="matrix(0.05,0,0,0.05,41.95,0)" xlink:href="#aP"/><use transform="matrix(0.05,0,0,0.05,45.900000000000006,0)" xlink:href="#bv"/><use transform="matrix(0.05,0,0,0.05,54.900000000000006,0)" xlink:href="#ba"/></g><path d="M68-38c1 34 0 65-14 84H32c9-13 17-26 17-46H33v-38h35" id="by"/><g id="Y"><use transform="matrix(0.05,0,0,0.05,0,0)" xlink:href="#bm"/><use transform="matrix(0.05,0,0,0.05,10,0)" xlink:href="#bn"/><use transform="matrix(0.05,0,0,0.05,20,0)" xlink:href="#aW"/><use transform="matrix(0.05,0,0,0.05,32.95,0)" xlink:href="#ba"/><use transform="matrix(0.05,0,0,0.05,42.95,0)" xlink:href="#bt"/><use transform="matrix(0.05,0,0,0.05,52.95,0)" xlink:href="#aP"/><use transform="matrix(0.05,0,0,0.05,56.900000000000006,0)" xlink:href="#bv"/><use transform="matrix(0.05,0,0,0.05,65.9,0)" xlink:href="#ba"/><use transform="matrix(0.05,0,0,0.05,75.9,0)" xlink:href="#by"/></g><g id="Z"><use transform="matrix(0.05,0,0,0.05,0,0)" xlink:href="#aU"/><use transform="matrix(0.05,0,0,0.05,14,0)" xlink:href="#bt"/><use transform="matrix(0.05,0,0,0.05,24,0)" xlink:href="#aO"/><use transform="matrix(0.05,0,0,0.05,29,0)" xlink:href="#aP"/><use transform="matrix(0.05,0,0,0.05,32.95,0)" xlink:href="#aQ"/><use transform="matrix(0.05,0,0,0.05,42.95,0)" xlink:href="#aM"/><use transform="matrix(0.05,0,0,0.05,52.95,0)" xlink:href="#aR"/><use transform="matrix(0.05,0,0,0.05,62.95,0)" xlink:href="#aS"/><use transform="matrix(0.05,0,0,0.05,66.9,0)" xlink:href="#be"/></g><g id="aa"><use transform="matrix(0.05,0,0,0.05,0,0)" xlink:href="#bb"/><use transform="matrix(0.05,0,0,0.05,12,0)" xlink:href="#aN"/><use transform="matrix(0.05,0,0,0.05,21,0)" xlink:href="#aR"/><use transform="matrix(0.05,0,0,0.05,31,0)" xlink:href="#aS"/><use transform="matrix(0.05,0,0,0.05,34.95,0)" xlink:href="#aP"/><use transform="matrix(0.05,0,0,0.05,38.900000000000006,0)" xlink:href="#aM"/><use transform="matrix(0.05,0,0,0.05,48.900000000000006,0)" xlink:href="#bh"/></g><g id="ab"><use transform="matrix(0.05,0,0,0.05,0,0)" xlink:href="#bm"/><use transform="matrix(0.05,0,0,0.05,10,0)" xlink:href="#bn"/><use transform="matrix(0.05,0,0,0.05,20,0)" xlink:href="#bc"/><use transform="matrix(0.05,0,0,0.05,25.950000000000003,0)" xlink:href="#ba"/><use transform="matrix(0.05,0,0,0.05,35.95,0)" xlink:href="#bp"/><use transform="matrix(0.05,0,0,0.05,40.95,0)" xlink:href="#aP"/><use transform="matrix(0.05,0,0,0.05,44.900000000000006,0)" xlink:href="#aO"/><use transform="matrix(0.05,0,0,0.05,49.900000000000006,0)" xlink:href="#by"/></g><g id="ac"><use transform="matrix(0.05,0,0,0.05,0,0)" xlink:href="#aW"/><use transform="matrix(0.05,0,0,0.05,12.950000000000001,0)" xlink:href="#aP"/><use transform="matrix(0.05,0,0,0.05,16.900000000000002,0)" xlink:href="#bd"/><use transform="matrix(0.05,0,0,0.05,25.900000000000002,0)" xlink:href="#aO"/><use transform="matrix(0.05,0,0,0.05,30.900000000000002,0)" xlink:href="#aQ"/><use transform="matrix(0.05,0,0,0.05,40.900000000000006,0)" xlink:href="#bc"/><use transform="matrix(0.05,0,0,0.05,46.85000000000001,0)" xlink:href="#aO"/><use transform="matrix(0.05,0,0,0.05,51.85,0)" xlink:href="#aP"/><use transform="matrix(0.05,0,0,0.05,55.80000000000001,0)" xlink:href="#aQ"/><use transform="matrix(0.05,0,0,0.05,65.80000000000001,0)" xlink:href="#aM"/></g><g id="ad"><use transform="matrix(0.05,0,0,0.05,0,0)" xlink:href="#bi"/><use transform="matrix(0.05,0,0,0.05,12.950000000000001,0)" xlink:href="#aQ"/><use transform="matrix(0.05,0,0,0.05,22.950000000000003,0)" xlink:href="#bc"/><use transform="matrix(0.05,0,0,0.05,28.900000000000002,0)" xlink:href="#bc"/><use transform="matrix(0.05,0,0,0.05,34.85,0)" xlink:href="#ba"/><use transform="matrix(0.05,0,0,0.05,44.85,0)" xlink:href="#aN"/><use transform="matrix(0.05,0,0,0.05,53.85,0)" xlink:href="#aO"/><use transform="matrix(0.05,0,0,0.05,58.85,0)" xlink:href="#aP"/><use transform="matrix(0.05,0,0,0.05,62.800000000000004,0)" xlink:href="#aQ"/><use transform="matrix(0.05,0,0,0.05,72.80000000000001,0)" xlink:href="#aM"/></g><g id="ae"><use transform="matrix(0.05,0,0,0.05,0,0)" xlink:href="#aX"/><use transform="matrix(0.05,0,0,0.05,5.95,0)" xlink:href="#bf"/><use transform="matrix(0.05,0,0,0.05,17.95,0)" xlink:href="#bo"/><use transform="matrix(0.05,0,0,0.05,27.950000000000003,0)" xlink:href="#aR"/><use transform="matrix(0.05,0,0,0.05,37.95,0)" xlink:href="#bd"/><use transform="matrix(0.05,0,0,0.05,46.95,0)" xlink:href="#ba"/></g><g id="af"><use transform="matrix(0.05,0,0,0.05,0,0)" xlink:href="#aW"/><use transform="matrix(0.05,0,0,0.05,12.950000000000001,0)" xlink:href="#aP"/><use transform="matrix(0.05,0,0,0.05,16.900000000000002,0)" xlink:href="#bp"/><use transform="matrix(0.05,0,0,0.05,21.55,0)" xlink:href="#bp"/></g><path d="M0 4l72-265h28L28 4H0" id="bz"/><use transform="matrix(0.05,0,0,0.05,0,0)" xlink:href="#bz" id="ag"/><path d="M232-93c-1 65-40 97-104 97C67 4 28-28 28-90v-158h33c8 89-33 224 67 224 102 0 64-133 71-224h33v155" id="bA"/><path d="M206 0h-36l-40-164L89 0H53L-1-190h32L70-26l43-164h34l41 164 42-164h31" id="bB"/><g id="ah"><use transform="matrix(0.05,0,0,0.05,0,0)" xlink:href="#aT"/><use transform="matrix(0.05,0,0,0.05,12,0)" xlink:href="#aS"/><use transform="matrix(0.05,0,0,0.05,15.949999999999998,0)" xlink:href="#aP"/><use transform="matrix(0.05,0,0,0.05,19.9,0)" xlink:href="#bt"/><use transform="matrix(0.05,0,0,0.05,29.899999999999995,0)" xlink:href="#bg"/><use transform="matrix(0.05,0,0,0.05,35.85,0)" xlink:href="#bA"/><use transform="matrix(0.05,0,0,0.05,48.800000000000004,0)" xlink:href="#bt"/><use transform="matrix(0.05,0,0,0.05,58.800000000000004,0)" xlink:href="#bg"/><use transform="matrix(0.05,0,0,0.05,64.75,0)" xlink:href="#aW"/><use transform="matrix(0.05,0,0,0.05,77.7,0)" xlink:href="#aQ"/><use transform="matrix(0.05,0,0,0.05,87.7,0)" xlink:href="#bB"/><use transform="matrix(0.05,0,0,0.05,100.65,0)" xlink:href="#aM"/><use transform="matrix(0.05,0,0,0.05,110.65,0)" xlink:href="#be"/></g><g id="ai"><use transform="matrix(0.05,0,0,0.05,0,0)" xlink:href="#aK"/><use transform="matrix(0.05,0,0,0.05,10.950000000000001,0)" xlink:href="#aP"/><use transform="matrix(0.05,0,0,0.05,14.9,0)" xlink:href="#ba"/><use transform="matrix(0.05,0,0,0.05,24.900000000000002,0)" xlink:href="#aS"/><use transform="matrix(0.05,0,0,0.05,28.85,0)" xlink:href="#bn"/></g><g id="aj"><use transform="matrix(0.05,0,0,0.05,0,0)" xlink:href="#bu"/><use transform="matrix(0.05,0,0,0.05,14.950000000000001,0)" xlink:href="#aR"/><use transform="matrix(0.05,0,0,0.05,24.950000000000003,0)" xlink:href="#bt"/><use transform="matrix(0.05,0,0,0.05,34.95,0)" xlink:href="#bd"/></g><g id="ak"><use transform="matrix(0.05,0,0,0.05,0,0)" xlink:href="#aX"/><use transform="matrix(0.05,0,0,0.05,5.95,0)" xlink:href="#aP"/><use transform="matrix(0.05,0,0,0.05,9.9,0)" xlink:href="#bp"/></g><g id="al"><use transform="matrix(0.05,0,0,0.05,0,0)" xlink:href="#aR"/><use transform="matrix(0.05,0,0,0.05,10,0)" xlink:href="#aN"/><use transform="matrix(0.05,0,0,0.05,19,0)" xlink:href="#br"/><use transform="matrix(0.05,0,0,0.05,29,0)" xlink:href="#aL"/><use transform="matrix(0.05,0,0,0.05,39,0)" xlink:href="#aP"/><use transform="matrix(0.05,0,0,0.05,42.95,0)" xlink:href="#bc"/><use transform="matrix(0.05,0,0,0.05,48.900000000000006,0)" xlink:href="#ba"/><use transform="matrix(0.05,0,0,0.05,58.900000000000006,0)" xlink:href="#bn"/><use transform="matrix(0.05,0,0,0.05,68.9,0)" xlink:href="#be"/></g><g id="am"><use transform="matrix(0.05,0,0,0.05,0,0)" xlink:href="#aQ"/><use transform="matrix(0.05,0,0,0.05,10,0)" xlink:href="#bc"/><use transform="matrix(0.05,0,0,0.05,15.949999999999998,0)" xlink:href="#bn"/><use transform="matrix(0.05,0,0,0.05,25.950000000000003,0)" xlink:href="#ba"/><use transform="matrix(0.05,0,0,0.05,35.95,0)" xlink:href="#bc"/><use transform="matrix(0.05,0,0,0.05,41.900000000000006,0)" xlink:href="#aP"/><use transform="matrix(0.05,0,0,0.05,45.85000000000001,0)" xlink:href="#aM"/><use transform="matrix(0.05,0,0,0.05,55.85,0)" xlink:href="#bh"/></g><g id="an"><use transform="matrix(0.05,0,0,0.05,0,0)" xlink:href="#aN"/><use transform="matrix(0.05,0,0,0.05,9,0)" xlink:href="#aR"/><use transform="matrix(0.05,0,0,0.05,19,0)" xlink:href="#aM"/></g><g id="ao"><use transform="matrix(0.05,0,0,0.05,0,0)" xlink:href="#bq"/><use transform="matrix(0.05,0,0,0.05,10,0)" xlink:href="#ba"/></g><g id="ap"><use transform="matrix(0.05,0,0,0.05,0,0)" xlink:href="#bd"/><use transform="matrix(0.05,0,0,0.05,9,0)" xlink:href="#bB"/><use transform="matrix(0.05,0,0,0.05,21.950000000000003,0)" xlink:href="#aP"/><use transform="matrix(0.05,0,0,0.05,25.900000000000002,0)" xlink:href="#aO"/><use transform="matrix(0.05,0,0,0.05,30.900000000000002,0)" xlink:href="#aN"/><use transform="matrix(0.05,0,0,0.05,39.900000000000006,0)" xlink:href="#bo"/><use transform="matrix(0.05,0,0,0.05,49.900000000000006,0)" xlink:href="#ba"/><use transform="matrix(0.05,0,0,0.05,59.900000000000006,0)" xlink:href="#bn"/></g><g id="aq"><use transform="matrix(0.05,0,0,0.05,0,0)" xlink:href="#bi"/><use transform="matrix(0.05,0,0,0.05,12.950000000000001,0)" xlink:href="#aQ"/><use transform="matrix(0.05,0,0,0.05,22.950000000000003,0)" xlink:href="#bc"/><use transform="matrix(0.05,0,0,0.05,28.900000000000002,0)" xlink:href="#bc"/><use transform="matrix(0.05,0,0,0.05,34.85,0)" xlink:href="#ba"/><use transform="matrix(0.05,0,0,0.05,44.85,0)" xlink:href="#aN"/><use transform="matrix(0.05,0,0,0.05,53.85,0)" xlink:href="#aO"/><use transform="matrix(0.05,0,0,0.05,58.85,0)" xlink:href="#aP"/><use transform="matrix(0.05,0,0,0.05,62.800000000000004,0)" xlink:href="#aQ"/><use transform="matrix(0.05,0,0,0.05,72.80000000000001,0)" xlink:href="#aM"/></g><path d="M108 0H70L1-190h34L89-25l56-165h34" id="bC"/><g id="ar"><use transform="matrix(0.05,0,0,0.05,0,0)" xlink:href="#bm"/><use transform="matrix(0.05,0,0,0.05,10,0)" xlink:href="#bn"/><use transform="matrix(0.05,0,0,0.05,20,0)" xlink:href="#bC"/><use transform="matrix(0.05,0,0,0.05,29,0)" xlink:href="#aQ"/><use transform="matrix(0.05,0,0,0.05,39,0)" xlink:href="#aS"/><use transform="matrix(0.05,0,0,0.05,42.95,0)" xlink:href="#bc"/><use transform="matrix(0.05,0,0,0.05,48.900000000000006,0)" xlink:href="#ba"/><use transform="matrix(0.05,0,0,0.05,58.900000000000006,0)" xlink:href="#bh"/><use transform="matrix(0.05,0,0,0.05,68.9,0)" xlink:href="#be"/></g><g id="as"><use transform="matrix(0.05,0,0,0.05,0,0)" xlink:href="#bl"/><use transform="matrix(0.05,0,0,0.05,5,0)" xlink:href="#aM"/><use transform="matrix(0.05,0,0,0.05,15,0)" xlink:href="#bt"/><use transform="matrix(0.05,0,0,0.05,25,0)" xlink:href="#aL"/><use transform="matrix(0.05,0,0,0.05,35,0)" xlink:href="#aO"/></g><g id="at"><use transform="matrix(0.05,0,0,0.05,0,0)" xlink:href="#aW"/><use transform="matrix(0.05,0,0,0.05,12.950000000000001,0)" xlink:href="#aR"/><use transform="matrix(0.05,0,0,0.05,22.950000000000003,0)" xlink:href="#aO"/><use transform="matrix(0.05,0,0,0.05,27.950000000000003,0)" xlink:href="#aR"/></g><g id="au"><use transform="matrix(0.05,0,0,0.05,0,0)" xlink:href="#aW"/><use transform="matrix(0.05,0,0,0.05,12.950000000000001,0)" xlink:href="#aR"/><use transform="matrix(0.05,0,0,0.05,22.950000000000003,0)" xlink:href="#aO"/><use transform="matrix(0.05,0,0,0.05,27.950000000000003,0)" xlink:href="#aR"/></g><g id="av"><use transform="matrix(0.05,0,0,0.05,0,0)" xlink:href="#bi"/><use transform="matrix(0.05,0,0,0.05,12.950000000000001,0)" xlink:href="#aQ"/><use transform="matrix(0.05,0,0,0.05,22.950000000000003,0)" xlink:href="#aM"/><use transform="matrix(0.05,0,0,0.05,32.95,0)" xlink:href="#bp"/><use transform="matrix(0.05,0,0,0.05,37.95,0)" xlink:href="#aP"/><use transform="matrix(0.05,0,0,0.05,41.900000000000006,0)" xlink:href="#bh"/><use transform="matrix(0.05,0,0,0.05,51.900000000000006,0)" xlink:href="#aL"/><use transform="matrix(0.05,0,0,0.05,61.900000000000006,0)" xlink:href="#bc"/><use transform="matrix(0.05,0,0,0.05,67.85000000000001,0)" xlink:href="#aR"/><use transform="matrix(0.05,0,0,0.05,77.85000000000001,0)" xlink:href="#aO"/><use transform="matrix(0.05,0,0,0.05,82.85000000000001,0)" xlink:href="#aP"/><use transform="matrix(0.05,0,0,0.05,86.80000000000001,0)" xlink:href="#aQ"/><use transform="matrix(0.05,0,0,0.05,96.80000000000001,0)" xlink:href="#aM"/></g><g id="aw"><use transform="matrix(0.05,0,0,0.05,0,0)" xlink:href="#bx"/><use transform="matrix(0.05,0,0,0.05,12,0)" xlink:href="#bd"/><use transform="matrix(0.05,0,0,0.05,21,0)" xlink:href="#aO"/><use transform="matrix(0.05,0,0,0.05,26,0)" xlink:href="#aP"/><use transform="matrix(0.05,0,0,0.05,29.950000000000003,0)" xlink:href="#aZ"/><use transform="matrix(0.05,0,0,0.05,44.9,0)" xlink:href="#aR"/><use transform="matrix(0.05,0,0,0.05,54.900000000000006,0)" xlink:href="#aO"/><use transform="matrix(0.05,0,0,0.05,59.900000000000006,0)" xlink:href="#ba"/><use transform="matrix(0.05,0,0,0.05,69.9,0)" xlink:href="#bd"/></g><g id="ax"><use transform="matrix(0.05,0,0,0.05,0,0)" xlink:href="#bs"/><use transform="matrix(0.05,0,0,0.05,12.950000000000001,0)" xlink:href="#aL"/><use transform="matrix(0.05,0,0,0.05,22.950000000000003,0)" xlink:href="#aM"/></g><path d="M155-56V0h-30v-56H8v-25l114-167h33v167h35v25h-35zm-30-156c-27 46-58 90-88 131h88v-131" id="bD"/><g id="ay"><use transform="matrix(0.05,0,0,0.05,0,0)" xlink:href="#bk"/><use transform="matrix(0.05,0,0,0.05,12.950000000000001,0)" xlink:href="#bD"/></g><path d="M103-251c84 0 111 97 45 133-19 10-37 24-39 52H78c0-63 77-55 77-114 0-30-21-42-52-43-32 0-53 17-56 46l-32-2c7-45 34-72 88-72zM77 0v-35h34V0H77" id="bE"/><g id="az"><use transform="matrix(0.05,0,0,0.05,0,0)" xlink:href="#bi"/><use transform="matrix(0.05,0,0,0.05,12.950000000000001,0)" xlink:href="#aQ"/><use transform="matrix(0.05,0,0,0.05,22.950000000000003,0)" xlink:href="#bc"/><use transform="matrix(0.05,0,0,0.05,28.900000000000002,0)" xlink:href="#bc"/><use transform="matrix(0.05,0,0,0.05,34.85,0)" xlink:href="#ba"/><use transform="matrix(0.05,0,0,0.05,44.85,0)" xlink:href="#aN"/><use transform="matrix(0.05,0,0,0.05,53.85,0)" xlink:href="#aO"/><use transform="matrix(0.05,0,0,0.05,58.85,0)" xlink:href="#aP"/><use transform="matrix(0.05,0,0,0.05,62.800000000000004,0)" xlink:href="#aQ"/><use transform="matrix(0.05,0,0,0.05,72.80000000000001,0)" xlink:href="#aM"/><use transform="matrix(0.05,0,0,0.05,82.80000000000001,0)" xlink:href="#bE"/></g><g id="aA"><use transform="matrix(0.05,0,0,0.05,0,0)" xlink:href="#bu"/><use transform="matrix(0.05,0,0,0.05,14.950000000000001,0)" xlink:href="#aR"/><use transform="matrix(0.05,0,0,0.05,24.950000000000003,0)" xlink:href="#bd"/><use transform="matrix(0.05,0,0,0.05,33.95,0)" xlink:href="#bv"/><use transform="matrix(0.05,0,0,0.05,42.95,0)" xlink:href="#aP"/><use transform="matrix(0.05,0,0,0.05,46.900000000000006,0)" xlink:href="#aM"/><use transform="matrix(0.05,0,0,0.05,56.900000000000006,0)" xlink:href="#bh"/></g><g id="aB"><use transform="matrix(0.05,0,0,0.05,0,0)" xlink:href="#aZ"/><use transform="matrix(0.05,0,0,0.05,14.950000000000001,0)" xlink:href="#ba"/><use transform="matrix(0.05,0,0,0.05,24.950000000000003,0)" xlink:href="#aO"/><use transform="matrix(0.05,0,0,0.05,29.950000000000003,0)" xlink:href="#bo"/><use transform="matrix(0.05,0,0,0.05,39.95,0)" xlink:href="#aQ"/><use transform="matrix(0.05,0,0,0.05,49.95,0)" xlink:href="#bn"/><use transform="matrix(0.05,0,0,0.05,59.95,0)" xlink:href="#bE"/></g><g id="aC"><use transform="matrix(0.05,0,0,0.05,0,0)" xlink:href="#bf"/><use transform="matrix(0.05,0,0,0.05,12,0)" xlink:href="#aP"/><use transform="matrix(0.05,0,0,0.05,15.949999999999998,0)" xlink:href="#bt"/><use transform="matrix(0.05,0,0,0.05,25.950000000000003,0)" xlink:href="#ba"/><use transform="matrix(0.05,0,0,0.05,35.95,0)" xlink:href="#aS"/><use transform="matrix(0.05,0,0,0.05,39.900000000000006,0)" xlink:href="#aP"/><use transform="matrix(0.05,0,0,0.05,43.85000000000001,0)" xlink:href="#aM"/><use transform="matrix(0.05,0,0,0.05,53.85,0)" xlink:href="#ba"/></g><g id="aD"><use transform="matrix(0.05,0,0,0.05,0,0)" xlink:href="#bk"/><use transform="matrix(0.05,0,0,0.05,12.950000000000001,0)" xlink:href="#aL"/><use transform="matrix(0.05,0,0,0.05,22.950000000000003,0)" xlink:href="#aP"/><use transform="matrix(0.05,0,0,0.05,26.900000000000002,0)" xlink:href="#bd"/><use transform="matrix(0.05,0,0,0.05,35.900000000000006,0)" xlink:href="#aR"/><use transform="matrix(0.05,0,0,0.05,45.900000000000006,0)" xlink:href="#aM"/><use transform="matrix(0.05,0,0,0.05,55.900000000000006,0)" xlink:href="#aN"/><use transform="matrix(0.05,0,0,0.05,64.9,0)" xlink:href="#ba"/></g><g id="aE"><use transform="matrix(0.05,0,0,0.05,0,0)" xlink:href="#bs"/><use transform="matrix(0.05,0,0,0.05,12.950000000000001,0)" xlink:href="#ba"/><use transform="matrix(0.05,0,0,0.05,22.950000000000003,0)" xlink:href="#bh"/><use transform="matrix(0.05,0,0,0.05,32.95,0)" xlink:href="#bc"/><use transform="matrix(0.05,0,0,0.05,38.900000000000006,0)" xlink:href="#ba"/><use transform="matrix(0.05,0,0,0.05,48.900000000000006,0)" xlink:href="#bd"/><use transform="matrix(0.05,0,0,0.05,57.900000000000006,0)" xlink:href="#bd"/><use transform="matrix(0.05,0,0,0.05,66.9,0)" xlink:href="#aP"/><use transform="matrix(0.05,0,0,0.05,70.85000000000001,0)" xlink:href="#aQ"/><use transform="matrix(0.05,0,0,0.05,80.85000000000001,0)" xlink:href="#aM"/></g><g id="aF"><use transform="matrix(0.05,0,0,0.05,0,0)" xlink:href="#bk"/><use transform="matrix(0.05,0,0,0.05,12.950000000000001,0)" xlink:href="#bD"/></g><g id="aG"><use transform="matrix(0.05,0,0,0.05,0,0)" xlink:href="#bi"/><use transform="matrix(0.05,0,0,0.05,12.950000000000001,0)" xlink:href="#aQ"/><use transform="matrix(0.05,0,0,0.05,22.950000000000003,0)" xlink:href="#bc"/><use transform="matrix(0.05,0,0,0.05,28.900000000000002,0)" xlink:href="#bc"/><use transform="matrix(0.05,0,0,0.05,34.85,0)" xlink:href="#ba"/><use transform="matrix(0.05,0,0,0.05,44.85,0)" xlink:href="#aN"/><use transform="matrix(0.05,0,0,0.05,53.85,0)" xlink:href="#aO"/><use transform="matrix(0.05,0,0,0.05,58.85,0)" xlink:href="#aP"/><use transform="matrix(0.05,0,0,0.05,62.800000000000004,0)" xlink:href="#aQ"/><use transform="matrix(0.05,0,0,0.05,72.80000000000001,0)" xlink:href="#aM"/></g><g id="aH"><use transform="matrix(0.05,0,0,0.05,0,0)" xlink:href="#aX"/><use transform="matrix(0.05,0,0,0.05,5.95,0)" xlink:href="#bj"/><use transform="matrix(0.05,0,0,0.05,17.95,0)" xlink:href="#bk"/><use transform="matrix(0.05,0,0,0.05,30.899999999999995,0)" xlink:href="#aY"/><use transform="matrix(0.05,0,0,0.05,39.85,0)" xlink:href="#bd"/></g><g id="aI"><use transform="matrix(0.05,0,0,0.05,0,0)" xlink:href="#bk"/><use transform="matrix(0.05,0,0,0.05,12.950000000000001,0)" xlink:href="#bD"/><use transform="matrix(0.05,0,0,0.05,22.950000000000003,0)" xlink:href="#aT"/><use transform="matrix(0.05,0,0,0.05,34.95,0)" xlink:href="#aP"/><use transform="matrix(0.05,0,0,0.05,38.900000000000006,0)" xlink:href="#aR"/><use transform="matrix(0.05,0,0,0.05,48.900000000000006,0)" xlink:href="#bd"/><use transform="matrix(0.05,0,0,0.05,57.900000000000006,0)" xlink:href="#aK"/><use transform="matrix(0.05,0,0,0.05,68.85000000000001,0)" xlink:href="#aP"/><use transform="matrix(0.05,0,0,0.05,72.80000000000001,0)" xlink:href="#ba"/><use transform="matrix(0.05,0,0,0.05,82.80000000000001,0)" xlink:href="#aS"/><use transform="matrix(0.05,0,0,0.05,86.75000000000001,0)" xlink:href="#bn"/><use transform="matrix(0.05,0,0,0.05,96.75000000000001,0)" xlink:href="#bi"/><use transform="matrix(0.05,0,0,0.05,109.7,0)" xlink:href="#aQ"/><use transform="matrix(0.05,0,0,0.05,119.7,0)" xlink:href="#bc"/><use transform="matrix(0.05,0,0,0.05,125.65000000000003,0)" xlink:href="#bc"/><use transform="matrix(0.05,0,0,0.05,131.60000000000002,0)" xlink:href="#ba"/><use transform="matrix(0.05,0,0,0.05,141.60000000000002,0)" xlink:href="#aN"/><use transform="matrix(0.05,0,0,0.05,150.60000000000002,0)" xlink:href="#aO"/><use transform="matrix(0.05,0,0,0.05,155.60000000000002,0)" xlink:href="#aP"/><use transform="matrix(0.05,0,0,0.05,159.55,0)" xlink:href="#aQ"/><use transform="matrix(0.05,0,0,0.05,169.55,0)" xlink:href="#aM"/><use transform="matrix(0.05,0,0,0.05,179.55,0)" xlink:href="#be"/></g><g id="aJ"><use transform="matrix(0.05,0,0,0.05,0,0)" xlink:href="#aU"/><use transform="matrix(0.05,0,0,0.05,14,0)" xlink:href="#aM"/><use transform="matrix(0.05,0,0,0.05,24,0)" xlink:href="#bz"/><use transform="matrix(0.05,0,0,0.05,29,0)" xlink:href="#aU"/><use transform="matrix(0.05,0,0,0.05,43,0)" xlink:href="#bp"/><use transform="matrix(0.05,0,0,0.05,47.65,0)" xlink:href="#bp"/><use transform="matrix(0.05,0,0,0.05,52.650000000000006,0)" xlink:href="#bE"/></g></defs></g></svg>
